<svg id="Capa_1" enable-background="new 0 0 512 512" height="512" viewBox="0 0 512 512" width="512" xmlns="http://www.w3.org/2000/svg"><g><g><circle cx="256" cy="256" fill="#bbec6c" r="248.5"/><path d="m256 7.5c-5.04 0-10.04.168-15.006.464 130.253 7.761 233.494 115.833 233.494 248.036s-103.24 240.275-233.494 248.036c4.966.296 9.966.464 15.006.464 137.243 0 248.5-111.257 248.5-248.5s-111.257-248.5-248.5-248.5z" fill="#a2e62e"/><circle cx="256" cy="256" fill="#4fc123" r="212.109"/><path d="m256 43.891c-5.046 0-10.048.189-15.006.535 110.141 7.7 197.103 99.476 197.103 211.574 0 112.099-86.962 203.874-197.103 211.574 4.958.347 9.96.535 15.006.535 117.145 0 212.109-94.965 212.109-212.109s-94.964-212.109-212.109-212.109z" fill="#47a920"/><path d="m224.915 265.077-41.393-41.393c-7.953-7.953-20.847-7.953-28.8 0l-27.026 27.026c-7.953 7.953-7.953 20.847 0 28.8l69.242 69.242c14.35 14.35 37.617 14.35 51.967 0l135.399-135.399c7.953-7.953 7.953-20.847 0-28.8l-25.032-25.032c-7.953-7.953-20.847-7.953-28.8 0z" fill="#d1f19e"/><g fill="#bbec6c"><path d="m168.701 235.437 43.318 42.537 12.897-12.897-41.393-41.393c-7.953-7.953-20.847-7.953-28.8 0l-6.845 6.846c7.079-2.35 15.188-.728 20.823 4.907z"/><path d="m384.304 184.553-25.032-25.032c-7.953-7.953-20.847-7.953-28.8 0l-6.472 6.472c5.826-.543 11.841 1.413 16.301 5.874l13.99 12.687c7.953 7.953 7.953 20.847 0 28.8l-124.168 125.798c-8.865 8.865-21.133 12.246-32.599 10.158 14.391 13.781 37.223 13.602 51.382-.557l135.399-135.399c7.952-7.953 7.952-20.848-.001-28.801z"/></g></g><g><path d="m437.02 74.98c-48.352-48.351-112.64-74.98-181.02-74.98s-132.668 26.629-181.02 74.98-74.98 112.64-74.98 181.02 26.629 132.668 74.98 181.02 112.64 74.98 181.02 74.98 132.668-26.629 181.02-74.98 74.98-112.64 74.98-181.02-26.629-132.668-74.98-181.02zm-10.607 351.433c-45.518 45.519-106.039 70.587-170.413 70.587s-124.895-25.068-170.413-70.587-70.587-106.039-70.587-170.413 25.068-124.895 70.587-170.413 106.039-70.587 170.413-70.587 124.895 25.068 170.413 70.587 70.587 106.039 70.587 170.413-25.068 124.895-70.587 170.413z"/><path d="m411.287 100.713c-41.478-41.479-96.628-64.322-155.287-64.322s-113.809 22.844-155.287 64.322-64.322 96.628-64.322 155.287c0 52.614 18.895 103.51 53.202 143.312 2.705 3.138 7.441 3.488 10.577.784 3.138-2.704 3.489-7.439.784-10.577-31.961-37.081-49.563-84.498-49.563-133.519 0-112.822 91.787-204.609 204.609-204.609s204.609 91.787 204.609 204.609-91.787 204.609-204.609 204.609c-47.127 0-93.125-16.409-129.521-46.205-3.206-2.623-7.93-2.15-10.555 1.053-2.623 3.205-2.152 7.931 1.053 10.555 39.068 31.983 88.441 49.598 139.022 49.598 58.659 0 113.809-22.844 155.287-64.322s64.323-96.629 64.323-155.288-22.843-113.809-64.322-155.287z"/><path d="m288.593 298.458c-2.929 2.93-2.929 7.678 0 10.607 2.93 2.928 7.678 2.928 10.607 0l90.408-90.409c10.863-10.864 10.863-28.542-.001-39.406l-25.032-25.031c-5.263-5.264-12.26-8.162-19.703-8.162s-14.44 2.898-19.704 8.161l-100.253 100.253-36.089-36.09c-10.865-10.863-28.543-10.863-39.408 0l-27.026 27.026c-10.863 10.864-10.863 28.542 0 39.407l69.242 69.242c8.626 8.626 19.957 12.938 31.287 12.938 11.331 0 22.662-4.313 31.288-12.939l19.994-19.995c2.929-2.929 2.929-7.678-.001-10.606-2.928-2.928-7.677-2.929-10.606.001l-19.994 19.994c-11.403 11.405-29.959 11.403-41.36 0l-69.242-69.241c-5.016-5.017-5.016-13.178 0-18.193l27.026-27.026c5.016-5.018 13.178-5.018 18.193 0l36.089 36.089-13.554 13.555c-2.929 2.929-2.929 7.678.001 10.606 1.464 1.464 3.384 2.196 5.303 2.196s3.839-.732 5.304-2.197l124.414-124.413c2.43-2.431 5.66-3.769 9.097-3.769 3.436 0 6.666 1.338 9.097 3.769l25.032 25.032c5.016 5.016 5.016 13.177 0 18.192z"/></g></g></svg>