<?xml version="1.0"?>
<svg xmlns="http://www.w3.org/2000/svg" xmlns:xlink="http://www.w3.org/1999/xlink" xmlns:svgjs="http://svgjs.com/svgjs" version="1.1" width="512" height="512" x="0" y="0" viewBox="0 0 512 512" style="enable-background:new 0 0 512 512" xml:space="preserve" class=""><g>
<path xmlns="http://www.w3.org/2000/svg" style="" d="M245.06,171.673V28.814c-78.899,0-142.859,63.96-142.859,142.859s63.96,142.859,142.859,142.859  c45.977,0,86.862-21.735,112.992-55.474l0.014,0.011c18.711-24.158,29.854-54.474,29.854-87.395L245.06,171.673L245.06,171.673z" fill="#62d744" data-original="#ff4c4c" class=""/>
<path xmlns="http://www.w3.org/2000/svg" style="" d="M343.293,171.673c0,23.092-5.485,44.901-15.215,64.204c-20.311,40.296-59.137,69.662-105.307,76.912  c5.302,0.831,10.701,1.369,16.178,1.604c0.325,0.014,0.65,0.026,0.976,0.037c1.705,0.061,3.415,0.102,5.135,0.102  c1.346,0,2.686-0.022,4.023-0.059c0.426-0.012,0.849-0.033,1.274-0.048c0.914-0.033,1.827-0.071,2.737-0.121  c0.493-0.027,0.984-0.061,1.476-0.093c0.846-0.056,1.691-0.117,2.534-0.187c0.498-0.042,0.996-0.086,1.493-0.133  c0.856-0.08,1.709-0.17,2.56-0.265c0.461-0.052,0.923-0.102,1.383-0.158c0.947-0.116,1.89-0.244,2.832-0.378  c0.353-0.05,0.707-0.095,1.059-0.148c2.63-0.395,5.237-0.861,7.818-1.397c0.239-0.05,0.476-0.105,0.715-0.156  c1.047-0.223,2.091-0.455,3.129-0.701c0.324-0.077,0.647-0.158,0.97-0.237c0.968-0.236,1.931-0.481,2.891-0.737  c0.318-0.085,0.636-0.171,0.954-0.258c1.002-0.275,2-0.561,2.994-0.857c0.247-0.074,0.495-0.146,0.741-0.22  c1.181-0.359,2.356-0.731,3.523-1.119c0.047-0.016,0.094-0.03,0.142-0.046c3.859-1.289,7.646-2.738,11.35-4.339  c0.014-0.006,0.027-0.012,0.041-0.018c1.22-0.528,2.431-1.072,3.633-1.633c0.021-0.01,0.043-0.02,0.064-0.03  c20.748-9.689,38.782-24.219,52.656-42.134l0.014,0.011c2.296-2.965,4.477-6.024,6.539-9.168c0.058-0.088,0.116-0.176,0.174-0.265  c0.464-0.711,0.921-1.428,1.373-2.147c0.084-0.133,0.166-0.266,0.25-0.4c0.449-0.721,0.893-1.445,1.329-2.174  c0.047-0.079,0.094-0.159,0.141-0.238c1.849-3.104,3.583-6.284,5.197-9.534c0.105-0.211,0.211-0.421,0.315-0.633  c0.329-0.671,0.652-1.346,0.972-2.024c0.126-0.267,0.25-0.534,0.374-0.802c0.307-0.663,0.612-1.328,0.909-1.996  c0.117-0.262,0.23-0.525,0.345-0.788c0.977-2.232,1.898-4.494,2.763-6.784c0.104-0.275,0.211-0.548,0.313-0.823  c0.225-0.608,0.442-1.221,0.66-1.833c0.142-0.399,0.284-0.798,0.422-1.199c0.201-0.583,0.397-1.168,0.591-1.754  c0.145-0.44,0.288-0.88,0.429-1.322c0.181-0.567,0.361-1.134,0.535-1.703c0.146-0.478,0.287-0.958,0.428-1.438  c0.16-0.546,0.323-1.09,0.477-1.639c0.17-0.606,0.331-1.216,0.494-1.825c0.209-0.782,0.411-1.567,0.607-2.355  c0.157-0.633,0.315-1.265,0.464-1.901c0.114-0.486,0.22-0.974,0.329-1.462c0.131-0.586,0.26-1.173,0.383-1.762  c0.103-0.491,0.202-0.983,0.299-1.475c0.12-0.603,0.235-1.208,0.348-1.814c0.088-0.474,0.175-0.947,0.258-1.423  c0.116-0.664,0.225-1.331,0.331-1.998c0.067-0.421,0.138-0.841,0.201-1.263c0.151-1.004,0.293-2.011,0.423-3.022  c0.028-0.218,0.053-0.436,0.08-0.654c0.118-0.953,0.228-1.909,0.328-2.867c0.041-0.393,0.075-0.788,0.113-1.183  c0.07-0.729,0.136-1.458,0.194-2.19c0.034-0.432,0.066-0.865,0.096-1.298c0.05-0.709,0.095-1.42,0.135-2.132  c0.024-0.43,0.048-0.859,0.068-1.29c0.036-0.763,0.064-1.528,0.087-2.294c0.011-0.371,0.026-0.742,0.035-1.114  c0.026-1.124,0.043-2.25,0.043-3.38c0-0.011,0-0.022,0-0.032L343.293,171.673L343.293,171.673z" fill="#48a830" data-original="#f33939" class=""/>
<path xmlns="http://www.w3.org/2000/svg" style="" d="M387.919,171.673H245.06l113.005,87.395C376.776,234.91,387.919,204.595,387.919,171.673z" fill="#ffb125" data-original="#ffb125" class=""/>
<path xmlns="http://www.w3.org/2000/svg" style="" d="M343.293,171.673c0,23.092-5.485,44.901-15.214,64.204l29.987,23.191  c2.296-2.965,4.477-6.024,6.539-9.168c0.058-0.088,0.117-0.176,0.174-0.265c0.464-0.711,0.921-1.427,1.373-2.147  c0.084-0.133,0.166-0.266,0.25-0.4c0.449-0.721,0.893-1.445,1.329-2.174c0.047-0.079,0.094-0.159,0.141-0.238  c1.849-3.104,3.582-6.284,5.197-9.534c0.105-0.211,0.211-0.421,0.315-0.633c0.329-0.671,0.653-1.346,0.972-2.024  c0.126-0.267,0.25-0.534,0.374-0.802c0.308-0.663,0.612-1.328,0.909-1.996c0.117-0.262,0.23-0.525,0.345-0.788  c0.977-2.232,1.899-4.494,2.764-6.784c0.104-0.275,0.211-0.548,0.313-0.823c0.225-0.609,0.443-1.221,0.66-1.834  c0.142-0.399,0.284-0.798,0.422-1.199c0.201-0.583,0.397-1.168,0.591-1.754c0.145-0.44,0.288-0.88,0.429-1.322  c0.181-0.567,0.361-1.134,0.535-1.703c0.146-0.478,0.287-0.958,0.428-1.438c0.161-0.546,0.323-1.09,0.477-1.639  c0.17-0.606,0.331-1.216,0.494-1.825c0.209-0.782,0.411-1.567,0.607-2.355c0.157-0.633,0.315-1.265,0.464-1.901  c0.114-0.486,0.22-0.974,0.328-1.461c0.131-0.586,0.26-1.173,0.384-1.762c0.103-0.491,0.201-0.983,0.299-1.475  c0.12-0.603,0.235-1.208,0.348-1.814c0.088-0.474,0.175-0.947,0.258-1.423c0.116-0.664,0.225-1.331,0.331-1.998  c0.067-0.421,0.138-0.841,0.201-1.263c0.151-1.004,0.293-2.011,0.423-3.022c0.028-0.218,0.054-0.436,0.081-0.654  c0.118-0.953,0.228-1.909,0.328-2.867c0.041-0.393,0.075-0.788,0.113-1.183c0.069-0.729,0.136-1.458,0.194-2.19  c0.035-0.432,0.066-0.865,0.096-1.298c0.05-0.709,0.095-1.42,0.135-2.132c0.024-0.43,0.048-0.859,0.068-1.29  c0.036-0.763,0.064-1.528,0.087-2.294c0.011-0.371,0.026-0.742,0.035-1.114c0.026-1.124,0.043-2.25,0.043-3.38  c0-0.011,0.001-0.022,0.001-0.032h-44.628V171.673z" fill="#ff901d" data-original="#ff901d"/>
<path xmlns="http://www.w3.org/2000/svg" style="" d="M46.843,481.578V315.59c0-3.58,2.902-6.481,6.481-6.481h60.007c3.58,0,6.481,2.902,6.481,6.481  v165.987H46.843V481.578z" fill="#ffb125" data-original="#ffb125" class=""/>
<path xmlns="http://www.w3.org/2000/svg" style="" d="M392.189,481.578V281.767c0-3.58,2.902-6.481,6.481-6.481h60.007c3.58,0,6.481,2.902,6.481,6.481  v199.811H392.189" fill="#61aff6" data-original="#61aff6"/>
<path xmlns="http://www.w3.org/2000/svg" style="" d="M458.678,275.285H414.94c3.579,0,6.481,2.902,6.481,6.481v199.811h43.738v-199.81  C465.159,278.188,462.257,275.285,458.678,275.285z" fill="#55a2ef" data-original="#55a2ef"/>
<path xmlns="http://www.w3.org/2000/svg" style="" d="M277.074,481.578V346.692c0-3.58,2.902-6.481,6.481-6.481h60.007c3.58,0,6.481,2.902,6.481,6.481  v134.886H277.074z" fill="#21d8de" data-original="#21d8de" class=""/>
<path xmlns="http://www.w3.org/2000/svg" style="" d="M343.562,340.211h-37.257v141.367h43.738V346.692C350.043,343.112,347.142,340.211,343.562,340.211z" fill="#10c4c4" data-original="#10c4c4" class=""/>
<path xmlns="http://www.w3.org/2000/svg" style="" d="M113.332,309.109H76.075v172.469h43.738V315.59C119.813,312.011,116.911,309.109,113.332,309.109z" fill="#ff901d" data-original="#ff901d"/>
<path xmlns="http://www.w3.org/2000/svg" style="" d="M161.959,481.578v-82.941c0-3.58,2.902-6.481,6.481-6.481h60.006c3.58,0,6.481,2.902,6.481,6.481  v82.941H161.959z" fill="#ff6d3a" data-original="#ff6d3a" class=""/>
<path xmlns="http://www.w3.org/2000/svg" style="" d="M228.446,392.155h-37.257v89.422h43.738v-82.941C234.928,395.057,232.026,392.155,228.446,392.155z" fill="#ed5729" data-original="#ed5729" class=""/>
<path xmlns="http://www.w3.org/2000/svg" style="" d="M409.512,140.801C405.079,69.448,348.276,12.285,277.074,7.295v133.506H409.512z" fill="#21d8de" data-original="#21d8de" class=""/>
<path xmlns="http://www.w3.org/2000/svg" style="" d="M277.074,7.295v10.158c49.557,20.193,85.225,67.407,88.7,123.349h43.738  C405.079,69.448,348.276,12.285,277.074,7.295z" fill="#10c4c4" data-original="#10c4c4" class=""/>
<path xmlns="http://www.w3.org/2000/svg" style="" d="M486.068,504.706H25.934c-3.371,0-6.105-2.733-6.105-6.105V484.36c0-3.371,2.733-6.105,6.105-6.105  h460.134c3.371,0,6.105,2.733,6.105,6.105v14.242C492.172,501.973,489.439,504.706,486.068,504.706z" fill="#998675" data-original="#998675"/>
<path xmlns="http://www.w3.org/2000/svg" style="" d="M486.068,493.357H25.934c-3.371,0-6.105-2.733-6.105-6.105v11.35c0,3.371,2.733,6.105,6.105,6.105  h460.134c3.371,0,6.104-2.733,6.104-6.105v-11.35C492.172,490.624,489.439,493.357,486.068,493.357z" fill="#736357" data-original="#736357"/>
<path xmlns="http://www.w3.org/2000/svg" d="M245.06,321.826c46.646,0,89.816-21.134,118.512-57.993c0.086-0.1,0.179-0.193,0.261-0.299  c20.529-26.507,31.381-58.272,31.381-91.861c0-4.028-3.265-7.294-7.294-7.294H252.354V28.815c0-4.028-3.265-7.294-7.294-7.294  c-82.795,0-150.153,67.358-150.153,150.153S162.265,321.826,245.06,321.826z M237.766,36.302v135.371  c0,0.313,0.026,0.62,0.065,0.923c0.009,0.068,0.02,0.135,0.031,0.202c0.05,0.32,0.116,0.634,0.205,0.939  c0.004,0.015,0.007,0.029,0.011,0.044c0.099,0.328,0.224,0.644,0.367,0.951c0.025,0.054,0.051,0.108,0.078,0.161  c0.151,0.305,0.316,0.602,0.506,0.881c0.008,0.012,0.019,0.024,0.027,0.036c0.186,0.269,0.393,0.522,0.613,0.763  c0.044,0.048,0.086,0.097,0.132,0.145c0.233,0.243,0.482,0.469,0.747,0.678c0.018,0.014,0.033,0.032,0.051,0.046l47.096,36.423  c3.186,2.465,7.768,1.88,10.231-1.307c2.465-3.187,1.879-7.768-1.308-10.232l-30.204-23.359h114.022  c-1.318,25.198-9.468,49.061-23.825,69.756l-27.895-21.573c-3.184-2.465-7.767-1.879-10.231,1.307  c-2.465,3.187-1.88,7.768,1.308,10.232l27.868,21.552c-25.817,29.956-62.808,46.997-102.6,46.997  c-74.751,0-135.565-60.814-135.565-135.565C109.495,99.368,166.392,40.102,237.766,36.302z" fill="#000000" data-original="#000000" class=""/>
<path xmlns="http://www.w3.org/2000/svg" d="M277.073,148.096h132.438c2.013,0,3.937-0.832,5.315-2.299c1.379-1.467,2.09-3.438,1.965-5.447  C412.147,65.584,352.301,5.255,277.583,0.019c-2.033-0.149-4.005,0.562-5.484,1.941c-1.48,1.379-2.32,3.312-2.32,5.335v133.506  C269.78,144.83,273.045,148.096,277.073,148.096z M284.367,15.346c61.212,7.877,109.795,56.873,117.159,118.162H284.367V15.346z" fill="#000000" data-original="#000000" class=""/>
<path xmlns="http://www.w3.org/2000/svg" d="M486.068,470.962h-13.615V281.767c0-7.596-6.179-13.775-13.775-13.775h-60.007c-7.596,0-13.775,6.179-13.775,13.775v189.195  h-27.558v-124.27c0-7.595-6.18-13.775-13.776-13.775h-60.006c-7.596,0-13.776,6.179-13.776,13.775v124.27h-27.559v-72.325  c0-7.596-6.18-13.775-13.776-13.775H168.44c-7.596,0-13.775,6.179-13.775,13.775v72.325h-27.559V315.59  c0-7.596-6.179-13.775-13.775-13.775H53.324c-7.596,0-13.775,6.179-13.775,13.775v75.926c0,4.028,3.265,7.294,7.294,7.294  s7.294-3.266,7.294-7.294v-75.113h58.381v154.559H54.137v-39.573c0-4.028-3.265-7.294-7.294-7.294s-7.294,3.266-7.294,7.294v39.573  H25.934c-7.388,0-13.399,6.01-13.399,13.398v14.242c0,7.388,6.011,13.398,13.399,13.398h460.133c7.388,0,13.399-6.01,13.399-13.398  V484.36C499.466,476.972,493.456,470.962,486.068,470.962z M399.483,282.579h58.381v188.383h-58.381V282.579z M284.367,347.505  h58.382v123.457h-58.382V347.505z M169.253,399.449h58.38v71.513h-58.38V399.449z M484.879,497.412H27.123V485.55h457.755  L484.879,497.412L484.879,497.412z" fill="#000000" data-original="#000000" class=""/>
<g xmlns="http://www.w3.org/2000/svg">
</g>
<g xmlns="http://www.w3.org/2000/svg">
</g>
<g xmlns="http://www.w3.org/2000/svg">
</g>
<g xmlns="http://www.w3.org/2000/svg">
</g>
<g xmlns="http://www.w3.org/2000/svg">
</g>
<g xmlns="http://www.w3.org/2000/svg">
</g>
<g xmlns="http://www.w3.org/2000/svg">
</g>
<g xmlns="http://www.w3.org/2000/svg">
</g>
<g xmlns="http://www.w3.org/2000/svg">
</g>
<g xmlns="http://www.w3.org/2000/svg">
</g>
<g xmlns="http://www.w3.org/2000/svg">
</g>
<g xmlns="http://www.w3.org/2000/svg">
</g>
<g xmlns="http://www.w3.org/2000/svg">
</g>
<g xmlns="http://www.w3.org/2000/svg">
</g>
<g xmlns="http://www.w3.org/2000/svg">
</g>
</g></svg>
