<?xml version="1.0"?>
<svg xmlns="http://www.w3.org/2000/svg" xmlns:xlink="http://www.w3.org/1999/xlink" xmlns:svgjs="http://svgjs.com/svgjs" version="1.1" width="512" height="512" x="0" y="0" viewBox="0 0 512 512" style="enable-background:new 0 0 512 512" xml:space="preserve" class=""><g><g xmlns="http://www.w3.org/2000/svg"><g><path d="m10 501.999s-.202-59.667 64-100c61.307-38.515 15-83.667 72-127 0 0-8.549-59.457 14.451-105.457l20.605-39.692c2.802-32.287 3.944-53.016 35.548-98.559 0 0 17.396-21.293 48.396-21.293 28.167 0 68 22 72 81 0 0 56.91 21.144 73 194 12.333 132.5 44.175 131.788 71 165 21 26 21 52 21 52h-492z" fill="#dd9f68" data-original="#ddb9b6" style=""/><g fill="#a7bdcd"><circle cx="260.28" cy="360.584" r="20" fill="#b1b1b1" data-original="#a7bdcd" style="" class=""/><ellipse cx="229.524" cy="406.181" rx="35" ry="20" transform="matrix(.559 -.829 .829 .559 -235.564 369.332)" fill="#b1b1b1" data-original="#a7bdcd" style="" class=""/><circle cx="282.647" cy="327.423" r="20" fill="#b1b1b1" data-original="#a7bdcd" style="" class=""/><circle cx="422.413" cy="219.508" r="20" fill="#b1b1b1" data-original="#a7bdcd" style="" class=""/><ellipse cx="432.907" cy="273.497" rx="20" ry="35" transform="matrix(.982 -.191 .191 .982 -44.232 87.628)" fill="#b1b1b1" data-original="#a7bdcd" style="" class=""/><circle cx="414.78" cy="180.243" r="20" fill="#b1b1b1" data-original="#a7bdcd" style="" class=""/><circle cx="190.771" cy="109.195" r="20" fill="#b1b1b1" data-original="#a7bdcd" style="" class=""/><ellipse cx="223.099" cy="153.691" rx="20" ry="35" transform="matrix(.809 -.588 .588 .809 -47.729 160.487)" fill="#b1b1b1" data-original="#a7bdcd" style="" class=""/><circle cx="167.26" cy="76.835" r="20" fill="#b1b1b1" data-original="#a7bdcd" style="" class=""/></g></g><g><path d="m508.9 482.659c-1.7-6.19-4.02-12.32-6.91-18.22-3.56-7.29-8.01-14.26-13.21-20.72-5.99-7.4-11.94-13.019-17.71-18.46-2.14-2.02-4.17-3.94-6.16-5.91-1.88-1.85-4.38-2.87-7.02-2.87-2.7 0-5.23 1.061-7.12 2.98-1.88 1.899-2.9 4.42-2.88 7.09s1.08 5.18 2.98 7.05c2.23 2.181 4.41 4.24 6.51 6.24 5.62 5.31 10.92 10.33 15.84 16.44 9.75 12.069 14.35 24.099 16.5 32.069.32 1.21.62 2.44.89 3.65h-20.892c-4.037-4.793-11.641-13.47-20.81-22.23-19.558-18.686-35.556-27.77-48.908-27.77-13.55 0-28.846 9.2-46.762 28.125-8.065 8.52-14.669 16.964-18.334 21.875h-261.687c4.936-6.214 11.027-13.608 17.592-20.951 28.974-32.407 40.229-34.049 42.191-34.049 14.101 0 26.562 21.444 29.809 28.939 2.175 5.076 8.054 7.43 13.13 5.252 5.077-2.176 7.428-8.055 5.252-13.131-1.801-4.202-18.456-41.06-48.191-41.06-8.897 0-24.508 4.233-57.208 40.838-12.367 13.843-22.87 27.51-27.844 34.162h-26.828c.94-5.36 2.91-13.72 6.94-23.24 10-23.57 27.25-43.179 51.26-58.29 7.94-4.96 14.77-10.47 20.32-16.36 5.11-5.44 9.29-11.37 12.4-17.63 4.77-9.54 6.86-19.12 8.14-26.4.58-3.34 1.07-6.62 1.54-9.78 1.34-8.88 2.59-17.27 5.43-25.14 4.62-12.74 12.07-22.37 24.9-32.2 2.881-2.193 4.342-5.892 3.836-9.472.007.046.017.104-.003-.035-.23-1.8-1.443-11.693-1.443-25.233-.02-10.675.767-27.65 4.846-45.343l2.903 10.507c1.225 4.433 5.248 7.339 9.633 7.339.882 0 1.778-.117 2.669-.364 5.323-1.471 8.447-6.979 6.976-12.302l-10.331-37.393-.003-.001 15.836-30.501c.035.957.094 1.924.202 2.91 1.016 9.271 5.157 19.305 11.658 28.254 10.708 14.737 24.804 23.079 37.033 23.078 4.993 0 9.677-1.392 13.688-4.306 7.243-5.262 10.698-14.661 9.478-25.785-1.016-9.271-5.157-19.305-11.658-28.254-6.502-8.948-14.765-15.987-23.268-19.818-.903-.407-1.804-.761-2.702-1.09l33.9-5.633 32.37 21.38c1.697 1.121 3.61 1.657 5.502 1.657 3.346 0 6.626-1.676 8.527-4.761 2.86-4.642 1.276-10.755-3.274-13.76l-35.379-23.367c-2.106-1.391-4.662-1.933-7.15-1.521l-26.592 4.419 13.81-10.034 19.768-2.494c5.462-.689 9.609-5.552 9.021-11.025-.599-5.579-5.656-9.561-11.195-8.859l-22.647 2.857c-1.672.211-3.263.841-4.626 1.831l-14.27 10.368 11.39-21.941c1.178-2.271 1.442-4.906.737-7.365l-3.61-12.584c1.831-1.635 4.391-3.692 7.599-5.697 9.12-5.719 19.12-8.619 29.72-8.619h.09c13.27 0 27.55 5.88 38.2 15.73 14.06 13.04 22.05 31.86 23.73 55.949.26 3.83 2.955 7.325 6.535 8.735 3.44 1.83 15.965 9.895 29.595 35.425 7.136 13.388 15.539 33.603 22.865 63.15l-21.758-6.061-20.301-33.056c-2.891-4.706-9.048-6.176-13.755-3.288-4.706 2.891-6.178 9.048-3.288 13.755l22.356 36.403c1.321 2.151 3.407 3.723 5.838 4.4l23.814 6.634-17.314 3.365c-1.654.322-3.2 1.056-4.495 2.135l-17.26 14.387c-4.227 3.523-5.121 9.856-1.682 14.152 1.982 2.477 4.888 3.757 7.817 3.757 2.257 0 4.528-.761 6.397-2.319l15.561-12.97 16.756-3.257-21.368 16.435c-2.001 1.539-3.346 3.778-3.765 6.267l-7.092 42.127c-.676 4.017 1.599 7.916 5.026 10.053 2.448 1.527 5.444 1.791 8.129.734 3.252-1.28 5.984-3.995 6.568-7.468l6.44-38.255 17.64-13.568c1.413 10.166 2.683 20.994 3.76 32.576 2.3 24.62 5.28 45.33 9.13 63.31.99 4.58 5.09 7.91 9.77 7.91.71 0 1.41-.08 2.11-.23 2.61-.56 4.85-2.1 6.3-4.34 1.45-2.25 1.94-4.92 1.38-7.53-2.025-9.461-3.841-20.033-5.43-31.61 4.468 3.027 9.287 4.627 14.086 4.627 1.374 0 2.747-.13 4.107-.395 8.789-1.708 15.892-8.766 19.488-19.364 2.997-8.832 3.485-19.675 1.375-30.532-2.11-10.858-6.625-20.729-12.712-27.795-.923-1.072-1.878-2.069-2.858-2.991 4.481-6.643 6.605-15.337 5.076-23.203-1.464-7.531-5.646-13.855-11.327-18.161 3.803-6.351 5.117-13.782 3.694-21.104-1.422-7.318-5.42-13.71-11.319-18.174 3.797-6.349 5.109-13.773 3.686-21.091-1.054-5.421-6.301-8.961-11.725-7.908-5.394 1.049-8.926 6.25-7.924 11.642.249 1.342.353 2.724.032 4.051-1.001 4.133-4.081 7.009-7.924 7.756-3.667.714-7.414-.633-9.901-3.755-.971-1.22-1.528-2.7-1.839-4.228-1.092-5.377-6.78-8.766-12.175-7.719-2.893-6.104-5.932-11.81-9.112-17.083-5.19-8.63-10.79-16.11-16.64-22.24-4.3-4.49-8.63-8.17-12.88-10.94-1.46-13.77-4.94-26.4-10.35-37.539-4.95-10.22-11.46-19.06-19.32-26.27-7.61-6.99-16.25-12.37-25.67-16-8.51-3.27-17.56-5.01-26.17-5.02h-.02c-18.48 0-32.62 6.66-41.24 12.25-.695.45-1.356.899-2.002 1.347l-1.731-6.036c-1.518-5.292-6.961-8.644-12.28-7.223-5.42 1.448-8.576 7.051-7.036 12.42l4.866 16.966c-6.558 9.693-11.876 18.507-16.21 26.818-4.304-4.69-9.854-7.743-15.772-9.015.706-6.865-.93-13.994-5.124-20.075-3.164-4.588-9.612-6.131-14.199-2.964-4.722 3.261-5.745 9.806-2.231 14.353 1.877 2.429 2.613 5.598 1.521 8.467-2.314 6.076-8.302 8.561-13.646 6.407-1.763-.711-3.209-2.005-4.357-3.521-3.429-4.531-10.01-5.338-14.452-1.579-4.02 3.402-4.404 9.828-1.218 14.022 4.366 5.748 10.536 9.661 17.563 11.165-.725 7.091 1.047 14.462 5.557 20.668 3.427 4.717 8.045 8.25 13.353 10.311l-29.511 4.904-32.37-21.379c-4.791-3.164-11.308-1.669-14.203 3.398-2.643 4.626-.977 10.544 3.468 13.48l35.359 23.353c1.645 1.086 3.563 1.656 5.511 1.656.546 0 26.026-4.188 26.026-4.188l-14.271 10.368c-1.363.99-2.454 2.309-3.171 3.834l-9.585 20.378c-2.208 4.695-.687 10.448 3.77 13.106 1.633.974 3.404 1.429 5.142 1.429 3.754 0 7.353-2.125 9.056-5.747l8.622-18.33 13.817-10.037-12.43 23.932-.06.13c-11.26 22.62-17 50.6-17.06 83.149 0 9.66.54 17.5 1 22.4-6.09 5.09-11.36 10.6-15.68 16.38-3.93 5.27-7.18 10.93-9.65 16.81-4 9.43-5.8 18.46-7.15 26.81-.32 2.07-.63 4.11-.92 6.08-1.55 10.35-2.88 19.29-6.39 27.55-5.01 11.71-13.08 20.469-26.98 29.28-35.33 22.16-52.06 50.01-59.88 69.48-8.24 20.46-8.78 36.07-8.8 38.99 0 2.63 1.07 5.21 2.93 7.069 1.86 1.86 4.44 2.931 7.07 2.931h492c2.63 0 5.21-1.07 7.07-2.931 1.86-1.859 2.93-4.439 2.93-7.069v-.07c-.03-2.001-.35-9.281-3.1-19.27zm-74.409-229.626c3.796 4.406 6.796 11.17 8.232 18.557 1.436 7.387 1.188 14.782-.681 20.29-1.325 3.906-3.191 5.93-4.365 6.158-1.17.234-3.662-.949-6.354-4.075-3.796-4.406-6.796-11.17-8.232-18.557-3.099-15.941 2.351-25.909 5.199-26.463 1.266.001 3.724 1.215 6.201 4.09zm-2.262-35.432c1.052 5.413-2.495 10.673-7.908 11.725-2.624.509-5.286-.032-7.5-1.526s-3.715-3.76-4.224-6.382c-1.052-5.413 2.495-10.672 7.908-11.724.642-.125 1.281-.185 1.912-.185 4.687-.001 8.885 3.322 9.812 8.092zm-19.357-47.173c.642-.125 1.281-.185 1.912-.185 4.688 0 8.885 3.322 9.812 8.093.51 2.622-.032 5.286-1.525 7.5s-3.76 3.715-6.382 4.224c-2.622.511-5.286-.032-7.5-1.526s-3.715-3.76-4.224-6.382c-1.053-5.412 2.494-10.672 7.907-11.724zm-204.467-36.961c.375-.272 1.02-.437 1.888-.437 1.368 0 3.292.409 5.592 1.445 5.302 2.389 10.88 7.251 15.304 13.339s7.324 12.896 7.958 18.677c.45 4.1-.386 6.723-1.353 7.426-2.349 1.708-13.24-1.21-22.785-14.347-4.424-6.088-7.324-12.896-7.958-18.677-.449-4.1.387-6.723 1.354-7.426zm-27.511-25.834c.418-2.638 1.838-4.956 3.999-6.526 1.727-1.255 3.762-1.913 5.857-1.913.526 0 1.056.042 1.585.125 2.637.418 4.954 1.837 6.524 3.997l.002.002c.001.001.002.002.002.003 3.238 4.461 2.246 10.725-2.214 13.965-4.459 3.24-10.723 2.25-13.966-2.209-.001-.001-.001-.002-.002-.003s-.002-.002-.003-.003c-1.568-2.16-2.202-4.801-1.784-7.438zm-21.725-24.919c-3.241-4.461-2.249-10.727 2.212-13.968 1.771-1.287 3.826-1.906 5.864-1.906 3.095 0 6.149 1.429 8.104 4.119 1.57 2.161 2.205 4.804 1.787 7.442s-1.838 4.956-4 6.526c-2.161 1.57-4.805 2.205-7.442 1.787s-4.955-1.839-6.525-4zm201.231 409.285c13.098-15.323 29.355-30 39.6-30 10.379 0 28.171 14.627 42.924 30z" fill="#000000" data-original="#000000" style=""/><path d="m432.24 379.969c-1.42 0-2.79.3-4.09.88-2.44 1.09-4.3 3.07-5.25 5.57-.95 2.49-.88 5.21.22 7.65 1.61 3.59 5.19 5.91 9.13 5.91 1.41 0 2.79-.3 4.08-.88 5.03-2.26 7.29-8.19 5.04-13.22-1.62-3.59-5.2-5.91-9.13-5.91z" fill="#000000" data-original="#000000" style=""/><path d="m332.597 377.412 34.803-24.774c4.499-3.203 5.55-9.447 2.348-13.946-3.204-4.5-9.448-5.549-13.946-2.348l-31.604 22.497-29.664-3.871c5.233-2.246 9.724-5.938 12.984-10.771 4.172-6.185 5.865-13.539 4.845-20.872 6.911-1.744 13.232-5.929 17.522-12.29 3.088-4.579 1.88-10.794-2.699-13.882s-10.794-1.88-13.882 2.699c-1.494 2.214-3.76 3.714-6.382 4.224-2.622.509-5.286-.032-7.5-1.526-4.571-3.083-5.782-9.311-2.698-13.882 3.088-4.579 1.88-10.794-2.699-13.882-4.58-3.089-10.795-1.879-13.882 2.699-4.29 6.36-5.804 13.789-4.832 20.85-7.181 1.802-13.363 6.126-17.536 12.312-3.26 4.833-5 10.38-5.123 16.073l-14.701-26.053 9.019-37.729c1.284-5.372-2.03-10.767-7.401-12.051-5.367-1.279-10.767 2.03-12.051 7.401l-9.932 41.549c-.587 2.455-.224 5.041 1.017 7.239l12.149 21.53-14.624-9.864c-1.397-.942-3.009-1.516-4.688-1.668l-22.731-2.064c-5.496-.496-10.364 3.555-10.863 9.055s3.554 10.364 9.055 10.863l20.173 1.832 14.152 9.546-26.731-3.488c-2.502-.328-5.037.305-7.093 1.769l-34.802 24.771c-4.499 3.203-5.55 9.447-2.348 13.946 1.951 2.741 5.029 4.202 8.155 4.202 2.006 0 4.032-.603 5.791-1.854l31.604-22.497 33.918 4.426c-8.939 3.671-17.898 11.193-25.068 21.822-14.345 21.269-14.471 44.519-.292 54.083 3.857 2.602 8.254 3.842 12.904 3.842 12.444 0 26.687-8.89 37.131-24.373 7.169-10.629 10.787-21.754 10.842-31.417l16.81 29.79-9.019 37.73c-1.284 5.372 2.03 10.768 7.401 12.051.781.188 1.563.276 2.333.276 4.521 0 8.621-3.087 9.718-7.677l9.932-41.55c.587-2.455.224-5.041-1.017-7.239l-13.248-23.478 14.153 9.546 9.256 18.019c1.772 3.45 5.273 5.433 8.903 5.433 1.538 0 3.099-.355 4.561-1.106 4.913-2.524 6.849-8.553 4.326-13.465l-10.43-20.303c-.77-1.499-1.906-2.779-3.303-3.721l-14.623-9.864s25.377 3.283 25.807 3.283c2.069 0 4.098-.642 5.8-1.853zm-94.783 34.361c-9.081 13.463-19.865 16.753-22.271 15.135-2.406-1.623-3.391-12.855 5.69-26.318 7.696-11.41 16.613-15.515 20.619-15.515.721 0 1.284.133 1.651.381 2.407 1.622 3.393 12.854-5.689 26.317zm30.756-45.596c-1.494 2.214-3.76 3.714-6.382 4.224-2.623.509-5.286-.033-7.5-1.526-2.214-1.494-3.715-3.76-4.224-6.382-.51-2.622.032-5.286 1.526-7.5s3.76-3.715 6.382-4.225c.643-.125 1.288-.187 1.929-.187 1.972 0 3.9.585 5.571 1.713 4.571 3.084 5.781 9.311 2.698 13.883zm22.368-33.162c-1.494 2.214-3.76 3.714-6.382 4.224-2.622.509-5.286-.032-7.5-1.526s-3.714-3.76-4.224-6.382.032-5.286 1.526-7.5 3.76-3.714 6.382-4.224c.643-.125 1.288-.187 1.929-.187 1.972 0 3.899.585 5.571 1.713 2.214 1.494 3.714 3.76 4.224 6.382s-.033 5.286-1.526 7.5z" fill="#000000" data-original="#000000" style=""/><circle cx="289" cy="214.999" r="10" fill="#000000" data-original="#000000" style=""/><circle cx="378" cy="401.999" r="10" fill="#000000" data-original="#000000" style=""/><circle cx="192" cy="261.999" r="10" fill="#000000" data-original="#000000" style=""/></g></g></g></svg>
