<?xml version="1.0"?>
<svg xmlns="http://www.w3.org/2000/svg" xmlns:xlink="http://www.w3.org/1999/xlink" xmlns:svgjs="http://svgjs.com/svgjs" version="1.1" width="512" height="512" x="0" y="0" viewBox="0 0 512 512" style="enable-background:new 0 0 512 512" xml:space="preserve" class=""><g><path xmlns="http://www.w3.org/2000/svg" d="m91 270-35.625 30-55.375-30 61-90 30 30zm0 0" fill="#3c9725" data-original="#47568c" class=""/><path xmlns="http://www.w3.org/2000/svg" d="m421 270 35.625 30 55.375-30-61-90-30 30zm0 0" fill="#3c9725" data-original="#2c3b73" class=""/><path xmlns="http://www.w3.org/2000/svg" d="m391 0v165h-270v-135h126.898438l8.101562-12 12-18zm0 0" fill="#e3ddc5" data-original="#ffda2d" class=""/><path xmlns="http://www.w3.org/2000/svg" d="m391 0v165h-135v-147l12-18zm0 0" fill="#c7bfa8" data-original="#fdbf00" class=""/><path xmlns="http://www.w3.org/2000/svg" d="m421 60v165h-330v-135h186.898438l20.101562-30zm0 0" fill="#c7bfa8" data-original="#fdbf00" class=""/><path xmlns="http://www.w3.org/2000/svg" d="m421 60v165h-165v-135h21.898438l20.101562-30zm0 0" fill="#796d5d" data-original="#ff9100" class=""/><path xmlns="http://www.w3.org/2000/svg" d="m451 120v225h-390v-195h246.898438l20.101562-30zm0 0" fill="#e3ddc5" data-original="#ffda2d" class=""/><path xmlns="http://www.w3.org/2000/svg" d="m451 120v225h-195v-195h51.898438l20.101562-30zm0 0" fill="#c7bfa8" data-original="#fdbf00" class=""/><path xmlns="http://www.w3.org/2000/svg" d="m512 270v242h-512v-242h196.902344l9.898437 30h98.398438l9.898437-30zm0 0" fill="#62d744" data-original="#61729b" class=""/><path xmlns="http://www.w3.org/2000/svg" d="m512 270v242h-256v-212h49.199219l9.898437-30zm0 0" fill="#3c9725" data-original="#47568c" class=""/><path xmlns="http://www.w3.org/2000/svg" d="m181 360h150v30h-150zm0 0" fill="#e3ddc5" data-original="#ffda2d" class=""/><path xmlns="http://www.w3.org/2000/svg" d="m256 360h75v30h-75zm0 0" fill="#c7bfa8" data-original="#fdbf00" class=""/></g></svg>
