<?xml version="1.0"?>
<svg xmlns="http://www.w3.org/2000/svg" xmlns:xlink="http://www.w3.org/1999/xlink" xmlns:svgjs="http://svgjs.com/svgjs" version="1.1" width="512" height="512" x="0" y="0" viewBox="0 0 381.669 381.669" style="enable-background:new 0 0 512 512" xml:space="preserve" class=""><g>
<g xmlns="http://www.w3.org/2000/svg">
	<polygon points="106.615,127.135 211.979,127.135 211.979,68.462 106.615,68.462 106.615,28.398 0,97.799 106.615,167.2  " fill="#1f1f1f" data-original="#000000" style="" class=""/>
	<path d="M302.485,163.374c36.158,0,65.575-29.417,65.575-65.575s-29.417-65.575-65.575-65.575S236.91,61.641,236.91,97.799   S266.327,163.374,302.485,163.374z" fill="#1f1f1f" data-original="#000000" style="" class=""/>
	<polygon points="381.669,283.87 275.054,214.469 275.054,254.534 169.69,254.534 169.69,313.207 275.054,313.207 275.054,353.271     " fill="#1f1f1f" data-original="#000000" style="" class=""/>
	<path d="M79.184,218.295c-36.158,0-65.575,29.417-65.575,65.575s29.417,65.575,65.575,65.575s65.575-29.417,65.575-65.575   S115.342,218.295,79.184,218.295z" fill="#1f1f1f" data-original="#000000" style="" class=""/>
</g>
<g xmlns="http://www.w3.org/2000/svg">
</g>
<g xmlns="http://www.w3.org/2000/svg">
</g>
<g xmlns="http://www.w3.org/2000/svg">
</g>
<g xmlns="http://www.w3.org/2000/svg">
</g>
<g xmlns="http://www.w3.org/2000/svg">
</g>
<g xmlns="http://www.w3.org/2000/svg">
</g>
<g xmlns="http://www.w3.org/2000/svg">
</g>
<g xmlns="http://www.w3.org/2000/svg">
</g>
<g xmlns="http://www.w3.org/2000/svg">
</g>
<g xmlns="http://www.w3.org/2000/svg">
</g>
<g xmlns="http://www.w3.org/2000/svg">
</g>
<g xmlns="http://www.w3.org/2000/svg">
</g>
<g xmlns="http://www.w3.org/2000/svg">
</g>
<g xmlns="http://www.w3.org/2000/svg">
</g>
<g xmlns="http://www.w3.org/2000/svg">
</g>
</g></svg>
