<svg id="svg51" height="512" viewBox="0 0 32 32" width="512" xmlns="http://www.w3.org/2000/svg" xmlns:svg="http://www.w3.org/2000/svg"><g id="_x30_8_bell"><g id="g31"><circle id="circle9" cx="16" cy="28" fill="#ff6f00" r="3"/><g id="g13"><path id="path11" d="m18 7.25h-4c-.552 0-1-.448-1-1v-2.25c0-1.654 1.346-3 3-3 .811 0 1.565.317 2.126.892.558.542.874 1.297.874 2.108v2.25c0 .552-.447 1-1 1zm-3-2h2v-1.25c0-.267-.102-.513-.288-.694-.199-.204-.445-.306-.712-.306-.551 0-1 .449-1 1z" fill="#607d8b"/></g><path id="path15" d="m25.948 26.684-.948-2.846v-9.838c0-4.962-4.037-9-9-9-4.962 0-9 4.038-9 9v9.838l-.949 2.846c-.102.305-.05.64.138.901s.49.415.811.415h18c.321 0 .623-.154.812-.416.187-.26.239-.595.136-.9z" fill="#ffc107"/><path id="path17" d="m25.81 27.58c-.19.27-.49.42-.81.42h-18c-.32 0-.62-.15-.81-.42-.19-.26-.24-.59-.14-.9l.7-2.08c7.57-2.48 13.71-8.11 16.89-15.34.86 1.38 1.36 3 1.36 4.74v9.84l.95 2.84c.1.31.05.64-.14.9z" fill="#ffa000"/><g id="g21"><path id="path19" d="m21 15c-.553 0-1-.448-1-1 0-2.206-1.794-4-4-4-.552 0-1-.448-1-1s.448-1 1-1c3.309 0 6 2.691 6 6 0 .552-.447 1-1 1z" fill="#ffa000"/></g><g id="g25"><path id="path23" d="m22 14c0 .55-.45 1-1 1-.23 0-.44-.08-.61-.21.53-.68 1.011-1.39 1.46-2.13.1.43.15.88.15 1.34z" fill="#ff6f00"/></g><g id="g29"><path id="path27" d="m21 25h-10c-.552 0-1-.448-1-1s.448-1 1-1h10c.553 0 1 .448 1 1s-.447 1-1 1z" fill="#ff6f00"/></g></g></g></svg>