<?xml version="1.0"?>
<svg xmlns="http://www.w3.org/2000/svg" xmlns:xlink="http://www.w3.org/1999/xlink" xmlns:svgjs="http://svgjs.com/svgjs" version="1.1" width="512" height="512" x="0" y="0" viewBox="0 0 512 512" style="enable-background:new 0 0 512 512" xml:space="preserve" class=""><g><path xmlns="http://www.w3.org/2000/svg" d="M256,24a64,64,0,1,0,64,64A64,64,0,0,0,256,24Zm0,96a32,32,0,1,1,32-32A32,32,0,0,1,256,120Z" style="" fill="#1e9300" data-original="#fcb442" class=""/><path xmlns="http://www.w3.org/2000/svg" d="M440,440H72s-8-48,32-80,40-120,40-120c0-136.24,96-136,112-136s112-.24,112,136c0,0,0,88,40,120S440,440,440,440Z" style="" fill="#67e402" data-original="#fdd14b" class=""/><path xmlns="http://www.w3.org/2000/svg" d="M304,440a48,48,0,0,1-96,0Z" style="" fill="#1e9300" data-original="#fcb442" class=""/><path xmlns="http://www.w3.org/2000/svg" d="M152,157.9c-10.614,22.011-16,49.634-16,82.1a278.8,278.8,0,0,1-4.907,46.755c-6.187,31.987-17.284,55.156-32.091,67-43.169,34.535-35.252,85.413-34.893,87.562A8,8,0,0,0,72,448H200.581a55.992,55.992,0,0,0,110.838,0H440a8,8,0,0,0,7.891-6.685c.359-2.149,8.276-53.027-34.893-87.562-14.807-11.845-25.9-35.014-32.091-67A278.81,278.81,0,0,1,376,240c0-32.468-5.382-60.091-16-82.1-8.828-18.307-21.307-32.875-37.085-43.32a72,72,0,1,0-133.838,0C173.3,125.023,160.824,139.591,152,157.9ZM256,480a40.068,40.068,0,0,1-39.195-32H295.2A40.068,40.068,0,0,1,256,480Zm0-448a56.008,56.008,0,0,1,52.778,74.731,110.562,110.562,0,0,0-15.013-5.59,40,40,0,1,0-75.527,0,110.74,110.74,0,0,0-15.016,5.591A56.008,56.008,0,0,1,256,32ZM234.03,97.638a24,24,0,1,1,43.946,0A143.325,143.325,0,0,0,256.084,96h-.172A143.2,143.2,0,0,0,234.03,97.638ZM198.248,127.69c15.893-10.412,35.3-15.691,57.668-15.69h.168c22.373,0,41.775,5.278,57.668,15.69C344.44,147.8,360,185.582,360,240c0,3.75.489,92.236,43,126.247A78.376,78.376,0,0,1,419.38,384H336a8,8,0,0,0,0,16h91.515a85.538,85.538,0,0,1,5.149,32H79.336a85.538,85.538,0,0,1,5.149-32H304a8,8,0,0,0,0-16H92.62A78.376,78.376,0,0,1,109,366.247c42.513-34.011,43-122.5,43-126.247C152,185.582,167.56,147.8,198.248,127.69Z" fill="#000000" data-original="#000000" style="" class=""/><path xmlns="http://www.w3.org/2000/svg" d="M163.672,352a8,8,0,0,1-7.312-11.237c5.964-13.489,10.7-29.207,14.064-46.722A316.608,316.608,0,0,0,176,240c0-45.753,11.879-76.765,35.309-92.173a8,8,0,1,1,8.792,13.367C201.455,173.458,192,199.972,192,240a334.637,334.637,0,0,1-5.864,57.064c-3.595,18.7-8.691,35.58-15.143,50.171A8,8,0,0,1,163.672,352Z" fill="#000000" data-original="#000000" style="" class=""/></g></svg>
