<svg id="Capa_1" enable-background="new 0 0 512.002 512.002" height="512" viewBox="0 0 512.002 512.002" width="512" xmlns="http://www.w3.org/2000/svg"><g><g><g><path d="m256.08 121.851c-4.142 0-7.5-3.357-7.5-7.5v-24.334c0-4.143 3.358-7.5 7.5-7.5s7.5 3.357 7.5 7.5v24.334c0 4.142-3.358 7.5-7.5 7.5z" fill="#e8f9fc"/></g><path d="m240.914 194.818c3.996-3.7 9.324-5.975 15.167-5.975s11.171 2.275 15.167 5.975c1.457 1.349 3.243 2.221 5.124 2.598v-69.17c0-9.668-7.838-17.506-17.506-17.506h-5.569c-9.668 0-17.506 7.838-17.506 17.506v69.173c1.851-.368 3.632-1.222 5.123-2.601z" fill="#00d2fc"/><g><path d="m256.08 128.246c0-7.035 4.159-13.085 10.145-15.867-2.24-1.041-4.728-1.639-7.361-1.639h-5.569c-9.668 0-17.506 7.838-17.506 17.506v69.173c1.852-.367 3.634-1.221 5.124-2.601 3.996-3.7 9.323-5.975 15.166-5.975v-60.597z" fill="#00c2fb"/></g><path d="m62.781 303.517h386.598v94.333h-386.598z" fill="#ffb640"/><path d="m62.781 303.517h59.888v94.333h-59.888z" fill="#ffa90f"/><path d="m90.294 252.184h329.5v55.14h-329.5z" fill="#fee17d"/><path d="m90.294 252.184h32.375v55.14h-32.375z" fill="#ffce65"/><path d="m62.781 395.252v50.859c0 8.287 6.718 16.005 15.005 16.005h356.588c8.287 0 15.005-7.718 15.005-16.005v-50.859z" fill="#fee17d"/><path d="m122.669 395.252h-59.888v50.859c0 8.287 6.718 16.005 15.005 16.005h44.883z" fill="#ffce65"/><path d="m474.685 461.117h-437.209c-2.711 0-4.909 2.198-4.909 4.909 0 21.337 17.297 38.634 38.634 38.634h369.76c21.337 0 38.634-17.297 38.634-38.634-.001-2.711-2.199-4.909-4.91-4.909z" fill="#e8f9fc"/><path d="m111.576 466.026c0-2.711 2.198-4.909 4.909-4.909h-79.01c-2.711 0-4.909 2.198-4.909 4.909 0 21.337 17.297 38.634 38.634 38.634h79.009c-21.336 0-38.633-17.297-38.633-38.634z" fill="#d9e7ec"/><path d="m437.874 186.979c-6.811-.749-13.101 1.618-17.659 5.839-4.145 3.838-10.531 3.668-14.492 0-3.996-3.7-9.324-5.975-15.167-5.975s-11.17 2.275-15.167 5.975c-4.146 3.839-10.531 3.668-14.492 0-3.996-3.7-9.324-5.975-15.167-5.975s-11.17 2.275-15.167 5.975c-4.146 3.839-10.531 3.668-14.492 0-3.996-3.7-9.324-5.975-15.167-5.975s-11.171 2.275-15.167 5.975c-4.146 3.839-10.531 3.668-14.492 0-3.996-3.7-9.324-5.975-15.167-5.975s-11.17 2.275-15.167 5.975c-4.146 3.839-10.531 3.668-14.492 0-3.996-3.7-9.324-5.975-15.167-5.975s-11.17 2.275-15.167 5.975c-4.146 3.839-10.531 3.668-14.492 0-3.996-3.7-9.324-5.975-15.167-5.975s-11.17 2.275-15.167 5.975c-4.146 3.839-10.531 3.668-14.492 0-3.996-3.7-9.324-5.975-15.167-5.975s-11.17 2.275-15.167 5.975c-4.145 3.838-10.531 3.669-14.492 0-4.558-4.22-10.848-6.587-17.659-5.839-11.441 1.258-19.921 11.27-19.921 22.779v109.815c0 11.621 8.641 21.701 20.208 22.822 13.306 1.29 24.617-9.251 24.617-22.306v-36.451c0-11.621 8.641-21.701 20.208-22.822 13.306-1.29 24.617 9.251 24.617 22.306v36.451c0 11.621 8.641 21.701 20.208 22.822 13.306 1.29 24.617-9.251 24.617-22.306v-36.451c0-11.621 8.641-21.701 20.208-22.822 13.306-1.29 24.617 9.251 24.617 22.306v36.451c0 11.621 8.641 21.701 20.208 22.822 13.306 1.29 24.617-9.251 24.617-22.306v-36.451c0-11.621 8.641-21.701 20.208-22.822 13.306-1.29 24.617 9.251 24.617 22.306v36.451c0 11.621 8.641 21.701 20.208 22.822 13.306 1.29 24.617-9.251 24.617-22.306v-36.451c0-11.621 8.641-21.701 20.208-22.822 13.306-1.29 24.617 9.251 24.617 22.306v36.451c0 11.621 8.641 21.701 20.208 22.822 13.306 1.29 24.617-9.251 24.617-22.306v-110.331c.009-11.509-8.471-21.521-19.912-22.779z" fill="#f27182"/><g fill="#ed5469"><path d="m456.656 260.817c-11.567 1.121-20.208 11.201-20.208 22.822v36.451c0 8.455-4.748 15.851-11.707 19.666 2.541 1.409 5.382 2.344 8.437 2.64 13.306 1.29 24.617-9.251 24.617-22.306v-59.352c-.378.017-.758.042-1.139.079z"/><path d="m277.354 260.817c-11.567 1.121-20.208 11.201-20.208 22.822v36.451c0 8.455-4.748 15.851-11.707 19.666 2.541 1.409 5.382 2.344 8.437 2.64 13.306 1.29 24.617-9.251 24.617-22.306v-36.451c0-8.552 4.689-16.256 11.771-20.182-3.785-2.075-8.222-3.094-12.91-2.64z"/><path d="m367.005 260.817c-11.567 1.121-20.208 11.201-20.208 22.822v36.451c0 8.455-4.748 15.851-11.707 19.666 2.541 1.409 5.382 2.344 8.437 2.64 13.306 1.29 24.617-9.251 24.617-22.306v-36.451c0-8.552 4.689-16.256 11.771-20.182-3.785-2.075-8.222-3.094-12.91-2.64z"/><path d="m187.703 260.817c-11.567 1.121-20.208 11.201-20.208 22.822v36.451c0 8.455-4.748 15.851-11.707 19.666 2.541 1.409 5.382 2.344 8.437 2.64 13.306 1.29 24.617-9.251 24.617-22.306v-36.451c0-8.552 4.689-16.256 11.771-20.182-3.785-2.075-8.222-3.094-12.91-2.64z"/><path d="m122.669 209.758c0-8.103 4.214-15.449 10.694-19.535-3.422-2.136-7.448-3.381-11.76-3.381-5.843 0-11.17 2.275-15.167 5.975-4.145 3.838-10.531 3.669-14.492 0-4.558-4.22-10.848-6.587-17.659-5.839-11.441 1.258-19.921 11.27-19.921 22.779v109.815c0 11.621 8.641 21.701 20.208 22.822 13.306 1.29 24.617-9.251 24.617-22.306v-36.451c0-11.621 8.641-21.701 20.208-22.822 1.106-.107 2.197-.125 3.27-.074v-50.983z"/></g><path d="m283.213 35.994-22.078-25.999c-2.648-3.119-7.461-3.119-10.11 0l-22.078 25.998c-19.636 23.122-3.202 58.637 27.133 58.637s46.769-35.514 27.133-58.636z" fill="#fee17d"/><path d="m249.238 35.993 16.988-20.004-5.09-5.994c-2.648-3.119-7.461-3.119-10.11 0l-22.078 25.998c-19.635 23.122-3.202 58.637 27.133 58.637 3.592 0 6.98-.513 10.145-1.429-23.568-6.821-34.299-36.823-16.988-57.208z" fill="#ffce65"/><path d="m270.738 62.954-11.927-14.044c-1.431-1.685-4.031-1.685-5.461 0l-11.927 14.045c-10.607 12.491-1.73 31.677 14.658 31.677s25.264-19.187 14.657-31.678z" fill="#ffb640"/><path d="m261.713 62.954 4.512-5.314-7.415-8.731c-1.431-1.685-4.031-1.685-5.461 0l-11.927 14.045c-10.607 12.491-1.73 31.677 14.657 31.677 3.851 0 7.279-1.069 10.145-2.852-9.329-5.805-12.626-19.269-4.511-28.825z" fill="#ffa90f"/></g><g><path d="m24.987 465.867c0 25.438 20.695 46.135 46.134 46.135h167.38c4.143 0 7.5-3.357 7.5-7.5s-3.357-7.5-7.5-7.5h-167.38c-16.294 0-29.705-12.583-31.027-28.543h431.814c-1.322 15.96-14.733 28.543-31.027 28.543h-167.38c-4.143 0-7.5 3.357-7.5 7.5s3.357 7.5 7.5 7.5h167.38c25.438 0 46.134-20.696 46.134-46.135 0-6.842-5.566-12.408-12.409-12.408h-19.097c.833-2.349 1.292-4.875 1.292-7.506 0-14.984 0-90.241 0-105.272 5.367-5.563 8.416-13.016 8.416-20.749v-37.918c0-4.143-3.357-7.5-7.5-7.5s-7.5 3.357-7.5 7.5v37.918c0 8.035-6.585 14.88-14.894 14.908-8.539.013-14.932-7.272-14.932-15.425 0-13.386 0-22.161 0-36.45 0-17.502-15.166-31.472-32.841-29.771-15.132 1.467-26.984 14.771-26.984 30.287v36.45c0 8.462-7.317 15.712-16.394 14.841-7.532-.73-13.432-7.476-13.432-15.357 0-13.386 0-22.161 0-36.45 0-17.504-15.168-31.472-32.841-29.771-15.132 1.467-26.984 14.771-26.984 30.287v36.45c0 8.456-7.308 15.711-16.395 14.841-7.532-.73-13.432-7.476-13.432-15.357 0-13.386 0-22.161 0-36.45 0-17.502-15.166-31.472-32.841-29.771-15.132 1.467-26.984 14.771-26.984 30.287v36.45c0 8.471-7.325 15.711-16.394 14.841-7.532-.73-13.432-7.476-13.432-15.357 0-13.386 0-22.161 0-36.45 0-17.504-15.168-31.472-32.841-29.771-15.132 1.467-26.985 14.771-26.985 30.287v36.45c0 4.174-1.793 8.195-4.919 11.033-9.741 8.838-24.906 1.636-24.906-11.55v-109.813c0-13.169 15.25-20.449 24.984-11.438 6.922 6.41 17.764 6.407 24.684-.001 5.735-5.31 14.419-5.299 20.142 0 6.921 6.409 17.763 6.409 24.684 0 5.734-5.309 14.418-5.3 20.143.001 6.922 6.408 17.765 6.407 24.683-.001 5.732-5.308 14.417-5.301 20.143.001 6.923 6.409 17.776 6.394 24.683-.001 5.539-5.129 14.175-5.492 20.177.031 6.862 6.318 17.695 6.409 24.649-.031 5.735-5.31 14.419-5.299 20.142 0 6.921 6.409 17.763 6.409 24.684 0 5.734-5.31 14.42-5.299 20.142.001 6.924 6.408 17.766 6.407 24.684-.001 5.733-5.309 14.419-5.3 20.142.001 6.922 6.407 17.764 6.407 24.684 0 9.707-8.992 24.984-1.77 24.984 11.438v37.413c0 4.143 3.357 7.5 7.5 7.5s7.5-3.357 7.5-7.5v-37.413c0-26.765-31.164-40.047-50.176-22.443-1.328 1.229-3.267.956-4.301-.001-11.472-10.623-29.035-10.638-40.524 0-1.328 1.23-3.268.957-4.301 0-11.471-10.621-29.034-10.64-40.524 0-1.328 1.23-3.267.957-4.301 0-10.467-9.692-25.95-10.533-37.298-2.6v-56.468c0-12.176-8.75-22.341-20.29-24.554v-2.224c13.811-2.376 25.55-11.235 31.612-24.336 7.135-15.419 4.735-33.043-6.263-45.994l-22.081-25.999c-5.646-6.646-15.904-6.639-21.543.001l-22.078 25.998c-10.998 12.951-13.397 30.575-6.263 45.994 6.063 13.101 17.801 21.96 31.612 24.336v2.224c-11.541 2.212-20.29 12.378-20.29 24.554v56.468c-11.359-7.94-26.841-7.083-37.298 2.6-1.328 1.23-3.267.957-4.301 0-11.471-10.621-29.034-10.64-40.524 0-1.328 1.23-3.267.957-4.301 0-11.492-10.641-29.056-10.619-40.523-.001-1.328 1.23-3.267.959-4.302.002-19.001-17.594-50.176-4.333-50.176 22.443v109.814c0 8.07 3.211 15.536 8.416 21.055v105.484c0 2.631.458 5.157 1.292 7.506h-19.097c-6.843-.001-12.41 5.566-12.41 12.407zm350.578-182.385c0-7.882 5.899-14.627 13.432-15.357 9.082-.871 16.394 6.383 16.394 14.841v16.7h-29.825v-16.184zm-89.651 0c0-7.882 5.899-14.627 13.432-15.357 9.015-.866 16.394 6.319 16.394 14.841v16.7h-29.825v-16.184zm-89.651 0c0-7.882 5.899-14.627 13.432-15.357 9.069-.87 16.394 6.37 16.394 14.841v16.7h-29.825v-16.184zm-89.652 0c0-7.882 5.9-14.627 13.433-15.357 9.017-.866 16.394 6.321 16.394 14.841v16.7h-29.826v-16.184zm-36.409 65.65c18.593 4.162 36.409-10.127 36.409-29.2v-5.267h29.826v4.75c0 15.517 11.853 28.82 26.984 30.287 17.705 1.7 32.841-12.292 32.841-29.771v-5.267h29.825v4.75c0 15.517 11.853 28.82 26.984 30.287 17.695 1.7 32.842-12.282 32.842-29.771v-5.267h29.825v4.75c0 16.382 13.292 30.582 30.122 30.423 16.616-.156 29.704-13.722 29.704-29.906v-5.267h29.825v4.75c0 16.069 12.758 29.964 29.031 30.404 2.47.072 5.381-.243 7.379-.689v38.465h-371.597zm0 53.463h371.598v43.358c0 4.139-3.366 7.506-7.505 7.506h-356.588c-4.139 0-7.505-3.367-7.505-7.506zm159.71-333.317c-3.967-9.822-2.275-20.406 4.673-28.588l21.416-25.218 21.416 25.218c6.948 8.182 8.64 18.766 4.673 28.588-.941-4.078-2.851-7.964-5.715-11.336l-11.926-14.043c-4.427-5.216-12.475-5.21-16.896-.001l-11.927 14.044c-2.863 3.372-4.773 7.258-5.714 11.336zm15.444 10.891c-1.971-4.26-1.334-8.94 1.705-12.519l8.94-10.527 8.94 10.527c3.039 3.578 3.676 8.259 1.705 12.519-4.143 8.955-17.032 9.202-21.29 0zm-2.145 47.919c0-5.518 4.488-10.006 10.006-10.006h5.568c5.518 0 10.006 4.488 10.006 10.006v53.99c-7.948-3.796-17.418-3.897-25.58 0z"/></g></g></svg>