<?xml version="1.0"?>
<svg xmlns="http://www.w3.org/2000/svg" xmlns:xlink="http://www.w3.org/1999/xlink" xmlns:svgjs="http://svgjs.com/svgjs" version="1.1" width="512" height="512" x="0" y="0" viewBox="0 0 64 64" style="enable-background:new 0 0 512 512" xml:space="preserve" class=""><g><path xmlns="http://www.w3.org/2000/svg" d="m42 15h-21l-5 5v29h26z" fill="#c1e6f9" data-original="#bce4f8" style="" class=""/><path xmlns="http://www.w3.org/2000/svg" d="m21 15-5 5v25h18a4 4 0 0 0 4-4v-26z" fill="#e4f5fd" data-original="#e4f5fd" style="" class=""/><path xmlns="http://www.w3.org/2000/svg" d="m54 2h8v8h-8z" fill="#4f9218" data-original="#2763bb" style="" class=""/><path xmlns="http://www.w3.org/2000/svg" d="m54 2v6h4a2 2 0 0 0 2-2v-4z" fill="#62d744" data-original="#3079e6" style="" class=""/><path xmlns="http://www.w3.org/2000/svg" d="m2 54h8v8h-8z" fill="#4f9218" data-original="#2763bb" style="" class=""/><path xmlns="http://www.w3.org/2000/svg" d="m2 54v6h4a2 2 0 0 0 2-2v-4z" fill="#62d744" data-original="#3079e6" style="" class=""/><path xmlns="http://www.w3.org/2000/svg" d="m54 54h8v8h-8z" fill="#4f9218" data-original="#2763bb" style="" class=""/><path xmlns="http://www.w3.org/2000/svg" d="m54 54v6h4a2 2 0 0 0 2-2v-4z" fill="#62d744" data-original="#3079e6" style="" class=""/><path xmlns="http://www.w3.org/2000/svg" d="m2 2h8v8h-8z" fill="#4f9218" data-original="#2763bb" style="" class=""/><path xmlns="http://www.w3.org/2000/svg" d="m2 2v6h4a2 2 0 0 0 2-2v-4z" fill="#62d744" data-original="#3079e6" style="" class=""/><path xmlns="http://www.w3.org/2000/svg" d="m16 20h5v-5z" fill="#c1e6f9" data-original="#bce4f8" style="" class=""/><path xmlns="http://www.w3.org/2000/svg" d="m35 35.024 11.408-11.408a2.106 2.106 0 0 1 2.976 0 2.106 2.106 0 0 1 0 2.976l-11.408 11.408-3.976 1z" fill="#4f9218" data-original="#2763bb" style="" class=""/><path xmlns="http://www.w3.org/2000/svg" d="m46.408 23.616-11.408 11.408-.664 2.64 2.64-.664 11.408-11.408a2.1 2.1 0 0 0 .407-2.383 2.1 2.1 0 0 0 -2.383.407z" fill="#62d744" data-original="#3079e6" style="" class=""/><path xmlns="http://www.w3.org/2000/svg" d="m10 1h-8a1 1 0 0 0 -1 1v8a1 1 0 0 0 1 1h8a1 1 0 0 0 1-1v-8a1 1 0 0 0 -1-1zm-1 8h-6v-6h6z" fill="#000000" data-original="#000000" style="" class=""/><path xmlns="http://www.w3.org/2000/svg" d="m10 53h-8a1 1 0 0 0 -1 1v8a1 1 0 0 0 1 1h8a1 1 0 0 0 1-1v-8a1 1 0 0 0 -1-1zm-1 8h-6v-6h6z" fill="#000000" data-original="#000000" style="" class=""/><path xmlns="http://www.w3.org/2000/svg" d="m62 53h-8a1 1 0 0 0 -1 1v8a1 1 0 0 0 1 1h8a1 1 0 0 0 1-1v-8a1 1 0 0 0 -1-1zm-1 8h-6v-6h6z" fill="#000000" data-original="#000000" style="" class=""/><path xmlns="http://www.w3.org/2000/svg" d="m62 1h-8a1 1 0 0 0 -1 1v8a1 1 0 0 0 1 1h8a1 1 0 0 0 1-1v-8a1 1 0 0 0 -1-1zm-1 8h-6v-6h6z" fill="#000000" data-original="#000000" style="" class=""/><path xmlns="http://www.w3.org/2000/svg" d="m13 5h2v2h-2z" fill="#000000" data-original="#000000" style="" class=""/><path xmlns="http://www.w3.org/2000/svg" d="m17 5h2v2h-2z" fill="#000000" data-original="#000000" style="" class=""/><path xmlns="http://www.w3.org/2000/svg" d="m21 5h2v2h-2z" fill="#000000" data-original="#000000" style="" class=""/><path xmlns="http://www.w3.org/2000/svg" d="m25 5h2v2h-2z" fill="#000000" data-original="#000000" style="" class=""/><path xmlns="http://www.w3.org/2000/svg" d="m29 5h2v2h-2z" fill="#000000" data-original="#000000" style="" class=""/><path xmlns="http://www.w3.org/2000/svg" d="m33 5h2v2h-2z" fill="#000000" data-original="#000000" style="" class=""/><path xmlns="http://www.w3.org/2000/svg" d="m37 5h2v2h-2z" fill="#000000" data-original="#000000" style="" class=""/><path xmlns="http://www.w3.org/2000/svg" d="m41 5h2v2h-2z" fill="#000000" data-original="#000000" style="" class=""/><path xmlns="http://www.w3.org/2000/svg" d="m45 5h2v2h-2z" fill="#000000" data-original="#000000" style="" class=""/><path xmlns="http://www.w3.org/2000/svg" d="m49 5h2v2h-2z" fill="#000000" data-original="#000000" style="" class=""/><path xmlns="http://www.w3.org/2000/svg" d="m13 57h2v2h-2z" fill="#000000" data-original="#000000" style="" class=""/><path xmlns="http://www.w3.org/2000/svg" d="m17 57h2v2h-2z" fill="#000000" data-original="#000000" style="" class=""/><path xmlns="http://www.w3.org/2000/svg" d="m21 57h2v2h-2z" fill="#000000" data-original="#000000" style="" class=""/><path xmlns="http://www.w3.org/2000/svg" d="m25 57h2v2h-2z" fill="#000000" data-original="#000000" style="" class=""/><path xmlns="http://www.w3.org/2000/svg" d="m29 57h2v2h-2z" fill="#000000" data-original="#000000" style="" class=""/><path xmlns="http://www.w3.org/2000/svg" d="m33 57h2v2h-2z" fill="#000000" data-original="#000000" style="" class=""/><path xmlns="http://www.w3.org/2000/svg" d="m37 57h2v2h-2z" fill="#000000" data-original="#000000" style="" class=""/><path xmlns="http://www.w3.org/2000/svg" d="m41 57h2v2h-2z" fill="#000000" data-original="#000000" style="" class=""/><path xmlns="http://www.w3.org/2000/svg" d="m45 57h2v2h-2z" fill="#000000" data-original="#000000" style="" class=""/><path xmlns="http://www.w3.org/2000/svg" d="m49 57h2v2h-2z" fill="#000000" data-original="#000000" style="" class=""/><path xmlns="http://www.w3.org/2000/svg" d="m57 13h2v2h-2z" fill="#000000" data-original="#000000" style="" class=""/><path xmlns="http://www.w3.org/2000/svg" d="m57 17h2v2h-2z" fill="#000000" data-original="#000000" style="" class=""/><path xmlns="http://www.w3.org/2000/svg" d="m57 21h2v2h-2z" fill="#000000" data-original="#000000" style="" class=""/><path xmlns="http://www.w3.org/2000/svg" d="m57 25h2v2h-2z" fill="#000000" data-original="#000000" style="" class=""/><path xmlns="http://www.w3.org/2000/svg" d="m57 29h2v2h-2z" fill="#000000" data-original="#000000" style="" class=""/><path xmlns="http://www.w3.org/2000/svg" d="m57 33h2v2h-2z" fill="#000000" data-original="#000000" style="" class=""/><path xmlns="http://www.w3.org/2000/svg" d="m57 37h2v2h-2z" fill="#000000" data-original="#000000" style="" class=""/><path xmlns="http://www.w3.org/2000/svg" d="m57 41h2v2h-2z" fill="#000000" data-original="#000000" style="" class=""/><path xmlns="http://www.w3.org/2000/svg" d="m57 45h2v2h-2z" fill="#000000" data-original="#000000" style="" class=""/><path xmlns="http://www.w3.org/2000/svg" d="m57 49h2v2h-2z" fill="#000000" data-original="#000000" style="" class=""/><path xmlns="http://www.w3.org/2000/svg" d="m5 13h2v2h-2z" fill="#000000" data-original="#000000" style="" class=""/><path xmlns="http://www.w3.org/2000/svg" d="m5 17h2v2h-2z" fill="#000000" data-original="#000000" style="" class=""/><path xmlns="http://www.w3.org/2000/svg" d="m5 21h2v2h-2z" fill="#000000" data-original="#000000" style="" class=""/><path xmlns="http://www.w3.org/2000/svg" d="m5 25h2v2h-2z" fill="#000000" data-original="#000000" style="" class=""/><path xmlns="http://www.w3.org/2000/svg" d="m5 29h2v2h-2z" fill="#000000" data-original="#000000" style="" class=""/><path xmlns="http://www.w3.org/2000/svg" d="m5 33h2v2h-2z" fill="#000000" data-original="#000000" style="" class=""/><path xmlns="http://www.w3.org/2000/svg" d="m5 37h2v2h-2z" fill="#000000" data-original="#000000" style="" class=""/><path xmlns="http://www.w3.org/2000/svg" d="m5 41h2v2h-2z" fill="#000000" data-original="#000000" style="" class=""/><path xmlns="http://www.w3.org/2000/svg" d="m5 45h2v2h-2z" fill="#000000" data-original="#000000" style="" class=""/><path xmlns="http://www.w3.org/2000/svg" d="m5 49h2v2h-2z" fill="#000000" data-original="#000000" style="" class=""/><path xmlns="http://www.w3.org/2000/svg" d="m50.091 27.3a3.108 3.108 0 0 0 0-4.39 3.179 3.179 0 0 0 -4.39 0l-2.701 2.7v-10.61a1 1 0 0 0 -1-1h-21a1 1 0 0 0 -.707.293l-5 5a1 1 0 0 0 -.293.707v29a1 1 0 0 0 1 1h26a1 1 0 0 0 1-1v-14.61zm-2.976-2.976a1.132 1.132 0 0 1 1.562 0 1.107 1.107 0 0 1 0 1.562l-11.213 11.214-2.086.524.524-2.086zm-27.115-6.91v1.586h-1.586zm21 30.586h-24v-27h4a1 1 0 0 0 1-1v-4h19v11.61l-2.39 2.39h-19.61v2h17.61l-2 2h-15.61v2h14.723l-.693 2.756a1 1 0 0 0 .97 1.244 1.019 1.019 0 0 0 .244-.03l3.976-1a1 1 0 0 0 .463-.263l2.317-2.317z" fill="#000000" data-original="#000000" style="" class=""/><path xmlns="http://www.w3.org/2000/svg" d="m19 38h12v2h-12z" fill="#000000" data-original="#000000" style="" class=""/><path xmlns="http://www.w3.org/2000/svg" d="m24 18h15v2h-15z" fill="#000000" data-original="#000000" style="" class=""/><path xmlns="http://www.w3.org/2000/svg" d="m19 22h20v2h-20z" fill="#000000" data-original="#000000" style="" class=""/><path xmlns="http://www.w3.org/2000/svg" d="m19 26h20v2h-20z" fill="#000000" data-original="#000000" style="" class=""/></g></svg>
