<?xml version="1.0"?>
<svg xmlns="http://www.w3.org/2000/svg" xmlns:xlink="http://www.w3.org/1999/xlink" xmlns:svgjs="http://svgjs.com/svgjs" version="1.1" width="512" height="512" x="0" y="0" viewBox="0 0 512 512" style="enable-background:new 0 0 512 512" xml:space="preserve" class=""><g><g xmlns="http://www.w3.org/2000/svg"><path d="m210.538 446.753c-7.965 0-15.477-3.07-21.151-8.644l-172.903-169.919c-5.71-5.613-8.984-13.415-8.984-21.407 0-7.993 3.274-15.795 8.982-21.406l63.218-62.127c5.672-5.576 13.185-8.647 21.153-8.647 7.967 0 15.481 3.072 21.155 8.649l88.529 87.001 179.457-176.359c5.675-5.576 13.187-8.647 21.154-8.647s15.479 3.071 21.153 8.646l63.217 62.126c5.709 5.613 8.984 13.415 8.983 21.408 0 7.993-3.273 15.795-8.982 21.405l-263.828 259.274c-5.677 5.577-13.188 8.647-21.153 8.647z" fill="#ebfbd9" data-original="#ebfbd9" style=""/><path d="m407.777 91.989-193.869 190.522c-1.861 1.829-4.879 1.829-6.741 0l-102.943-101.166c-1.861-1.829-4.879-1.829-6.741 0l-63.217 62.125c-1.861 1.829-1.861 4.795 0 6.625l172.901 169.916c1.861 1.829 4.879 1.829 6.741 0l263.826-259.272c1.861-1.829 1.861-4.795 0-6.625l-63.216-62.125c-1.862-1.829-4.88-1.829-6.741 0z" fill="#62d744" data-original="#b3e59f" style="" class=""/><path d="m477.734 154.114-63.216-62.125c-1.861-1.829-4.88-1.829-6.741 0l-6.454 6.343 13.731 13.494c14.328 14.081 14.328 37.122 0 51.203l-219.241 215.456c-5.806 5.706-13.155 9.028-20.758 9.967l32.113 31.559c1.861 1.829 4.88 1.829 6.741 0l263.826-259.272c1.86-1.829 1.86-4.795-.001-6.625z" fill="#48af2d" data-original="#95d6a4" style="" class=""/><path d="m500.774 130.67-63.218-62.126c-14.656-14.402-38.157-14.408-52.82.001l-174.198 171.192-83.272-81.834c-14.654-14.403-38.159-14.414-52.822-.002l-63.219 62.127c-7.134 7.012-11.225 16.763-11.225 26.754s4.092 19.744 11.227 26.757l49.56 48.705c2.955 2.905 7.704 2.862 10.606-.092 2.903-2.954 2.862-7.703-.092-10.606l-49.559-48.704c-8.968-8.815-8.981-23.289-.003-32.116l63.219-62.127c8.816-8.666 22.971-8.67 31.794.002l88.529 87.001c2.918 2.868 7.596 2.868 10.514 0l179.455-176.359c8.818-8.665 22.971-8.669 31.793-.001l63.217 62.125c4.284 4.212 6.741 10.065 6.74 16.06 0 5.995-2.456 11.847-6.738 16.056l-263.827 259.273c-8.815 8.661-22.966 8.673-31.791.004l-98.324-96.627c-2.954-2.904-7.702-2.862-10.606.092-2.903 2.954-2.862 7.703.092 10.606l98.324 96.628c14.655 14.398 38.15 14.405 52.817-.004l263.828-259.274c7.134-7.011 11.225-16.762 11.225-26.753.001-9.99-4.09-19.743-11.226-26.758z" fill="#000000" data-original="#000000" style="" class=""/><path d="m201.91 287.86c4.757 4.676 12.498 4.677 17.255 0l92.173-90.582c2.954-2.903 2.996-7.652.093-10.606s-7.652-2.995-10.606-.092l-90.286 88.728-101.059-99.313c-4.756-4.674-12.497-4.673-17.254 0l-63.216 62.125c-2.347 2.307-3.64 5.383-3.64 8.663 0 3.279 1.293 6.355 3.64 8.66l172.901 169.917c4.758 4.675 12.497 4.674 17.254 0l263.826-259.271c4.855-4.771 4.858-12.549 0-17.323l-63.217-62.126c-4.755-4.673-12.496-4.674-17.255 0l-76.398 75.08c-2.954 2.903-2.996 7.652-.093 10.606 2.904 2.955 7.653 2.996 10.606.092l74.513-73.226 59.257 58.234-259.866 255.382-168.942-166.026 59.257-58.234z" fill="#000000" data-original="#000000" style="" class=""/></g></g></svg>
