<?xml version="1.0"?>
<svg xmlns="http://www.w3.org/2000/svg" xmlns:xlink="http://www.w3.org/1999/xlink" xmlns:svgjs="http://svgjs.com/svgjs" version="1.1" width="512" height="512" x="0" y="0" viewBox="0 0 512 512" style="enable-background:new 0 0 512 512" xml:space="preserve" class=""><g>
<polygon xmlns="http://www.w3.org/2000/svg" style="" points="267.128,325.352 195.824,369.779 168.735,422.188 361.446,422.188 322.567,352.126 " fill="#ffffff" data-original="#44352d" class=""/>
<polygon xmlns="http://www.w3.org/2000/svg" style="" points="322.567,352.126 267.128,325.352 257.301,331.475 300.061,352.126 338.941,422.188   361.446,422.188 " fill="#1f1f1f" data-original="#2d231e" class=""/>
<polygon xmlns="http://www.w3.org/2000/svg" style="" points="464.515,320.4 434.864,259.206 424.158,193.857 331.001,89.813 231.621,146.876   142.935,97.651 89.7,168.115 82.869,244.08 40.203,340.696 26.99,422.188 168.735,422.188 195.824,369.779 267.128,325.352   322.567,352.126 361.446,422.188 486.868,422.188 479.3,350.913 " fill="#1f1f1f" data-original="#b99c80" class=""/>
<polygon xmlns="http://www.w3.org/2000/svg" style="" points="479.3,350.913 434.865,259.206 424.158,193.857 331.001,89.813 316.137,98.347   401.652,193.857 412.359,259.206 456.794,350.913 464.363,422.188 486.868,422.188 " fill="#1f1f1f" data-original="#a38166" class=""/>
<path xmlns="http://www.w3.org/2000/svg" d="M113.252,295.843c-4.019,2.36-5.365,7.531-3.006,11.551l22.057,37.576c1.571,2.678,4.39,4.169,7.286,4.169  c1.452,0,2.922-0.375,4.265-1.162c4.019-2.36,5.365-7.531,3.006-11.551l-22.057-37.575  C122.443,294.828,117.274,293.484,113.252,295.843z" fill="#1f1f1f" data-original="#000000" style="" class=""/>
<path xmlns="http://www.w3.org/2000/svg" d="M503.56,413.748h-9.101l-6.766-63.727c-0.493-4.635-4.634-7.993-9.284-7.501c-4.635,0.493-7.993,4.648-7.501,9.284  l6.577,61.944h-111.07l-36.468-65.718c-0.845-1.522-2.14-2.747-3.709-3.505l-55.44-26.774c-2.604-1.259-5.675-1.094-8.133,0.437  l-71.304,44.427c-1.29,0.803-2.337,1.939-3.035,3.288l-24.73,47.844H36.908l11.452-70.633l35.572-80.553l9.171,15.623  c1.571,2.678,4.39,4.169,7.286,4.169c1.452,0,2.923-0.375,4.265-1.162c4.019-2.36,5.365-7.531,3.006-11.551l-16.142-27.501  l6.374-70.865l47.361-62.689l70.395,39.073l-34.005,23.511c-1.548,1.071-2.695,2.629-3.255,4.427l-16.84,53.929  c-1.389,4.449,1.092,9.182,5.541,10.572c0.837,0.261,1.685,0.386,2.517,0.386c3.594,0,6.926-2.315,8.054-5.927l15.973-51.155  l42.503-29.387l93.141-53.48l82.489,92.131l-23.951,18.172c-1.429,1.084-2.474,2.595-2.986,4.313l-17.572,58.989  c-1.331,4.467,1.211,9.166,5.678,10.498c0.805,0.239,1.616,0.353,2.414,0.353c3.636,0,6.994-2.369,8.085-6.033l16.785-56.344  l17.882-13.566l8.441,51.518c0.132,0.803,0.379,1.583,0.734,2.316l29.648,61.197c2.031,4.193,7.077,5.946,11.275,3.915  c4.195-2.032,5.947-7.08,3.915-11.275l-29.115-60.09l-10.491-64.036c-0.002-0.015-0.005-0.028-0.007-0.043l-0.009-0.057  c-0.003-0.021-0.011-0.043-0.016-0.064c-0.056-0.332-0.137-0.661-0.234-0.986c-0.021-0.071-0.042-0.141-0.065-0.212  c-0.221-0.673-0.528-1.324-0.926-1.942c-0.055-0.087-0.114-0.169-0.173-0.253c-0.065-0.093-0.122-0.189-0.191-0.28  c-0.104-0.136-0.216-0.26-0.326-0.388c-0.038-0.045-0.069-0.096-0.109-0.141L337.291,84.183c-2.659-2.971-7.035-3.674-10.49-1.689  l-95.249,54.689l-84.518-46.913c-3.676-2.04-8.293-1.063-10.83,2.292l-53.236,70.465c-0.951,1.259-1.53,2.76-1.671,4.331  l-6.708,74.582l-42.104,95.346c-0.291,0.658-0.496,1.349-0.611,2.059L19.81,413.748H8.44c-4.661,0-8.44,3.779-8.44,8.44  c0,4.661,3.779,8.44,8.44,8.44h18.549h141.745h192.712h125.422h16.692c4.662,0,8.44-3.779,8.44-8.44  C512,417.527,508.222,413.748,503.56,413.748z M202.255,375.716l65.389-40.742l48.843,23.587l30.624,55.187H182.597L202.255,375.716  z" fill="#1f1f1f" data-original="#000000" style="" class=""/>
<g xmlns="http://www.w3.org/2000/svg">
</g>
<g xmlns="http://www.w3.org/2000/svg">
</g>
<g xmlns="http://www.w3.org/2000/svg">
</g>
<g xmlns="http://www.w3.org/2000/svg">
</g>
<g xmlns="http://www.w3.org/2000/svg">
</g>
<g xmlns="http://www.w3.org/2000/svg">
</g>
<g xmlns="http://www.w3.org/2000/svg">
</g>
<g xmlns="http://www.w3.org/2000/svg">
</g>
<g xmlns="http://www.w3.org/2000/svg">
</g>
<g xmlns="http://www.w3.org/2000/svg">
</g>
<g xmlns="http://www.w3.org/2000/svg">
</g>
<g xmlns="http://www.w3.org/2000/svg">
</g>
<g xmlns="http://www.w3.org/2000/svg">
</g>
<g xmlns="http://www.w3.org/2000/svg">
</g>
<g xmlns="http://www.w3.org/2000/svg">
</g>
</g></svg>
