<?xml version="1.0"?>
<svg xmlns="http://www.w3.org/2000/svg" xmlns:xlink="http://www.w3.org/1999/xlink" xmlns:svgjs="http://svgjs.com/svgjs" version="1.1" width="512" height="512" x="0" y="0" viewBox="0 0 512 512" style="enable-background:new 0 0 512 512" xml:space="preserve" class=""><g>
<g xmlns="http://www.w3.org/2000/svg">
	<path style="" d="M164.031,192.982V150.44h-32.532c-17.317,29.821-13.219,68.666,12.318,94.202   c0.766,0.766,1.545,1.513,2.335,2.241L164.031,192.982z" fill="#62d744" data-original="#a6ed9a" class=""/>
	<path style="" d="M149.407,255.442c-3.652-7.292-8.515-14.131-14.597-20.215c-30.434-30.434-79.777-30.434-110.211,0   c-6.083,6.083-10.947,12.923-14.597,20.215H149.407z" fill="#62d744" data-original="#a6ed9a" class=""/>
	<path style="" d="M149.407,259.414c-7.738-2.574-16.013-3.972-24.616-3.972c-43.04,0-77.931,34.891-77.931,77.931   c0,8.603,1.398,16.878,3.972,24.616L149.407,259.414z" fill="#62d744" data-original="#a6ed9a" class=""/>
</g>
<path xmlns="http://www.w3.org/2000/svg" style="" d="M10.008,501.975l158.964-85.944c54.293-29.354,119.727-29.354,174.02,0l158.964,85.944H10.008z" fill="#dfc747" data-original="#ffc66c" class=""/>
<g xmlns="http://www.w3.org/2000/svg">
	<path style="" d="M212.112,401.934c-5.668-46.693-18.358-97.198-37.577-139.982l-35.464,14.798   c14.027,44.086,22.187,94.918,24.198,141.31L212.112,401.934z" fill="#b9692d" data-original="#c6814e" class=""/>
	<path style="" d="M213.994,396.887v-4.492c0-98.071,30.619-193.695,87.584-273.526l0,0l23.396,24.79l0,0   c-3.766,7.53-7.347,15.139-10.742,22.822c-29.745,67.312-45.166,140.177-45.166,213.952v8.733L213.994,396.887z" fill="#b9692d" data-original="#c6814e" class=""/>
</g>
<g xmlns="http://www.w3.org/2000/svg">
	<path style="" d="M297.884,150.125c-5.336-10.657-12.445-20.654-21.335-29.544c-44.48-44.48-116.595-44.48-161.076,0   c-8.89,8.89-15.998,18.887-21.335,29.544H297.884z" fill="#62d744" data-original="#a6ed9a" class=""/>
	<path style="" d="M276.819,154.991c-9.481-3.155-19.621-4.866-30.162-4.866c-52.736,0-95.488,42.751-95.488,95.488   c0,10.541,1.713,20.681,4.866,30.162L276.819,154.991z" fill="#62d744" data-original="#a6ed9a" class=""/>
	<path style="" d="M494.729,271.153c1.297-12.463,0.649-25.342-2.203-38.248   c-14.27-64.573-78.186-105.352-142.759-91.081c-12.907,2.853-24.858,7.693-35.614,14.12L494.729,271.153z" fill="#62d744" data-original="#a6ed9a" class=""/>
	<path style="" d="M502.001,108.149c-7.224-8.902-15.975-16.815-26.17-23.32   c-51.01-32.545-118.743-17.576-151.288,33.433c-6.504,10.196-11.106,21.06-13.907,32.177L502.001,108.149z" fill="#62d744" data-original="#a6ed9a" class=""/>
	<path style="" d="M169.666,16.004c10.837-3.741,22.448-5.836,34.541-5.972C264.711,9.352,314.31,57.848,314.99,118.35   c0.136,12.093-1.698,23.748-5.194,34.666L169.666,16.004z" fill="#62d744" data-original="#a6ed9a" class=""/>
</g>
<g xmlns="http://www.w3.org/2000/svg">
	<circle style="" cx="308.387" cy="191.57" r="31.997" fill="#dfc747" data-original="#ffc66c" class=""/>
	<circle style="" cx="308.387" cy="255.563" r="31.997" fill="#dfc747" data-original="#ffc66c" class=""/>
	<circle style="" cx="362.322" cy="223.297" r="30.317" fill="#dfc747" data-original="#ffc66c" class=""/>
</g>
<path xmlns="http://www.w3.org/2000/svg" d="M506.71,493.179l-75.39-40.76c-4.857-2.628-10.925-0.817-13.552,4.041c-2.626,4.857-0.817,10.925,4.041,13.552l75.39,40.76  c1.512,0.817,3.141,1.205,4.746,1.205c3.555,0,6.995-1.9,8.805-5.245C513.376,501.872,511.568,495.806,506.71,493.179z" fill="#333333" data-original="#000000" style="" class=""/>
<path xmlns="http://www.w3.org/2000/svg" d="M285.958,291.041c6.494,4.12,14.183,6.516,22.426,6.516c21.085,0,38.584-15.621,41.548-35.897  c3.907,1.265,8.069,1.957,12.392,1.957c21.915,0,39.788-17.578,40.293-39.373l86.736,55.338c1.633,1.042,3.502,1.57,5.378,1.57  c1.482,0,2.968-0.329,4.346-0.994c3.122-1.507,5.24-4.523,5.599-7.97c1.439-13.828,0.636-27.77-2.385-41.441  c-7.478-33.838-27.686-62.739-56.901-81.379c-8.23-5.25-16.897-9.51-25.859-12.753l84.629-18.702  c3.385-0.749,6.141-3.196,7.283-6.469c1.143-3.273,0.508-6.903-1.677-9.595c-8.073-9.949-17.681-18.511-28.557-25.449  c-26.923-17.177-58.922-22.841-90.103-15.95c-26.884,5.941-50.38,20.608-67.356,41.79c-1.737-12.009-5.284-23.607-10.616-34.636  c-2.404-4.972-8.38-7.052-13.355-4.65c-4.971,2.404-7.053,8.382-4.651,13.355c6.378,13.193,9.696,27.376,9.862,42.155  c0.057,5.025-0.26,10.018-0.946,14.947L267.49,97.668h6.287c5.522,0,9.999-4.477,9.999-9.999s-4.477-9.999-9.999-9.999h-26.74  l-17.64-17.248h7.343c5.522,0,9.999-4.477,9.999-9.999s-4.477-9.999-9.999-9.999h-27.796l-19.548-19.114  c4.913-0.796,9.897-1.226,14.922-1.282c16.781-0.206,33.429,3.879,48.121,11.764c4.864,2.611,10.927,0.784,13.539-4.083  c2.611-4.865,0.784-10.927-4.083-13.539c-17.658-9.477-37.646-14.36-57.802-14.139c-12.899,0.145-25.58,2.338-37.692,6.519  c-3.277,1.131-5.733,3.879-6.493,7.261c-0.76,3.383,0.287,6.916,2.766,9.34l57.851,56.564  c-39.304-7.874-81.715,3.385-112.123,33.792c-9.454,9.453-17.261,20.266-23.206,32.138c-1.552,3.1-1.388,6.782,0.434,9.731  c1.822,2.95,5.041,4.744,8.507,4.744h21.923c-5.638,15.882-6.5,32.867-2.849,48.926c-31.844-13.078-69.863-6.715-95.686,19.108  c-6.707,6.707-12.248,14.381-16.467,22.809c-1.552,3.1-1.389,6.782,0.433,9.731s5.041,4.744,8.507,4.744h59.023  c-19.625,16.14-32.163,40.599-32.163,67.932c0,9.486,1.508,18.83,4.483,27.772c1.094,3.29,3.814,5.777,7.187,6.575  c0.763,0.18,1.535,0.268,2.301,0.268c2.621,0,5.173-1.032,7.07-2.929l74.829-74.829c11.79,39.975,18.698,81.269,20.531,122.926  L5.252,493.179c-4.857,2.627-6.666,8.693-4.041,13.552c1.81,3.347,5.25,5.245,8.805,5.245c1.606,0,3.235-0.388,4.746-1.205  l158.963-85.944c51.505-27.846,113.004-27.846,164.509,0l27.175,14.692c4.857,2.626,10.924,0.817,13.552-4.041  c2.626-4.857,0.817-10.925-4.041-13.551l-27.175-14.692c-21.676-11.719-44.938-19.01-68.59-21.888v-6.509  C279.158,349.518,281.445,320.049,285.958,291.041z M308.384,277.559c-12.13,0-21.998-9.868-21.998-21.998  s9.868-21.998,21.998-21.998c12.13,0,21.998,9.868,21.998,21.998C330.382,267.69,320.513,277.559,308.384,277.559z M218.91,198.759  h-26.746c-5.522,0-9.999,4.477-9.999,9.999c0,5.522,4.477,9.999,9.999,9.999h6.748l-37.133,37.133  c-0.407-3.397-0.612-6.827-0.612-10.277c0-47.139,38.35-85.49,85.49-85.49c3.451,0,6.88,0.205,10.277,0.612L218.91,198.759z   M154.213,194.85c-5.543,10.056-9.493,21.107-11.508,32.811c-13.392-19.746-15.546-45.39-5.18-67.224h16.507v32.544  C154.032,193.621,154.098,194.244,154.213,194.85z M286.387,191.568c0-12.13,9.868-21.998,21.998-21.998  c12.13,0,21.998,9.868,21.998,21.998c0,12.13-9.868,21.998-21.998,21.998C296.255,213.566,286.387,203.697,286.387,191.568z   M362.324,243.619c-11.204,0-20.319-9.115-20.319-20.319s9.115-20.319,20.319-20.319c11.204,0,20.319,9.115,20.319,20.319  S373.527,243.619,362.324,243.619z M482.763,235.062c1.329,6.011,2.15,12.082,2.463,18.167l-40.074-25.567l-7.503-33.952  c-1.191-5.392-6.529-8.796-11.921-7.606c-5.392,1.192-8.797,6.529-7.606,11.921l3.188,14.426l-16.965-10.824l-5.938-26.872  c-1.192-5.391-6.528-8.793-11.921-7.606c-5.392,1.192-8.797,6.529-7.606,11.921l1.623,7.345l-46.089-29.405  c5.65-2.281,11.502-4.094,17.512-5.422c28.624-6.325,57.996-1.126,82.707,14.64C459.345,181.992,476.438,206.439,482.763,235.062z   M332.973,123.641c14.303-22.419,36.481-37.926,62.447-43.663c7.209-1.594,14.47-2.381,21.68-2.381  c18.757,0,37.159,5.33,53.353,15.663c4.237,2.703,8.242,5.7,11.993,8.972l-30.146,6.662l-28.371-18.101  c-4.657-2.971-10.837-1.605-13.808,3.051c-2.971,4.655-1.604,10.837,3.051,13.808l11.513,7.345l-25.982,5.741l-26.054-16.623  c-4.653-2.97-10.838-1.604-13.807,3.052c-2.971,4.656-1.604,10.837,3.052,13.808l9.195,5.866l-45.21,9.991  C327.9,132.284,330.269,127.877,332.973,123.641z M122.543,127.651c40.509-40.51,106.424-40.511,146.934,0  c3.896,3.895,7.456,8.063,10.662,12.475h-33.04l-24.564-24.564c-3.905-3.905-10.236-3.905-14.14,0  c-3.905,3.905-3.905,10.236,0,14.14l10.423,10.423h-28.783l-19.181-19.181c-3.905-3.905-10.236-3.905-14.141,0  c-3.906,3.905-3.905,10.236,0,14.141l5.04,5.04h-49.872C115.087,135.713,118.648,131.546,122.543,127.651z M184.934,160.123  c-3.836,2.777-7.48,5.8-10.904,9.056v-9.056H184.934z M28.713,245.443c0.949-1.076,1.935-2.125,2.955-3.146  c26.487-26.486,69.586-26.486,96.071,0c1.021,1.02,2.006,2.069,2.955,3.146H28.713z M56.992,337.687  c-0.09-1.433-0.135-2.871-0.135-4.314c0-37.458,30.475-67.932,67.932-67.932c1.443,0,2.881,0.045,4.314,0.135L56.992,337.687z   M172.741,402.917c-2.464-39.985-9.428-79.584-20.735-118.013c0.555,0.245,1.127,0.459,1.729,0.601  c0.763,0.18,1.534,0.268,2.3,0.268c2.621,0,5.173-1.032,7.07-2.929l73.29-73.29c-13.765,37.365-23.29,76.291-28.361,115.787  c-3.533-12.694-7.58-25.243-12.153-37.599c-1.917-5.179-7.668-7.824-12.848-5.907c-5.179,1.917-7.824,7.669-5.907,12.848  c11.614,31.38,19.761,64.049,24.252,97.203C191.637,394.772,182.063,398.451,172.741,402.917z M223.786,386.679  c0.722-68.125,15.393-136.058,42.747-198.447c-0.087,1.102-0.145,2.212-0.145,3.336c0,12.808,5.77,24.287,14.839,31.997  c-9.069,7.709-14.839,19.189-14.839,31.997c0,5.542,1.089,10.832,3.049,15.681c-0.404,0.819-0.708,1.702-0.879,2.645  c-6.237,34.538-9.399,69.85-9.399,104.951v5.147C247.331,383.789,235.493,384.686,223.786,386.679z" fill="#333333" data-original="#000000" style="" class=""/>
<path xmlns="http://www.w3.org/2000/svg" d="M277.606,50.997c1.966,2.078,4.612,3.126,7.264,3.126c2.467,0,4.938-0.908,6.871-2.737  c4.011-3.796,4.185-10.125,0.389-14.135l-0.188-0.197c-3.814-3.993-10.144-4.138-14.136-0.323  c-3.994,3.815-4.138,10.144-0.323,14.136L277.606,50.997z" fill="#333333" data-original="#000000" style="" class=""/>
<g xmlns="http://www.w3.org/2000/svg">
</g>
<g xmlns="http://www.w3.org/2000/svg">
</g>
<g xmlns="http://www.w3.org/2000/svg">
</g>
<g xmlns="http://www.w3.org/2000/svg">
</g>
<g xmlns="http://www.w3.org/2000/svg">
</g>
<g xmlns="http://www.w3.org/2000/svg">
</g>
<g xmlns="http://www.w3.org/2000/svg">
</g>
<g xmlns="http://www.w3.org/2000/svg">
</g>
<g xmlns="http://www.w3.org/2000/svg">
</g>
<g xmlns="http://www.w3.org/2000/svg">
</g>
<g xmlns="http://www.w3.org/2000/svg">
</g>
<g xmlns="http://www.w3.org/2000/svg">
</g>
<g xmlns="http://www.w3.org/2000/svg">
</g>
<g xmlns="http://www.w3.org/2000/svg">
</g>
<g xmlns="http://www.w3.org/2000/svg">
</g>
</g></svg>
