<?xml version="1.0" encoding="utf-8"?>
<svg viewBox="0 0 500 500" xmlns="http://www.w3.org/2000/svg">
  <g transform="matrix(1, 0, 0, 1, 212.632874, 142.492691)">
    <path xmlns="http://www.w3.org/2000/svg" d="M 221.324 -62.289 L 221.324 -42.728 L 145.522 -42.728 L 145.522 -62.289 L 221.324 -62.289 Z M 189.536 -19.655 L 145.522 -19.655 L 145.522 -0.094 L 189.536 -0.094 L 189.536 -19.655 Z M 145.522 42.539 L 221.324 42.539 L 221.324 22.978 L 145.522 22.978 L 145.522 42.539 Z M 189.536 65.623 L 145.522 65.623 L 145.522 85.184 L 189.536 85.184 L 189.536 65.623 Z M 145.522 127.817 L 221.324 127.817 L 221.324 108.256 L 145.522 108.256 L 145.522 127.817 Z M 157.338 239.278 C 157.338 293.884 112.913 338.307 58.308 338.307 C 3.703 338.307 -40.721 293.884 -40.721 239.278 C -40.721 203.892 -22.138 171.733 8.182 153.941 L 8.182 -70.563 C 8.182 -98.205 30.668 -120.69 58.308 -120.69 C 85.948 -120.69 108.435 -98.205 108.435 -70.563 L 108.435 153.941 C 138.755 171.713 157.338 203.882 157.338 239.278 Z M 137.777 239.278 C 137.777 209.251 121.09 182.11 94.223 168.466 L 88.873 165.747 L 88.873 -70.555 C 88.873 -87.416 75.161 -101.119 58.308 -101.119 C 41.456 -101.119 27.744 -87.416 27.744 -70.555 L 27.744 165.747 L 22.394 168.466 C -4.473 182.12 -21.16 209.261 -21.16 239.278 C -21.16 283.095 14.491 318.746 58.308 318.746 C 102.126 318.746 137.777 283.095 137.777 239.278 Z M 121.482 239.278 C 121.482 274.108 93.147 302.442 58.308 302.442 C 23.479 302.442 -4.855 274.108 -4.855 239.278 C -4.855 210.729 14.433 185.661 42.053 178.316 L 45.682 177.347 L 45.682 160.592 L 70.945 160.211 L 70.945 177.337 L 74.574 178.316 C 102.204 185.661 121.482 210.739 121.482 239.278 Z M 61.438 197.172 C 59.932 190.483 53.203 186.081 46.347 187.647 C 22.404 193.065 5.679 214.005 5.679 238.575 C 5.679 245.529 11.341 251.191 18.296 251.191 C 25.25 251.191 30.912 245.529 30.912 238.575 C 30.912 226.084 39.734 215.013 51.911 212.265 C 58.68 210.709 62.964 203.94 61.438 197.172 Z" fill="#1f1f1f" data-original="#000000" style=""/>
    <path d="M -35.69 -1.374 L -54.607 -12.296 L -38.213 -21.963 C -35.19 -23.746 -34.184 -27.642 -35.967 -30.666 C -37.75 -33.689 -41.646 -34.695 -44.67 -32.913 L -67.253 -19.597 L -101.303 -39.256 L -67.259 -58.912 L -44.669 -45.598 C -43.657 -45 -42.545 -44.717 -41.448 -44.717 C -39.272 -44.717 -37.152 -45.836 -35.967 -47.847 C -34.185 -50.87 -35.191 -54.767 -38.215 -56.55 L -54.612 -66.214 L -35.69 -77.138 C -32.65 -78.893 -31.608 -82.781 -33.363 -85.82 C -35.118 -88.861 -39.006 -89.903 -42.046 -88.147 L -60.963 -77.224 L -61.135 -96.259 C -61.167 -99.769 -64.046 -102.605 -67.548 -102.557 C -71.058 -102.525 -73.879 -99.654 -73.846 -96.144 L -73.61 -69.923 L -107.658 -50.264 L -107.658 -89.578 L -84.83 -102.48 C -81.774 -104.207 -80.697 -108.084 -82.424 -111.141 C -84.152 -114.197 -88.03 -115.275 -91.085 -113.547 L -107.658 -104.18 L -107.658 -126.027 C -107.658 -129.537 -110.504 -132.383 -114.014 -132.383 C -117.524 -132.383 -120.37 -129.537 -120.37 -126.027 L -120.37 -104.18 L -136.943 -113.546 C -140.001 -115.274 -143.876 -114.197 -145.604 -111.14 C -147.331 -108.084 -146.254 -104.206 -143.198 -102.479 L -120.371 -89.577 L -120.371 -50.264 L -154.419 -69.923 L -154.183 -96.144 C -154.151 -99.654 -156.971 -102.525 -160.481 -102.557 C -160.501 -102.557 -160.519 -102.557 -160.54 -102.557 C -164.023 -102.557 -166.863 -99.749 -166.894 -96.258 L -167.066 -77.224 L -185.984 -88.147 C -189.024 -89.903 -192.911 -88.86 -194.666 -85.82 C -196.421 -82.781 -195.38 -78.893 -192.34 -77.138 L -173.419 -66.214 L -189.818 -56.548 C -192.841 -54.766 -193.848 -50.87 -192.066 -47.845 C -190.88 -45.834 -188.761 -44.715 -186.584 -44.715 C -185.487 -44.715 -184.376 -44.999 -183.363 -45.596 L -160.77 -58.91 L -126.725 -39.254 L -160.776 -19.595 L -183.363 -32.914 C -186.385 -34.696 -190.283 -33.691 -192.066 -30.667 C -193.849 -27.643 -192.843 -23.747 -189.819 -21.964 L -173.423 -12.297 L -192.341 -1.375 C -195.38 0.38 -196.422 4.268 -194.667 7.308 C -193.49 9.347 -191.353 10.486 -189.157 10.486 C -188.079 10.486 -186.985 10.212 -185.985 9.634 L -167.067 -1.289 L -166.895 17.747 C -166.863 21.237 -164.024 24.046 -160.541 24.046 C -160.521 24.046 -160.502 24.046 -160.482 24.045 C -156.972 24.014 -154.152 21.142 -154.184 17.632 L -154.42 -8.59 L -120.371 -28.248 L -120.371 11.066 L -143.198 23.968 C -146.254 25.695 -147.331 29.572 -145.604 32.629 C -144.435 34.697 -142.282 35.858 -140.065 35.858 C -139.006 35.858 -137.931 35.593 -136.943 35.035 L -120.37 25.669 L -120.37 47.516 C -120.37 51.026 -117.524 53.872 -114.014 53.872 C -110.504 53.872 -107.658 51.026 -107.658 47.516 L -107.658 25.669 L -91.085 35.035 C -90.097 35.593 -89.024 35.858 -87.963 35.858 C -85.746 35.858 -83.593 34.697 -82.424 32.629 C -80.697 29.573 -81.774 25.695 -84.83 23.968 L -107.658 11.066 L -107.658 -28.248 L -73.61 -8.59 L -73.852 17.631 C -73.885 21.141 -71.066 24.014 -67.556 24.046 C -67.535 24.047 -67.516 24.047 -67.496 24.047 C -64.013 24.047 -61.174 21.239 -61.141 17.749 L -60.965 -1.289 L -42.045 9.635 C -41.044 10.213 -39.951 10.487 -38.873 10.487 C -36.676 10.487 -34.54 9.347 -33.363 7.308 C -31.607 4.269 -32.649 0.381 -35.69 -1.374 Z" style="fill: rgb(31, 31, 31);"/>
    <g transform="matrix(0.847458, 0, 0, 0.847458, -207.142303, -132.383316)" style=""/>
    <g transform="matrix(0.847458, 0, 0, 0.847458, -207.142303, -132.383316)" style=""/>
    <g transform="matrix(0.847458, 0, 0, 0.847458, -207.142303, -132.383316)" style=""/>
    <g transform="matrix(0.847458, 0, 0, 0.847458, -207.142303, -132.383316)" style=""/>
    <g transform="matrix(0.847458, 0, 0, 0.847458, -207.142303, -132.383316)" style=""/>
    <g transform="matrix(0.847458, 0, 0, 0.847458, -207.142303, -132.383316)" style=""/>
    <g transform="matrix(0.847458, 0, 0, 0.847458, -207.142303, -132.383316)" style=""/>
    <g transform="matrix(0.847458, 0, 0, 0.847458, -207.142303, -132.383316)" style=""/>
    <g transform="matrix(0.847458, 0, 0, 0.847458, -207.142303, -132.383316)" style=""/>
    <g transform="matrix(0.847458, 0, 0, 0.847458, -207.142303, -132.383316)" style=""/>
    <g transform="matrix(0.847458, 0, 0, 0.847458, -207.142303, -132.383316)" style=""/>
    <g transform="matrix(0.847458, 0, 0, 0.847458, -207.142303, -132.383316)" style=""/>
    <g transform="matrix(0.847458, 0, 0, 0.847458, -207.142303, -132.383316)" style=""/>
    <g transform="matrix(0.847458, 0, 0, 0.847458, -207.142303, -132.383316)" style=""/>
    <g transform="matrix(0.847458, 0, 0, 0.847458, -207.142303, -132.383316)" style=""/>
  </g>
</svg>