<?xml version="1.0"?>
<svg xmlns="http://www.w3.org/2000/svg" xmlns:xlink="http://www.w3.org/1999/xlink" xmlns:svgjs="http://svgjs.com/svgjs" version="1.1" width="512" height="512" x="0" y="0" viewBox="0 0 64 64" style="enable-background:new 0 0 512 512" xml:space="preserve" class=""><g><g xmlns="http://www.w3.org/2000/svg" id="flat"><path d="m5 9h54v46h-54z" fill="#81d746" data-original="#8ec13f" style="" class=""/><path d="m9 13h46v38h-46z" fill="#f4f4e6" data-original="#f4f4e6" style="" class=""/><path d="m9 25h46v26h-46z" fill="#ffd782" data-original="#ffd782" style="" class=""/><path d="m59 61h-54l3-6h48z" fill="#81d746" data-original="#3e8051" style="" class=""/><path d="m3 3h58v6h-58z" fill="#81d746" data-original="#3e8051" style="" class=""/><g fill="#195c85"><path d="m23 25h-8l2-4h4z" fill="#195c85" data-original="#195c85" style="" class=""/><path d="m38 25h-8l2-4h4z" fill="#195c85" data-original="#195c85" style="" class=""/><path d="m49 25h-8l2-4h4z" fill="#195c85" data-original="#195c85" style="" class=""/></g><path d="m12 28h2v2h-2z" fill="#fcf05a" data-original="#fcf05a" style="" class=""/><path d="m12 34h2v2h-2z" fill="#fcf05a" data-original="#fcf05a" style="" class=""/><path d="m25 38h2v4h-2z" fill="#ffffff" data-original="#66342e" style="" class=""/><path d="m35 45h2v3h-2z" fill="#ffffff" data-original="#66342e" style="" class=""/><path d="m27 28h2v3h-2z" fill="#ffffff" data-original="#66342e" style="" class=""/><path d="m50 36h2v2h-2z" fill="#fcf05a" data-original="#fcf05a" style="" class=""/><path d="m39 28h2v2h-2z" fill="#ffffff" data-original="#66342e" style="" class=""/><path d="m52 22h-2v-4h-7v-2h9z" fill="#f4f4e6" data-original="#50b4f8" style="" class=""/><path d="m12 16h2v2h-2z" fill="#f4f4e6" data-original="#50b4f8" style="" class=""/><path d="m16 16h2v2h-2z" fill="#f4f4e6" data-original="#50b4f8" style="" class=""/><path d="m47 41v-4.555a3.967 3.967 0 0 0 0-6.89v-4.555h-4v4.555a3.967 3.967 0 0 0 0 6.89v4.555h-7v-16h-4v6h-11v-6h-4v8a2 2 0 0 0 2 2h13v6h-11.555a4 4 0 1 0 0 4h26.555v2h4v-4a2 2 0 0 0 -2-2z" fill="#ad6327" data-original="#ad6327" style="" class=""/></g></g></svg>
