<?xml version="1.0"?>
<svg xmlns="http://www.w3.org/2000/svg" xmlns:xlink="http://www.w3.org/1999/xlink" xmlns:svgjs="http://svgjs.com/svgjs" version="1.1" width="512" height="512" x="0" y="0" viewBox="0 0 60 60" style="enable-background:new 0 0 512 512" xml:space="preserve" class=""><g transform="matrix(-1,0,0,1,60.000083923339844,0)">
<path xmlns="http://www.w3.org/2000/svg" d="M59.949,58.684L55.104,44.15C57.654,39.702,59,34.647,59,29.5C59,13.233,45.767,0,29.5,0S0,13.233,0,29.5S13.233,59,29.5,59  c4.64,0,9.257-1.108,13.378-3.208l15.867,4.176C58.83,59.989,58.915,60,59,60c0.272,0,0.538-0.112,0.729-0.316  C59.98,59.416,60.065,59.032,59.949,58.684z M16,21.015h14c0.552,0,1,0.448,1,1s-0.448,1-1,1H16c-0.552,0-1-0.448-1-1  S15.448,21.015,16,21.015z M43,39.015H16c-0.552,0-1-0.448-1-1s0.448-1,1-1h27c0.552,0,1,0.448,1,1S43.552,39.015,43,39.015z   M43,31.015H16c-0.552,0-1-0.448-1-1s0.448-1,1-1h27c0.552,0,1,0.448,1,1S43.552,31.015,43,31.015z" fill="#969696" data-original="#000000" style="" class=""/>
<g xmlns="http://www.w3.org/2000/svg">
</g>
<g xmlns="http://www.w3.org/2000/svg">
</g>
<g xmlns="http://www.w3.org/2000/svg">
</g>
<g xmlns="http://www.w3.org/2000/svg">
</g>
<g xmlns="http://www.w3.org/2000/svg">
</g>
<g xmlns="http://www.w3.org/2000/svg">
</g>
<g xmlns="http://www.w3.org/2000/svg">
</g>
<g xmlns="http://www.w3.org/2000/svg">
</g>
<g xmlns="http://www.w3.org/2000/svg">
</g>
<g xmlns="http://www.w3.org/2000/svg">
</g>
<g xmlns="http://www.w3.org/2000/svg">
</g>
<g xmlns="http://www.w3.org/2000/svg">
</g>
<g xmlns="http://www.w3.org/2000/svg">
</g>
<g xmlns="http://www.w3.org/2000/svg">
</g>
<g xmlns="http://www.w3.org/2000/svg">
</g>
</g></svg>
