<?xml version="1.0"?>
<svg xmlns="http://www.w3.org/2000/svg" xmlns:xlink="http://www.w3.org/1999/xlink" xmlns:svgjs="http://svgjs.com/svgjs" version="1.1" width="512" height="512" x="0" y="0" viewBox="0 0 512 512" style="enable-background:new 0 0 512 512" xml:space="preserve" class=""><g><g xmlns="http://www.w3.org/2000/svg"><g clip-rule="evenodd" fill-rule="evenodd"><path d="m53.724 156.567c3.906-4.411 6.277-10.212 6.277-16.567 0-13.807-11.193-25-25-25s-25 11.193-25 25 11.193 25 25 25c.303 0 .604-.005.904-.016 7.088-.252 13.425-3.454 17.819-8.417z" fill="#fdc452" data-original="#ffcd69" style="" class=""/><path d="m118.501 116.75c0 10.497 6.47 19.484 15.64 23.189 2.891 1.168 6.051 1.811 9.36 1.811 5.568 0 10.71-1.82 14.865-4.897 6.149-4.554 10.135-11.863 10.135-20.103 0-13.807-11.193-25-25-25-13.808 0-25 11.193-25 25z" fill="#f3b332" data-original="#ffc144" style="" class=""/><path d="m231 102c0 9.238 5.011 17.306 12.463 21.634 3.686 2.14 7.968 3.366 12.537 3.366s8.852-1.226 12.537-3.366c7.452-4.328 12.463-12.396 12.463-21.634 0-13.807-11.193-25-25-25s-25 11.193-25 25z" fill="#fdc452" data-original="#ffcd69" style="" class=""/><path d="m343.5 116.75c0 8.24 3.986 15.548 10.135 20.103 4.155 3.077 9.298 4.897 14.865 4.897 3.31 0 6.469-.643 9.36-1.811 9.17-3.705 15.64-12.691 15.64-23.189 0-13.807-11.193-25-25-25s-25 11.193-25 25z" fill="#f3b332" data-original="#ffc144" style="" class=""/><path d="m477 115c-13.807 0-25 11.193-25 25 0 6.355 2.371 12.156 6.277 16.567 4.394 4.963 10.731 8.165 17.819 8.417.3.011.602.016.904.016 13.807 0 25-11.193 25-25s-11.193-25-25-25z" fill="#fdc452" data-original="#ffcd69" style="" class=""/><path d="m473.611 192.206c-10.661-1.207-20.843 8.335-22.943 21.682-2.104 13.37 4.682 25.595 15.229 27.691.213.042.427.08.643.114 10.911 1.717 21.496-7.948 23.642-21.588 2.146-13.639-4.96-26.088-15.871-27.805-.234-.037-.467-.068-.7-.094z" fill="#62d744" data-original="#88df8e" style="" class=""/><ellipse cx="256" cy="216.997" fill="#62d744" rx="25" ry="25" transform="matrix(.707 -.707 .707 .707 -78.459 244.576)" data-original="#88df8e" style="" class=""/><path d="m46.104 241.579c10.546-2.095 17.332-14.321 15.229-27.691-2.1-13.347-12.282-22.889-22.943-21.683-.233.026-.466.058-.7.095-10.911 1.717-18.017 14.166-15.872 27.805 2.146 13.639 12.731 23.305 23.643 21.588.216-.034.431-.072.643-.114z" fill="#62d744" data-original="#88df8e" style="" class=""/><path d="m38.39 192.205c10.661-1.206 20.843 8.335 22.943 21.683 2.103 13.37-4.683 25.595-15.229 27.689 3.215 15.637 6.714 27.909 9.896 33.42h400c3.182-5.511 6.681-17.783 9.896-33.419-10.546-2.095-17.332-14.321-15.229-27.691 2.1-13.348 12.282-22.889 22.943-21.681 1.047-9.148 1.898-18.349 2.485-27.223-7.088-.252-13.425-3.455-17.818-8.418-12.952 10.976-31.104 25.446-49.48 37.117-3.379 2.146-6.766 4.197-10.129 6.115-30.83 17.577-54.06 16.859-76.841-4.154-4.099-3.781-8.143-8.004-12.102-12.53-15.694-17.942-30.051-40.649-41.189-59.48-3.686 2.14-7.969 3.366-12.537 3.366-4.569 0-8.852-1.226-12.537-3.367-11.138 18.831-25.496 41.539-41.19 59.48-3.959 4.526-8.003 8.749-12.102 12.53-22.78 21.012-46.01 21.731-76.84 4.154-3.363-1.918-6.75-3.969-10.129-6.115-18.376-11.671-36.527-26.141-49.478-37.116-4.394 4.963-10.731 8.165-17.819 8.415.588 8.878 1.439 18.079 2.486 27.225zm192.61 24.792c0-13.807 11.193-25 25-25s25 11.193 25 25-11.193 25-25 25-25-11.193-25-25z" fill="#f3b332" data-original="#ffc144" style="" class=""/><g fill="#ffcd69"><path d="m134.141 139.937c-9.84 21.018-24.327 47.134-30.938 53.745 3.379 2.146 6.766 4.197 10.129 6.115 30.83 17.577 54.06 16.859 76.84-4.154 4.099-3.781 8.143-8.004 12.102-12.53-15.843-12.144-32.416-31.561-43.908-46.261-4.155 3.077-9.298 4.897-14.865 4.897-3.31.001-6.47-.642-9.36-1.812z" fill="#fdc452" data-original="#ffcd69" style="" class=""/><path d="m353.635 136.852c-11.493 14.701-28.065 34.119-43.909 46.262 3.959 4.526 8.003 8.749 12.102 12.53 22.78 21.012 46.01 21.731 76.841 4.154 3.363-1.918 6.75-3.969 10.129-6.115-6.611-6.611-21.099-32.727-30.938-53.744-2.891 1.168-6.051 1.811-9.36 1.811-5.567 0-10.71-1.82-14.865-4.898z" fill="#fdc452" data-original="#ffcd69" style="" class=""/><path d="m456.001 274.998h-400.001c-11 0-20 9-20 20s9 20 20 20h400c11 0 20-9 20-20 0-11.001-8.999-20-19.999-20z" fill="#fdc452" data-original="#ffcd69" style="" class=""/></g><path d="m56 314.997h400v80.003h-400z" fill="#f3b332" data-original="#ffc144" style="" class=""/><path d="m456.001 395h-400.001c-11 0-20 9-20 20s9 20 20 20h400c11 0 20-9 20-20s-8.999-20-19.999-20z" fill="#fdc452" data-original="#ffcd69" style="" class=""/></g><g><path d="m256 181.996c-19.299 0-35 15.701-35 35s15.701 35 35 35c19.3 0 35.001-15.701 35.001-35s-15.701-35-35.001-35zm0 50.001c-8.271 0-15-6.729-15-15s6.729-15 15-15 15.001 6.729 15.001 15-6.73 15-15.001 15z" fill="#000000" data-original="#000000" style="" class=""/><path d="m256.004 344.998h-.007c-5.522 0-9.997 4.477-9.997 10s4.481 10 10.004 10 10-4.477 10-10-4.478-10-10-10z" fill="#000000" data-original="#000000" style="" class=""/><path d="m206.004 344.998h-.007c-5.522 0-9.997 4.477-9.997 10s4.481 10 10.004 10 10-4.477 10-10-4.478-10-10-10z" fill="#000000" data-original="#000000" style="" class=""/><path d="m156.005 344.998h-.008c-5.522 0-9.996 4.477-9.996 10s4.481 10 10.004 10 10-4.477 10-10-4.478-10-10-10z" fill="#000000" data-original="#000000" style="" class=""/><path d="m106.005 344.998h-.008c-5.522 0-9.996 4.477-9.996 10s4.481 10 10.004 10 10-4.477 10-10-4.478-10-10-10z" fill="#000000" data-original="#000000" style="" class=""/><path d="m306.004 344.998h-.008c-5.522 0-9.996 4.477-9.996 10s4.481 10 10.004 10 10-4.477 10-10-4.478-10-10-10z" fill="#000000" data-original="#000000" style="" class=""/><path d="m356.004 344.998h-.008c-5.522 0-9.996 4.477-9.996 10s4.481 10 10.004 10 10-4.477 10-10-4.478-10-10-10z" fill="#000000" data-original="#000000" style="" class=""/><path d="m406.003 344.998h-.007c-5.522 0-9.997 4.477-9.997 10s4.481 10 10.004 10 10-4.477 10-10-4.478-10-10-10z" fill="#000000" data-original="#000000" style="" class=""/><path d="m512 140c0-19.299-15.701-35-35-35s-35 15.701-35 35c0 5.169 1.135 10.075 3.155 14.495-9.801 8.066-21.733 17.348-34.081 25.719-5.487-8.29-13.267-22.241-20.295-36.491 7.765-6.425 12.721-16.131 12.721-26.974 0-19.299-15.701-35-35-35s-35 15.701-35 35c0 7.759 2.542 14.934 6.831 20.744-8.339 10.25-18.819 22.152-29.33 31.545-9.163-11.469-18.927-25.776-29.458-43.144 5.86-6.26 9.458-14.663 9.458-23.894 0-19.299-15.701-35-35.001-35-19.299 0-35 15.701-35 35 0 9.231 3.598 17.633 9.458 23.894-10.533 17.369-20.296 31.675-29.458 43.144-10.51-9.392-20.99-21.293-29.331-31.544 4.29-5.81 6.832-12.985 6.832-20.744 0-19.299-15.701-35-35-35s-35 15.701-35 35c0 10.842 4.956 20.548 12.721 26.973-7.029 14.251-14.809 28.202-20.295 36.491-12.348-8.372-24.28-17.654-34.081-25.719 2.02-4.42 3.155-9.326 3.155-14.495 0-19.299-15.701-35-35-35-19.3 0-35.001 15.701-35.001 35 0 16.386 11.321 30.172 26.55 33.962.307 3.738.651 7.537 1.043 11.397-4.618 2.533-8.585 6.449-11.42 11.415-4.119 7.216-5.622 16.054-4.232 24.885 1.39 8.832 5.534 16.781 11.67 22.383 4.228 3.861 9.212 6.373 14.392 7.363 1.494 6.544 2.994 12.156 4.491 16.818-9.775 4.951-16.494 15.09-16.494 26.775 0 13.036 8.361 24.151 20 28.279v63.443c-11.639 4.128-20 15.243-20 28.28 0 16.542 13.458 30 30 30h400.001c16.542 0 29.999-13.458 29.999-30 0-13.036-8.36-24.151-19.999-28.279v-63.443c11.639-4.129 19.999-15.244 19.999-28.281 0-11.685-6.719-21.823-16.492-26.774 1.497-4.662 2.996-10.274 4.491-16.819 5.18-.99 10.164-3.502 14.392-7.363 6.136-5.603 10.28-13.552 11.67-22.382 1.39-8.832-.114-17.669-4.233-24.886-2.834-4.966-6.801-8.881-11.419-11.415.392-3.86.737-7.659 1.043-11.397 15.227-3.789 26.548-17.575 26.548-33.961zm-47.471 43.145c-4.339 1.228-8.478 3.527-12.07 6.806-6.136 5.603-10.28 13.552-11.67 22.382-1.39 8.832.114 17.669 4.233 24.886 2.407 4.217 5.634 7.671 9.378 10.171-1.981 8.614-3.661 14.143-4.908 17.608h-148.495c-5.522 0-10 4.477-10 10s4.478 10 10 10h154.964c.01 0 .02.002.031.002.007 0 .014-.001.021-.001 5.509.006 9.988 4.489 9.988 9.999 0 5.514-4.485 10-9.999 10h-400.002c-5.514 0-10-4.486-10-10 0-5.51 4.48-9.993 9.989-9.999.007 0 .014.001.021.001.01 0 .02-.002.03-.002h154.957c5.522 0 10-4.477 10-10s-4.478-10-10-10h-148.489c-1.247-3.464-2.926-8.993-4.908-17.608 3.745-2.5 6.971-5.954 9.378-10.171 4.119-7.216 5.622-16.054 4.233-24.886-1.391-8.831-5.535-16.78-11.671-22.382-3.591-3.279-7.73-5.577-12.069-6.805-.347-3.423-.652-6.791-.929-10.111 2.527-.885 4.92-2.053 7.146-3.465 15.075 12.427 35.205 27.806 54.689 38.914 15.97 9.104 30.528 13.667 44.085 13.667 16.014 0 30.628-6.374 44.488-19.158 20.003-18.452 38.033-45.906 50.772-66.991 2.655.646 5.425.997 8.276.997 2.852 0 5.622-.351 8.277-.997 12.736 21.083 30.765 48.536 50.772 66.991 13.861 12.786 28.472 19.159 44.488 19.159 13.555 0 28.117-4.564 44.085-13.668 19.484-11.108 39.614-26.487 54.689-38.914 2.226 1.412 4.619 2.579 7.146 3.465-.274 3.32-.58 6.687-.926 10.11zm-398.529 201.855v-60.003h380.001v60.003zm411-260c8.271 0 15 6.729 15 15s-6.729 15-15 15-15-6.729-15-15 6.729-15 15-15zm-108.5-23.25c8.271 0 15 6.729 15 15s-6.729 15-15 15-15-6.729-15-15 6.729-15 15-15zm-12.197 47.804c3.8 1.417 7.909 2.196 12.197 2.196 1.296 0 2.573-.076 3.833-.214 6.836 13.94 15.116 29.137 21.822 39.318-.146.084-.293.173-.439.256-27.597 15.735-45.853 14.944-65.106-2.817-1.449-1.337-2.914-2.755-4.393-4.252 11.706-10.458 23.143-23.464 32.086-34.487zm-100.303-62.554c8.271 0 15.001 6.729 15.001 15s-6.729 15-15.001 15-15-6.729-15-15 6.729-15 15-15zm-112.499 14.75c8.271 0 15 6.729 15 15s-6.729 15-15 15-15-6.729-15-15 6.728-15 15-15zm-3.833 49.786c1.26.138 2.537.214 3.833.214 4.288 0 8.397-.779 12.197-2.196 8.944 11.023 20.381 24.03 32.087 34.487-1.479 1.497-2.943 2.915-4.393 4.252-19.257 17.761-37.511 18.55-65.106 2.817-.146-.083-.293-.173-.439-.257 6.704-10.179 14.984-25.376 21.821-39.317zm-119.668-11.536c0-8.271 6.729-15 15.001-15s15 6.729 15 15-6.729 15-15 15-15.001-6.729-15.001-15zm13.543 66.689c.846-1.482 2.712-4.04 5.701-4.51h.001c.325-.051.644-.075.957-.075 2.572 0 4.729 1.59 5.854 2.616 2.755 2.515 4.723 6.423 5.398 10.721.677 4.299.004 8.623-1.846 11.862-.846 1.482-2.712 4.04-5.702 4.51-2.99.475-5.549-1.39-6.811-2.541-2.754-2.515-4.722-6.423-5.397-10.723-.677-4.297-.005-8.621 1.845-11.86zm422.458 218.311h-400.001c-5.514 0-10-4.486-10-10s4.486-10 10-10h400.001c5.514 0 9.999 4.486 9.999 10s-4.485 10-9.999 10zm24.302-206.448c-.676 4.298-2.644 8.207-5.397 10.721-1.261 1.151-3.817 3.009-6.813 2.542-2.989-.47-4.854-3.028-5.701-4.51-1.849-3.239-2.521-7.563-1.845-11.862.676-4.298 2.644-8.206 5.398-10.721 1.123-1.026 3.28-2.616 5.853-2.616.313 0 .634.023.958.075h.001c2.989.47 4.854 3.028 5.701 4.51 1.849 3.237 2.521 7.561 1.845 11.861z" fill="#000000" data-original="#000000" style="" class=""/><path d="m256 264.998h-.007c-5.522 0-9.996 4.477-9.996 10s4.48 10 10.003 10 10-4.477 10-10-4.478-10-10-10z" fill="#000000" data-original="#000000" style="" class=""/></g></g></g></svg>
