<?xml version="1.0"?>
<svg xmlns="http://www.w3.org/2000/svg" xmlns:xlink="http://www.w3.org/1999/xlink" xmlns:svgjs="http://svgjs.com/svgjs" version="1.1" width="512" height="512" x="0" y="0" viewBox="0 0 512 512" style="enable-background:new 0 0 512 512" xml:space="preserve" class=""><g><path xmlns="http://www.w3.org/2000/svg" d="m490.867188 384.058594-100.660157-100.660156c-15.132812-15.132813-15.132812-39.664063 0-54.796876l100.660157-100.660156c18.175781-18.171875 18.175781-47.636718 0-65.808594l-41.003907-41.003906c-18.171875-18.171875-47.640625-18.171875-65.8125 0l-100.664062 100.660156c-15.132813 15.132813-39.667969 15.132813-54.800781 0l-100.664063-100.660156c-18.171875-18.171875-47.636719-18.171875-65.8125 0l-41.003906 41.003906c-18.175781 18.171876-18.175781 47.636719 0 65.808594l100.664062 100.660156c15.128907 15.132813 15.128907 39.664063 0 54.796876l-100.664062 100.660156c-18.171875 18.171875-18.171875 47.636718 0 65.808594l41.003906 41.003906c18.175781 18.171875 47.640625 18.171875 65.816406 0l100.660157-100.660156c15.136718-15.132813 39.667968-15.132813 54.800781 0l100.664062 100.660156c18.175781 18.171875 47.640625 18.171875 65.8125 0l41.003907-41.003906c18.175781-18.171876 18.175781-47.636719 0-65.808594zm0 0" fill="#cd3939" data-original="#ff8a98" style="" class=""/><path xmlns="http://www.w3.org/2000/svg" d="m145.675781 38.882812-17.753906-17.753906c-18.171875-18.171875-47.636719-18.171875-65.8125 0l-41.003906 41.003906c-18.175781 18.171876-18.175781 47.636719 0 65.808594l100.664062 100.660156c15.128907 15.132813 15.128907 39.664063 0 54.796876l-100.664062 100.660156c-18.175781 18.171875-18.175781 47.636718 0 65.808594l25.277343 25.277343c.019532-38.824219 26.128907-62.878906 26.128907-62.878906l135.441406-135.4375c20.660156-20.65625 20.660156-54.152344 0-74.8125l-79.113281-79.109375c-17.917969-17.917969-18.324219-46.835938-.914063-65.25zm0 0" fill="#d74444" data-original="#fd5c6f" style="" class=""/><path xmlns="http://www.w3.org/2000/svg" d="m416.957031 512c-14.433593 0-28.003906-5.621094-38.210937-15.828125-2.929688-2.929687-2.929688-7.675781 0-10.605469 2.929687-2.929687 7.679687-2.929687 10.609375 0 15.21875 15.21875 39.984375 15.21875 55.207031 0l41.003906-41.003906c15.21875-15.21875 15.21875-39.984375 0-55.203125l-100.664062-100.65625c-18.035156-18.03125-18.035156-47.375 0-65.402344l100.664062-100.660156c7.371094-7.375 11.433594-17.175781 11.433594-27.601563 0-10.425781-4.0625-20.230468-11.433594-27.601562l-41.003906-41.003906c-15.222656-15.21875-39.988281-15.21875-55.207031 0l-100.664063 100.65625c-8.734375 8.734375-20.351562 13.546875-32.703125 13.546875-12.355469 0-23.96875-4.8125-32.703125-13.546875l-33.90625-33.902344c-2.929687-2.925781-2.929687-7.675781 0-10.605469 2.929688-2.929687 7.679688-2.929687 10.609375 0l33.902344 33.902344c12.183594 12.1875 32.007813 12.1875 44.191406 0l100.664063-100.65625c10.207031-10.207031 23.777344-15.828125 38.210937-15.828125 14.433594 0 28.003907 5.621094 38.210938 15.828125l41.003906 41c10.207031 10.207031 15.828125 23.777344 15.828125 38.210937 0 14.433594-5.621094 28-15.828125 38.207032l-100.664063 100.660156c-12.183593 12.183594-12.183593 32.003906 0 44.1875l100.664063 100.660156c21.070313 21.066406 21.070313 55.347656 0 76.417969l-41.003906 41c-10.207031 10.207031-23.777344 15.828125-38.210938 15.828125zm0 0" fill="#000000" data-original="#000000" style="" class=""/><path xmlns="http://www.w3.org/2000/svg" d="m95.015625 511.972656c-13.835937 0-27.675781-5.265625-38.207031-15.800781l-41.007813-41c-21.066406-21.070313-21.066406-55.351563 0-76.417969l100.664063-100.660156c12.183594-12.183594 12.183594-32.003906 0-44.1875l-100.664063-100.660156c-21.066406-21.066406-21.066406-55.347656 0-76.417969l41.007813-41c21.066406-21.070313 55.347656-21.070313 76.417968 0l44.945313 44.941406c2.929687 2.929688 2.929687 7.679688 0 10.609375-2.925781 2.925782-7.675781 2.925782-10.605469 0l-44.945312-44.945312c-15.21875-15.21875-39.984375-15.21875-55.207032 0l-41.003906 41.003906c-7.375 7.371094-11.433594 17.175781-11.433594 27.601562 0 10.425782 4.058594 20.226563 11.433594 27.601563l100.660156 100.65625c18.035157 18.03125 18.035157 47.375 0 65.402344l-100.660156 100.660156c-15.222656 15.21875-15.222656 39.984375 0 55.203125l41.003906 41.003906c15.21875 15.21875 39.984376 15.21875 55.207032 0l100.664062-100.65625c18.03125-18.03125 47.371094-18.03125 65.40625 0l77.125 77.121094c2.929688 2.929688 2.929688 7.679688 0 10.605469-2.929687 2.929687-7.675781 2.929687-10.605468 0l-77.128907-77.121094c-12.183593-12.183594-32.007812-12.183594-44.191406 0l-100.664063 100.65625c-10.535156 10.535156-24.371093 15.800781-38.210937 15.800781zm0 0" fill="#000000" data-original="#000000" style="" class=""/></g></svg>
