<svg height="512" viewBox="0 0 512 512" width="512" xmlns="http://www.w3.org/2000/svg"><g><g><path d="m424 168h-272v-96h272l64 48z" fill="#a0815c"/><path d="m384 432h-272v-96h272l64 48z" fill="#a0815c"/><path d="m88 296h288v-96h-288l-64 48z" fill="#a0815c"/><g fill="#ff9811"><path d="m224 16h64v56h-64z"/><path d="m224 168h64v32h-64z"/><path d="m288 432v64h-64v-64"/><path d="m224 336v-40h64v40"/></g></g><path d="m492.8 113.6-64-48a7.982 7.982 0 0 0 -4.8-1.6h-128v-48a8 8 0 0 0 -8-8h-64a8 8 0 0 0 -8 8v48h-64a8 8 0 0 0 -8 8v96a8 8 0 0 0 8 8h64v16h-128a7.982 7.982 0 0 0 -4.8 1.6l-64 48a8 8 0 0 0 0 12.8l64 48a7.982 7.982 0 0 0 4.8 1.6h128v24h-104a8 8 0 0 0 -8 8v96a8 8 0 0 0 8 8h104v56a8 8 0 0 0 8 8h64a8 8 0 0 0 8-8v-56h88a7.982 7.982 0 0 0 4.8-1.6l64-48a8 8 0 0 0 0-12.8l-64-48a7.982 7.982 0 0 0 -4.8-1.6h-88v-24h80a8 8 0 0 0 8-8v-96a8 8 0 0 0 -8-8h-80v-16h128a7.982 7.982 0 0 0 4.8-1.6l64-48a8 8 0 0 0 0-12.8zm-260.8-89.6h8v24a8 8 0 0 0 16 0v-24h24v40h-48zm48 464h-24v-32a8 8 0 0 0 -16 0v32h-8v-48h24a8 8 0 0 0 16 0h8zm101.33-144 53.34 40-53.34 40h-261.33v-80zm-149.33-16v-24h24v24zm40 0v-24h8v24zm96-120v80h-277.33l-53.34-40 53.34-40zm-136-16v-16h48v16zm189.33-32h-261.33v-80h261.33l53.34 40z"/></g></svg>