<?xml version="1.0"?>
<svg xmlns="http://www.w3.org/2000/svg" xmlns:xlink="http://www.w3.org/1999/xlink" xmlns:svgjs="http://svgjs.com/svgjs" version="1.1" width="512" height="512" x="0" y="0" viewBox="0 0 64 64" style="enable-background:new 0 0 512 512" xml:space="preserve" class=""><g><g xmlns="http://www.w3.org/2000/svg" id="Filled_outline" data-name="Filled outline"><path d="m12 41h40v20h-40z" fill="#efa869" data-original="#d3843d" style="" class=""/><path d="m52 33h-40l-4 8h48z" fill="#c5834d" data-original="#ad6327" style="" class=""/><path d="m32.015 47a3.8 3.8 0 0 0 -5 0 2.94 2.94 0 0 0 .029 4.469l4.971 4.531 4.97-4.531a2.94 2.94 0 0 0 .03-4.469 3.8 3.8 0 0 0 -5 0z" fill="#7bc11f" data-original="#fcf05a" style="" class=""/><path d="m36.521 27.564a2.484 2.484 0 0 1 -3.521.436 2.388 2.388 0 0 1 -.522-3.376l.294-.389a6.653 6.653 0 0 0 -2.659-.173c-.069.009-.137.021-.206.032a6.6 6.6 0 0 0 -.747.159c-.031.008-.063.015-.094.024a7.085 7.085 0 0 0 -1.677.734 6.986 6.986 0 0 0 .019 11.989h7.184a6.985 6.985 0 0 0 2.247-9.856z" fill="#ffc720" data-original="#f9bb4b" style="" class=""/><path d="m46 3-4 2-14 3-2 11 1.389 6.011a6.965 6.965 0 0 1 3.611-1.011c.284 0 .563.017.84.042l-.84-5.042 1-6h5l2 3-6.228 8.235-.294.389a2.388 2.388 0 0 0 .522 3.376 2.484 2.484 0 0 0 3.521-.436l6.479-8.564 6-1 4-8v-7z" fill="#fddcb1" data-original="#ffd782" style="" class=""/><path d="m47 56h2v2h-2z" fill="#1f1f1f" data-original="#000000" style="" class=""/><path d="m43 56h2v2h-2z" fill="#1f1f1f" data-original="#000000" style="" class=""/><path d="m31.341 56.739a1 1 0 0 0 1.347 0l4.971-4.531a4.039 4.039 0 0 0 1.37-3 3.965 3.965 0 0 0 -1.341-2.948 4.828 4.828 0 0 0 -5.673-.505 4.829 4.829 0 0 0 -5.674.505 3.968 3.968 0 0 0 -1.341 2.948 4.039 4.039 0 0 0 1.37 3zm-3.653-9a2.8 2.8 0 0 1 3.653 0 1 1 0 0 0 1.347 0 2.8 2.8 0 0 1 3.653 0 1.991 1.991 0 0 1 .688 1.47 2.062 2.062 0 0 1 -.717 1.52l-4.3 3.917-4.3-3.917a2.06 2.06 0 0 1 -.712-1.521 1.993 1.993 0 0 1 .688-1.469z" fill="#1f1f1f" data-original="#000000" style="" class=""/><path d="m52.9 32.553a1 1 0 0 0 -.9-.553h-13.066a7.8 7.8 0 0 0 -.9-4.775l5.525-7.3 6.11-1.019 4.331-8.67v-8.236h-8.236l-4.1 2.049-14.528 3.113-2.157 11.862 1.283 5.551a7.918 7.918 0 0 0 -3.196 7.425h-11.066a1 1 0 0 0 -.895.553l-4 8a1 1 0 0 0 .895 1.447h3v19a1 1 0 0 0 1 1h40a1 1 0 0 0 1-1v-19h3a1 1 0 0 0 .9-1.447zm-24.036-23.715 13.345-2.86 4.027-1.978h5.764v5.764l-3.667 7.336-5.89.981-6.73 8.9a1.345 1.345 0 0 1 -.9.542 1.65 1.65 0 0 1 -1.213-.323 1.386 1.386 0 0 1 -.325-1.972l6.951-9.192-2.691-4.036h-6.382l-1.167 7 .669 4.012a8.077 8.077 0 0 0 -2.574.553l-1.06-4.589zm3.775 13.915-.625-3.753.833-5h3.618l1.309 1.964zm-4.728 3.11a5.976 5.976 0 0 1 3.277-.852 3.4 3.4 0 0 0 1.212 3.789 3.673 3.673 0 0 0 2.192.735 3.6 3.6 0 0 0 .518-.039 3.359 3.359 0 0 0 1.485-.624 5.925 5.925 0 0 1 -2.302 7.128h-6.586a5.98 5.98 0 0 1 .2-10.137zm23.089 34.137h-38v-18h38zm-41.382-20 3-6h10.973a8.051 8.051 0 0 0 1.186 2h-4.777v2h24v-2h-6.777a8.051 8.051 0 0 0 1.186-2h12.973l3 6z" fill="#1f1f1f" data-original="#000000" style="" class=""/></g></g></svg>
