<?xml version="1.0"?>
<svg xmlns="http://www.w3.org/2000/svg" xmlns:xlink="http://www.w3.org/1999/xlink" xmlns:svgjs="http://svgjs.com/svgjs" version="1.1" width="512" height="512" x="0" y="0" viewBox="0 0 512 512" style="enable-background:new 0 0 512 512" xml:space="preserve"><g>
<g xmlns="http://www.w3.org/2000/svg">
	<g>
		<path d="M329.227,7.924C326.62,3.046,321.537,0,316,0H196c-5.537,0-10.62,3.047-13.228,7.925    c-2.608,4.878-2.314,10.796,0.747,15.396L211,64.541V105c0,19.53,12.578,36.024,30,42.237v53.491l-21.709,10.854    c-7.412,3.706-10.415,12.715-6.709,20.127c2.637,5.259,7.925,8.291,13.433,8.291c2.256,0,4.541-0.513,6.694-1.582l8.291-4.146    v26.455l-21.709,10.854c-7.412,3.706-10.415,12.715-6.709,20.127c2.637,5.259,7.925,8.291,13.433,8.291    c2.256,0,4.541-0.513,6.694-1.582l8.291-4.146v26.455l-21.709,10.854c-7.412,3.706-10.415,12.715-6.709,20.127    c2.637,5.259,7.925,8.291,13.433,8.291c2.256,0,4.541-0.513,6.694-1.582L241,354.27V375c0,8.291,6.709,15,15,15s15-6.709,15-15    v-35.728l21.709-10.854c7.412-3.706,10.415-12.715,6.709-20.127c-3.721-7.397-12.729-10.4-20.127-6.709L271,305.728v-26.455    l21.709-10.854c7.412-3.706,10.415-12.715,6.709-20.127c-3.721-7.412-12.729-10.4-20.127-6.709L271,245.728v-26.455l21.709-10.854    c7.412-3.706,10.415-12.715,6.709-20.127c-3.721-7.412-12.729-10.386-20.127-6.709L271,185.728v-38.491    c17.422-6.213,30-22.707,30-42.237V64.541l27.48-41.221C331.542,18.72,331.834,12.802,329.227,7.924z" fill="#1f1f1f" data-original="#000000" style=""/>
	</g>
</g>
<g xmlns="http://www.w3.org/2000/svg">
	<g>
		<path d="M466,300h46v-75c0-8.291-6.709-15-15-15h-54.789l-25.605-25.605C413.793,181.582,409.984,180,406,180h-60    c-8.291,0-15,6.709-15,15v75h45c8.291,0,15,6.709,15,15c0,8.291-6.709,15-15,15h-45v45c0,41.353-33.647,75-75,75    c-41.353,0-75-33.647-75-75v-45h-45c-8.291,0-15-6.709-15-15c0-8.291,6.709-15,15-15h45v-75c0-8.291-6.709-15-15-15h-60    c-3.984,0-7.793,1.582-10.605,4.395L69.789,210H15c-8.291,0-15,6.709-15,15v75h46c8.291,0,15,6.709,15,15c0,8.291-6.709,15-15,15    H0v90h46c8.291,0,15,6.709,15,15c0,8.291-6.709,15-15,15H0v47c0,8.291,6.709,15,15,15h482c8.291,0,15-6.709,15-15v-47h-46    c-8.291,0-15-6.709-15-15c0-8.291,6.709-15,15-15h46v-90h-46c-8.291,0-15-6.709-15-15C451,306.709,457.709,300,466,300z M106,390    H76c-8.291,0-15-6.709-15-15c0-8.291,6.709-15,15-15h30c8.291,0,15,6.709,15,15C121,383.291,114.291,390,106,390z M436,390h-30    c-8.291,0-15-6.709-15-15c0-8.291,6.709-15,15-15h30c8.291,0,15,6.709,15,15C451,383.291,444.291,390,436,390z" fill="#1f1f1f" data-original="#000000" style=""/>
	</g>
</g>
<g xmlns="http://www.w3.org/2000/svg">
</g>
<g xmlns="http://www.w3.org/2000/svg">
</g>
<g xmlns="http://www.w3.org/2000/svg">
</g>
<g xmlns="http://www.w3.org/2000/svg">
</g>
<g xmlns="http://www.w3.org/2000/svg">
</g>
<g xmlns="http://www.w3.org/2000/svg">
</g>
<g xmlns="http://www.w3.org/2000/svg">
</g>
<g xmlns="http://www.w3.org/2000/svg">
</g>
<g xmlns="http://www.w3.org/2000/svg">
</g>
<g xmlns="http://www.w3.org/2000/svg">
</g>
<g xmlns="http://www.w3.org/2000/svg">
</g>
<g xmlns="http://www.w3.org/2000/svg">
</g>
<g xmlns="http://www.w3.org/2000/svg">
</g>
<g xmlns="http://www.w3.org/2000/svg">
</g>
<g xmlns="http://www.w3.org/2000/svg">
</g>
</g></svg>
