<?xml version="1.0"?>
<svg xmlns="http://www.w3.org/2000/svg" xmlns:xlink="http://www.w3.org/1999/xlink" xmlns:svgjs="http://svgjs.com/svgjs" version="1.1" width="512" height="512" x="0" y="0" viewBox="0 0 512 512" style="enable-background:new 0 0 512 512" xml:space="preserve" class=""><g><circle xmlns="http://www.w3.org/2000/svg" cx="256.25" cy="256" fill="#7bc11f" r="245" data-original="#fec753" style="" class=""/><path xmlns="http://www.w3.org/2000/svg" d="m256 105.467c-123.226 0-226.406 111.129-253.017 142.421-3.978 4.678-3.978 11.545 0 16.223 26.611 31.292 129.791 142.422 253.017 142.422s226.406-111.129 253.017-142.421c3.978-4.678 3.978-11.545 0-16.223-26.611-31.292-129.791-142.422-253.017-142.422z" fill="#f5f5f5" data-original="#35528c" style="" class=""/><path xmlns="http://www.w3.org/2000/svg" d="m41.966 256c0-24.313 95.826-150.533 214.034-150.533-122.22 0-224.719 109.322-252.349 141.639-4.381 5.124-4.381 12.663 0 17.788 27.63 32.317 130.129 141.639 252.349 141.639-118.208 0-214.034-126.22-214.034-150.533z" fill="#1f3a60" data-original="#1f3a60" style="" class=""/><circle xmlns="http://www.w3.org/2000/svg" cx="256" cy="256" fill="#99d3ff" r="132" data-original="#99d3ff" style=""/><path xmlns="http://www.w3.org/2000/svg" d="m176 256c0-64.001 45.551-117.357 106-129.434-8.407-1.68-17.099-2.566-26-2.566-72.902 0-132 59.098-132 132s59.098 132 132 132c8.901 0 17.593-.887 26-2.566-60.449-12.077-106-65.433-106-129.434z" fill="#5bb3ce" data-original="#5bb3ce" style=""/><circle xmlns="http://www.w3.org/2000/svg" cx="254.603" cy="256" fill="#1f3a60" r="65.603" data-original="#1f3a60" style="" class=""/><circle xmlns="http://www.w3.org/2000/svg" cx="308.058" cy="225.628" fill="#dcf3ff" r="27.942" data-original="#dcf3ff" style=""/></g></svg>
