<?xml version="1.0"?>
<svg xmlns="http://www.w3.org/2000/svg" xmlns:xlink="http://www.w3.org/1999/xlink" xmlns:svgjs="http://svgjs.com/svgjs" version="1.1" width="512" height="512" x="0" y="0" viewBox="0 0 512.001 512.001" style="enable-background:new 0 0 512 512" xml:space="preserve" class=""><g>
<path xmlns="http://www.w3.org/2000/svg" style="" d="M8.223,258.561c116.385,195.767,379.169,195.767,495.554,0c0.935-1.574,0.935-3.548,0-5.121  c-116.385-195.767-379.169-195.767-495.554,0C7.288,255.013,7.288,256.988,8.223,258.561z" fill="#e6eaee" data-original="#e6eaee" class=""/>
<path xmlns="http://www.w3.org/2000/svg" style="" d="M503.78,258.557C440.54,364.93,334.086,413.506,231.372,404.274  c86.326-7.738,170.005-56.314,223.151-145.717c0.942-1.564,0.942-3.548,0-5.112c-53.147-89.403-136.826-137.979-223.151-145.717  c102.715-9.232,209.168,39.344,272.409,145.717C504.712,255.009,504.712,256.993,503.78,258.557z" fill="#cdd3d9" data-original="#cdd3d9" class=""/>
<circle xmlns="http://www.w3.org/2000/svg" style="" cx="256" cy="256" r="146.409" fill="#4ba932" data-original="#63cff1" class=""/>
<path xmlns="http://www.w3.org/2000/svg" style="" d="M402.409,256.001c0,80.863-65.546,146.409-146.409,146.409c-8.179,0-16.209-0.672-24.027-1.965  c69.435-11.457,122.391-71.761,122.391-144.444s-52.956-132.987-122.391-144.444c7.819-1.293,15.848-1.965,24.027-1.965  C336.863,109.592,402.409,175.138,402.409,256.001z" fill="#94e17f" data-original="#33bddd" class=""/>
<path xmlns="http://www.w3.org/2000/svg" d="M510.24,249.598c-7.046-11.852-14.794-23.272-23.029-33.941c-2.538-3.288-7.257-3.893-10.546-1.357  c-3.286,2.537-3.894,7.258-1.357,10.545c7.569,9.805,14.71,20.281,21.242,31.156c-27.411,45.654-63.294,81.366-106.666,106.152  c-15.357,8.776-31.476,15.997-48.094,21.594c41.072-27.672,68.14-74.607,68.14-127.746c0-53.108-27.036-100.02-68.066-127.698  c35.493,11.997,68.758,31.436,97.629,57.655c3.072,2.792,7.829,2.563,10.619-0.511c2.792-3.073,2.563-7.829-0.511-10.62  c-64.796-58.847-150.63-85.311-235.492-72.612c-42.412,6.347-82.148,21.888-118.105,46.192  c-37.809,25.555-69.518,59.6-94.245,101.194c-2.346,3.947-2.346,8.853,0.002,12.802c28.851,48.53,66.834,86.482,112.896,112.805  c43.155,24.662,92.031,37.697,141.344,37.697s98.189-13.035,141.344-37.697c46.061-26.323,84.045-64.275,112.895-112.804  C512.588,258.454,512.588,253.547,510.24,249.598z M15.451,256.001c23.473-39.091,53.402-71.095,88.974-95.138  c20.68-13.977,42.681-24.875,65.755-32.645c-22.479,15.121-40.591,35.845-52.504,60.175c-1.825,3.729-0.283,8.232,3.446,10.058  c3.728,1.825,8.233,0.283,10.058-3.446c11.267-23.012,28.67-42.465,50.329-56.256c22.238-14.16,47.997-21.645,74.492-21.645  c76.586,0,138.894,62.308,138.894,138.895S332.588,394.896,256,394.896s-138.895-62.308-138.895-138.895  c0-3.712,0.147-7.46,0.44-11.141c0.329-4.139-2.761-7.76-6.899-8.089c-4.138-0.331-7.761,2.761-8.089,6.899  c-0.323,4.075-0.487,8.225-0.487,12.331c0,53.14,27.068,100.074,68.139,127.746c-16.617-5.597-32.736-12.819-48.092-21.593  C78.741,337.366,42.862,301.657,15.451,256.001z" fill="#000000" data-original="#000000" class=""/>
<circle xmlns="http://www.w3.org/2000/svg" style="" cx="253.063" cy="261.794" r="49.247" fill="#333d47" data-original="#5c6d7d" class=""/>
<path xmlns="http://www.w3.org/2000/svg" style="" d="M302.319,261.792c0,27.205-22.053,49.257-49.257,49.257c-4.31,0-8.49-0.551-12.47-1.594  c21.17-5.523,36.788-24.769,36.788-47.663s-15.617-42.14-36.788-47.663c3.979-1.042,8.159-1.594,12.47-1.594  C280.266,212.534,302.319,234.587,302.319,261.792z" fill="#53616d" data-original="#53616d"/>
<g xmlns="http://www.w3.org/2000/svg">
	<circle style="" cx="280.779" cy="228.364" r="27.41" fill="#edebed" data-original="#edebed"/>
	<path style="" d="M308.193,228.365c0,15.14-12.273,27.413-27.413,27.413c-2.399,0-4.725-0.307-6.94-0.887   c11.782-3.073,20.474-13.785,20.474-26.526c0-12.741-8.692-23.452-20.474-26.526c2.214-0.58,4.541-0.887,6.94-0.887   C295.919,200.952,308.193,213.224,308.193,228.365z" fill="#edebed" data-original="#edebed"/>
</g>
<path xmlns="http://www.w3.org/2000/svg" d="M315.707,228.365c0-19.26-15.668-34.928-34.928-34.928c-10.311,0-19.589,4.494-25.988,11.622  c-0.575-0.018-1.151-0.036-1.73-0.036c-31.304,0-56.77,25.467-56.77,56.77s25.467,56.77,56.77,56.77s56.77-25.467,56.77-56.77  c0-4.192-0.464-8.276-1.334-12.209C313.014,243.697,315.707,236.341,315.707,228.365z M280.779,208.473  c10.968,0,19.892,8.923,19.892,19.892c0,10.968-8.923,19.892-19.892,19.892s-19.893-8.923-19.893-19.892  C260.886,217.396,269.81,208.473,280.779,208.473z M253.061,303.527c-23.012,0-41.734-18.723-41.734-41.734  c0-20.862,15.393-38.175,35.413-41.231c-0.575,2.511-0.89,5.121-0.89,7.804c0,19.259,15.669,34.928,34.929,34.928  c4.967,0,9.69-1.048,13.972-2.925c0.016,0.474,0.044,0.946,0.044,1.424C294.796,284.805,276.073,303.527,253.061,303.527z" fill="#000000" data-original="#000000" class=""/>
<path xmlns="http://www.w3.org/2000/svg" d="M256,43.765c-4.153,0-7.518-3.366-7.518-7.518V8.656c0-4.152,3.365-7.518,7.518-7.518c4.153,0,7.518,3.366,7.518,7.518  v27.591C263.518,40.399,260.153,43.765,256,43.765z" fill="#000000" data-original="#000000" class=""/>
<path xmlns="http://www.w3.org/2000/svg" d="M256,510.863c-4.153,0-7.518-3.366-7.518-7.518v-27.591c0-4.152,3.365-7.518,7.518-7.518c4.153,0,7.518,3.366,7.518,7.518  v27.591C263.518,507.498,260.153,510.863,256,510.863z" fill="#000000" data-original="#000000" class=""/>
<path xmlns="http://www.w3.org/2000/svg" d="M146.131,73.208c-2.598,0-5.124-1.348-6.518-3.76l-13.796-23.894c-2.076-3.596-0.844-8.194,2.752-10.269  c3.595-2.077,8.193-0.844,10.269,2.752l13.796,23.894c2.076,3.596,0.844,8.194-2.752,10.269  C148.699,72.882,147.406,73.208,146.131,73.208z" fill="#000000" data-original="#000000" class=""/>
<path xmlns="http://www.w3.org/2000/svg" d="M379.68,477.727c-2.598,0-5.124-1.348-6.518-3.76l-13.796-23.895c-2.076-3.596-0.844-8.194,2.752-10.269  c3.595-2.077,8.193-0.845,10.269,2.752l13.796,23.894c2.076,3.596,0.844,8.194-2.752,10.269  C382.249,477.402,380.956,477.727,379.68,477.727z" fill="#000000" data-original="#000000" class=""/>
<path xmlns="http://www.w3.org/2000/svg" d="M65.681,153.643c-1.275,0-2.568-0.325-3.752-1.008l-23.895-13.796c-3.596-2.076-4.827-6.674-2.752-10.269  c2.075-3.596,6.671-4.828,10.269-2.752l23.895,13.796c3.596,2.076,4.827,6.674,2.752,10.269  C70.806,152.294,68.279,153.643,65.681,153.643z" fill="#000000" data-original="#000000" class=""/>
<path xmlns="http://www.w3.org/2000/svg" d="M470.201,387.192c-1.275,0-2.568-0.325-3.752-1.008l-23.895-13.796c-3.596-2.076-4.827-6.674-2.752-10.269  c2.075-3.596,6.671-4.828,10.269-2.752l23.895,13.796c3.596,2.076,4.828,6.674,2.752,10.269  C475.326,385.843,472.799,387.192,470.201,387.192z" fill="#000000" data-original="#000000" class=""/>
<path xmlns="http://www.w3.org/2000/svg" d="M41.8,387.192c-2.598,0-5.125-1.348-6.518-3.76c-2.076-3.596-0.844-8.194,2.752-10.269l23.895-13.796  c3.594-2.077,8.195-0.845,10.269,2.752c2.076,3.596,0.844,8.194-2.752,10.269l-23.895,13.796  C44.368,386.868,43.075,387.192,41.8,387.192z" fill="#000000" data-original="#000000" class=""/>
<path xmlns="http://www.w3.org/2000/svg" d="M446.32,153.643c-2.598,0-5.125-1.348-6.518-3.76c-2.076-3.596-0.844-8.194,2.752-10.269l23.895-13.796  c3.594-2.076,8.194-0.844,10.269,2.752c2.076,3.596,0.844,8.194-2.752,10.269l-23.895,13.795  C448.889,153.318,447.595,153.643,446.32,153.643z" fill="#000000" data-original="#000000" class=""/>
<path xmlns="http://www.w3.org/2000/svg" d="M132.322,477.727c-1.275,0-2.568-0.325-3.752-1.008c-3.596-2.076-4.827-6.674-2.752-10.269l13.795-23.895  c2.075-3.596,6.672-4.828,10.269-2.752c3.596,2.076,4.827,6.674,2.752,10.269l-13.796,23.894  C137.447,476.379,134.919,477.727,132.322,477.727z" fill="#000000" data-original="#000000" class=""/>
<path xmlns="http://www.w3.org/2000/svg" d="M365.871,73.208c-1.275,0-2.568-0.325-3.752-1.008c-3.596-2.076-4.828-6.674-2.752-10.269l13.796-23.894  c2.075-3.597,6.672-4.828,10.269-2.752c3.596,2.076,4.828,6.674,2.752,10.269l-13.796,23.894  C370.996,71.859,368.469,73.208,365.871,73.208z" fill="#000000" data-original="#000000" class=""/>
<g xmlns="http://www.w3.org/2000/svg">
</g>
<g xmlns="http://www.w3.org/2000/svg">
</g>
<g xmlns="http://www.w3.org/2000/svg">
</g>
<g xmlns="http://www.w3.org/2000/svg">
</g>
<g xmlns="http://www.w3.org/2000/svg">
</g>
<g xmlns="http://www.w3.org/2000/svg">
</g>
<g xmlns="http://www.w3.org/2000/svg">
</g>
<g xmlns="http://www.w3.org/2000/svg">
</g>
<g xmlns="http://www.w3.org/2000/svg">
</g>
<g xmlns="http://www.w3.org/2000/svg">
</g>
<g xmlns="http://www.w3.org/2000/svg">
</g>
<g xmlns="http://www.w3.org/2000/svg">
</g>
<g xmlns="http://www.w3.org/2000/svg">
</g>
<g xmlns="http://www.w3.org/2000/svg">
</g>
<g xmlns="http://www.w3.org/2000/svg">
</g>
</g></svg>
