<?xml version="1.0"?>
<svg xmlns="http://www.w3.org/2000/svg" xmlns:xlink="http://www.w3.org/1999/xlink" xmlns:svgjs="http://svgjs.com/svgjs" version="1.1" width="512" height="512" x="0" y="0" viewBox="0 0 512 512" style="enable-background:new 0 0 512 512" xml:space="preserve"><g><g xmlns="http://www.w3.org/2000/svg"><g><path d="m501.196 327.834c-8.645-9.454-20.851-14.024-32.909-13.321 2.002-2.384 3.799-4.767 5.393-7.089 12.324-17.957 15.592-35.919 15.726-36.675.512-2.911-.289-5.899-2.189-8.163s-4.704-3.571-7.66-3.571h-27.76c-2.354-19.822-18.597-35.958-38.642-37.95-6.791-.645-12.376-1.062-17.162-6.725-10.78-12.774-26.538-20.101-43.233-20.101-7.55 0-14.397 1.879-20.972-3.037-9.697-7.23-21.222-11.053-33.328-11.053-11.372 0-22.323 3.409-31.675 9.863-9.313 6.435-20.38.316-30.555.316-15.149 0-29.26 6.029-39.737 16.979-7.344 7.678-16.905 4.13-26.121 4.596-25.22 1.309-45.52 21.274-47.219 46.449-.015.221-.012.441-.024.662h-30.789c-2.956 0-5.76 1.308-7.66 3.571s-2.701 5.252-2.189 8.163c.133.756 3.401 18.718 15.725 36.675 7.46 10.87 19.22 23.073 36.976 30.416-4.108 2.137-8.017 4.532-11.728 7.179-1.833-2.271-4.636-3.727-7.782-3.727h-105.682c-5.523 0-10 4.478-10 10v121.594c0 5.522 4.477 10 10 10h105.683c5.523 0 10-4.478 10-10v-4.408h71.373c5.523 0 10-4.478 10-10s-4.477-10-10-10h-71.373v-79.266c16.604-16.392 40.306-24.697 70.524-24.697h100.55c25.084 0 44.195 14.224 48.842 34.991h-97.865c-5.523 0-10 4.478-10 10s4.477 10 10 10h108.961 11.818c2.063 0 4.076-.639 5.762-1.827l84.229-59.385c8.718-6.154 20.724-4.847 27.931 3.034 3.588 3.926 5.564 9.005 5.564 14.302 0 6.999-3.264 13.327-8.959 17.365l-94.005 66.72c-8.066 5.732-17.57 8.763-27.486 8.763h-76.585c-5.523 0-10 4.478-10 10s4.477 10 10 10h76.585c14.092 0 27.603-4.309 39.067-12.456l93.996-66.714c10.888-7.718 17.388-20.307 17.388-33.676 0-10.304-3.837-20.176-10.804-27.797zm-329.797-95.957c7.513-.394 14.352 1.45 21.868-.485 6.695-1.723 12.893-5.257 17.678-10.26 6.666-6.966 15.646-10.803 25.285-10.803 7.258 0 13.977 2.984 21.281 2.804 7.346-.182 14.583-2.478 20.639-6.663 5.992-4.135 13.015-6.32 20.311-6.32 7.765 0 15.156 2.45 21.363 7.079 8.018 5.993 18.214 8.674 27.971 7.35 12.596-1.709 24.884 3.146 32.918 12.666 8.205 9.709 18.4 12.579 30.508 13.727 9.938.988 18.147 8.486 20.314 18.044h-288.374c1.328-14.521 13.606-26.38 28.238-27.139zm-151.399 231.01v-101.594h85.683v101.594zm150.716-138.371c-41.505 0-58.594-28.71-65.039-45.501h27.903c.037 0 .073.005.11.005h308.05c.036 0 .071-.005.107-.005h24.373c-6.445 16.791-23.534 45.501-65.039 45.501zm195.184 54.597c-2.066-13.275-8.121-25.23-17.579-34.598h52.859c5.471 0 10.595-.412 15.416-1.145z" fill="#1f1f1f" data-original="#000000" style=""/><path d="m253.117 225.593h-11.62c-5.523 0-10 4.478-10 10s4.477 10 10 10h11.62c5.523 0 10-4.478 10-10s-4.477-10-10-10z" fill="#1f1f1f" data-original="#000000" style=""/><path d="m326.679 230.761-10.087-7.821c-4.363-3.385-10.646-2.59-14.03 1.774-3.384 4.365-2.589 10.646 1.775 14.03l10.087 7.821c1.823 1.414 3.979 2.098 6.121 2.098 2.985 0 5.939-1.331 7.91-3.872 3.383-4.365 2.588-10.647-1.776-14.03z" fill="#1f1f1f" data-original="#000000" style=""/><path d="m270.953 98.637c2.147 0 4.311-.688 6.136-2.109 4.358-3.393 5.14-9.676 1.748-14.034-5.855-7.52-7.736-15.86-5.591-24.79 1.736-7.227 5.492-12.313 5.628-12.494 3.35-4.356 2.558-10.605-1.785-13.986-4.356-3.391-10.641-2.611-14.034 1.747-8.322 10.689-19.033 37.364 0 61.811 1.972 2.53 4.919 3.856 7.898 3.855z" fill="#1f1f1f" data-original="#000000" style=""/><path d="m296.183 147.766c-.063 5.522 4.364 10.05 9.886 10.112.039.001.077.001.116.001 5.47 0 9.935-4.403 9.997-9.887.121-10.725 6.434-19.189 6.457-19.221 1.107-1.422 10.812-14.405 10.676-32.183-.08-10.663-3.672-20.631-10.676-29.627-3.393-4.359-9.676-5.14-14.034-1.748-4.358 3.393-5.14 9.676-1.748 14.033 4.298 5.521 6.411 11.243 6.458 17.493.083 10.971-6.433 19.71-6.458 19.744-1.071 1.378-10.478 13.953-10.674 31.283z" fill="#1f1f1f" data-original="#000000" style=""/><path d="m250.73 454.649c-3.445-8.263-15.638-7.967-18.646.461-3.059 8.569 6.449 16.498 14.338 12.06 4.358-2.451 6.196-7.911 4.308-12.521z" fill="#1f1f1f" data-original="#000000" style=""/></g></g></g></svg>
