<?xml version="1.0"?>
<svg xmlns="http://www.w3.org/2000/svg" xmlns:xlink="http://www.w3.org/1999/xlink" xmlns:svgjs="http://svgjs.com/svgjs" version="1.1" width="512" height="512" x="0" y="0" viewBox="0 0 511.999 511.999" style="enable-background:new 0 0 512 512" xml:space="preserve" class=""><g>
<path xmlns="http://www.w3.org/2000/svg" style="" d="M336.777,459.999H210.533c-23.196,0-42.001,18.804-42.001,42.001l0,0h210.246l0,0  C378.778,478.803,359.973,459.999,336.777,459.999z" fill="#909090" data-original="#f5b955" class=""/>
<path xmlns="http://www.w3.org/2000/svg" style="" d="M389.497,344.159c-76.576,64.255-190.742,54.267-254.997-22.309S80.233,131.108,156.809,66.853  s190.742-54.267,254.997,22.309S466.073,279.905,389.497,344.159z" fill="#3ab6ed" data-original="#78d2fa" class=""/>
<g xmlns="http://www.w3.org/2000/svg">
	<path style="" d="M274.89,162.266c-1.23,0.527-3.604,1.596-4.528,2.648c-1.152,1.313,1.192,2.343,0.534,3.091   c-1.136,1.291-1.756,3.379-4.62,3.698c-5.982,0.666-16.423-5.384-22.338-7.322c7.133-10.505-6.891-9.417-12.185-8.02   c-6.856,1.809-19.008,3.305-24.67,7.952c-3.93,3.225-7.995,14.454-10.796,19.123c-3.898,6.499-7.958,12.259-9.956,19.568   c-7.329,26.814,15.68,52.059,43.383,43.748c7.691-2.307,15.059-8.698,23.168-3.409c5.976,3.898,4.058,8.894,6.405,14.255   c2.031,4.638,7.923,6.673,10.564,10.795c5.064,7.903,3.751,13.636,2.597,21.952c-1.515,10.912,9.272,21.65,14.385,31.022   c2.575,4.719,9.978,17.899,15.202,19.245c8.214,2.116,18.304-10.353,21.861-16.73c2.781-4.985,0.841-9.209,2.506-13.712   c1.802-4.873,4.834-6.775,5.638-12.789c0.866-6.483,2.622-8.367,5.948-13.572c5.355-8.379,3.583-12.412-0.574-20.494   c-8.636-16.79,9.894-28.62,16.601-43.245c7.004-15.273-10.375-7.529-18.32-10.93c-8.169-3.497-12.975-12.031-17.835-18.952   c-4.861-6.922-9.782-17.743-16.721-22.909C295.794,163.297,281.702,163.5,274.89,162.266z" fill="#62d744" data-original="#a5dc69" class=""/>
	<path style="" d="M411.806,89.162c-40.078-47.763-99.573-69.616-157.254-63.711l-18.154,33.351l-38.061,21.375   c-5.605,3.148-9.601,8.538-10.983,14.817l-2.816,12.789c-1.671,7.587,0.681,15.501,6.225,20.944l16.871,16.567l4.229-24.63   l52.179-9.2l41.594,6.858l15.761,10.499l1.442,8.18l25.089,32.618l5.106-2.977c11.026-6.428,20.527-15.171,27.848-25.626   l-5.726-5.994c-1.821-1.906-0.783-5.072,1.813-5.53l10.929-1.927c3.2-0.564,6.488,0.301,8.995,2.368l10.771,8.878   c1.026,0.846,1.892,1.869,2.557,3.021l6.145,10.651c3.475,6.023,12.335,5.49,15.061-0.907c3.617-8.488,7.476-17.339,7.984-17.692   C432.607,118.094,423.427,103.012,411.806,89.162z" fill="#62d744" data-original="#a5dc69" class=""/>
	<path style="" d="M194.733,317.696c7.576-4.028,10.452-13.434,6.424-21.009l-3.541-6.661   c-1.547-2.91-2.128-6.236-1.661-9.498l0,0c1.326-9.247-5.751-17.565-15.091-17.737l-18.633-0.344l-37.316-19.216l-25.643,13.634   c6.837,23.153,18.431,45.312,34.941,64.985c15.268,18.195,33.358,32.624,53.088,43.197l0.645-43.741L194.733,317.696z" fill="#62d744" data-original="#a5dc69" class=""/>
</g>
<path xmlns="http://www.w3.org/2000/svg" d="M446.401,258.882c-5.182-1.902-10.95,0.817-12.855,5.999c-0.002,0.006-0.004,0.012-0.007,0.019  c-1.895,5.186,0.748,10.988,5.932,12.886c1.121,0.41,2.269,0.604,3.399,0.604c4.086,0,7.94-2.539,9.438-6.583  c0.004-0.011,0.008-0.022,0.012-0.033C454.221,266.591,451.584,260.785,446.401,258.882z" fill="#000000" data-original="#000000" style="" class=""/>
<path xmlns="http://www.w3.org/2000/svg" d="M456.423,151.559c-7.436-25.305-19.869-48.462-36.957-68.825c-58.13-69.276-155.349-86.852-232.744-47.576  c-0.131-0.286-0.273-0.57-0.434-0.848L169.366,5.002c-2.762-4.783-8.877-6.422-13.66-3.66c-4.783,2.761-6.422,8.877-3.66,13.66  l0.348,0.602C124.616,33.18,101.538,56.04,83.734,83.701c-2.989,4.645-1.647,10.832,2.997,13.821  c1.674,1.078,3.549,1.592,5.403,1.592c3.287,0,6.507-1.619,8.418-4.589c16.062-24.958,36.85-45.629,61.849-61.586l6.565,11.371  c0.157,0.272,0.339,0.518,0.517,0.77c-6.572,4.254-12.955,8.952-19.103,14.111C69.703,126.888,59.142,247.6,126.838,328.278  c37.729,44.963,91.914,68.145,146.468,68.145c29.763,0,59.636-6.904,87-20.937c0.177,0.445,0.376,0.885,0.623,1.311l6.571,11.381  c-29.107,15.098-60.833,22.877-92.967,23.042c-0.29-0.025-0.581-0.044-0.878-0.044c-0.247,0-0.49,0.019-0.733,0.037  c-17.649-0.049-35.409-2.379-52.911-7.069c-52.975-14.195-97.252-48.169-124.673-95.666  c-23.908-41.411-32.643-90.126-24.592-137.172c0.931-5.444-2.727-10.612-8.17-11.543c-5.443-0.932-10.612,2.728-11.543,8.17  c-8.834,51.638,0.75,105.102,26.986,150.546c30.093,52.123,78.682,89.407,136.817,104.984c16.154,4.328,32.507,6.83,48.82,7.55  v18.985h-53.123c-28.674,0-52.001,23.327-52.001,52.001c0,5.523,4.477,10,10,10h210.246c5.523,0,10-4.477,10-10  c0-28.673-23.327-52.001-52.001-52.001h-53.122V431c32.479-1.478,64.402-10.059,93.854-25.486l0.341,0.591  c1.852,3.208,5.213,5.001,8.669,5.001c1.696,0,3.416-0.432,4.991-1.341c4.783-2.761,6.422-8.877,3.66-13.66l-16.921-29.31  c-0.256-0.444-0.55-0.851-0.86-1.24c6.371-4.156,12.565-8.727,18.536-13.736c12.32-10.338,23.276-22.147,32.564-35.102  c3.218-4.488,2.188-10.735-2.3-13.954c-4.488-3.218-10.736-2.188-13.954,2.3c-8.313,11.594-18.125,22.17-29.166,31.434  c-53.346,44.763-126.238,51.299-185.124,22.563v-31.745l1.483-0.789c12.432-6.609,17.169-22.101,10.56-34.534l-3.542-6.661  c-0.555-1.043-0.759-2.214-0.591-3.384c1.039-7.245-1.085-14.597-5.828-20.172c-4.743-5.574-11.66-8.849-18.977-8.984l-16.308-0.301  l-35.248-18.151c-2.914-1.5-6.378-1.478-9.272,0.061l-14.113,7.503c-12.983-60.068,6.87-125.218,57.128-167.39  c21.668-18.182,46.563-30.051,72.433-35.819l-6.966,12.797l-35.551,19.966c-8.082,4.539-13.86,12.333-15.853,21.386l-2.815,12.789  c-2.427,11.021,0.932,22.323,8.984,30.231l16.871,16.567c0.957,0.94,2.078,1.652,3.281,2.135c-1.018,0.615-1.99,1.28-2.886,2.015  c-4.05,3.324-6.833,8.84-10.324,16.27c-0.997,2.121-2.027,4.313-2.702,5.439c-0.641,1.069-1.287,2.118-1.927,3.156  c-3.472,5.637-7.063,11.466-9.1,18.919c-4.515,16.518,0.077,33.997,11.985,45.615c11.547,11.266,27.963,15.135,43.918,10.348  c2.604-0.781,5.012-1.848,7.137-2.79c5.468-2.424,6.554-2.566,7.694-1.822c0.088,0.058,0.155,0.105,0.204,0.143  c0.131,0.436,0.288,1.362,0.407,2.062c0.338,1.994,0.801,4.724,2.098,7.686c2.137,4.88,5.926,7.813,8.693,9.954  c0.912,0.706,2.29,1.772,2.611,2.226c2.571,4.011,2.391,6.238,1.372,13.345l-0.261,1.836c-1.628,11.733,5.312,21.861,10.887,29.999  c1.778,2.594,3.457,5.044,4.625,7.187c10.407,19.075,16.701,22.906,21.485,24.139c1.472,0.379,2.932,0.555,4.374,0.555  c12.829,0,24.156-13.922,28.716-22.097c2.782-4.987,2.889-9.549,2.959-12.568c0.023-1.013,0.05-2.162,0.193-2.548  c0.361-0.978,0.885-1.829,1.61-3.007c1.599-2.599,3.789-6.158,4.56-11.924c0.45-3.363,0.862-3.993,3.15-7.488  c0.409-0.625,0.846-1.293,1.313-2.023c8.62-13.486,4.184-22.112-0.107-30.454c-2.676-5.203-0.768-9.053,7.184-19.591  c3.479-4.611,7.077-9.379,9.614-14.912c1.208-2.635,4.886-10.655,0.314-17.608c-4.498-6.841-12.476-6.661-18.301-6.532  c-1.72,0.04-4.585,0.103-5.554-0.179c-4.261-1.862-7.843-7.144-11.308-12.252c-0.744-1.097-1.478-2.179-2.213-3.226  c-1.245-1.773-2.593-4.006-4.021-6.37c-3.965-6.566-8.458-14.009-14.912-18.813c-6.024-4.484-15.45-5.334-23.767-6.083  c-2.619-0.236-5.092-0.458-6.671-0.745c-1.928-0.349-3.917-0.124-5.72,0.647c-3.934,1.686-6.358,3.253-8.105,5.243  c-0.595,0.678-1.143,1.476-1.593,2.368c-1.762-0.645-3.724-1.474-5.349-2.179c-0.202-2.964-1.356-5.217-2.384-6.669  c-6.567-9.273-21.412-5.914-24.32-5.145c-1.422,0.375-3.284,0.772-5.256,1.192c-2.395,0.511-4.976,1.061-7.58,1.734  c0.394-0.822,0.68-1.704,0.839-2.628l3.039-17.696l43.571-7.682l37.786,6.229l10.408,6.933l0.699,3.966  c0.28,1.587,0.939,3.083,1.922,4.36l25.089,32.618c1.954,2.541,4.916,3.904,7.933,3.904c1.718,0,3.454-0.442,5.03-1.361l5.106-2.977  c12.189-7.106,22.91-16.971,31.003-28.529c1.946-2.779,2.303-6.259,1.161-9.278c0.107,0.042,0.208,0.101,0.299,0.176l10.771,8.878  c0.104,0.085,0.189,0.187,0.256,0.302l6.145,10.651c3.514,6.091,10.066,9.608,17.076,9.188c5.43-0.328,10.287-2.972,13.486-7.145  c5.791,20.794,7.589,42.743,5.113,64.955c-0.612,5.489,3.342,10.435,8.831,11.046c5.49,0.617,10.435-3.342,11.046-8.831  C465.807,201.277,463.603,175.998,456.423,151.559z M336.777,469.999c14.154,0,26.192,9.237,30.401,22H180.131  c4.208-12.763,16.246-22,30.401-22H336.777z M124.989,254.516l32.664,16.82c1.36,0.7,2.864,1.08,4.394,1.108l18.634,0.343  c2.171,0.041,3.509,1.237,4.113,1.947c0.604,0.71,1.572,2.223,1.263,4.373c-0.774,5.398,0.17,10.796,2.73,15.611l3.541,6.661  c1.433,2.695,0.406,6.053-2.289,7.486l-6.789,3.609c-3.265,1.736-5.306,5.132-5.306,8.83v26.253  c-13.085-8.762-25.165-19.482-35.785-32.138c-13.768-16.409-23.909-34.671-30.532-53.802L124.989,254.516z M228.113,167.444  c2.127-0.454,4.141-0.883,5.969-1.357c0.089,0.513,0.218,1.022,0.389,1.522c1.014,2.973,3.365,5.296,6.35,6.274  c1.366,0.448,3.425,1.351,5.604,2.307c6.633,2.91,14.154,6.209,20.955,5.452c6.739-0.75,9.839-5.267,11.006-6.968  c0.053-0.077,0.104-0.153,0.156-0.228c0.386-0.459,0.749-0.972,1.07-1.532c0.635,0.059,1.281,0.117,1.934,0.176  c3.765,0.339,11.576,1.043,13.684,2.255c3.284,2.485,6.674,8.101,9.668,13.06c1.54,2.551,3.133,5.188,4.775,7.526  c0.674,0.96,1.347,1.953,2.028,2.958c4.623,6.816,10.375,15.298,20.056,19.441c3.549,1.519,7.279,1.799,10.783,1.803  c-1.459,2.25-3.208,4.568-5.018,6.966c-7.524,9.972-17.83,23.628-9.004,40.787c3.466,6.739,3.466,6.739,1.04,10.536  c-0.425,0.664-0.822,1.271-1.195,1.84c-2.783,4.253-5.188,7.925-6.239,15.792c-0.208,1.554-0.633,2.246-1.77,4.093  c-1.019,1.656-2.287,3.717-3.335,6.552c-1.301,3.518-1.375,6.696-1.429,9.018c-0.049,2.101-0.105,2.707-0.431,3.291  c-2.757,4.941-7.692,10.048-10.413,11.482c-1.431-1.513-4.418-5.261-9.14-13.914c-1.654-3.032-3.703-6.021-5.684-8.912  c-3.815-5.568-8.14-11.879-7.576-15.944l0.248-1.746c1.166-8.123,2.371-16.521-4.33-26.977c-2.125-3.317-4.945-5.499-7.211-7.252  c-0.91-0.704-2.268-1.755-2.657-2.265c-0.283-0.701-0.448-1.679-0.655-2.9c-0.676-3.987-1.807-10.659-9.404-15.614  c-10.546-6.878-20.672-2.392-26.722,0.289c-1.74,0.771-3.383,1.499-4.782,1.919c-9.021,2.706-17.841,0.699-24.202-5.507  c-6.707-6.544-9.259-16.516-6.659-26.025c1.28-4.683,3.854-8.863,6.836-13.704c0.68-1.104,1.367-2.22,2.049-3.357  c1.196-1.993,2.389-4.533,3.653-7.222c1.316-2.801,3.747-7.974,5.031-9.409C216.085,170.007,223.596,168.406,228.113,167.444z   M423.176,144.771l-4.578-7.936c-1.267-2.195-2.901-4.126-4.858-5.74l-10.771-8.878c-4.772-3.934-11.004-5.573-17.093-4.5  l-10.928,1.927c-4.84,0.853-8.798,4.284-10.329,8.954c-1.495,4.56-0.426,9.539,2.785,13.078  c-4.988,5.735-10.826,10.765-17.231,14.83l-18.197-23.657l-1.016-5.764c-0.475-2.691-2.03-5.071-4.304-6.586l-15.761-10.5  c-1.182-0.787-2.517-1.313-3.917-1.544l-41.595-6.857c-1.114-0.185-2.251-0.178-3.363,0.019l-52.179,9.2  c-4.156,0.733-7.405,3.996-8.12,8.156l-0.997,5.804l-3.242-3.184c-3.105-3.049-4.401-7.408-3.465-11.659l2.815-12.789  c0.769-3.492,2.997-6.498,6.114-8.249l38.061-21.375c1.64-0.921,2.987-2.286,3.886-3.938l15.531-28.532  c52.981-3.884,107.042,16.827,143.721,60.539c9.775,11.65,17.826,24.299,24.089,37.66  C427.043,135.846,425.355,139.691,423.176,144.771z" fill="#000000" data-original="#000000" style="" class=""/>
<path xmlns="http://www.w3.org/2000/svg" d="M68.617,137.804c1.177,0.451,2.386,0.664,3.576,0.664c4.022,0,7.815-2.445,9.34-6.425l0.273-0.707  c1.997-5.149-0.559-10.942-5.708-12.939c-5.149-1.997-10.942,0.559-12.939,5.708l-0.302,0.783  C60.88,130.046,63.46,135.828,68.617,137.804z" fill="#000000" data-original="#000000" style="" class=""/>
<g xmlns="http://www.w3.org/2000/svg">
</g>
<g xmlns="http://www.w3.org/2000/svg">
</g>
<g xmlns="http://www.w3.org/2000/svg">
</g>
<g xmlns="http://www.w3.org/2000/svg">
</g>
<g xmlns="http://www.w3.org/2000/svg">
</g>
<g xmlns="http://www.w3.org/2000/svg">
</g>
<g xmlns="http://www.w3.org/2000/svg">
</g>
<g xmlns="http://www.w3.org/2000/svg">
</g>
<g xmlns="http://www.w3.org/2000/svg">
</g>
<g xmlns="http://www.w3.org/2000/svg">
</g>
<g xmlns="http://www.w3.org/2000/svg">
</g>
<g xmlns="http://www.w3.org/2000/svg">
</g>
<g xmlns="http://www.w3.org/2000/svg">
</g>
<g xmlns="http://www.w3.org/2000/svg">
</g>
<g xmlns="http://www.w3.org/2000/svg">
</g>
</g></svg>
