<?xml version="1.0"?>
<svg xmlns="http://www.w3.org/2000/svg" xmlns:xlink="http://www.w3.org/1999/xlink" xmlns:svgjs="http://svgjs.com/svgjs" version="1.1" width="512" height="512" x="0" y="0" viewBox="0 0 512 512" style="enable-background:new 0 0 512 512" xml:space="preserve" class=""><g>
<g xmlns="http://www.w3.org/2000/svg">
	<g>
		<path d="M431.267,343.512c-0.103,0.103-0.208,0.201-0.311,0.304l-17.711-17.711c34.708-34.591,56.219-82.416,56.219-135.173    C469.464,85.651,383.813,0,278.532,0c-52.588,0-100.277,21.371-134.841,55.884l-17.869-17.869    c3.879-3.907,3.872-10.219-0.025-14.115c-3.905-3.905-10.238-3.905-14.142,0c-39.407,39.407-63.663,91.649-68.298,147.104    c-4.581,54.8,10.121,109.686,41.398,154.549c1.944,2.788,5.052,4.282,8.212,4.282c1.974,0,3.968-0.583,5.71-1.798    c4.53-3.159,5.643-9.392,2.484-13.922c-56.01-80.338-50.523-187.178,11.167-261.309l17.953,17.953    C103.61,103.598,87.6,145.427,87.6,190.931c0,105.28,85.651,190.932,190.932,190.932c45.334,0,87.02-15.892,119.803-42.383    l17.794,17.794c-73.216,60.556-178.862,66.565-258.664,12.436c-4.571-3.102-10.789-1.908-13.889,2.663    c-3.1,4.57-1.908,10.789,2.663,13.889c37.266,25.277,79.684,38.547,122.293,40.303V452h-36c-27.57,0-50,22.43-50,50    c0,5.523,4.477,10,10,10h172c5.523,0,10-4.477,10-10c0-27.57-22.43-50-50-50h-36v-25.459    c57.446-2.483,113.82-25.829,156.877-68.886c3.905-3.905,3.905-10.237,0-14.143C441.504,339.608,435.172,339.608,431.267,343.512z     M275.677,46.275l20.245-25.395c70.4,7.144,128.308,57.19,147.099,123.506l-2.385,2.127c-2.241,1.999-4.031,4.42-5.292,7.09    l-2.005-5.514c-0.864-2.376-2.136-4.556-3.779-6.48l-9.026-10.567c-4.008-4.692-9.845-7.383-16.015-7.383H393.47    c-4.909,0-9.398,2.689-11.714,7.018c-2.255,4.215-2.075,9.281,0.451,13.315c-5.861,4.74-12.428,8.646-19.383,11.516    l-13.729-26.298v-5.816c0-2.732-1.118-5.346-3.095-7.233l-13.639-13.021c-1.027-0.98-2.25-1.73-3.59-2.201l-39.598-13.915    c-1.065-0.374-2.187-0.565-3.315-0.565H251.41c-11.261,0-21.675,5.29-28.385,13.861l-7.872-11.027l9.731-23.589l46.282-16.226    C272.941,48.855,274.504,47.745,275.677,46.275z M325.536,257.163c2.226,7.184,2.226,7.184-0.792,10.468    c-0.531,0.577-1.025,1.104-1.488,1.596c-3.469,3.693-6.465,6.882-8.859,14.423c-0.47,1.48-1.004,2.083-2.434,3.692    c-1.287,1.449-2.888,3.252-4.408,5.855c-1.887,3.23-2.511,6.338-2.966,8.608c-0.41,2.042-0.568,2.625-0.982,3.133    c-3.537,4.344-9.227,8.483-12.144,9.434c-1.144-1.743-3.417-5.935-6.533-15.186c-1.099-3.261-2.59-6.547-4.033-9.725    c-2.775-6.112-5.92-13.04-4.669-16.913l0.545-1.67c2.549-7.77,5.185-15.804,0.417-27.228c-1.513-3.627-3.904-6.257-5.825-8.371    c-0.766-0.843-1.909-2.1-2.205-2.666c-0.153-0.731-0.147-1.715-0.139-2.943c0.026-4.033,0.071-10.783-6.535-16.967    c-9.168-8.584-19.888-5.932-26.292-4.348c-1.837,0.455-3.573,0.884-5.016,1.054c-9.292,1.091-17.584-2.395-22.738-9.567    c-5.436-7.563-6.212-17.766-2.027-26.626c2.062-4.364,5.307-8.015,9.064-12.243c0.859-0.966,1.726-1.942,2.591-2.939    c1.519-1.75,3.128-4.035,4.833-6.455c1.771-2.515,5.043-7.158,6.548-8.345c2.819-1.457,10.452-1.727,15.042-1.89    c2.146-0.076,4.179-0.148,6.042-0.295c0.001,0.505,0.04,1.013,0.119,1.52c0.482,3.103,2.395,5.799,5.164,7.281    c1.26,0.674,3.122,1.915,5.092,3.229c6.006,4.003,12.814,8.542,19.625,8.976c6.763,0.43,10.59-3.471,12.032-4.941    c0.064-0.066,0.127-0.131,0.191-0.195c0.453-0.379,0.893-0.814,1.301-1.3c0.604,0.166,1.219,0.332,1.84,0.5    c3.626,0.982,11.147,3.018,13.007,4.567c2.784,2.999,5.136,9.087,7.213,14.463c1.069,2.768,2.175,5.629,3.381,8.207    c0.495,1.057,0.982,2.146,1.477,3.249c3.356,7.488,7.534,16.807,16.32,22.55c3.173,2.074,6.845,3.018,10.202,3.623    c-1.807,1.935-3.902,3.886-6.07,5.905C332.318,227.167,319.841,238.787,325.536,257.163z M165.426,287.223l-5.171,26.991    c-26.317-25.258-44.586-58.831-50.542-96.45l15.343-4.984l29.101,22.126c1.218,0.926,2.633,1.561,4.135,1.854l18.211,3.559    c2.106,0.412,3.202,1.806,3.668,2.6s1.147,2.431,0.479,4.471c-1.695,5.168-1.703,10.633-0.022,15.806l2.321,7.143    c0.932,2.868-0.643,5.958-3.511,6.89l-7.281,2.365C168.691,280.72,166.111,283.643,165.426,287.223z M278.531,361.863    c-37.637,0-72.465-12.237-100.735-32.929l6.158-32.145l1.661-0.54c13.356-4.338,20.692-18.734,16.353-32.09l-2.321-7.143    c-0.361-1.111-0.359-2.285,0.005-3.394c2.275-6.936,1.462-14.525-2.23-20.821c-3.692-6.297-9.919-10.711-17.084-12.112    l-15.929-3.112l-31.414-23.886c-2.609-1.982-6.023-2.562-9.143-1.55l-16.118,5.236c-0.08-2.14-0.134-4.287-0.134-6.446    c0-91.694,72.577-166.747,163.302-170.753l-9.07,11.377L214.04,48.311c-2.689,0.943-4.849,2.989-5.936,5.624l-13.55,32.848    c-1.313,3.184-0.896,6.82,1.105,9.624l20.902,29.281c0.351,0.491,0.754,0.929,1.177,1.342c-3.781,2.759-7.098,7.232-11.186,13.034    c-1.343,1.906-2.732,3.877-3.588,4.863c-0.814,0.938-1.629,1.855-2.437,2.764c-4.38,4.928-8.91,10.025-12.199,16.986    c-7.29,15.43-5.807,33.378,3.87,46.842c9.383,13.056,24.824,19.691,41.313,17.757c2.691-0.316,5.238-0.946,7.485-1.502    c5.761-1.425,6.844-1.38,7.82-0.466c0.07,0.065,0.123,0.12,0.163,0.162c0.051,0.452,0.045,1.375,0.041,2.073    c-0.014,2.016-0.032,4.776,0.729,7.909c1.254,5.166,4.467,8.701,6.813,11.282c0.769,0.846,1.931,2.125,2.168,2.622    c1.821,4.363,1.261,6.512-0.963,13.291l-0.574,1.757c-3.63,11.24,1.427,22.378,5.491,31.329c1.294,2.85,2.516,5.542,3.291,7.842    c6.913,20.519,12.431,25.37,16.917,27.409c2.532,1.151,5.091,1.644,7.618,1.643c14.519-0.001,27.945-16.248,28.604-17.057    c3.597-4.417,4.491-8.878,5.083-11.83c0.198-0.986,0.422-2.104,0.626-2.453c0.521-0.893,1.181-1.635,2.094-2.664    c2.02-2.274,4.786-5.39,6.542-10.92c1.019-3.21,1.531-3.755,4.374-6.781c0.509-0.542,1.053-1.121,1.637-1.756    c10.801-11.752,7.938-20.989,5.17-29.922c-1.718-5.542,0.815-8.979,10.419-17.923c4.211-3.921,8.565-7.976,12.012-12.966    c1.644-2.38,6.647-9.624,3.357-17.254c-3.237-7.507-11.104-8.713-16.849-9.594c-1.688-0.259-4.5-0.69-5.4-1.131    c-3.845-2.556-6.441-8.348-8.952-13.95c-0.54-1.204-1.073-2.392-1.613-3.545c-0.913-1.952-1.849-4.374-2.839-6.937    c-2.754-7.129-5.875-15.209-11.378-21.041c-5.14-5.448-14.241-7.912-22.271-10.086c-2.527-0.684-4.913-1.331-6.411-1.883    c-1.84-0.679-3.838-0.802-5.748-0.355c-4.155,0.975-6.808,2.095-8.869,3.748c-0.694,0.557-1.363,1.236-1.955,2.023    c-1.598-0.927-3.354-2.063-4.81-3.025c0.309-2.939-0.434-5.347-1.192-6.95c-4.847-10.253-20.007-9.524-23-9.274    c-1.458,0.122-3.352,0.189-5.356,0.26c-2.875,0.102-6.013,0.214-9.176,0.515l1.726-4.809c2.277-6.344,8.336-10.607,15.076-10.607    h32.743l35.957,12.635l8.986,8.579v3.991c0,1.612,0.39,3.199,1.135,4.628l18.961,36.32c2.328,4.459,7.604,6.495,12.325,4.754    l5.521-2.036c13.186-4.862,25.409-12.686,35.348-22.624c2.372-2.373,3.334-5.691,2.773-8.833c0.061,0.046,0.117,0.099,0.167,0.158    l9.026,10.567c0.083,0.098,0.148,0.208,0.191,0.327l9.961,27.392c1.168,3.212,3.896,5.605,7.232,6.345    c0.72,0.16,1.445,0.237,2.166,0.237c2.623,0,5.175-1.033,7.071-2.929l4.742-4.743c1.205-1.205,2.273-2.524,3.202-3.936    c0.357,4.501,0.545,9.048,0.545,13.639C449.463,285.183,372.783,361.863,278.531,361.863z M324.533,472    c13.037,0,24.158,8.359,28.286,20H204.246c4.127-11.641,15.249-20,28.287-20H324.533z" fill="#1f1f1f" data-original="#000000" style="" class=""/>
	</g>
</g>
<g xmlns="http://www.w3.org/2000/svg">
	<g>
		<path d="M118.726,338.989c-5.523,0-10,4.477-10,10v1.594c0,5.523,4.477,10,10,10s10-4.477,10-10v-1.594    C128.726,343.466,124.249,338.989,118.726,338.989z" fill="#1f1f1f" data-original="#000000" style="" class=""/>
	</g>
</g>
<g xmlns="http://www.w3.org/2000/svg">
</g>
<g xmlns="http://www.w3.org/2000/svg">
</g>
<g xmlns="http://www.w3.org/2000/svg">
</g>
<g xmlns="http://www.w3.org/2000/svg">
</g>
<g xmlns="http://www.w3.org/2000/svg">
</g>
<g xmlns="http://www.w3.org/2000/svg">
</g>
<g xmlns="http://www.w3.org/2000/svg">
</g>
<g xmlns="http://www.w3.org/2000/svg">
</g>
<g xmlns="http://www.w3.org/2000/svg">
</g>
<g xmlns="http://www.w3.org/2000/svg">
</g>
<g xmlns="http://www.w3.org/2000/svg">
</g>
<g xmlns="http://www.w3.org/2000/svg">
</g>
<g xmlns="http://www.w3.org/2000/svg">
</g>
<g xmlns="http://www.w3.org/2000/svg">
</g>
<g xmlns="http://www.w3.org/2000/svg">
</g>
</g></svg>
