<?xml version="1.0" encoding="utf-8"?>
<svg viewBox="0 0 500 500" xmlns="http://www.w3.org/2000/svg">
  <g transform="matrix(0.611007, 0, 0, 0.611007, 4.626096, 1.353797)" style="">
    <title>Layer 1</title>
    <g stroke="null" id="svg_62">
      <g stroke="null" transform="matrix(0 1.32835 -1.40772 0 1008.97 -196.255)" id="svg_49">
        <g stroke="null" id="svg_1">
          <g stroke="null" id="svg_2">
            <path stroke="null" id="svg_3" d="m614.70799,208.43737c-5.859,-5.859 -15.351,-5.859 -21.21,0l-29.998,29.998c-3.179,3.179 -4.761,7.617 -4.321,12.099l8.335,83.227l-21.673,23.155c4.816,10.059 8.771,20.719 10.907,32.254l37.322,-39.882c2.944,-3.164 4.395,-7.441 3.97,-11.747l-8.305,-82.92l24.975,-24.975c5.857,-5.857 5.857,-15.349 -0.002,-21.209z" style="fill: rgb(31, 31, 31);"/>
          </g>
        </g>
        <g stroke="null" id="svg_4">
          <g stroke="null" id="svg_5">
            <path stroke="null" id="svg_6" d="m644.70599,658.41237l-25.209,-25.209l7.075,-113.241c0.265,-4.175 -1.229,-8.261 -4.101,-11.278l-65.879,-69.225c-2.175,11.454 -6.103,22.06 -10.921,32.045l50.552,53.116l-7.09,113.461c-0.264,4.292 1.318,8.495 4.365,11.542l29.998,29.998c5.859,5.859 15.351,5.859 21.21,0c5.858,-5.858 5.858,-15.35 0,-21.209z" style="fill: rgb(31, 31, 31);"/>
          </g>
        </g>
        <g stroke="null" id="svg_7">
          <g stroke="null" id="svg_8">
            <path stroke="null" id="svg_9" d="m695.09799,474.02837l-23.792,0l-55.485,-69.371c-2.856,-3.56 -7.163,-5.625 -11.718,-5.625l-46.354,0c0.551,4.968 1.328,9.863 1.328,14.999c0,5.136 -0.776,10.031 -1.328,14.999l39.148,0l55.485,69.371c2.856,3.56 7.163,5.625 11.718,5.625l30.998,0c8.291,0 14.999,-6.709 14.999,-14.999c0,-8.29 -6.709,-14.999 -14.999,-14.999z" style="fill: rgb(31, 31, 31);"/>
          </g>
        </g>
        <g stroke="null" id="svg_10">
          <g stroke="null" id="svg_11">
            <path stroke="null" id="svg_12" d="m340.69499,333.76337l8.32,-83.227c0.439,-4.482 -1.143,-8.921 -4.321,-12.099l-29.999,-29.999c-5.859,-5.859 -15.351,-5.859 -21.21,0c-5.859,5.859 -5.859,15.351 0,21.21l24.975,24.975l-8.291,82.92c-0.425,4.305 1.025,8.581 3.97,11.746l37.289,39.845c2.142,-11.533 6.094,-22.193 10.912,-32.248l-21.645,-23.123z" style="fill: rgb(31, 31, 31);"/>
          </g>
        </g>
        <g stroke="null" id="svg_13">
          <g stroke="null" id="svg_14">
            <path stroke="null" id="svg_15" d="m311.97199,524.62037l50.534,-53.096c-4.823,-9.984 -8.75,-20.589 -10.927,-32.041l-65.855,69.201c-2.871,3.018 -4.365,7.104 -4.102,11.278l7.075,113.241l-25.21,25.209c-5.859,5.86 -5.859,15.351 0.001,21.21c5.859,5.859 15.351,5.859 21.21,0l29.998,-29.998c3.047,-3.047 4.629,-7.251 4.365,-11.542l-7.089,-113.462z" style="fill: rgb(31, 31, 31);"/>
          </g>
        </g>
        <g stroke="null" id="svg_16">
          <g stroke="null" id="svg_17">
            <path stroke="null" id="svg_18" d="m350.41499,399.03337l-46.324,0c-4.556,0 -8.862,2.065 -11.718,5.625l-55.485,69.371l-23.792,0c-8.29,-0.001 -14.999,6.708 -14.999,14.999c0,8.29 6.709,14.999 14.999,14.999l30.998,0c4.556,0 8.862,-2.065 11.718,-5.625l55.485,-69.371l39.118,0c-0.551,-4.968 -1.328,-9.863 -1.328,-14.999c0,-5.136 0.776,-10.032 1.328,-14.999z" style="fill: rgb(31, 31, 31);"/>
          </g>
        </g>
        <g stroke="null" id="svg_19">
          <g stroke="null" id="svg_20">
            <path stroke="null" id="svg_21" d="m483.98599,240.34837l10.7,-10.7c5.859,-5.859 5.859,-15.351 0,-21.21c-5.859,-5.859 -15.351,-5.859 -21.21,0l-19.394,19.394l-19.393,-19.395c-5.859,-5.859 -15.351,-5.859 -21.21,0c-5.859,5.859 -5.859,15.351 0,21.21l10.7,10.7c-26.492,11.582 -45.092,37.978 -45.092,68.69c0,6.817 0.974,12.893 2.866,18.231c18.84,-20.465 44.151,-33.23 72.13,-33.23c27.978,0 53.29,12.765 72.13,33.23c1.891,-5.338 2.866,-11.414 2.866,-18.231c-0.001,-30.712 -18.602,-57.107 -45.093,-68.689z" style="fill: rgb(31, 31, 31);"/>
          </g>
        </g>
        <g stroke="null" id="svg_22">
          <g stroke="null" id="svg_23">
            <path stroke="null" id="svg_24" d="m454.08299,324.03737c-41.351,0 -74.996,40.369 -74.996,89.995c0,17.176 4.241,33.081 11.225,46.749c19.08,-10.337 40.585,-16.751 63.77,-16.751c23.186,0 44.689,6.414 63.77,16.751c6.985,-13.668 11.225,-29.573 11.225,-46.749c0.001,-49.626 -33.644,-89.995 -74.994,-89.995z" style="fill: rgb(31, 31, 31);"/>
          </g>
        </g>
        <g stroke="null" id="svg_25">
          <g stroke="null" id="svg_26">
            <path stroke="null" id="svg_27" d="m545.40499,528.24837c-24.455,22.494 -56.765,35.775 -91.323,35.775c-34.649,0 -66.949,-13.217 -91.366,-35.694c-3.694,6.628 -6.64,13.636 -8.841,21.043c13.164,43.877 53.184,74.648 100.206,74.648c46.733,0 86.902,-30.496 100.197,-74.679c-2.206,-7.424 -5.163,-14.452 -8.873,-21.093z" style="fill: rgb(31, 31, 31);"/>
          </g>
        </g>
        <g stroke="null" id="svg_28">
          <g stroke="null" id="svg_29">
            <path stroke="null" id="svg_30" d="m454.08199,654.01837c-40.215,0 -76.443,-17.61 -101.297,-45.885c11.677,50.067 50.615,107.882 101.297,107.882c50.637,0 89.552,-57.716 101.268,-107.75c-24.933,28.339 -61.258,45.753 -101.268,45.753z" style="fill: rgb(31, 31, 31);"/>
          </g>
        </g>
        <g stroke="null" id="svg_31">
          <g stroke="null" id="svg_32">
            <path stroke="null" id="svg_33" d="m454.08299,474.02737c-28.493,0.001 -54.301,11.499 -73.238,29.991c19.236,18.787 45.208,30.005 73.238,30.005c27.947,0 53.938,-11.251 73.2,-30.036c-18.935,-18.473 -44.725,-29.96 -73.2,-29.96z" style="fill: rgb(31, 31, 31);"/>
          </g>
        </g>
        <g stroke="null" id="svg_34"/>
        <g stroke="null" id="svg_35"/>
        <g stroke="null" id="svg_36"/>
        <g stroke="null" id="svg_37"/>
        <g stroke="null" id="svg_38"/>
        <g stroke="null" id="svg_39"/>
        <g stroke="null" id="svg_40"/>
        <g stroke="null" id="svg_41"/>
        <g stroke="null" id="svg_42"/>
        <g stroke="null" id="svg_43"/>
        <g stroke="null" id="svg_44"/>
        <g stroke="null" id="svg_45"/>
        <g stroke="null" id="svg_46"/>
        <g stroke="null" id="svg_47"/>
        <g stroke="null" id="svg_48"/>
      </g>
      <g stroke="null" transform="matrix(0 1.32835 -1.40772 0 1367.94 -537.64)" id="svg_61">
        <path stroke="null" id="svg_53" fill="#fff780" d="m764.51361,497.11462l-108.83323,0c-1.66276,0 -3.21614,-0.82161 -4.15234,-2.19531c-14.35936,-21.05727 -15.46092,-61.56374 -15.54426,-67.57676c-0.00521,-0.23568 -0.00781,-0.47396 -0.00781,-0.71094c0,-2.77213 2.24479,-5.02083 5.01692,-5.02604l0.01042,0c2.76692,0 5.01562,2.23828 5.02604,5.00651c0,0.03385 0.0013,0.33073 0.01302,0.85677c0.44271,14.30077 12.21483,25.79685 26.62107,25.79685c14.68618,0 26.63409,-11.94791 26.63409,-26.63409c0,-2.77604 2.2513,-5.02604 5.02604,-5.02604l11.54556,0c2.77604,0 5.02604,2.25 5.02604,5.02604c0,14.68619 11.94921,26.63409 26.63539,26.63409c14.41926,0 26.1992,-11.51692 26.62237,-25.83591c0.00911,-0.50261 0.01172,-0.78386 0.01172,-0.81641c0.01042,-2.76953 2.25781,-5.00781 5.02604,-5.00781l0.00911,0c2.77213,0.00521 5.01693,2.2539 5.01693,5.02604c0,0.23828 -0.00261,0.47526 -0.00651,0.71224c-0.08463,6.01171 -1.1862,46.51949 -15.54426,67.57676c-0.9362,1.3724 -2.49088,2.19401 -4.15234,2.19401zm0,0"/>
        <path stroke="null" id="svg_54" fill="#ffc02e" d="m779.19979,421.60558c-0.0026,0 -0.00521,0 -0.00911,0c-2.76692,0 -5.01562,2.23828 -5.02604,5.00651c0,0.03385 -0.0013,0.3151 -0.01172,0.81771c-0.42318,14.31769 -12.20312,25.83591 -26.62237,25.83591c-14.68618,0 -26.63409,-11.94791 -26.63409,-26.63409c0,-2.77604 -2.2513,-5.02604 -5.02604,-5.02604l-5.77213,0l0,75.50774l54.41531,0c1.66276,0 3.21614,-0.82162 4.15234,-2.19401c14.35936,-21.05727 15.46092,-61.56505 15.54426,-67.57676c0.00521,-0.23568 0.00781,-0.47396 0.00781,-0.71094c-0.0013,-2.77213 -2.24609,-5.02083 -5.01823,-5.02604zm0,0"/>
        <path stroke="null" id="svg_55" fill="#ffc02e" d="m710.09699,404.45585c-8.95442,0 -16.23957,7.28515 -16.23957,16.23957s7.28515,16.23826 16.23957,16.23826s16.23957,-7.28385 16.23957,-16.23826s-7.28515,-16.23957 -16.23957,-16.23957zm0,0"/>
        <path stroke="null" id="svg_56" fill="#ffa73b" d="m710.09829,404.45585l0,32.47914c8.95442,-0.0013 16.23826,-7.28515 16.23826,-16.23957s-7.28515,-16.23826 -16.23826,-16.23957zm0,0"/>
        <path stroke="null" id="svg_57" fill="#ffc02e" d="m641.00331,416.98839c-8.95442,0 -16.23957,7.28515 -16.23957,16.23957c0,8.95442 7.28515,16.23957 16.23957,16.23957s16.23826,-7.28515 16.23826,-16.23957c0,-8.95442 -7.28385,-16.23957 -16.23826,-16.23957zm0,0"/>
        <path stroke="null" id="svg_58" fill="#ffa73b" d="m779.19068,416.98839c-8.95442,0 -16.23826,7.28515 -16.23826,16.23957c0,8.95311 7.28385,16.23826 16.23826,16.23826s16.23957,-7.28515 16.23957,-16.23826c0,-8.95442 -7.28515,-16.23957 -16.23957,-16.23957zm0,0"/>
        <path stroke="null" id="svg_59" fill="#ffc02e" d="m764.51361,513.60289l-108.83323,0c-2.77604,0 -5.02604,-2.25 -5.02604,-5.02604l0,-14.98827l118.8853,0l0,14.98827c0,2.77604 -2.25,5.02604 -5.02604,5.02604zm0,0"/>
        <path stroke="null" id="svg_60" fill="#ffa73b" d="m710.09829,513.60289l54.41531,0c2.77604,0 5.02604,-2.25 5.02604,-5.02604l0,-14.98827l-59.44135,0l0,20.0143zm0,0"/>
      </g>
    </g>
  </g>
</svg>