<svg height="512" viewBox="0 0 64 64" width="512" xmlns="http://www.w3.org/2000/svg"><g id="_23-Humidity" data-name="23-Humidity"><path d="m49.54 37h-35.08a18 18 0 1 0 35.54 4 18.164 18.164 0 0 0 -.46-4z" fill="#5ec8e6"/><path d="m54 41a22 22 0 0 1 -44 0c0-10.34 13.81-32.97 20.22-39.28a2.56 2.56 0 0 1 3.56 0c6.41 6.31 20.22 28.94 20.22 39.28zm-4 0a18.164 18.164 0 0 0 -.46-4h-35.08a18 18 0 1 0 35.54 4z" fill="#c2f1ff"/><path d="m14.835 37h-.375a18 18 0 0 0 33.391 12.531 21.993 21.993 0 0 1 -33.016-12.531z" fill="#26a5c9"/><path d="m47.851 49.531a17.99 17.99 0 0 1 -33.391-12.531h.375a22 22 0 0 1 -.835-6 22.181 22.181 0 0 1 1.034-5.981c-2.934 6.064-5.034 11.955-5.034 15.981a22 22 0 0 0 43.8 2.921 22.107 22.107 0 0 1 -5.949 5.61z" fill="#a4eaff"/><path d="m35 13.072a2 2 0 0 1 -1.672-.9c-.234-.356-.469-.7-.7-1.05a2 2 0 1 1 3.31-2.244q.366.537.732 1.1a2 2 0 0 1 -1.67 3.094z" fill="#fff"/><path d="m46.326 35a2 2 0 0 1 -1.89-1.35 93.18 93.18 0 0 0 -7.484-15.643 2 2 0 1 1 3.455-2.016 97.869 97.869 0 0 1 7.81 16.357 2 2 0 0 1 -1.891 2.652z" fill="#fff"/><path d="m20 36h2v2h-2z"/><path d="m18 38v-2h-3.538a1 1 0 0 0 -.975.778 19 19 0 1 0 37.026 0 1 1 0 0 0 -.975-.778h-25.538v2h24.723a16.814 16.814 0 0 1 .277 3 17 17 0 0 1 -34 0 16.814 16.814 0 0 1 .277-3z"/><path d="m23.515 46h16.971v2h-16.971z" transform="matrix(.707 -.707 .707 .707 -23.861 36.393)"/><path d="m33 52a3 3 0 1 0 3-3 3 3 0 0 0 -3 3zm4 0a1 1 0 1 1 -1-1 1 1 0 0 1 1 1z"/><path d="m28 39a3 3 0 1 0 3 3 3 3 0 0 0 -3-3zm0 4a1 1 0 1 1 1-1 1 1 0 0 1 -1 1z"/><path d="m43.816 17.505 1.727-1.01q-.6-1.02-1.2-2.015l-1.709 1.04q.594.98 1.182 1.985z"/><path d="m46.7 18.512-1.746.976c5.112 9.139 8.046 16.98 8.046 21.512a21 21 0 0 1 -41.654 3.819l-1.967.362a23 23 0 0 0 45.621-4.181c0-6.659-5.2-16.948-8.3-22.488z"/><path d="m11 41c0-9.983 13.532-32.276 19.922-38.57a1.6 1.6 0 0 1 2.155 0 69.9 69.9 0 0 1 8.323 11.105l1.69-1.07a70.879 70.879 0 0 0 -8.61-11.465 3.653 3.653 0 0 0 -4.961 0c-6.756 6.659-20.519 29.373-20.519 40 0 .7.031 1.4.094 2.09l1.992-.18c-.057-.63-.086-1.272-.086-1.91z"/></g></svg>