<?xml version="1.0"?>
<svg xmlns="http://www.w3.org/2000/svg" xmlns:xlink="http://www.w3.org/1999/xlink" xmlns:svgjs="http://svgjs.com/svgjs" version="1.1" width="512" height="512" x="0" y="0" viewBox="0 0 512 512" style="enable-background:new 0 0 512 512" xml:space="preserve" class=""><g>
<path xmlns="http://www.w3.org/2000/svg" style="" d="M86.737,465.982c11.865-15.954,21.844-35.733,29.741-58.923  c-53.12-42.435-84.441-106.981-84.441-175.364C32.036,108,132.669,7.367,256.364,7.367S480.692,108,480.692,231.695  S380.059,456.023,256.364,456.023c-16.065,0-32.06-1.71-47.673-5.091c-35.677,27.596-73.897,44.191-94.301,51.867  C91.992,511.229,72.466,485.165,86.737,465.982z" fill="#8ac2ff" data-original="#8ac2ff" class=""/>
<g xmlns="http://www.w3.org/2000/svg">
	<path style="" d="M106.691,465.982c10.622-14.283,19.733-31.632,27.192-51.75c1.549-4.178,0.332-8.912-3.058-11.804   c-49.71-42.42-78.834-104.793-78.834-170.734c0-120.351,95.268-218.855,214.35-224.094c-3.309-0.146-6.632-0.233-9.977-0.233   c-123.695,0-224.328,100.633-224.328,224.328c0,68.384,31.321,132.929,84.441,175.364c-7.896,23.19-17.876,42.969-29.741,58.923   c-11.993,16.122-0.113,38.383,19.115,38.382c2.844,0,5.732-0.51,8.538-1.566c0.506-0.19,1.031-0.391,1.559-0.592   C102.419,496.008,97.273,478.641,106.691,465.982z" fill="#0f9ed6" data-original="#54a0ff" class=""/>
	<path style="" d="M256.363,45.62c-102.603,0-186.076,83.473-186.076,186.076c0,60.655,29.715,117.676,79.486,152.529   c6.723,4.708,9.693,13.181,7.38,21.055c-4.616,15.722-10.064,30.327-16.303,43.734c16.195-8.535,34.163-19.644,50.995-33.585   c4.749-3.933,11.099-5.334,17.064-3.768c15.425,4.055,31.391,6.112,47.454,6.112c102.603,0,186.077-83.474,186.077-186.077   S358.966,45.62,256.363,45.62z" fill="#0f9ed6" data-original="#54a0ff" class=""/>
</g>
<path xmlns="http://www.w3.org/2000/svg" style="" d="M140.851,449.012c8.562-4.512,17.621-9.753,26.745-15.743c3.5-8.887,6.69-18.223,9.56-27.992  c2.313-7.874-0.657-16.347-7.38-21.055c-49.772-34.853-79.486-91.873-79.486-152.529c0-99.248,78.104-180.591,176.075-185.806  c-3.312-0.176-6.645-0.271-10.001-0.271c-102.603,0-186.076,83.473-186.076,186.076c0,60.655,29.715,117.676,79.486,152.529  c6.723,4.708,9.693,13.181,7.38,21.055C152.537,421.001,147.09,435.606,140.851,449.012z" fill="#338def" data-original="#338def" class=""/>
<g xmlns="http://www.w3.org/2000/svg">
	<path style="" d="M256.51,168.35c13.464,0,24.838-11.204,24.838-24.465c0-13.087-11.375-24.143-24.838-24.143   c-13.857,0-25.13,10.831-25.13,24.143C231.379,157.145,242.887,168.35,256.51,168.35z" fill="#e4eaf8" data-original="#e4eaf8" class=""/>
	<path style="" d="M256.51,195.431c-13.937,0-23.669,6.749-23.669,16.414v122.717c0,8.081,9.511,16.735,23.669,16.735   c12.765,0,23.961-7.82,23.961-16.735V211.845C280.472,202.334,270.394,195.431,256.51,195.431z" fill="#e4eaf8" data-original="#e4eaf8" class=""/>
</g>
<g xmlns="http://www.w3.org/2000/svg">
	<path style="" d="M251.214,143.883c0-9.877,6.207-18.381,15.068-22.117c-3.017-1.298-6.325-2.026-9.772-2.026   c-13.858,0-25.13,10.831-25.13,24.143c0,13.262,11.509,24.465,25.13,24.465c3.48,0,6.818-0.754,9.86-2.093   C257.544,162.414,251.214,153.717,251.214,143.883z" fill="#d8dce5" data-original="#d8dce5" class=""/>
	<path style="" d="M252.675,334.562V211.845c0-7.144,5.322-12.692,13.726-15.101c-2.971-0.848-6.302-1.313-9.892-1.313   c-13.937,0-23.669,6.749-23.669,16.414v122.717c0,8.081,9.511,16.735,23.669,16.735c3.462,0,6.806-0.579,9.847-1.596   C257.899,346.836,252.675,340.546,252.675,334.562z" fill="#d8dce5" data-original="#d8dce5" class=""/>
</g>
<path xmlns="http://www.w3.org/2000/svg" d="M256.43,175.983c17.529,0,32.339-14.639,32.339-31.966c0-17.152-14.81-31.644-32.339-31.644  c-17.993,0-32.632,14.195-32.632,31.644C223.798,161.344,238.742,175.983,256.43,175.983z M256.43,127.374  c9.398,0,17.338,7.621,17.338,16.643c0,9.197-7.939,16.965-17.338,16.965c-9.558,0-17.631-7.769-17.631-16.965  C238.799,134.84,246.709,127.374,256.43,127.374z" fill="#000000" data-original="#000000" style="" class=""/>
<path xmlns="http://www.w3.org/2000/svg" d="M287.892,334.695V211.978c0-13.857-13.231-23.914-31.462-23.914c-18.353,0-31.17,9.834-31.17,23.914v122.717  c0,11.656,11.917,24.235,31.17,24.235C273.484,358.93,287.892,347.832,287.892,334.695z M240.261,334.695V211.978  c0-5.164,6.8-8.913,16.169-8.913c9.23,0,16.461,3.915,16.461,8.913v122.717c0,3.718-6.912,9.235-16.461,9.235  C245.815,343.929,240.261,337.917,240.261,334.695z" fill="#000000" data-original="#000000" style="" class=""/>
<path xmlns="http://www.w3.org/2000/svg" d="M274.069,462.951c0.197,0,0.396-0.008,0.598-0.023C388.655,453.94,479.523,362.18,487.526,248.22  c0.29-4.132-2.824-7.717-6.956-8.007c-4.111-0.288-7.717,2.824-8.007,6.956c-7.452,106.117-93.035,192.444-199.074,200.804  c-4.129,0.325-7.213,3.937-6.887,8.066C266.91,459.969,270.194,462.951,274.069,462.951z" fill="#000000" data-original="#000000" style="" class=""/>
<path xmlns="http://www.w3.org/2000/svg" d="M449.86,231.827c0-106.738-86.838-193.576-193.576-193.576S62.707,125.09,62.707,231.827  c0,63.101,30.91,122.417,82.685,158.673c4.09,2.864,5.893,8.007,4.485,12.798c-4.49,15.293-9.843,29.653-15.907,42.682  c-1.358,2.918-0.703,6.378,1.629,8.598c2.333,2.22,5.821,2.703,8.667,1.203c19.514-10.284,37.104-21.872,52.283-34.444  c2.878-2.383,6.756-3.239,10.372-2.291C330.298,451.483,449.86,357.816,449.86,231.827z M186.981,409.784  c-9.321,7.72-19.624,15.061-30.784,21.939c2.926-7.77,5.624-15.857,8.073-24.198c3.223-10.973-0.906-22.752-10.275-29.313  c-47.769-33.451-76.287-88.174-76.287-146.384c0-98.467,80.109-178.575,178.575-178.575s178.575,80.109,178.575,178.575  c0,116.259-110.33,202.623-224.126,172.711C202.456,402.362,193.572,404.325,186.981,409.784z" fill="#000000" data-original="#000000" style="" class=""/>
<path xmlns="http://www.w3.org/2000/svg" d="M80.738,499.444c8.706,11.559,23.393,15.331,36.212,10.508c19.696-7.409,57.609-23.738,93.488-50.844  c9.202,1.844,18.625,3.142,28.065,3.862c4.138,0.316,7.733-2.778,8.049-6.908c0.315-4.13-2.777-7.734-6.908-8.049  c-9.93-0.757-19.837-2.197-29.446-4.278c-2.164-0.467-4.424,0.042-6.177,1.397c-35.127,27.17-72.94,43.477-92.354,50.78  c-6.859,2.581-14.444,0.487-18.947-5.492c-4.452-5.911-4.471-13.88-0.046-19.828c12.309-16.551,22.679-37.067,30.822-60.981  c1.02-2.993,0.052-6.304-2.419-8.277c-51.872-41.438-81.622-103.22-81.622-169.505c0.001-119.558,97.27-216.826,216.829-216.826  c111.698,0,206.59,87.115,216.029,198.325c0.351,4.127,3.991,7.187,8.108,6.839c4.127-0.351,7.188-3.98,6.838-8.107  C477.19,93.419,377.463,0,256.284,0C128.453,0,24.455,103.998,24.455,231.827c0,68.235,30.333,133.593,83.125,177.84  c-7.35,20.334-16.401,37.798-26.942,51.971C72.206,472.975,72.246,488.168,80.738,499.444z" fill="#000000" data-original="#000000" style="" class=""/>
<g xmlns="http://www.w3.org/2000/svg">
</g>
<g xmlns="http://www.w3.org/2000/svg">
</g>
<g xmlns="http://www.w3.org/2000/svg">
</g>
<g xmlns="http://www.w3.org/2000/svg">
</g>
<g xmlns="http://www.w3.org/2000/svg">
</g>
<g xmlns="http://www.w3.org/2000/svg">
</g>
<g xmlns="http://www.w3.org/2000/svg">
</g>
<g xmlns="http://www.w3.org/2000/svg">
</g>
<g xmlns="http://www.w3.org/2000/svg">
</g>
<g xmlns="http://www.w3.org/2000/svg">
</g>
<g xmlns="http://www.w3.org/2000/svg">
</g>
<g xmlns="http://www.w3.org/2000/svg">
</g>
<g xmlns="http://www.w3.org/2000/svg">
</g>
<g xmlns="http://www.w3.org/2000/svg">
</g>
<g xmlns="http://www.w3.org/2000/svg">
</g>
</g></svg>
