<?xml version="1.0" encoding="iso-8859-1"?>
<!-- Generator: Adobe Illustrator 19.0.0, SVG Export Plug-In . SVG Version: 6.00 Build 0)  -->
<svg version="1.1" id="Layer_1" xmlns="http://www.w3.org/2000/svg" xmlns:xlink="http://www.w3.org/1999/xlink" x="0px" y="0px"
	 viewBox="0 0 512 512" style="enable-background:new 0 0 512 512;" xml:space="preserve">
<path style="fill:#959CB5;" d="M144.835,247.449v-94.063c0-61.395,49.77-111.165,111.165-111.165l0,0
	c61.395,0,111.165,49.77,111.165,111.165v94.063h34.205v-94.063c0-80.286-65.084-145.37-145.37-145.37l0,0
	c-80.286,0-145.37,65.084-145.37,145.37v94.063H144.835z"/>
<g>
	<rect x="110.63" y="204.693" style="fill:#7F8499;" width="34.205" height="42.756"/>
	<rect x="367.165" y="204.693" style="fill:#7F8499;" width="34.205" height="42.756"/>
</g>
<path style="fill:#FFDC64;" d="M93.528,264.551v166.751c0,19.918,11.403,38.238,29.526,46.499
	c35.807,16.324,82.215,26.183,132.946,26.183s97.139-9.858,132.946-26.183c18.123-8.262,29.526-26.582,29.526-46.499V264.551
	c0-18.891-15.314-34.205-34.205-34.205H127.733C108.842,230.347,93.528,245.661,93.528,264.551z"/>
<path style="fill:#464655;" d="M290.205,341.511c0-21.565-19.956-38.468-42.409-33.25c-12.123,2.818-21.992,12.579-24.948,24.67
	c-3.573,14.616,2.287,28.009,12.646,35.784c2.041,1.532,3.404,3.791,3.404,6.342v25.398c0,8.519,5.821,16.416,14.23,17.783
	c10.715,1.743,19.974-6.482,19.974-16.868v-26.483c0-2.444,1.306-4.612,3.268-6.07C284.736,362.602,290.205,352.737,290.205,341.511
	z"/>
<path style="fill:#FFC850;" d="M173.588,477.801c-12.4-8.262-20.202-26.582-20.202-46.499V264.551
	c0-18.891,10.478-34.205,23.403-34.205h-49.057c-18.891,0-34.205,15.314-34.205,34.205v166.75c0,19.918,11.403,38.238,29.527,46.499
	c35.806,16.324,82.214,26.184,132.945,26.184c1.712,0,3.376-0.1,5.077-0.123C227.736,503.221,197.261,493.573,173.588,477.801z"/>
<path d="M409.386,230.638v-77.252C409.386,68.809,340.577,0,256,0S102.614,68.809,102.614,153.386v77.252
	c-10.368,7.7-17.102,20.033-17.102,33.913l0,0v166.751c0,23.202,13.431,44.317,34.217,53.793C157.787,502.445,206.182,512,256,512
	s98.213-9.555,136.27-26.904c20.788-9.477,34.218-30.592,34.218-53.794V264.551C426.489,250.673,419.755,238.34,409.386,230.638z
	 M118.647,153.386c0-75.736,61.616-137.353,137.353-137.353S393.353,77.65,393.353,153.386v69.939
	c-2.929-0.646-5.967-0.995-9.086-0.995h-9.086v-68.944c0-65.717-53.465-119.182-119.182-119.182S136.818,87.67,136.818,153.386
	v68.944h-9.086c-3.119,0-6.157,0.351-9.086,0.995V153.386z M152.852,222.33v-68.944c0-56.876,46.272-103.148,103.148-103.148
	S359.148,96.51,359.148,153.386v68.944H152.852z M410.455,431.302c0,16.939-9.748,32.328-24.835,39.205
	c-36.014,16.418-82.048,25.46-129.62,25.46s-93.606-9.042-129.62-25.46c-15.086-6.877-24.835-22.266-24.835-39.205V264.551
	c0-14.44,11.748-26.188,26.188-26.188h256.534c14.44,0,26.188,11.748,26.188,26.188V431.302z"/>
<path d="M256,299.29c-23.28,0-42.221,18.941-42.221,42.221c0,13.292,6.451,25.838,17.102,33.76v26.098
	c0,13.851,11.268,25.119,25.119,25.119c13.851,0,25.119-11.268,25.119-25.119v-26.098c10.652-7.922,17.102-20.468,17.102-33.76
	C298.221,318.231,279.281,299.29,256,299.29z M269.07,364.043c-2.467,1.437-3.985,4.076-3.985,6.929v30.398
	c0,5.01-4.076,9.086-9.086,9.086c-5.01,0-9.086-4.076-9.086-9.086v-30.397c0-2.854-1.517-5.493-3.985-6.929
	c-8.213-4.781-13.117-13.204-13.117-22.532c0-14.44,11.748-26.188,26.188-26.188c14.44,0,26.188,11.748,26.188,26.188
	C282.188,350.84,277.284,359.263,269.07,364.043z"/>
<path d="M384.267,256.534c-4.427,0-8.017,3.589-8.017,8.017v8.551c0,4.427,3.589,8.017,8.017,8.017c4.427,0,8.017-3.589,8.017-8.017
	v-8.551C392.284,260.124,388.695,256.534,384.267,256.534z"/>
<path d="M384.267,299.29c-4.427,0-8.017,3.589-8.017,8.017v68.409c0,4.427,3.589,8.017,8.017,8.017c4.427,0,8.017-3.589,8.017-8.017
	v-68.409C392.284,302.88,388.695,299.29,384.267,299.29z"/>
<path d="M127.733,333.495c-4.427,0-8.017,3.589-8.017,8.017v94.063c0,4.427,3.589,8.017,8.017,8.017
	c4.427,0,8.017-3.589,8.017-8.017v-94.063C135.749,337.084,132.16,333.495,127.733,333.495z"/>
<g>
</g>
<g>
</g>
<g>
</g>
<g>
</g>
<g>
</g>
<g>
</g>
<g>
</g>
<g>
</g>
<g>
</g>
<g>
</g>
<g>
</g>
<g>
</g>
<g>
</g>
<g>
</g>
<g>
</g>
</svg>
