<svg id="svg" version="1.1" xmlns="http://www.w3.org/2000/svg" xmlns:xlink="http://www.w3.org/1999/xlink" width="400" height="374.36893203883494" viewBox="0, 0, 400,374.36893203883494"><g id="svgg"><path id="path0" d="M157.652 197.682 C 154.037 200.406,150.988 203.201,147.940 206.588 C 144.898 209.968,144.002 211.032,143.080 212.360 C 142.580 213.081,142.058 213.755,141.920 213.858 C 140.350 215.029,132.210 230.235,132.210 231.996 C 132.210 232.295,132.061 232.632,131.880 232.744 C 131.699 232.856,131.457 233.329,131.344 233.796 C 131.139 234.643,130.632 236.474,129.917 238.951 C 126.986 249.105,126.253 263.740,128.558 266.046 L 129.563 267.050 143.954 266.952 L 158.344 266.854 157.599 265.169 C 155.620 260.692,153.748 255.115,153.074 251.685 C 152.973 251.170,152.636 249.485,152.324 247.940 C 149.215 232.516,151.595 213.165,158.301 199.360 C 159.508 196.875,159.331 196.417,157.652 197.682 M139.423 276.498 C 141.958 278.866,143.392 282.095,142.905 284.339 C 142.757 285.022,142.485 287.097,142.300 288.951 C 142.115 290.805,141.790 293.839,141.579 295.693 C 140.706 303.362,140.698 303.875,141.454 304.682 C 141.840 305.094,142.560 306.021,143.056 306.742 C 145.897 310.877,152.223 317.218,157.934 321.653 C 165.241 327.328,176.655 332.958,184.738 334.873 C 185.510 335.056,186.859 335.379,187.734 335.590 C 197.297 337.899,212.738 337.891,222.472 335.573 C 223.399 335.352,224.747 335.034,225.468 334.867 C 226.189 334.699,228.296 334.020,230.150 333.358 C 232.004 332.696,233.858 332.054,234.270 331.932 C 235.538 331.555,244.749 326.870,244.881 326.534 C 244.950 326.360,245.170 326.217,245.370 326.217 C 246.145 326.217,251.156 322.593,255.981 318.543 C 261.313 314.068,269.059 305.243,267.656 305.243 C 267.545 305.243,264.814 306.452,260.861 308.249 C 259.657 308.797,253.537 310.737,251.498 311.217 C 250.468 311.459,249.036 311.802,248.315 311.978 C 246.208 312.492,242.455 313.042,237.766 313.523 C 232.346 314.080,227.784 313.858,216.994 312.513 C 215.314 312.303,214.847 312.407,213.249 313.346 C 208.393 316.200,201.478 313.879,198.975 308.554 C 198.024 306.531,198.091 306.584,193.446 304.122 C 182.111 298.116,171.711 288.691,164.613 277.996 L 162.811 275.281 150.465 275.281 L 138.120 275.281 139.423 276.498 " stroke="none" fill="#05c4fc" fill-rule="evenodd"></path><path id="path1" d="M205.699 181.742 C 205.208 182.339,202.628 192.217,202.864 192.598 C 203.750 194.032,207.812 191.912,208.771 189.515 C 210.200 185.947,213.476 185.453,213.793 188.758 C 214.164 192.614,211.528 196.101,207.491 197.094 C 206.152 197.423,204.087 197.959,202.903 198.285 C 196.806 199.960,196.497 200.000,189.629 200.000 C 182.833 200.000,182.785 200.006,182.614 200.843 C 182.520 201.306,182.247 203.371,182.009 205.431 C 181.155 212.804,181.048 212.931,175.398 213.217 C 170.564 213.461,170.787 213.265,170.787 217.283 L 170.787 220.663 173.689 220.399 C 177.166 220.083,176.955 220.236,180.200 215.660 C 183.489 211.021,182.472 211.369,193.675 211.051 C 204.908 210.733,204.028 210.475,206.961 214.950 C 209.913 219.453,210.406 219.638,214.905 217.930 C 215.378 217.750,216.081 217.603,216.466 217.603 C 216.960 217.603,217.361 217.078,217.825 215.824 C 220.813 207.744,232.483 205.777,234.434 213.024 C 235.622 217.435,233.131 220.152,227.154 220.965 C 222.326 221.621,222.326 221.620,225.490 223.222 C 229.987 225.500,230.314 226.510,227.770 230.257 C 225.574 233.491,226.381 233.333,212.012 233.333 L 199.256 233.333 195.789 231.982 C 193.882 231.238,191.608 230.311,190.734 229.922 C 189.861 229.532,188.974 229.213,188.763 229.213 C 188.552 229.213,188.087 229.065,187.729 228.883 C 186.923 228.473,186.032 228.108,182.099 226.578 L 178.992 225.370 178.166 226.115 C 177.712 226.524,175.571 228.495,173.408 230.493 C 169.476 234.127,169.476 234.127,167.793 233.953 C 165.502 233.717,162.847 235.918,163.405 237.592 C 163.775 238.704,163.089 240.100,161.592 241.279 C 159.707 242.764,159.720 243.451,161.796 251.724 C 162.850 255.926,163.940 259.712,164.218 260.139 C 164.770 260.986,171.258 261.788,177.715 261.808 C 186.360 261.834,190.106 262.810,192.865 265.753 L 194.423 267.416 217.298 267.416 L 240.173 267.416 242.027 265.449 C 246.012 261.221,246.372 260.315,244.079 260.283 C 240.825 260.238,239.217 259.420,237.784 257.081 C 237.039 255.864,234.612 252.004,232.391 248.502 C 226.774 239.644,227.115 240.306,227.544 239.087 C 228.773 235.591,230.755 236.615,234.656 242.764 C 240.975 252.723,242.326 254.682,242.877 254.682 C 243.662 254.682,258.404 244.861,258.417 244.330 C 258.451 242.861,257.039 242.142,254.360 242.266 C 251.339 242.405,251.584 242.531,247.167 238.577 C 241.500 233.504,241.349 233.280,242.347 231.415 C 243.556 229.155,244.897 229.755,251.074 235.327 C 253.583 237.590,252.706 237.516,263.017 236.343 C 269.600 235.595,274.859 238.974,272.691 242.560 C 271.644 244.293,273.690 247.905,276.042 248.476 C 277.644 248.865,277.751 248.988,279.915 252.903 C 282.771 258.071,283.334 258.173,282.989 253.464 C 280.576 220.520,256.784 192.096,224.719 183.852 C 217.208 181.921,206.526 180.736,205.699 181.742 M242.655 211.891 C 243.989 212.997,249.064 220.725,249.064 221.650 C 249.064 223.735,247.154 224.897,245.506 223.817 C 244.144 222.925,238.947 214.956,238.949 213.764 C 238.953 211.684,241.098 210.600,242.655 211.891 M128.909 275.230 C 127.960 275.831,131.102 286.291,134.208 292.874 C 136.000 296.672,136.364 296.685,136.753 292.959 C 137.991 281.113,138.281 282.558,133.794 278.184 C 130.495 274.966,129.896 274.604,128.909 275.230 M133.544 278.745 L 137.147 282.210 136.939 284.644 C 136.001 295.666,136.085 295.448,134.289 291.516 C 133.550 289.900,132.780 288.284,132.578 287.926 C 132.375 287.569,132.210 286.947,132.210 286.544 C 132.210 286.141,132.041 285.708,131.835 285.581 C 131.629 285.453,131.461 284.938,131.461 284.435 C 131.461 283.932,131.292 283.521,131.086 283.521 C 130.880 283.521,130.712 283.025,130.712 282.419 C 130.712 281.813,130.543 281.213,130.337 281.086 C 130.131 280.959,129.963 280.285,129.963 279.588 C 129.963 278.891,129.794 278.217,129.588 278.090 C 129.106 277.792,129.096 275.281,129.577 275.281 C 129.777 275.281,131.562 276.840,133.544 278.745 M196.030 277.622 C 196.171 278.909,196.449 281.899,196.648 284.266 C 196.848 286.633,197.105 288.909,197.221 289.322 C 197.422 290.044,199.361 295.258,200.008 296.816 C 200.179 297.228,201.025 299.419,201.888 301.685 C 204.421 308.334,205.296 309.359,208.437 309.362 C 210.390 309.364,210.371 309.378,220.037 300.628 C 231.760 290.016,230.698 291.591,231.826 283.146 C 232.060 281.395,232.411 279.149,232.605 278.155 C 232.800 277.161,232.959 276.107,232.959 275.814 C 232.959 275.360,230.200 275.281,214.366 275.281 L 195.773 275.281 196.030 277.622 " stroke="none" fill="#bceb6c" fill-rule="evenodd"></path><path id="path2" d="M195.880 181.849 C 195.571 181.911,193.970 182.166,192.322 182.415 C 188.972 182.920,187.810 183.473,187.458 184.728 C 187.326 185.197,187.077 185.918,186.904 186.330 C 186.731 186.742,186.211 188.063,185.747 189.266 C 183.838 194.220,179.492 192.574,181.088 187.501 C 181.990 184.633,181.929 184.605,178.090 186.144 C 177.678 186.309,176.330 186.832,175.094 187.306 C 170.791 188.956,162.645 193.517,157.322 197.255 C 154.434 199.283,147.521 206.008,144.681 209.551 C 143.359 211.199,142.060 212.816,141.792 213.144 C 132.924 224.029,127.349 240.661,126.734 258.064 L 126.503 264.630 127.896 266.023 L 129.288 267.416 152.378 267.379 C 165.078 267.358,176.395 267.214,177.528 267.057 C 179.543 266.778,179.518 266.771,176.404 266.711 C 161.682 266.428,160.073 265.596,158.022 257.210 C 157.833 256.437,157.515 255.173,157.316 254.401 C 155.938 249.059,155.057 244.914,155.064 243.806 C 155.088 240.157,159.100 235.667,161.933 236.120 C 164.131 236.472,166.309 234.364,166.015 232.170 C 165.825 230.757,165.908 230.621,168.302 228.400 C 170.964 225.930,171.232 225.468,170.002 225.468 C 167.556 225.468,165.534 222.632,165.560 219.237 C 165.626 210.375,166.841 208.632,173.221 208.253 L 176.592 208.052 176.886 205.993 C 178.477 194.848,178.165 195.134,188.726 195.125 C 197.677 195.118,196.844 195.550,198.119 190.262 C 199.034 186.468,199.674 183.977,199.966 183.074 C 200.414 181.693,198.895 181.237,195.880 181.849 M158.301 199.360 C 151.595 213.165,149.215 232.516,152.324 247.940 C 152.636 249.485,152.973 251.170,153.074 251.685 C 153.748 255.115,155.620 260.692,157.599 265.169 L 158.344 266.854 143.954 266.952 L 129.563 267.050 128.558 266.046 C 126.253 263.740,126.986 249.105,129.917 238.951 C 130.632 236.474,131.139 234.643,131.344 233.796 C 131.457 233.329,131.699 232.856,131.880 232.744 C 132.061 232.632,132.210 232.295,132.210 231.996 C 132.210 230.235,140.350 215.029,141.920 213.858 C 142.058 213.755,142.580 213.081,143.080 212.360 C 145.264 209.212,150.476 203.634,154.104 200.562 C 159.293 196.168,159.942 195.982,158.301 199.360 M226.637 213.887 C 224.247 214.357,222.060 216.026,223.689 216.137 C 227.235 216.379,229.588 215.779,229.588 214.634 C 229.588 214.094,228.690 213.296,228.340 213.524 C 228.306 213.547,227.539 213.710,226.637 213.887 M184.957 217.697 C 182.902 220.260,182.357 221.250,182.879 221.469 C 186.439 222.959,196.096 226.791,197.378 227.222 C 198.305 227.534,199.224 227.941,199.419 228.127 C 200.010 228.687,222.847 228.560,222.845 227.996 C 222.844 227.739,221.567 226.873,220.007 226.072 C 218.159 225.123,217.054 224.308,216.834 223.731 C 216.438 222.688,216.390 222.683,214.011 223.404 C 210.224 224.553,207.531 223.765,204.959 220.757 C 204.105 219.758,203.329 219.019,203.234 219.114 C 203.139 219.210,202.563 220.552,201.954 222.097 C 200.660 225.383,199.603 226.230,197.846 225.392 C 196.321 224.664,196.286 222.659,197.736 219.142 C 198.363 217.621,198.876 216.315,198.876 216.241 C 198.876 216.166,196.032 216.105,192.554 216.105 L 186.233 216.105 184.957 217.697 M264.326 241.092 C 263.098 241.278,263.061 241.545,264.044 243.156 C 265.639 245.773,265.300 246.170,256.554 251.920 C 248.969 256.906,249.344 256.564,250.220 257.704 C 251.619 259.524,251.216 262.452,249.249 264.756 C 248.321 265.843,247.657 266.886,247.773 267.074 C 248.067 267.550,282.285 267.526,282.579 267.050 C 282.703 266.849,282.901 265.867,283.020 264.869 L 283.235 263.053 281.127 262.022 C 278.685 260.827,277.938 259.924,275.325 255.012 C 273.237 251.089,273.123 250.597,273.987 249.278 C 274.936 247.829,272.587 243.660,270.769 243.568 C 269.926 243.526,269.215 243.188,268.693 242.581 C 268.256 242.073,267.548 241.470,267.120 241.241 C 266.333 240.819,266.180 240.811,264.326 241.092 M138.043 275.235 C 137.876 275.506,138.153 275.990,138.734 276.448 C 142.483 279.397,142.702 281.021,141.153 294.382 C 140.315 301.613,140.343 304.226,141.272 305.363 C 146.421 311.667,147.865 313.314,150.416 315.792 C 154.906 320.154,160.346 324.419,164.139 326.551 C 164.911 326.986,166.175 327.709,166.948 328.159 C 173.529 331.991,181.421 334.866,190.449 336.718 C 197.903 338.248,211.556 338.433,217.790 337.088 C 218.614 336.910,220.300 336.561,221.536 336.312 C 233.193 333.964,244.951 328.284,254.869 320.210 C 257.577 318.005,263.728 311.903,265.236 309.925 C 265.707 309.307,266.476 308.380,266.945 307.865 C 267.415 307.350,267.892 306.634,268.007 306.273 C 268.122 305.913,268.372 305.618,268.565 305.618 C 268.757 305.618,268.914 305.453,268.914 305.251 C 268.914 305.049,269.543 303.911,270.312 302.723 C 271.916 300.245,272.020 300.066,274.122 296.180 C 277.224 290.446,279.832 283.356,281.429 276.311 L 281.662 275.281 260.751 275.281 L 239.841 275.281 238.876 276.311 C 237.726 277.539,237.567 278.015,237.088 281.657 C 235.865 290.955,235.176 293.364,233.194 295.275 C 232.180 296.252,226.101 301.812,219.810 307.516 C 211.653 314.913,206.069 316.033,201.418 311.203 C 199.236 308.938,192.735 293.160,192.101 288.591 C 191.659 285.408,191.011 278.321,191.011 276.668 L 191.011 275.281 183.769 275.281 C 179.786 275.281,167.931 275.169,157.424 275.033 C 142.733 274.843,138.257 274.889,138.043 275.235 M164.613 277.996 C 171.711 288.691,182.111 298.116,193.446 304.122 C 198.091 306.584,198.024 306.531,198.975 308.554 C 201.478 313.879,208.393 316.200,213.249 313.346 C 214.847 312.407,215.314 312.303,216.994 312.513 C 227.784 313.858,232.346 314.080,237.766 313.523 C 242.455 313.042,246.208 312.492,248.315 311.978 C 249.036 311.802,250.468 311.459,251.498 311.217 C 253.537 310.737,259.657 308.797,260.861 308.249 C 264.814 306.452,267.545 305.243,267.656 305.243 C 269.059 305.243,261.313 314.068,255.981 318.543 C 251.156 322.593,246.145 326.217,245.370 326.217 C 245.170 326.217,244.950 326.360,244.881 326.534 C 244.749 326.870,235.538 331.555,234.270 331.932 C 233.858 332.054,232.004 332.696,230.150 333.358 C 228.296 334.020,226.189 334.699,225.468 334.867 C 224.747 335.034,223.399 335.352,222.472 335.573 C 212.738 337.891,197.297 337.899,187.734 335.590 C 186.859 335.379,185.510 335.056,184.738 334.873 C 176.655 332.958,165.241 327.328,157.934 321.653 C 152.223 317.218,145.897 310.877,143.056 306.742 C 142.560 306.021,141.840 305.094,141.454 304.682 C 140.698 303.875,140.706 303.362,141.579 295.693 C 141.790 293.839,142.115 290.805,142.300 288.951 C 142.485 287.097,142.757 285.022,142.905 284.339 C 143.392 282.095,141.958 278.866,139.423 276.498 L 138.120 275.281 150.465 275.281 L 162.811 275.281 164.613 277.996 M248.753 289.758 C 250.154 291.026,249.651 292.202,245.688 296.919 C 241.430 301.986,240.447 302.669,238.977 301.577 C 237.101 300.183,237.720 298.338,241.455 294.189 C 241.829 293.774,242.948 292.467,243.943 291.286 C 245.911 288.949,247.353 288.491,248.753 289.758 " stroke="none" fill="#84dcfb" fill-rule="evenodd"></path><path id="path3" d="M36.046 76.124 L 36.142 99.813 41.105 99.917 L 46.067 100.022 46.067 81.284 L 46.067 62.547 64.794 62.547 L 83.521 62.547 83.521 57.491 L 83.521 52.434 59.735 52.434 L 35.949 52.434 36.046 76.124 M310.112 57.491 L 310.112 62.547 328.839 62.547 L 347.566 62.547 347.566 81.273 L 347.566 100.000 352.622 100.000 L 357.678 100.000 357.678 76.217 L 357.678 52.434 333.895 52.434 L 310.112 52.434 310.112 57.491 M165.918 114.981 C 165.918 115.187,165.412 115.356,164.794 115.356 C 164.176 115.356,163.670 115.524,163.670 115.730 C 163.670 115.936,163.356 116.105,162.972 116.105 C 162.589 116.105,161.830 116.549,161.287 117.092 C 160.744 117.635,160.300 118.394,160.300 118.778 C 160.300 119.162,160.131 119.476,159.925 119.476 C 159.703 119.476,159.551 120.842,159.551 122.824 C 159.551 124.666,159.719 126.277,159.925 126.404 C 160.131 126.532,160.300 127.216,160.300 127.925 C 160.300 128.634,160.468 129.213,160.674 129.213 C 160.880 129.213,161.049 129.637,161.049 130.155 C 161.049 130.673,161.207 131.389,161.401 131.747 C 161.595 132.104,162.049 133.113,162.409 133.989 C 162.770 134.864,163.202 135.581,163.368 135.581 C 163.534 135.581,163.670 135.904,163.670 136.298 C 163.670 136.693,163.876 137.085,164.128 137.169 C 164.419 137.266,164.216 137.691,163.566 138.341 C 163.006 138.901,162.547 139.605,162.547 139.905 C 162.547 140.204,162.378 140.449,162.172 140.449 C 161.966 140.449,161.798 140.787,161.798 141.199 C 161.798 141.610,161.629 141.948,161.423 141.948 C 161.217 141.948,161.049 142.443,161.049 143.049 C 161.049 143.655,160.880 144.255,160.674 144.382 C 160.468 144.509,160.300 145.193,160.300 145.902 L 160.300 147.191 157.678 147.191 C 156.180 147.191,155.056 147.352,155.056 147.566 C 155.056 147.772,154.551 147.940,153.933 147.940 C 153.315 147.940,152.809 148.109,152.809 148.315 C 152.809 148.521,152.562 148.689,152.259 148.689 C 151.500 148.689,147.940 152.201,147.940 152.950 C 147.940 153.284,147.772 153.558,147.566 153.558 C 147.360 153.558,147.191 153.895,147.191 154.307 C 147.191 154.719,147.022 155.056,146.816 155.056 C 146.610 155.056,146.442 155.730,146.442 156.554 L 146.442 158.052 144.217 158.052 C 142.993 158.052,141.888 158.221,141.760 158.427 C 141.633 158.633,141.160 158.802,140.708 158.802 C 139.917 158.802,137.828 160.287,137.828 160.848 C 137.828 160.999,137.322 161.595,136.704 162.172 C 136.086 162.750,135.581 163.419,135.581 163.660 C 135.581 164.337,134.544 165.238,134.271 164.797 C 133.958 164.290,123.221 164.287,123.221 164.794 C 123.221 165.000,122.715 165.169,122.097 165.169 C 121.479 165.169,120.974 165.337,120.974 165.543 C 120.974 165.749,120.637 165.918,120.225 165.918 C 119.813 165.918,119.476 166.086,119.476 166.292 C 119.476 166.498,119.260 166.667,118.997 166.667 C 118.733 166.667,118.274 167.004,117.978 167.416 C 117.681 167.828,117.249 168.165,117.019 168.165 C 116.487 168.165,113.858 170.985,113.858 171.556 C 113.858 171.792,113.352 172.456,112.734 173.034 C 112.116 173.611,111.610 174.353,111.610 174.682 C 111.610 175.011,111.442 175.281,111.236 175.281 C 111.030 175.281,110.861 175.618,110.861 176.030 C 110.861 176.446,110.612 176.779,110.300 176.779 C 109.988 176.779,109.738 177.112,109.738 177.528 C 109.738 177.940,109.569 178.277,109.363 178.277 C 109.157 178.277,108.989 178.604,108.989 179.004 C 108.989 179.404,108.820 179.835,108.614 179.963 C 108.408 180.090,108.240 180.690,108.240 181.296 C 108.240 181.901,108.071 182.397,107.865 182.397 C 107.659 182.397,107.491 183.206,107.491 184.195 C 107.491 185.184,107.307 186.176,107.082 186.401 C 106.519 186.964,107.164 194.396,107.856 195.318 C 108.010 195.524,108.239 196.125,108.365 196.654 C 108.491 197.182,108.933 198.025,109.348 198.526 C 109.763 199.028,110.484 199.897,110.950 200.457 C 111.416 201.017,112.093 201.481,112.453 201.487 C 112.814 201.493,113.109 201.667,113.109 201.873 C 113.109 202.079,113.373 202.247,113.697 202.247 C 114.021 202.247,114.539 202.500,114.848 202.809 C 115.253 203.214,116.240 203.371,118.391 203.371 C 120.695 203.371,121.421 203.243,121.587 202.809 C 121.728 202.443,122.310 202.247,123.261 202.247 C 124.063 202.247,124.719 202.079,124.719 201.873 C 124.719 201.667,125.225 201.498,125.843 201.498 C 126.461 201.498,126.966 201.330,126.966 201.124 C 126.966 200.918,127.135 200.749,127.341 200.749 C 127.547 200.749,127.715 201.423,127.715 202.247 C 127.715 203.071,127.884 203.745,128.090 203.745 C 128.296 203.745,128.467 204.209,128.471 204.775 C 128.478 205.788,129.523 207.363,131.554 209.419 C 132.121 209.992,132.584 210.683,132.584 210.953 C 132.584 211.224,132.921 211.688,133.333 211.985 C 133.745 212.282,134.082 212.726,134.082 212.973 C 134.082 213.219,134.293 213.496,134.551 213.589 C 134.868 213.703,134.748 213.998,134.176 214.507 C 133.713 214.919,133.333 215.532,133.333 215.868 C 133.333 216.204,133.165 216.479,132.959 216.479 C 132.753 216.479,132.584 216.755,132.584 217.091 C 132.584 217.427,132.280 217.975,131.907 218.308 C 131.089 219.041,129.213 222.363,129.213 223.081 C 129.213 223.364,129.045 223.596,128.839 223.596 C 128.633 223.596,128.464 224.007,128.464 224.510 C 128.464 225.013,128.296 225.528,128.090 225.655 C 127.884 225.783,127.715 226.214,127.715 226.614 C 127.715 227.014,127.547 227.341,127.341 227.341 C 127.135 227.341,126.966 227.668,126.966 228.068 C 126.966 228.468,126.798 228.899,126.592 229.026 C 126.386 229.154,126.217 229.669,126.217 230.172 C 126.217 230.675,126.049 231.086,125.843 231.086 C 125.637 231.086,125.468 231.676,125.468 232.397 C 125.468 233.118,125.300 233.708,125.094 233.708 C 124.888 233.708,124.719 234.288,124.719 234.997 C 124.719 235.705,124.551 236.390,124.345 236.517 C 124.139 236.644,123.970 237.234,123.970 237.828 C 123.970 238.421,123.801 239.011,123.596 239.139 C 123.390 239.266,123.221 240.119,123.221 241.033 C 123.221 241.948,123.052 242.697,122.846 242.697 C 122.635 242.697,122.472 243.758,122.472 245.131 C 122.472 246.504,122.309 247.566,122.097 247.566 C 121.857 247.566,121.723 251.061,121.723 257.303 L 121.723 267.041 63.858 267.041 C 32.032 267.041,5.993 267.181,5.993 267.352 C 5.993 267.524,5.571 267.889,5.056 268.165 C 3.636 268.925,3.636 273.398,5.056 274.157 C 5.571 274.433,5.993 274.798,5.993 274.970 C 5.993 275.141,32.128 275.281,64.072 275.281 C 128.842 275.281,123.221 275.019,123.221 278.041 C 123.221 278.971,123.390 279.835,123.596 279.963 C 123.801 280.090,123.970 280.680,123.970 281.273 C 123.970 281.867,124.139 282.457,124.345 282.584 C 124.551 282.712,124.719 283.396,124.719 284.105 C 124.719 284.813,124.888 285.393,125.094 285.393 C 125.300 285.393,125.468 285.817,125.468 286.335 C 125.468 286.852,125.637 287.611,125.843 288.020 C 126.049 288.429,126.386 289.099,126.592 289.508 C 126.798 289.917,126.966 290.591,126.966 291.006 C 126.966 291.421,127.135 291.760,127.341 291.760 C 127.547 291.760,127.715 292.015,127.715 292.327 C 127.715 292.639,127.884 293.229,128.090 293.638 C 128.296 294.047,128.633 294.717,128.839 295.126 C 129.045 295.535,129.213 296.125,129.213 296.437 C 129.213 296.749,129.348 297.004,129.513 297.004 C 129.677 297.004,130.011 297.551,130.255 298.221 C 130.498 298.890,131.122 299.894,131.641 300.452 C 132.160 301.009,132.584 301.726,132.584 302.044 C 132.584 302.362,132.753 302.622,132.959 302.622 C 133.165 302.622,133.333 302.922,133.333 303.288 C 133.333 303.655,133.670 304.197,134.082 304.494 C 134.494 304.791,134.831 305.334,134.831 305.701 C 134.831 306.067,135.000 306.367,135.206 306.367 C 135.412 306.367,135.581 306.620,135.581 306.929 C 135.581 307.238,135.749 307.491,135.955 307.491 C 136.161 307.491,136.330 307.718,136.330 307.997 C 136.330 308.275,136.835 309.032,137.453 309.679 C 138.071 310.326,138.577 311.014,138.577 311.208 C 138.577 311.403,139.504 312.489,140.637 313.622 C 141.770 314.755,142.697 315.782,142.697 315.906 C 142.697 316.342,148.344 322.097,148.773 322.097 C 148.947 322.097,149.651 322.645,150.337 323.315 C 152.115 325.047,153.134 325.843,153.575 325.843 C 153.785 325.843,154.539 326.390,155.250 327.060 C 157.829 329.490,158.407 329.963,158.804 329.963 C 159.026 329.963,159.569 330.300,160.011 330.712 C 160.454 331.124,161.036 331.461,161.307 331.461 C 161.577 331.461,161.798 331.629,161.798 331.835 C 161.798 332.041,162.182 332.210,162.651 332.210 C 163.121 332.210,163.748 332.547,164.045 332.959 C 164.342 333.371,164.885 333.708,165.251 333.708 C 165.618 333.708,165.918 333.876,165.918 334.082 C 165.918 334.288,166.255 334.457,166.667 334.457 C 167.079 334.457,167.416 334.625,167.416 334.831 C 167.416 335.037,167.753 335.206,168.165 335.206 C 168.577 335.206,168.914 335.375,168.914 335.581 C 168.914 335.787,169.325 335.955,169.828 335.955 C 170.331 335.955,170.846 336.124,170.974 336.330 C 171.101 336.536,171.532 336.704,171.932 336.704 C 172.332 336.704,172.659 336.873,172.659 337.079 C 172.659 337.285,173.008 337.453,173.435 337.453 C 173.862 337.453,174.464 337.706,174.773 338.015 C 175.082 338.324,175.649 338.577,176.035 338.577 C 176.420 338.577,176.839 338.745,176.966 338.951 C 177.094 339.157,177.599 339.326,178.090 339.326 C 178.581 339.326,179.086 339.494,179.213 339.700 C 179.341 339.906,180.025 340.075,180.734 340.075 C 181.443 340.075,182.022 340.243,182.022 340.449 C 182.022 340.655,182.602 340.824,183.311 340.824 C 184.020 340.824,184.704 340.993,184.831 341.199 C 184.959 341.404,185.811 341.573,186.726 341.573 C 187.641 341.573,188.390 341.742,188.390 341.948 C 188.390 342.155,189.381 342.322,190.615 342.322 C 191.838 342.322,192.944 342.491,193.071 342.697 C 193.388 343.210,216.854 343.210,216.854 342.697 C 216.854 342.485,217.915 342.322,219.288 342.322 C 220.662 342.322,221.723 342.159,221.723 341.948 C 221.723 341.742,222.471 341.573,223.386 341.573 C 224.301 341.573,225.154 341.404,225.281 341.199 C 225.408 340.993,226.092 340.824,226.801 340.824 C 227.510 340.824,228.090 340.655,228.090 340.449 C 228.090 340.243,228.670 340.075,229.379 340.075 C 230.087 340.075,230.772 339.906,230.899 339.700 C 231.026 339.494,231.532 339.326,232.022 339.326 C 232.513 339.326,233.019 339.157,233.146 338.951 C 233.273 338.745,233.693 338.577,234.078 338.577 C 234.463 338.577,235.031 338.324,235.340 338.015 C 235.649 337.706,236.251 337.453,236.677 337.453 C 237.104 337.453,237.453 337.285,237.453 337.079 C 237.453 336.873,237.780 336.704,238.180 336.704 C 238.580 336.704,239.011 336.536,239.139 336.330 C 239.266 336.124,239.781 335.955,240.284 335.955 C 240.787 335.955,241.199 335.787,241.199 335.581 C 241.199 335.375,241.536 335.206,241.948 335.206 C 242.360 335.206,242.697 335.037,242.697 334.831 C 242.697 334.625,243.034 334.457,243.446 334.457 C 243.858 334.457,244.195 334.288,244.195 334.082 C 244.195 333.876,244.495 333.708,244.861 333.708 C 245.228 333.708,245.770 333.371,246.067 332.959 C 246.364 332.547,246.807 332.210,247.051 332.210 C 247.699 332.210,250.562 330.626,250.562 330.268 C 250.562 330.100,250.821 329.963,251.137 329.963 C 251.697 329.963,252.187 329.581,254.863 327.060 C 255.573 326.390,256.327 325.843,256.538 325.843 C 256.979 325.843,257.998 325.047,259.775 323.315 C 260.462 322.645,261.158 322.097,261.322 322.097 C 261.603 322.097,263.135 320.621,265.988 317.600 C 266.670 316.878,267.468 315.824,267.760 315.259 C 268.052 314.694,268.451 314.232,268.646 314.232 C 269.063 314.232,271.536 311.603,271.536 311.159 C 271.536 310.992,272.041 310.326,272.659 309.679 C 273.277 309.032,273.783 308.275,273.783 307.997 C 273.783 307.718,273.951 307.491,274.157 307.491 C 274.363 307.491,274.532 307.238,274.532 306.929 C 274.532 306.620,274.700 306.367,274.906 306.367 C 275.112 306.367,275.281 306.067,275.281 305.701 C 275.281 305.334,275.618 304.791,276.030 304.494 C 276.442 304.197,276.779 303.655,276.779 303.288 C 276.779 302.922,276.948 302.622,277.154 302.622 C 277.360 302.622,277.528 302.362,277.528 302.044 C 277.528 301.726,277.953 301.009,278.472 300.452 C 278.991 299.894,279.614 298.890,279.858 298.221 C 280.101 297.551,280.435 297.004,280.600 297.004 C 280.764 297.004,280.899 296.749,280.899 296.437 C 280.899 296.125,281.067 295.535,281.273 295.126 C 281.479 294.717,281.816 294.047,282.022 293.638 C 282.228 293.229,282.397 292.639,282.397 292.327 C 282.397 292.015,282.566 291.760,282.772 291.760 C 282.978 291.760,283.146 291.421,283.146 291.006 C 283.146 290.591,283.315 289.917,283.521 289.508 C 283.727 289.099,284.064 288.429,284.270 288.020 C 284.476 287.611,284.644 286.852,284.644 286.335 C 284.644 285.817,284.813 285.393,285.019 285.393 C 285.225 285.393,285.393 284.813,285.393 284.105 C 285.393 283.396,285.562 282.712,285.768 282.584 C 285.974 282.457,286.142 281.867,286.142 281.273 C 286.142 280.680,286.311 280.090,286.517 279.963 C 286.723 279.835,286.897 279.025,286.903 278.161 C 286.927 274.979,281.269 275.281,340.959 275.281 C 376.075 275.281,394.007 275.154,394.007 274.906 C 394.007 274.700,394.188 274.532,394.409 274.532 C 395.385 274.532,395.880 273.398,395.880 271.161 C 395.880 268.924,395.385 267.790,394.409 267.790 C 394.188 267.790,394.007 267.622,394.007 267.416 C 394.007 267.168,376.155 267.041,341.199 267.041 L 288.390 267.041 288.390 257.303 C 288.390 251.061,288.255 247.566,288.015 247.566 C 287.804 247.566,287.640 246.504,287.640 245.131 C 287.640 243.758,287.477 242.697,287.266 242.697 C 287.060 242.697,286.891 241.948,286.891 241.033 C 286.891 240.119,286.723 239.266,286.517 239.139 C 286.311 239.011,286.142 238.421,286.142 237.828 C 286.142 237.234,285.974 236.644,285.768 236.517 C 285.562 236.390,285.393 235.705,285.393 234.997 C 285.393 234.288,285.225 233.708,285.019 233.708 C 284.813 233.708,284.644 233.118,284.644 232.397 C 284.644 231.676,284.506 231.086,284.337 231.086 C 284.169 231.086,283.801 230.243,283.521 229.213 C 283.240 228.184,282.873 227.341,282.704 227.341 C 282.535 227.341,282.397 227.086,282.397 226.774 C 282.397 226.462,282.248 225.914,282.066 225.557 C 281.884 225.199,281.523 224.401,281.264 223.783 C 280.265 221.397,278.865 218.888,278.211 218.308 C 277.836 217.975,277.528 217.427,277.528 217.091 C 277.528 216.755,277.360 216.479,277.154 216.479 C 276.948 216.479,276.779 216.180,276.779 215.813 C 276.779 215.447,276.442 214.904,276.030 214.607 C 275.618 214.310,275.281 213.799,275.281 213.471 C 275.281 213.143,274.944 212.514,274.532 212.071 C 274.120 211.629,273.783 211.117,273.783 210.933 C 273.783 210.749,273.277 210.069,272.659 209.422 C 272.041 208.776,271.536 208.109,271.536 207.942 C 271.536 207.498,269.063 204.869,268.646 204.869 C 268.451 204.869,268.052 204.407,267.760 203.842 C 266.839 202.062,263.486 198.442,261.423 197.000 C 260.702 196.496,259.754 195.743,259.317 195.326 C 257.820 193.902,256.920 193.258,256.426 193.258 C 256.154 193.258,255.716 192.856,255.453 192.363 C 255.189 191.871,254.529 191.240,253.985 190.961 C 253.441 190.683,252.724 190.158,252.391 189.797 C 252.057 189.435,251.510 189.139,251.173 189.139 C 250.837 189.139,250.562 189.001,250.562 188.834 C 250.562 188.475,247.699 186.891,247.051 186.891 C 246.807 186.891,246.364 186.554,246.067 186.142 C 245.770 185.730,245.228 185.393,244.861 185.393 C 244.495 185.393,244.195 185.225,244.195 185.019 C 244.195 184.813,243.858 184.644,243.446 184.644 C 243.034 184.644,242.697 184.476,242.697 184.270 C 242.697 184.064,242.360 183.895,241.948 183.895 C 241.536 183.895,241.199 183.727,241.199 183.521 C 241.199 183.315,240.787 183.146,240.284 183.146 C 239.781 183.146,239.266 182.978,239.139 182.772 C 239.011 182.566,238.580 182.397,238.180 182.397 C 237.780 182.397,237.453 182.251,237.453 182.073 C 237.453 181.895,236.653 181.464,235.674 181.115 C 234.696 180.765,233.602 180.321,233.245 180.128 C 232.887 179.934,232.265 179.775,231.862 179.775 C 231.460 179.775,231.026 179.607,230.899 179.401 C 230.772 179.195,230.087 179.026,229.379 179.026 C 228.670 179.026,228.090 178.858,228.090 178.652 C 228.090 178.446,227.510 178.277,226.801 178.277 C 226.092 178.277,225.408 178.109,225.281 177.903 C 225.154 177.697,224.301 177.528,223.386 177.528 C 222.471 177.528,221.723 177.360,221.723 177.154 C 221.723 176.942,220.662 176.779,219.288 176.779 C 217.915 176.779,216.854 176.616,216.854 176.404 C 216.854 176.163,212.679 176.030,205.078 176.030 C 197.632 176.030,193.218 176.168,193.071 176.404 C 192.944 176.610,191.838 176.779,190.615 176.779 C 189.381 176.779,188.390 176.946,188.390 177.154 C 188.390 177.360,187.884 177.528,187.266 177.528 C 186.503 177.528,186.142 177.343,186.142 176.950 C 186.142 176.305,185.760 175.770,183.989 173.934 C 183.319 173.240,182.772 172.417,182.772 172.104 C 182.772 171.791,182.603 171.536,182.397 171.536 C 182.191 171.536,182.022 171.283,182.022 170.974 C 182.022 170.665,181.854 170.412,181.648 170.412 C 181.442 170.412,181.273 170.192,181.273 169.923 C 181.273 169.210,178.838 166.667,178.155 166.667 C 177.835 166.667,177.468 166.498,177.341 166.292 C 177.214 166.086,176.708 165.918,176.217 165.918 C 175.727 165.918,175.221 165.749,175.094 165.543 C 174.966 165.337,174.366 165.169,173.761 165.169 C 173.155 165.169,172.659 165.000,172.659 164.794 C 172.659 164.588,172.142 164.419,171.510 164.419 C 170.532 164.419,170.378 164.294,170.480 163.577 C 170.603 162.704,173.410 162.492,173.720 163.332 C 173.789 163.518,174.327 163.670,174.915 163.670 C 175.504 163.670,176.090 163.839,176.217 164.045 C 176.345 164.251,177.197 164.419,178.112 164.419 C 179.027 164.419,179.775 164.588,179.775 164.794 C 179.775 165.010,180.961 165.169,182.584 165.169 C 184.207 165.169,185.393 165.327,185.393 165.543 C 185.393 165.757,186.517 165.918,188.015 165.918 C 189.513 165.918,190.637 165.757,190.637 165.543 C 190.637 165.337,191.311 165.169,192.135 165.169 C 192.959 165.169,193.633 165.000,193.633 164.794 C 193.633 164.588,193.909 164.419,194.247 164.419 C 194.971 164.419,195.681 163.590,196.448 161.846 C 197.101 160.362,197.252 151.134,196.629 150.749 C 196.423 150.622,196.255 149.948,196.255 149.251 C 196.255 148.554,196.086 147.880,195.880 147.753 C 195.674 147.625,195.506 147.189,195.506 146.783 C 195.506 146.376,195.253 145.947,194.944 145.828 C 194.624 145.705,194.382 145.147,194.382 144.529 C 194.382 143.933,194.213 143.446,194.007 143.446 C 193.801 143.446,193.633 143.109,193.633 142.697 C 193.633 142.285,193.464 141.948,193.258 141.948 C 193.052 141.948,192.884 141.610,192.884 141.199 C 192.884 140.787,192.715 140.449,192.509 140.449 C 192.303 140.449,192.135 140.112,192.135 139.700 C 192.135 139.288,191.966 138.951,191.760 138.951 C 191.554 138.951,191.386 138.699,191.386 138.390 C 191.386 138.081,191.217 137.828,191.011 137.828 C 190.805 137.828,190.637 137.608,190.637 137.339 C 190.637 136.614,188.196 134.082,187.496 134.082 C 187.164 134.082,186.890 133.956,186.888 133.801 C 186.885 133.421,185.032 132.584,184.195 132.584 C 183.824 132.584,183.521 132.416,183.521 132.210 C 183.521 132.004,182.678 131.835,181.648 131.835 C 180.618 131.835,179.775 131.667,179.775 131.461 C 179.775 131.255,178.933 131.086,177.903 131.086 C 176.873 131.086,176.030 131.255,176.030 131.461 C 176.030 131.667,175.103 131.835,173.970 131.835 C 172.837 131.835,171.910 132.004,171.910 132.210 C 171.910 132.766,170.812 132.663,170.198 132.049 C 169.904 131.755,169.663 131.249,169.663 130.926 C 169.663 130.602,169.494 130.337,169.288 130.337 C 169.082 130.337,168.914 129.831,168.914 129.213 C 168.914 128.596,168.745 128.090,168.539 128.090 C 168.333 128.090,168.165 127.594,168.165 126.988 C 168.165 126.383,167.996 125.783,167.790 125.655 C 166.790 125.037,167.376 122.472,168.517 122.472 C 169.123 122.472,169.723 122.640,169.850 122.846 C 169.977 123.052,170.493 123.221,170.996 123.221 C 171.499 123.221,171.910 123.390,171.910 123.596 C 171.910 124.441,175.653 124.007,176.609 123.051 C 178.222 121.437,177.694 116.854,175.895 116.854 C 175.557 116.854,175.281 116.685,175.281 116.479 C 175.281 116.273,174.860 116.105,174.345 116.105 C 173.830 116.105,173.408 115.936,173.408 115.730 C 173.408 115.524,172.913 115.356,172.307 115.356 C 171.701 115.356,171.101 115.187,170.974 114.981 C 170.846 114.775,169.657 114.607,168.330 114.607 C 166.971 114.607,165.918 114.770,165.918 114.981 M179.775 138.951 C 179.775 139.157,180.219 139.326,180.762 139.326 C 181.863 139.326,185.393 142.593,185.393 143.612 C 185.393 143.932,185.562 144.195,185.768 144.195 C 185.974 144.195,186.142 144.532,186.142 144.944 C 186.142 145.356,186.311 145.693,186.517 145.693 C 186.723 145.693,186.891 146.030,186.891 146.442 C 186.891 146.854,187.060 147.191,187.266 147.191 C 187.472 147.191,187.640 147.697,187.640 148.315 C 187.640 148.933,187.809 149.438,188.015 149.438 C 188.221 149.438,188.390 149.944,188.390 150.562 C 188.390 151.180,188.558 151.685,188.764 151.685 C 188.970 151.685,189.139 152.275,189.139 152.996 C 189.139 153.717,189.307 154.307,189.513 154.307 C 189.719 154.307,189.888 155.150,189.888 156.180 L 189.888 158.052 187.101 158.052 C 185.568 158.052,184.210 157.884,184.082 157.678 C 183.955 157.472,182.934 157.303,181.813 157.303 C 180.692 157.303,179.775 157.135,179.775 156.929 C 179.775 156.723,179.195 156.554,178.487 156.554 C 177.778 156.554,177.094 156.386,176.966 156.180 C 176.839 155.974,176.239 155.805,175.633 155.805 C 175.028 155.805,174.532 155.637,174.532 155.431 C 174.532 155.225,174.110 155.056,173.596 155.056 C 173.081 155.056,172.659 154.888,172.659 154.682 C 172.659 154.476,172.322 154.307,171.910 154.307 C 171.498 154.307,171.161 154.139,171.161 153.933 C 171.161 153.727,170.896 153.558,170.572 153.558 C 167.177 153.558,167.396 145.250,170.880 141.891 C 171.447 141.345,171.910 140.713,171.910 140.486 C 171.910 140.260,172.247 140.075,172.659 140.075 C 173.071 140.075,173.408 139.906,173.408 139.700 C 173.408 139.494,173.914 139.326,174.532 139.326 C 175.150 139.326,175.655 139.157,175.655 138.951 C 175.655 138.745,176.582 138.577,177.715 138.577 C 178.848 138.577,179.775 138.745,179.775 138.951 M161.649 156.155 C 162.246 156.760,162.945 157.511,163.202 157.825 C 163.762 158.507,163.823 160.896,163.297 161.533 C 161.492 163.720,160.646 164.419,159.806 164.419 C 159.288 164.419,158.766 164.630,158.645 164.888 C 158.471 165.262,158.383 165.262,158.208 164.888 C 158.088 164.630,157.667 164.419,157.272 164.419 C 156.877 164.419,156.554 164.251,156.554 164.045 C 156.554 163.839,156.247 163.670,155.872 163.670 C 155.238 163.670,153.558 160.755,153.558 159.653 C 153.558 158.810,155.270 156.059,155.899 155.892 C 156.259 155.796,156.554 155.569,156.554 155.387 C 156.554 154.457,160.569 155.062,161.649 156.155 M145.693 165.543 C 145.693 165.749,145.953 165.918,146.272 165.918 C 147.315 165.918,148.689 167.664,148.689 168.990 C 148.688 170.345,147.303 172.285,146.336 172.285 C 146.017 172.285,145.657 172.495,145.537 172.753 C 145.362 173.127,145.275 173.127,145.100 172.753 C 144.980 172.495,144.600 172.281,144.257 172.277 C 142.898 172.259,141.165 168.912,142.041 167.997 C 142.299 167.728,142.757 167.150,143.060 166.713 C 143.363 166.275,143.911 165.918,144.277 165.918 C 144.644 165.918,144.944 165.749,144.944 165.543 C 144.944 165.337,145.112 165.169,145.318 165.169 C 145.524 165.169,145.693 165.337,145.693 165.543 M166.854 170.787 C 166.981 170.993,167.497 171.161,168.000 171.161 C 168.502 171.161,168.914 171.290,168.914 171.448 C 168.914 171.744,172.240 173.034,173.003 173.034 C 173.540 173.034,176.030 175.491,176.030 176.021 C 176.030 176.236,176.536 176.940,177.154 177.587 C 178.455 178.949,178.596 179.775,177.528 179.775 C 177.116 179.775,176.779 179.907,176.779 180.068 C 176.779 180.229,176.011 180.587,175.073 180.865 C 174.135 181.142,173.135 181.600,172.852 181.883 C 172.570 182.166,172.083 182.397,171.772 182.397 C 171.460 182.397,171.095 182.576,170.960 182.794 C 170.665 183.272,169.693 182.113,169.675 181.262 C 169.668 180.947,169.326 180.447,168.914 180.150 C 168.502 179.853,168.165 179.387,168.165 179.114 C 168.165 178.841,167.743 178.196,167.228 177.681 C 166.713 177.166,166.292 176.592,166.292 176.404 C 166.292 176.217,165.913 175.677,165.449 175.204 C 164.986 174.731,164.368 173.881,164.075 173.315 C 163.783 172.748,163.320 172.285,163.045 172.285 C 162.771 172.285,162.547 172.032,162.547 171.723 C 162.547 171.348,162.921 171.161,163.670 171.161 C 164.288 171.161,164.794 170.993,164.794 170.787 C 164.794 170.581,165.205 170.412,165.708 170.412 C 166.211 170.412,166.727 170.581,166.854 170.787 M130.847 171.723 C 130.966 172.032,131.323 172.285,131.641 172.285 C 132.553 172.285,134.831 173.737,134.831 174.318 C 134.831 174.436,134.157 174.532,133.333 174.532 C 132.509 174.532,131.835 174.700,131.835 174.906 C 131.835 175.112,131.245 175.281,130.524 175.281 C 129.803 175.281,129.213 175.449,129.213 175.655 C 129.213 175.861,128.708 176.030,128.090 176.030 C 127.472 176.030,126.966 176.199,126.966 176.404 C 126.966 176.610,126.546 176.779,126.033 176.779 C 123.785 176.779,121.732 182.931,123.596 184.082 C 123.801 184.210,123.970 185.062,123.970 185.977 C 123.970 186.892,124.139 187.640,124.345 187.640 C 124.551 187.640,124.719 188.315,124.719 189.139 C 124.719 189.963,124.888 190.637,125.094 190.637 C 125.300 190.637,125.468 191.395,125.468 192.322 C 125.468 193.945,125.427 194.007,124.345 194.007 C 123.727 194.007,123.221 194.176,123.221 194.382 C 123.221 194.588,122.894 194.757,122.494 194.757 C 122.094 194.757,121.663 194.925,121.536 195.131 C 120.486 196.830,115.356 194.823,115.356 192.714 C 115.356 192.189,115.187 191.760,114.981 191.760 C 114.765 191.760,114.607 190.574,114.607 188.951 C 114.607 187.328,114.765 186.142,114.981 186.142 C 115.187 186.142,115.356 185.647,115.356 185.041 C 115.356 184.435,115.524 183.835,115.730 183.708 C 115.936 183.581,116.109 183.107,116.113 182.656 C 116.118 182.204,116.451 181.414,116.854 180.899 C 117.257 180.384,117.590 179.752,117.595 179.494 C 117.599 179.237,117.772 179.026,117.978 179.026 C 118.184 179.026,118.352 178.760,118.352 178.435 C 118.352 177.235,124.189 172.285,125.604 172.285 C 125.891 172.285,126.335 172.032,126.592 171.723 C 126.887 171.367,127.713 171.161,128.845 171.161 C 130.087 171.161,130.697 171.332,130.847 171.723 M155.805 175.198 C 155.805 175.565,156.142 176.108,156.554 176.404 C 156.966 176.701,157.303 177.162,157.303 177.427 C 157.303 177.692,157.809 178.439,158.427 179.085 C 159.045 179.732,159.551 180.489,159.551 180.767 C 159.551 181.046,159.691 181.273,159.862 181.273 C 160.033 181.273,160.409 181.737,160.698 182.303 C 160.986 182.870,161.773 183.996,162.446 184.805 C 163.916 186.573,163.960 186.891,162.734 186.891 C 162.219 186.891,161.798 187.060,161.798 187.266 C 161.798 187.472,161.577 187.640,161.307 187.640 C 161.036 187.640,160.454 187.978,160.011 188.390 C 159.569 188.801,159.009 189.139,158.767 189.139 C 158.526 189.139,158.021 189.492,157.647 189.923 L 156.966 190.708 156.105 189.809 C 154.638 188.278,154.307 187.362,154.307 184.837 C 154.307 183.460,154.144 182.397,153.933 182.397 C 153.136 182.397,153.503 177.292,154.401 175.885 C 155.335 174.420,155.805 174.190,155.805 175.198 M146.442 184.831 C 146.442 187.953,146.585 189.888,146.816 189.888 C 147.022 189.888,147.191 190.225,147.191 190.637 C 147.191 191.049,147.360 191.386,147.566 191.386 C 147.772 191.386,147.940 191.723,147.940 192.135 C 147.940 192.547,148.109 192.884,148.315 192.884 C 148.521 192.884,148.689 193.059,148.689 193.274 C 148.689 193.489,149.026 194.026,149.438 194.468 C 150.457 195.561,150.384 195.977,149.036 196.773 C 147.509 197.676,142.697 202.572,142.697 203.224 C 142.697 203.619,139.726 206.367,139.299 206.367 C 138.827 206.367,137.828 205.432,137.827 204.989 C 137.826 204.820,137.321 204.092,136.704 203.371 C 136.049 202.605,135.582 201.632,135.581 201.030 C 135.581 200.463,135.412 200.000,135.206 200.000 C 135.000 200.000,134.831 199.326,134.831 198.502 C 134.831 197.516,134.999 197.004,135.323 197.004 C 135.593 197.004,136.176 196.667,136.618 196.255 C 137.060 195.843,137.565 195.506,137.739 195.506 C 138.130 195.506,140.824 193.067,140.824 192.713 C 140.824 192.331,141.840 191.386,142.250 191.386 C 142.446 191.386,142.815 190.880,143.071 190.262 C 143.327 189.644,143.685 189.139,143.866 189.139 C 144.047 189.139,144.195 188.811,144.195 188.412 C 144.195 188.012,144.363 187.580,144.569 187.453 C 144.775 187.326,144.944 186.652,144.944 185.955 C 144.944 185.258,145.112 184.584,145.318 184.457 C 145.524 184.330,145.693 183.224,145.693 182.000 C 145.693 180.767,145.860 179.775,146.067 179.775 C 146.299 179.775,146.442 181.710,146.442 184.831 M137.828 182.584 C 137.828 183.305,137.659 183.895,137.453 183.895 C 137.247 183.895,137.079 184.232,137.079 184.644 C 137.079 185.056,136.951 185.393,136.796 185.393 C 136.640 185.393,136.297 185.881,136.033 186.477 C 135.769 187.073,135.053 187.768,134.443 188.021 C 133.833 188.274,133.333 188.628,133.333 188.809 C 133.333 188.990,133.165 189.139,132.959 189.139 C 132.753 189.139,132.584 188.727,132.584 188.224 C 132.584 187.722,132.416 187.206,132.210 187.079 C 132.004 186.951,131.835 186.262,131.835 185.547 C 131.835 184.736,131.624 184.165,131.273 184.031 C 130.379 183.688,130.618 183.250,131.835 183.001 C 132.453 182.875,133.478 182.666,134.112 182.537 C 134.746 182.409,135.354 182.072,135.463 181.788 C 135.937 180.555,137.828 181.191,137.828 182.584 M212.039 181.667 C 250.542 185.573,280.215 215.601,282.989 253.464 C 283.334 258.173,282.771 258.070,279.914 252.903 C 277.332 248.233,275.641 247.116,274.130 249.083 C 273.092 250.433,273.216 251.049,275.325 255.012 C 277.938 259.924,278.685 260.827,281.127 262.022 L 283.235 263.053 283.020 264.869 C 282.901 265.867,282.703 266.849,282.579 267.050 C 282.285 267.526,248.067 267.550,247.773 267.074 C 247.657 266.886,248.321 265.843,249.249 264.756 C 251.216 262.452,251.619 259.524,250.220 257.704 C 249.344 256.564,248.969 256.906,256.554 251.920 C 265.300 246.170,265.639 245.773,264.044 243.156 C 263.022 241.480,263.076 241.329,264.807 241.053 C 266.466 240.787,267.454 241.164,268.687 242.532 C 270.737 244.807,274.027 243.008,272.866 240.248 C 271.493 236.982,268.351 235.737,263.017 236.343 C 252.706 237.516,253.583 237.590,251.074 235.327 C 244.897 229.755,243.556 229.155,242.347 231.415 C 241.349 233.280,241.500 233.504,247.167 238.577 C 251.584 242.531,251.339 242.405,254.360 242.266 C 257.039 242.142,258.451 242.861,258.417 244.330 C 258.404 244.861,243.662 254.682,242.877 254.682 C 242.326 254.682,240.975 252.723,234.656 242.764 C 230.755 236.615,228.773 235.591,227.544 239.087 C 227.115 240.306,226.774 239.644,232.391 248.502 C 234.612 252.004,237.039 255.864,237.784 257.081 C 239.217 259.420,240.825 260.238,244.079 260.283 C 246.372 260.315,246.012 261.221,242.027 265.449 L 240.173 267.416 217.298 267.416 L 194.423 267.416 192.865 265.753 C 190.106 262.810,186.360 261.834,177.715 261.808 C 171.258 261.788,164.770 260.986,164.218 260.139 C 163.940 259.712,162.850 255.926,161.796 251.724 C 159.720 243.451,159.707 242.764,161.592 241.279 C 163.781 239.556,164.149 237.077,162.339 236.252 C 159.778 235.085,155.089 239.955,155.064 243.806 C 155.057 244.914,155.938 249.059,157.316 254.401 C 157.515 255.173,157.846 256.479,158.052 257.303 C 160.134 265.629,161.693 266.428,176.404 266.711 C 179.518 266.771,179.543 266.778,177.528 267.057 C 176.395 267.214,165.078 267.358,152.378 267.379 L 129.288 267.416 127.896 266.023 L 126.503 264.630 126.734 258.064 C 127.082 248.221,127.921 243.151,130.548 235.019 C 133.017 227.378,137.839 217.997,141.792 213.144 C 142.060 212.816,143.359 211.199,144.681 209.551 C 147.521 206.008,154.434 199.283,157.322 197.255 C 162.645 193.517,170.791 188.956,175.094 187.306 C 176.330 186.832,177.678 186.309,178.090 186.144 C 181.929 184.605,181.990 184.633,181.088 187.501 C 179.492 192.573,183.845 194.224,185.740 189.266 C 186.200 188.063,186.732 186.786,186.921 186.428 C 187.111 186.071,187.266 185.542,187.266 185.253 C 187.266 183.447,189.903 182.472,196.569 181.815 C 199.955 181.482,200.432 181.652,199.983 183.031 C 199.676 183.971,199.050 186.401,198.119 190.262 C 196.844 195.550,197.677 195.118,188.726 195.125 C 178.165 195.134,178.477 194.848,176.886 205.993 L 176.592 208.052 173.221 208.253 C 166.841 208.632,165.626 210.375,165.560 219.237 C 165.534 222.632,167.556 225.468,170.002 225.468 C 171.229 225.468,170.965 225.930,168.352 228.353 C 165.751 230.766,165.230 232.218,166.506 233.494 C 167.892 234.880,169.250 234.285,173.408 230.469 C 175.571 228.484,177.712 226.524,178.166 226.115 L 178.992 225.370 182.099 226.578 C 186.032 228.108,186.923 228.473,187.729 228.883 C 188.087 229.065,188.552 229.213,188.763 229.213 C 188.974 229.213,189.861 229.532,190.734 229.922 C 191.608 230.311,193.882 231.238,195.789 231.982 L 199.256 233.333 212.012 233.333 C 226.381 233.333,225.574 233.491,227.770 230.257 C 230.314 226.510,229.987 225.500,225.490 223.222 C 222.326 221.620,222.326 221.621,227.154 220.965 C 233.131 220.152,235.622 217.435,234.434 213.024 C 232.483 205.777,220.813 207.744,217.825 215.824 C 217.361 217.078,216.960 217.603,216.466 217.603 C 216.081 217.603,215.378 217.750,214.905 217.930 C 210.406 219.638,209.913 219.453,206.961 214.950 C 204.028 210.475,204.908 210.733,193.675 211.051 C 182.472 211.369,183.489 211.021,180.200 215.660 C 176.955 220.236,177.166 220.083,173.689 220.399 L 170.787 220.663 170.787 217.283 C 170.787 213.265,170.564 213.461,175.398 213.217 C 181.048 212.931,181.155 212.804,182.009 205.431 C 182.247 203.371,182.520 201.306,182.614 200.843 C 182.785 200.006,182.833 200.000,189.629 200.000 C 196.497 200.000,196.806 199.960,202.903 198.285 C 204.087 197.959,206.152 197.423,207.491 197.094 C 211.528 196.101,214.164 192.614,213.793 188.758 C 213.476 185.453,210.200 185.947,208.771 189.515 C 207.921 191.638,206.209 192.805,203.861 192.864 C 202.593 192.895,202.599 192.649,204.001 187.261 C 205.762 180.490,205.085 180.961,212.039 181.667 M239.700 211.985 C 238.393 213.292,238.756 214.510,241.798 219.025 C 244.929 223.672,245.840 224.510,247.348 224.131 C 249.883 223.495,249.601 221.567,246.255 216.663 C 242.425 211.051,241.380 210.305,239.700 211.985 M228.996 213.710 C 231.719 214.756,228.048 216.434,223.689 216.137 C 222.060 216.026,224.247 214.357,226.637 213.887 C 227.539 213.710,228.306 213.547,228.340 213.524 C 228.375 213.502,228.670 213.585,228.996 213.710 M198.876 216.241 C 198.876 216.315,198.363 217.621,197.736 219.142 C 196.286 222.659,196.321 224.664,197.846 225.392 C 199.603 226.230,200.660 225.383,201.954 222.097 C 202.563 220.552,203.139 219.210,203.234 219.114 C 203.329 219.019,204.105 219.758,204.959 220.757 C 207.531 223.765,210.224 224.553,214.011 223.404 C 216.390 222.683,216.438 222.688,216.834 223.731 C 217.054 224.308,218.159 225.123,220.007 226.072 C 221.567 226.873,222.844 227.739,222.845 227.996 C 222.847 228.560,200.010 228.687,199.419 228.127 C 199.224 227.941,198.305 227.534,197.378 227.222 C 196.096 226.791,186.439 222.959,182.879 221.469 C 182.357 221.250,182.902 220.260,184.957 217.697 L 186.233 216.105 192.554 216.105 C 196.032 216.105,198.876 216.166,198.876 216.241 M133.794 278.184 C 137.873 282.160,137.872 282.160,137.397 286.758 C 136.382 296.580,136.476 296.083,135.741 295.579 C 133.856 294.285,127.712 275.988,128.909 275.230 C 129.896 274.604,130.495 274.966,133.794 278.184 M183.769 275.281 L 191.011 275.281 191.011 276.668 C 191.011 278.321,191.659 285.408,192.101 288.591 C 192.735 293.160,199.236 308.938,201.418 311.203 C 206.069 316.033,211.653 314.913,219.810 307.516 C 226.101 301.812,232.180 296.252,233.194 295.275 C 235.176 293.364,235.865 290.955,237.088 281.657 C 237.567 278.015,237.726 277.539,238.876 276.311 L 239.841 275.281 260.751 275.281 L 281.662 275.281 281.429 276.311 C 279.832 283.356,277.224 290.446,274.122 296.180 C 272.020 300.066,271.916 300.245,270.312 302.723 C 269.543 303.911,268.914 305.049,268.914 305.251 C 268.914 305.453,268.757 305.618,268.565 305.618 C 268.372 305.618,268.122 305.913,268.007 306.273 C 267.892 306.634,267.415 307.350,266.945 307.865 C 266.476 308.380,265.707 309.307,265.236 309.925 C 256.057 321.965,237.682 333.060,221.536 336.312 C 220.300 336.561,218.614 336.910,217.790 337.088 C 203.151 340.245,181.032 336.360,166.948 328.159 C 166.175 327.709,164.911 326.986,164.139 326.551 C 160.346 324.419,154.906 320.154,150.416 315.792 C 147.865 313.314,146.421 311.667,141.272 305.363 C 140.343 304.226,140.315 301.613,141.153 294.382 C 142.702 281.021,142.483 279.397,138.734 276.448 C 136.651 274.809,137.162 274.770,157.424 275.033 C 167.931 275.169,179.786 275.281,183.769 275.281 M232.959 275.814 C 232.959 276.107,232.800 277.161,232.605 278.155 C 232.411 279.149,232.060 281.395,231.826 283.146 C 230.698 291.591,231.760 290.016,220.037 300.628 C 210.371 309.378,210.390 309.364,208.437 309.362 C 205.296 309.359,204.421 308.334,201.888 301.685 C 201.025 299.419,200.179 297.228,200.008 296.816 C 199.361 295.258,197.422 290.044,197.221 289.322 C 197.105 288.909,196.848 286.633,196.648 284.266 C 196.449 281.899,196.171 278.909,196.030 277.622 L 195.773 275.281 214.366 275.281 C 230.200 275.281,232.959 275.360,232.959 275.814 M243.943 291.286 C 242.948 292.467,241.829 293.774,241.455 294.189 C 237.720 298.338,237.101 300.183,238.977 301.577 C 240.447 302.669,241.430 301.986,245.688 296.919 C 249.651 292.202,250.154 291.026,248.753 289.758 C 247.353 288.491,245.911 288.949,243.943 291.286 M36.205 327.591 C 36.067 327.728,35.955 338.346,35.955 351.186 L 35.955 374.532 59.738 374.532 L 83.521 374.532 83.521 369.663 L 83.521 364.794 64.794 364.794 L 46.067 364.794 46.067 346.067 L 46.067 327.341 41.261 327.341 C 38.617 327.341,36.342 327.453,36.205 327.591 M347.826 327.580 C 347.683 327.723,347.566 336.155,347.566 346.317 L 347.566 364.794 328.839 364.794 L 310.112 364.794 310.112 369.663 L 310.112 374.532 333.898 374.532 L 357.684 374.532 357.587 351.030 L 357.491 327.528 352.788 327.424 C 350.202 327.366,347.969 327.437,347.826 327.580 " stroke="none" fill="#fbfcfb" fill-rule="evenodd"></path><path id="path4" d="M129.213 276.570 C 129.213 277.278,129.382 277.963,129.588 278.090 C 129.794 278.217,129.963 278.891,129.963 279.588 C 129.963 280.285,130.131 280.959,130.337 281.086 C 130.543 281.213,130.712 281.813,130.712 282.419 C 130.712 283.025,130.880 283.521,131.086 283.521 C 131.292 283.521,131.461 283.932,131.461 284.435 C 131.461 284.938,131.629 285.453,131.835 285.581 C 132.041 285.708,132.210 286.141,132.210 286.544 C 132.210 286.947,132.375 287.569,132.578 287.926 C 132.780 288.284,133.550 289.900,134.289 291.516 C 136.085 295.448,136.001 295.666,136.939 284.644 L 137.147 282.210 133.544 278.745 C 129.530 274.887,129.213 274.727,129.213 276.570 " stroke="none" fill="#acd454" fill-rule="evenodd"></path></g></svg>