<?xml version="1.0"?>
<svg xmlns="http://www.w3.org/2000/svg" xmlns:xlink="http://www.w3.org/1999/xlink" xmlns:svgjs="http://svgjs.com/svgjs" version="1.1" width="512" height="512" x="0" y="0" viewBox="0 0 512 512" style="enable-background:new 0 0 512 512" xml:space="preserve" class=""><g><g xmlns="http://www.w3.org/2000/svg"><circle cx="256" cy="256" r="28.64" fill="#1f1f1f" data-original="#000000" style="" class=""/><path d="m369.74 256c0-62.827-50.933-113.739-113.74-113.739-62.72 0-113.74 50.824-113.74 113.739 0 62.852 50.942 113.739 113.74 113.739 62.835 0 113.74-50.941 113.74-113.739zm-113.74 58.64c-32.34 0-58.64-26.3-58.64-58.639 0-32.34 26.3-58.64 58.64-58.64s58.64 26.3 58.64 58.64c0 32.339-26.3 58.639-58.64 58.639z" fill="#1f1f1f" data-original="#000000" style="" class=""/><path d="m437.87 256c0-29.51-21.93-54.01-50.34-58.049 8.344 19.037 12.21 38.473 12.21 58.049 0 20.985-4.557 40.9-12.22 58.049 28.42-4.029 50.35-28.529 50.35-58.049z" fill="#1f1f1f" data-original="#000000" style="" class=""/><path d="m162.61 395.229c11.58 0 22.56-3.33 31.83-9.32-37.238-17.68-64.632-50.251-75.96-88.009-9.15 10.44-14.51 24.06-14.51 38.69 0 32.329 26.31 58.639 58.64 58.639z" fill="#1f1f1f" data-original="#000000" style="" class=""/><path d="m220.29 116.761c11.351-2.944 23.475-4.5 35.71-4.5 22.205 0 43.19 5.029 61.99 14.02-2.15-25.55-23.62-45.68-49.72-45.68-22.76.001-42.01 15.301-47.98 36.16z" fill="#1f1f1f" data-original="#000000" style="" class=""/><path d="m221.11 458.431c-98.79-16.895-170.492-102.029-170.492-202.431 0-88.896 56.215-165.812 137.668-194.003l-5.372 9.535c-4.066 7.218-1.512 16.365 5.706 20.431 7.22 4.068 16.366 1.51 20.432-5.705 24.499-43.484 22.87-40.465 23.465-41.966 2.785-7.022-.126-14.695-6.187-18.352l-39.422-23.781c-7.095-4.279-16.314-1.999-20.592 5.096-4.279 7.093-1.998 16.312 5.095 20.592l8.765 5.288c-39.882 13.592-75.778 37.835-103.456 70.337-36.178 42.484-56.102 96.653-56.102 152.528s19.924 110.044 56.102 152.528c35.765 42 85.248 70.224 139.332 79.473 8.153 1.395 15.916-4.08 17.314-12.257 1.397-8.165-4.091-15.916-12.256-17.313z" fill="#1f1f1f" data-original="#000000" style="" class=""/><path d="m435.28 103.472c-35.765-42-85.248-70.224-139.332-79.473-8.166-1.397-15.918 4.091-17.314 12.257-1.396 8.165 4.091 15.917 12.256 17.313 98.79 16.896 170.492 102.03 170.492 202.431 0 88.896-56.215 165.812-137.668 194.003l5.372-9.535c4.066-7.218 1.512-16.365-5.706-20.431-7.217-4.067-16.365-1.513-20.432 5.705l-22.598 40.111c-4 7.101-1.56 16.056 5.32 20.207l39.421 23.782c7.101 4.282 16.317 1.992 20.592-5.096 4.279-7.093 1.998-16.312-5.095-20.592l-8.765-5.288c39.883-13.593 75.779-37.836 103.456-70.338 36.178-42.484 56.102-96.652 56.102-152.528s-19.923-110.044-56.101-152.528z" fill="#1f1f1f" data-original="#000000" style="" class=""/></g></g></svg>
