<?xml version="1.0"?>
<svg xmlns="http://www.w3.org/2000/svg" xmlns:xlink="http://www.w3.org/1999/xlink" xmlns:svgjs="http://svgjs.com/svgjs" version="1.1" width="512" height="512" x="0" y="0" viewBox="0 0 60 60" style="enable-background:new 0 0 512 512" xml:space="preserve" class=""><g><g xmlns="http://www.w3.org/2000/svg" id="Page-1" fill="none" fill-rule="evenodd"><g id="022---Multi-Media" fill-rule="nonzero"><path id="Shape" d="m53 8v4c0 .5522847-.4477153 1-1 1h-10l6-6h4c.5522847 0 1 .44771525 1 1z" fill="#f5f5f5" data-original="#f5f5f5" style="" class=""/><path id="Shape" d="m52 7h-3c.5522847 0 1 .44771525 1 1v4c0 .5522847-.4477153 1-1 1h3c.5522847 0 1-.4477153 1-1v-4c0-.55228475-.4477153-1-1-1z" fill="#cfd8dc" data-original="#cfd8dc" style="" class=""/><path id="Shape" d="m48 7-6 6h-8l6-6z" fill="#9e9e9e" data-original="#9e9e9e" style="" class=""/><path id="Shape" d="m40 7-6 6h-8l6-6z" fill="#f5f5f5" data-original="#f5f5f5" style="" class=""/><path id="Shape" d="m32 7-6 6h-8l6-6z" fill="#9e9e9e" data-original="#9e9e9e" style="" class=""/><path id="Shape" d="m24 7-6 6h-8l6-6z" fill="#f5f5f5" data-original="#f5f5f5" style="" class=""/><path id="Shape" d="m16 7-6 6h-6c-.55228475 0-1-.4477153-1-1v-2.18c.31939584.12110064.65842344.1821256 1 .18 1.65685425 0 3-1.34314575 3-3z" fill="#9e9e9e" data-original="#9e9e9e" style="" class=""/><path id="Shape" d="m53 2v4c0 .55228475-.4477153 1-1 1h-4l-6-6h10c.5522847 0 1 .44771525 1 1z" fill="#f5f5f5" data-original="#f5f5f5" style="" class=""/><path id="Shape" d="m52 1h-3c.5522847 0 1 .44771525 1 1v4c0 .55228475-.4477153 1-1 1h3c.5522847 0 1-.44771525 1-1v-4c0-.55228475-.4477153-1-1-1z" fill="#cfd8dc" data-original="#cfd8dc" style="" class=""/><path id="Shape" d="m48 7h-8l-6-6h8z" fill="#9e9e9e" data-original="#9e9e9e" style="" class=""/><path id="Shape" d="m40 7h-8l-6-6h8z" fill="#f5f5f5" data-original="#f5f5f5" style="" class=""/><path id="Shape" d="m32 7h-8l-6-6h8z" fill="#9e9e9e" data-original="#9e9e9e" style="" class=""/><path id="Shape" d="m24 7h-8l-6-6h8z" fill="#f5f5f5" data-original="#f5f5f5" style="" class=""/><path id="Shape" d="m16 7h-9c0-1.65685425-1.34314575-3-3-3-.34157656-.00212561-.68060416.05889936-1 .18v-2.18c0-.55228475.44771525-1 1-1h6z" fill="#9e9e9e" data-original="#9e9e9e" style="" class=""/><path id="Shape" d="m7 7c0 1.65685425-1.34314575 3-3 3-.34157656.0021256-.68060416-.05889936-1-.18-1.19808063-.41966706-2.00020245-1.55054435-2.00020245-2.82s.80212182-2.40033294 2.00020245-2.82c.31939584-.12110064.65842344-.18212561 1-.18 1.65685425 0 3 1.34314575 3 3z" fill="#545c60" data-original="#545c60" style="" class=""/><path id="Shape" d="m52 13v6h-29c-1.1032019.0032948-1.9967052.8967981-2 2v6h-6c-1.1032019.0032948-1.9967052.8967981-2 2v16h-6c-1.65685425 0-3-1.3431458-3-3v-29z" fill="#67995a" data-original="#607d8b" style="" class=""/><path id="Shape" d="m10 29v16h3v-16c.0032948-1.1032019.8967981-1.9967052 2-2h-3c-1.1032019.0032948-1.9967052.8967981-2 2z" fill="#37474f" data-original="#37474f" style="" class=""/><path id="Rectangle-path" d="m49 13h3v6h-3z" fill="#37474f" data-original="#37474f" style="" class=""/><path id="Shape" d="m18 21v6h3v-6c.0032948-1.1032019.8967981-1.9967052 2-2h-3c-1.1032019.0032948-1.9967052.8967981-2 2z" fill="#37474f" data-original="#37474f" style="" class=""/><path id="Shape" d="m21 27v28c0 2.209139-1.790861 4-4 4s-4-1.790861-4-4v-26c.0032948-1.1032019.8967981-1.9967052 2-2z" fill="#cfd8dc" data-original="#cfd8dc" style="" class=""/><path id="Shape" d="m59 21v34c0 2.209139-1.790861 4-4 4h-38c2.209139 0 4-1.790861 4-4v-34c.0032948-1.1032019.8967981-1.9967052 2-2h34c1.1032019.0032948 1.9967052.8967981 2 2z" fill="#f5f5f5" data-original="#f5f5f5" style="" class=""/><path id="Shape" d="m57 19h-3c1.1032019.0032948 1.9967052.8967981 2 2v34c0 2.209139-1.790861 4-4 4h3c2.209139 0 4-1.790861 4-4v-34c-.0032948-1.1032019-.8967981-1.9967052-2-2z" fill="#cfd8dc" data-original="#cfd8dc" style="" class=""/><rect id="Rectangle-path" fill="#62d744" height="10" rx="1" width="12" x="26" y="38" data-original="#02a9f4" style="" class=""/><g fill="#000"><path id="Shape" d="m57 18h-4v-4.278c.6167513-.3544126.997855-1.0106732 1-1.722v-4c-.0019998-.35213672-.0979706-.69735549-.278-1 .1800294-.30264451.2760002-.64786328.278-1v-4c0-1.1045695-.8954305-2-2-2h-48c-1.1045695 0-2 .8954305-2 2v1.556c-1.23678975.70555584-2.00028908 2.02011169-2.00028908 3.444s.76349933 2.73844416 2.00028908 3.444v1.556c.002145.7113268.38324874 1.3675874 1 1.722v28.278c0 2.209139 1.790861 4 4 4h5v9c.0033061 2.7600532 2.2399468 4.9966939 5 5h38c2.7600532-.0033061 4.9966939-2.2399468 5-5v-34c0-1.6568542-1.3431458-3-3-3zm-16.586-12-4-4h5.172l4 4zm-2.828 0h-5.172l-4-4h5.172zm-8 0h-5.172l-4-4h5.172zm-8 0h-5.172l-4-4h5.172zm0 2-4 4h-5.172l4-4zm2.828 0h5.172l-4 4h-5.172zm8 0h5.172l-4 4h-5.172zm8 0h5.172l-4 4h-5.172zm8 0h3.586v4h-7.586zm3.586-2h-3.586l-4-4h7.586zm-48-4h5.586l4 4h-5.728c-.45459333-1.76068514-2.03958838-2.99318518-3.858-3zm0 3c1.1045695 0 2 .8954305 2 2s-.8954305 2-2 2-2-.8954305-2-2 .8954305-2 2-2zm3.858 3h5.728l-4 4h-5.586v-1c1.81841162-.0068148 3.40340667-1.23931486 3.858-3zm-.858 36c-1.1045695 0-2-.8954305-2-2v-28h46v4h-28c-1.6568542 0-3 1.3431458-3 3v5h-5c-1.6568542 0-3 1.3431458-3 3v15zm7 11v-26c0-.5522847.4477153-1 1-1h5v27c0 1.6568542-1.3431458 3-3 3s-3-1.3431458-3-3zm44 0c0 1.6568542-1.3431458 3-3 3h-34.026c.6618067-.8603889 1.0223232-1.9145307 1.026-3v-34c0-.5522847.4477153-1 1-1h34c.5522847 0 1 .4477153 1 1z" fill="#000000" data-original="#000000" style="" class=""/><path id="Shape" d="m26 33c.5522847 0 1-.4477153 1-1v-3.764l2.105 4.211c.2070599.415452.6727907.6337945 1.1245837.5272238.4517929-.1065707.7708502-.510032.7704163-.9742238v-8c0-.5522847-.4477153-1-1-1s-1 .4477153-1 1v3.764l-2.1-4.211c-.2040519-.4214702-.6732513-.6449027-1.129074-.5376645-.4558226.1072383-.7761896.5164267-.770926.9846645v8c0 .5522847.4477153 1 1 1z" fill="#000000" data-original="#000000" style="" class=""/><path id="Shape" d="m34 33h4c.5522847 0 1-.4477153 1-1s-.4477153-1-1-1h-3v-2h1c.5522847 0 1-.4477153 1-1s-.4477153-1-1-1h-1v-2h3c.5522847 0 1-.4477153 1-1s-.4477153-1-1-1h-4c-.5522847 0-1 .4477153-1 1v8c0 .5522847.4477153 1 1 1z" fill="#000000" data-original="#000000" style="" class=""/><path id="Shape" d="m41.77 32.973c.4516264.1069816.9175031-.1108417 1.125-.526l1.105-2.211 1.1 2.211c.2040519.4214702.6732513.6449027 1.129074.5376645.4558226-.1072383.7761896-.5164267.770926-.9846645v-8c0-.5522847-.4477153-1-1-1s-1 .4477153-1 1v3.764l-.1-.211c-.187968-.3152706-.5279475-.5083906-.895-.5083906s-.707032.19312-.895.5083906l-.1.211v-3.764c0-.5522847-.4477153-1-1-1s-1 .4477153-1 1v8c-.0010257.4606724.3127904.8624395.76.973z" fill="#000000" data-original="#000000" style="" class=""/><path id="Shape" d="m52 27c-.4851707-.000473-.9000069-.3491365-.9839455-.8269912-.0839386-.4778548.1872399-.9470217.6432053-1.1128119.4559653-.1657902.9651545.0196329 1.2077402.4398031.1727115.3209394.5063525.5225002.8707953.5260692.3644429.003569.7019673-.1914191.880931-.5089145s.1710225-.7072132-.0207263-1.0171547c-.7279453-1.2608382-2.2560751-1.8170246-3.6241605-1.3190692-1.3680854.4979555-2.1811672 1.9062958-1.9283301 3.3400638.252837 1.433768 1.4986001 2.4790424 2.9544906 2.4790054.4851707.000473.9000069.3491365.9839455.8269912.0839386.4778548-.1872399.9470217-.6432053 1.1128119-.4559653.1657902-.9651545-.0196329-1.2077402-.4398031-.2843876-.4596821-.882589-.61017-1.3506397-.3397768s-.6365131.8637835-.3803603 1.3397768c.7279453 1.2608382 2.2560751 1.8170246 3.6241605 1.3190692 1.3680854-.4979555 2.1811672-1.9062958 1.9283301-3.3400638-.252837-1.433768-1.4986001-2.4790424-2.9544906-2.4790054z" fill="#000000" data-original="#000000" style="" class=""/><path id="Shape" d="m27 49h10c1.1045695 0 2-.8954305 2-2v-8c0-1.1045695-.8954305-2-2-2h-10c-1.1045695 0-2 .8954305-2 2v8c0 1.1045695.8954305 2 2 2zm0-10h10v8h-10z" fill="#000000" data-original="#000000" style="" class=""/><path id="Shape" d="m54 37h-11c-.5522847 0-1 .4477153-1 1s.4477153 1 1 1h11c.5522847 0 1-.4477153 1-1s-.4477153-1-1-1z" fill="#000000" data-original="#000000" style="" class=""/><path id="Shape" d="m54 42h-11c-.5522847 0-1 .4477153-1 1s.4477153 1 1 1h11c.5522847 0 1-.4477153 1-1s-.4477153-1-1-1z" fill="#000000" data-original="#000000" style="" class=""/><path id="Shape" d="m54 47h-11c-.5522847 0-1 .4477153-1 1s.4477153 1 1 1h11c.5522847 0 1-.4477153 1-1s-.4477153-1-1-1z" fill="#000000" data-original="#000000" style="" class=""/><path id="Shape" d="m54 52h-28c-.5522847 0-1 .4477153-1 1s.4477153 1 1 1h28c.5522847 0 1-.4477153 1-1s-.4477153-1-1-1z" fill="#000000" data-original="#000000" style="" class=""/></g></g></g></g></svg>
