<svg xmlns="http://www.w3.org/2000/svg" xmlns:xlink="http://www.w3.org/1999/xlink" xmlns:svgjs="http://svgjs.com/svgjs" version="1.1" width="511.9989929199219" height="511.9989929199219" style="" xml:space="preserve"><rect id="backgroundrect" width="100%" height="100%" x="0" y="0" fill="none" stroke="none"/><g class="currentLayer" style=""><title>Layer 1</title><g class="" stroke-width="3" stroke-opacity="1" stroke="#1f1f1f" id="svg_20" fill-opacity="1" fill="#1f1f1f">
<g xmlns="http://www.w3.org/2000/svg" id="svg_22" stroke-width="3" stroke="#1f1f1f" stroke-opacity="1" fill="#1f1f1f">
	<g id="svg_3" stroke-width="3" stroke="#1f1f1f" stroke-opacity="1" fill="#1f1f1f">
		<path d="M427.04062464188894,143.27467946287607 l-44.17365172668056,-25.577320090746777 c-2.3506740267683885,-1.3612321686541624 -5.0315153390393075,-2.0800905507492655 -7.752347371267697,-2.0800905507492655 h-36.34522444915231 c0.10875525061605103,-1.3496142554081807 0.170692097379453,-2.7258528953384022 0.170692097379453,-4.130168158946412 c0,-3.0216256033923465 -0.2648165967915431,-5.924651675731966 -0.7510452284695707,-8.665026962627843 l38.05409618977397,-10.301700491155483 c2.5789137455500484,-0.6980429541960571 4.9408046815748,-2.058791043131636 6.831097737125478,-3.935084032357638 l32.982102439070395,-32.73782728802003 c1.4284490092125746,-1.4178694957283218 1.4284490092125746,-3.7167640792769054 0,-5.1341494952866435 c-1.4284490092125746,-1.4178694957283218 -3.744496924798276,-1.4178694957283218 -5.17245824230405,0 l-32.982102439070395,32.73782728802003 c-0.9914772399211995,0.9841340678783602 -2.230701866895976,1.6976675730690438 -3.5835586615547954,2.064115920036041 l-37.992647034717365,10.284757701005095 c-1.3787044551191356,-3.785503399315629 -3.2490021506910787,-7.031257912411701 -5.482142476121047,-9.534434137202123 c2.8461688008755837,-0.9386305743316025 5.410451795221679,-2.2567796480319 7.618719843604929,-3.9437974672921268 c5.427521004959625,-4.147110949096802 8.296611316054735,-10.164221851078034 8.296611316054735,-17.400245484450156 c0,-6.772275262970029 -2.4930800051535273,-13.86210682133022 -6.873039223910143,-19.652184335296234 h4.778403343210928 c2.7578966019450695,0 5.291942710469664,-1.4803157794254722 6.613587235893384,-3.8634402340074203 c7.486067699355757,-13.500015191830467 19.728104923409717,-28.766921356487277 31.634610253186356,-31.130682622325924 c1.981003713015185,-0.3935568112076313 3.265583668722225,-2.306155779327321 2.869578002801908,-4.2720035164911 c-0.3964933576271237,-1.9663318168823631 -2.322875599480878,-3.240913715910246 -4.303879312496062,-2.8483250641397895 c-7.897679499893626,1.567934208488916 -15.93727728646559,7.057398217215159 -23.894942866295423,16.31590691482522 c-6.109314011063816,7.107742507947746 -10.587786954593714,14.600328392168626 -12.713635104528029,18.43375568362393 c-0.04779378726624553,0.08616618990769885 -0.13801675302395466,0.1040771394952525 -0.20483051685533918,0.1040771394952525 h-12.445404665788898 c-3.888365978303809,-2.532221007905377 -8.17517608106193,-3.8803830241578097 -12.57415527638368,-3.8803830241578097 c-4.398979195321756,0 -8.685789298079873,1.348162016252433 -12.57415527638368,3.8803830241578097 h-12.445892357495696 c-0.06730145553818227,0 -0.15752442129589178,-0.017910949587555316 -0.20483051685533918,-0.1040771394952525 c-2.1258481499343165,-3.833427291455303 -6.604321093464213,-11.32601317567618 -12.713635104528029,-18.43375568362393 c-7.957665579829832,-9.258508697610063 -15.997263366401794,-14.74797270633631 -23.894942866295423,-16.31590691482522 c-1.9814914047219845,-0.39307273148904953 -3.9078736465757458,0.8819932472574322 -4.303879312496062,2.8483250641397895 c-0.3960056659203282,1.9663318168823631 0.8885742897867269,3.878930785002063 2.869578002801908,4.2720035164911 c11.906993021483443,2.3637612658386455 24.148542553830598,17.630667430495457 31.634610253186356,31.130682622325924 c1.3216445254237221,2.38312445458195 3.855690633948314,3.8634402340074203 6.613587235893384,3.8634402340074203 h4.778403343210928 c-4.379959218756617,5.790077513966014 -6.873039223910143,12.879909072326203 -6.873039223910143,19.652184335296234 c0,7.236023633372122 2.8690903110951096,13.253134535353357 8.296611316054735,17.400245484450156 c2.207780356676451,1.687017819260226 4.772551042729346,3.005166892960539 7.618719843604929,3.9437974672921268 c-2.2336280171367666,2.5036603045090056 -4.10392571270871,5.748930737886496 -5.482142476121047,9.534434137202123 l-37.992647034717365,-10.284757701005095 c-1.352369102952021,-0.365964267248426 -2.5915937299268084,-1.0794977724391122 -3.5830709698479994,-2.064115920036041 L228.4057432297194,50.71331239298595 c-1.4284490092125746,-1.4178694957283218 -3.744496924798276,-1.4178694957283218 -5.17245824230405,0 c-1.4284490092125746,1.4178694957283218 -1.4284490092125746,3.7167640792769054 0,5.1341494952866435 l32.982102439070395,32.73782728802003 c1.8902930555506952,1.8762929892260238 4.252183991575429,3.237041078161586 6.831097737125478,3.935084032357638 l38.05458388148077,10.301700491155483 c-0.48622863167802927,2.7398912071772967 -0.7510452284695707,5.643401359235497 -0.7510452284695707,8.665026962627843 c0,1.4043152636080096 0.06144915505660296,2.780553903538231 0.170692097379453,4.130168158946412 h-36.34522444915231 c-2.7213197239351876,0 -5.402161036206106,0.7193424618136935 -7.752347371267697,2.0800905507492655 L212.24900467519456,143.27419538315758 c-1.744960926924752,1.010274372681806 -2.334580200444039,3.2336525201315087 -1.316767608355736,4.9656897532199125 c0.6798422392770012,1.1569505274123209 1.9044361150478357,1.8017447125642945 3.162680718587759,1.8017447125642945 c0.6261961515291737,0 1.2601953703671191,-0.1592622274136646 1.8395731180436432,-0.49472947239138254 l44.17365172668056,-25.577320090746777 c1.2328846347864075,-0.7140175849092849 2.6393875171930534,-1.0911156856850994 4.06686114299203,-1.0911156856850994 h37.49715226061017 c1.3348122015072779,5.500113762535061 3.616721697617089,10.185037278977084 6.546285780355202,13.573111229336432 c-6.213192344611881,1.644418804024961 -11.64851641688028,4.685891675879192 -16.03676639465247,9.03486386762492 c-3.007107064119064,2.979994747594246 -5.430447155200416,6.528783164523003 -7.2641679727624755,10.551969705662664 l-22.935653279022926,16.261689986343978 c-2.6637721025329757,1.8883949821905928 -4.618928155087843,4.515979694656713 -5.653322265207293,7.597631183153298 L234.07759777978507,246.15323757491623 c-0.6388761359059381,1.902433294029479 0.39698104933391815,3.958803938568185 2.3136094570517076,4.592464290192757 c0.383813373250365,0.12682888626863167 0.773479046982296,0.18733885109145318 1.1572924202326527,0.18733885109145318 c1.5313519593470408,0 2.95833789343922,-0.9618664008235506 3.4694388021639644,-2.4833289563285383 l22.250446430971152,-66.25647516211373 c0.542800869666646,-1.6168262600657544 1.5679288373569267,-2.9950012188703057 2.9656532690411956,-3.9854283230902263 l15.305716526161637,-10.852099131183856 c-0.4881793985052203,2.9761221098455866 -0.7364144772656319,6.1129586862605825 -0.7364144772656319,9.392598779657433 c0,27.412466303893268 20.691783736043394,58.662232536990494 38.841718296253426,58.662232536990494 c18.150422251916822,0 38.84220598796022,-31.250250312815812 38.84220598796022,-58.662232536990494 c0,-3.2796400933968517 -0.24823507876039946,-6.416476669811849 -0.7364144772656319,-9.392598779657433 l15.305716526161637,10.852099131183856 c1.3972367399774763,0.990911183938503 2.422852399374554,2.369086142743054 2.9656532690411956,3.9859124028088084 l22.250446430971152,66.25599108239516 c0.511100908724752,1.5214625555049983 1.9380868428169242,2.4833289563285383 3.4694388021639644,2.4833289563285383 c0.3833256815435707,0 0.773479046982296,-0.060509964822821054 1.1572924202326527,-0.18733885109145318 c1.9166284077178073,-0.634144431343161 2.95199790125084,-2.6905150758818754 2.3136094570517076,-4.592464290192757 L382.96207279803406,179.8977305722397 c-1.034881801826249,-3.082135568215167 -2.9895501626743193,-5.709720280681308 -5.653322265207293,-7.598115262871881 l-22.937116354143324,-16.261689986343978 c-1.833720817562076,-4.023186541139665 -4.257060908643414,-7.57197495806842 -7.2641679727624755,-10.551969705662664 c-4.388249977772191,-4.3489721917457285 -9.823574050040591,-7.390445063599958 -16.03676639465247,-9.03486386762492 c2.9295640827381133,-3.388073950359346 5.210985887141125,-8.073481546519956 6.546285780355202,-13.573111229336432 h37.49715226061017 c1.427473625798978,0 2.8339765082056227,0.3770981007758189 4.066373451285234,1.0911156856850994 l44.17365172668056,25.577320090746777 c0.5793777476765252,0.3354672449777192 1.2133769665144714,0.49472947239138254 1.8395731180436432,0.49472947239138254 c1.2582446035399253,0 2.48283847931076,-0.6452782648705598 3.162680718587759,-1.8017447125642945 C429.375204842333,146.50833198300762 428.78558556881376,144.2849538355578 427.04062464188894,143.27467946287607 zM339.4429033418771,64.92153621310274 c0,2.2775950759309516 -1.8668838536243548,4.130652238664994 -4.1609856424041265,4.130652238664994 s-4.1609856424041265,-1.8530571627340433 -4.1609856424041265,-4.130652238664994 s1.8668838536243548,-4.130168158946412 4.1609856424041265,-4.130168158946412 S339.4429033418771,62.64442521689035 339.4429033418771,64.92153621310274 zM299.8457505917929,64.92153621310274 c0,-2.2771109962123677 1.8668838536243548,-4.130168158946412 4.1609856424041265,-4.130168158946412 c2.2945894804865707,0 4.1609856424041265,1.8530571627340433 4.1609856424041265,4.130168158946412 c0,2.2775950759309516 -1.8668838536243548,4.130652238664994 -4.1609856424041265,4.130652238664994 C301.7126344454172,69.05218845176769 299.8457505917929,67.19913128903369 299.8457505917929,64.92153621310274 zM304.9426166195431,76.27223745442662 c5.891803509831719,-0.47439812421091215 10.540968550741066,-5.381998311200916 10.540968550741066,-11.350701241323893 c0,-6.281418428327312 -5.148561348670928,-11.391363937684828 -11.476361244380438,-11.391363937684828 c-0.4106364171242757,0 -0.8159082254737512,0.022751746773380637 -1.2158154250484627,0.0643826025714824 c3.4821187865407235,-6.748555356759483 9.713843416010944,-12.205586024340693 16.853162311833028,-12.205586024340693 c7.139318895822081,0 13.371043525292304,5.457030667581212 16.853162311833028,12.205586024340693 c-0.39941950786791747,-0.04211493551668427 -0.8051790079241896,-0.0643826025714824 -1.2158154250484627,-0.0643826025714824 c-6.328287587416306,0 -11.476361244380438,5.110429589076097 -11.476361244380438,11.391363937684828 c0,5.968218850404395 4.649165040909344,10.8758190373944 10.540968550741066,11.350701241323893 c-3.8566660173619116,3.137320656133578 -9.379286905147225,4.42110006981453 -14.701954193145191,4.42110006981453 C314.32190352469036,80.69333752424116 308.79928263690505,79.40907403084155 304.9426166195431,76.27223745442662 zM341.93939718897815,150.62446183011505 c4.619415846794642,4.578425978353862 7.5665368309774985,10.944558357433124 8.700420049283826,18.652075636704662 c-2.02635904174744,1.6294123327489007 -4.676475776490058,3.125702742887596 -7.757224288335681,4.365914981896119 c-1.8717607706923534,0.7541962015516376 -2.7739904282694194,2.8710768109131704 -2.014654440784277,4.729458850551622 c0.5769392891425273,1.4110923796681665 1.9454022184189008,2.2669453221221336 3.39092043736942,2.2669453221221336 c0.4579425126837175,0 0.9236880926762092,-0.08616618990769885 1.373827538051151,-0.26721200465757455 c2.0034375315279145,-0.8069608908771421 3.8391091159171675,-1.7020242905362868 5.517256279010536,-2.671635966857155 c-0.13265214424917127,6.543789635799063 -1.6269395338795314,13.660729658399875 -4.231213248183098,20.5525726118598 c-3.188528379048075,1.9537457441992179 -7.171018856763977,3.5807376783552045 -11.556830376002175,4.707675263215408 c-1.9556437442616672,0.5024747478887064 -3.1304930659390626,2.4838130360471213 -2.624269074282304,4.424972707563191 c0.4267302434486239,1.6361894488090565 1.9112637989430115,2.721496177871158 3.538203332822542,2.721496177871158 c0.30334424162861884,0 0.6120530920320193,-0.037758218049440066 0.9192988673150236,-0.1166632121783989 c1.7093594323284644,-0.4390603047543868 3.3450774169303674,-0.9444395309545778 4.919346246475672,-1.501131207324522 c-0.6666745631934458,1.1724410784069634 -1.358221403433602,2.3289075261007013 -2.0882958885108382,3.4539087920865734 c-6.486787392125795,9.99673026844847 -14.296682384795703,16.206988978144143 -20.3816118105196,16.206988978144143 c-6.084929425723896,0 -13.894336726687005,-6.210258709695678 -20.3816118105196,-16.206988978144143 c-0.7320252519044315,-1.1279057442973677 -1.4255228589717834,-2.2872766703026013 -2.093660497285621,-3.463106306739642 c6.661381023159629,2.3565000700599077 14.422994536856496,3.6489929186753454 22.475272307805216,3.6489929186753454 c2.0200190495590586,0 3.657687800988156,-1.62505561528166 3.657687800988156,-3.630597889369209 c0,-2.005542274087552 -1.637668751429097,-3.630597889369209 -3.657687800988156,-3.630597889369209 c-10.556574685358619,0 -20.41916407194308,-2.4063602810739115 -27.27513408611528,-6.618337912460776 c-2.6037860225967675,-6.891842953459921 -4.098073412227129,-14.008782976060738 -4.230237864769502,-20.5525726118598 c7.924502543767537,4.5731011014494545 19.294059304359127,7.268456974517155 31.505371950884776,7.268456974517155 c2.7457043092751086,0 5.492384001963815,-0.1360264009216988 8.163471480098766,-0.40420656501644187 c2.009777523716293,-0.20186124264893202 3.474315719231949,-1.9827905273141706 3.2709482774970073,-3.9776830475929073 c-0.20336744173494536,-1.994408440560155 -1.9956344642191386,-3.453424712367991 -4.007362754762625,-3.246722672533237 c-2.4277293164425386,0.24397617816561284 -4.926661622077645,0.3674165064041676 -7.427057002833148,0.3674165064041676 c-12.740458148401942,0 -24.613800442116293,-3.2665699409951228 -30.995734117280417,-8.422503023617983 c1.132907834892731,-7.7099376778644535 4.080516510782386,-14.077522296099458 8.700907740990624,-18.65691643389048 c5.507990136581364,-5.458966986455542 13.217908329357599,-8.344082109207605 22.294826376289798,-8.344082109207605 S336.4314070523968,145.16549484365947 341.93939718897815,150.62446183011505 zM319.6440831209817,135.01918394216904 c-6.381445983457335,0 -11.979659085796406,-10.996354887321456 -11.979659085796406,-23.532567359454042 c0,-12.535728392414002 5.598213102339073,-23.532567359454042 11.979659085796406,-23.532567359454042 c6.381445983457335,0 11.979659085796406,10.996354887321456 11.979659085796406,23.532567359454042 S326.0255291044389,135.01918394216904 319.6440831209817,135.01918394216904 z" fill="#1f1f1f" data-original="#000000" style="" id="svg_4" stroke-width="3" stroke="#1f1f1f" stroke-opacity="1"/>
	</g>
</g>
<g xmlns="http://www.w3.org/2000/svg" id="svg_24" stroke-width="3" stroke="#1f1f1f" stroke-opacity="1" fill="#1f1f1f">
</g>
<g xmlns="http://www.w3.org/2000/svg" id="svg_26" stroke-width="3" stroke="#1f1f1f" stroke-opacity="1" fill="#1f1f1f">
</g>
<g xmlns="http://www.w3.org/2000/svg" id="svg_28" stroke-width="3" stroke="#1f1f1f" stroke-opacity="1" fill="#1f1f1f">
</g>
<g xmlns="http://www.w3.org/2000/svg" id="svg_30" stroke-width="3" stroke="#1f1f1f" stroke-opacity="1" fill="#1f1f1f">
</g>
<g xmlns="http://www.w3.org/2000/svg" id="svg_32" stroke-width="3" stroke="#1f1f1f" stroke-opacity="1" fill="#1f1f1f">
</g>
<g xmlns="http://www.w3.org/2000/svg" id="svg_34" stroke-width="3" stroke="#1f1f1f" stroke-opacity="1" fill="#1f1f1f">
</g>
<g xmlns="http://www.w3.org/2000/svg" id="svg_36" stroke-width="3" stroke="#1f1f1f" stroke-opacity="1" fill="#1f1f1f">
</g>
<g xmlns="http://www.w3.org/2000/svg" id="svg_38" stroke-width="3" stroke="#1f1f1f" stroke-opacity="1" fill="#1f1f1f">
</g>
<g xmlns="http://www.w3.org/2000/svg" id="svg_40" stroke-width="3" stroke="#1f1f1f" stroke-opacity="1" fill="#1f1f1f">
</g>
<g xmlns="http://www.w3.org/2000/svg" id="svg_42" stroke-width="3" stroke="#1f1f1f" stroke-opacity="1" fill="#1f1f1f">
</g>
<g xmlns="http://www.w3.org/2000/svg" id="svg_44" stroke-width="3" stroke="#1f1f1f" stroke-opacity="1" fill="#1f1f1f">
</g>
<g xmlns="http://www.w3.org/2000/svg" id="svg_46" stroke-width="3" stroke="#1f1f1f" stroke-opacity="1" fill="#1f1f1f">
</g>
<g xmlns="http://www.w3.org/2000/svg" id="svg_48" stroke-width="3" stroke="#1f1f1f" stroke-opacity="1" fill="#1f1f1f">
</g>
<g xmlns="http://www.w3.org/2000/svg" id="svg_50" stroke-width="3" stroke="#1f1f1f" stroke-opacity="1" fill="#1f1f1f">
</g>
<g xmlns="http://www.w3.org/2000/svg" id="svg_52" stroke-width="3" stroke="#1f1f1f" stroke-opacity="1" fill="#1f1f1f">
</g>
</g><g class="" stroke-width="3" stroke-opacity="1" stroke="#1f1f1f" id="svg_1" fill-opacity="1" fill="#1f1f1f">
<g xmlns="http://www.w3.org/2000/svg" id="svg_5" stroke-width="3" stroke="#1f1f1f" stroke-opacity="1" fill="#1f1f1f">
	<g id="svg_3" stroke-width="3" stroke="#1f1f1f" stroke-opacity="1" fill="#1f1f1f">
		<path d="M508.1343239306706,395.0324642323904 l-39.31089434288416,-20.833932677924746 c-2.0919053482970478,-1.1087877565025344 -4.4776322569254425,-1.6943317886526987 -6.8989475967904275,-1.6943317886526987 h-32.344241925692415 c0.09678317275316256,-1.0993244186091982 0.1519018406439804,-2.220335653223959 0.1519018406439804,-3.3642166210809457 c0,-2.46125646375847 -0.23566485562765566,-4.825908019855802 -0.6683680988334991,-7.058072845446429 l33.8649963531681,-8.391220571170136 c2.295019809500993,-0.5685888850912827 4.396907278754646,-1.6769823358482498 6.079111662571937,-3.205311405622013 l29.351341659747103,-26.666503266184172 c1.2712014035605919,-1.154921528732547 1.2712014035605919,-3.0274795143764086 0,-4.182006737363399 c-1.2712014035605919,-1.154921528732547 -3.332292378469861,-1.154921528732547 -4.603059776771471,0 l-29.351341659747103,26.666503266184172 c-0.88233269151201,0.8016235807146825 -1.9851400545872804,1.3828302496637237 -3.1890706430055396,1.6813196990493624 l-33.81031169053629,8.377419870075688 c-1.2269328671443471,-3.083470930245313 -2.8913430353433447,-5.727290954196058 -4.878653116225538,-7.766245964464407 c2.5328546914235615,-0.7645588406324364 4.81485434315507,-1.8382533857805174 6.7800301558291425,-3.2124089090420154 c4.830044527219468,-3.3780173221753946 7.38329746581522,-8.279237739432327 7.38329746581522,-14.173320023998428 c0,-5.516337380323773 -2.2186348839200227,-11.291339329732065 -6.116436114844455,-16.007630352323392 h4.252383527513375 c2.4542997395476767,0 4.7093910652222535,-1.2057869699092283 5.885545317065615,-3.146954155279774 c6.661980725385826,-10.996398632056428 17.556380736371818,-23.432013235391032 28.15218512917765,-25.357408190939353 c1.7629293619880928,-0.3205705711367637 2.9060992141487594,-1.8784725718271946 2.5536869438547365,-3.4797482045287556 c-0.35284627555301606,-1.6016699384471176 -2.067167048535028,-2.639876966495188 -3.8300964105231206,-2.3200950068495416 c-7.0282811639673,1.2771563098548038 -14.182857858298588,5.748583464456062 -21.26452166912077,13.290075153953737 c-5.436783879277408,5.78959126199385 -9.422254172516372,11.892655591704456 -11.31408309642235,15.015162790759778 c-0.04253251538031485,0.07018642270891072 -0.12282348829212988,0.08477573529446912 -0.1822822087727729,0.08477573529446912 h-11.075380203981814 c-3.4603239298697845,-2.062613355001691 -7.275230156328507,-3.160754856374222 -11.18995759235327,-3.160754856374222 c-3.914727436024763,0 -7.7296336624834865,1.098141501372531 -11.18995759235327,3.160754856374222 h-11.075814209240795 c-0.05989272573962609,0 -0.14018369865144203,-0.014589312585559736 -0.1822822087727729,-0.08477573529446912 c-1.8918289239059833,-3.1225071990553235 -5.877299217144941,-9.225571528765927 -11.31408309642235,-15.015162790759778 c-7.081663810822183,-7.5414916894976765 -14.236240505153472,-12.012918844098936 -21.26452166912077,-13.290075153953737 c-1.7633633672470763,-0.32017626539120675 -3.477684140229096,0.7184250684024165 -3.8300964105231206,2.3200950068495416 c-0.35241227029403405,1.6016699384471176 0.7907575818666439,3.159571939137556 2.5536869438547365,3.4797482045287556 c10.596238398064816,1.9253949555483199 21.490204403791825,14.361009558882925 28.15218512917765,25.357408190939353 c1.176154251843361,1.9411671853705477 3.431245577517937,3.146954155279774 5.885545317065615,3.146954155279774 h4.252383527513375 c-3.8978012309244363,4.716291022591327 -6.116436114844455,10.491292971999618 -6.116436114844455,16.007630352323392 c0,5.894082284566102 2.553252938595755,10.795302701823035 7.38329746581522,14.173320023998428 c1.96474180741509,1.374155523261498 4.247175464405584,2.447850068409578 6.7800301558291425,3.2124089090420154 c-1.9877440861411773,2.0393493160139067 -3.652154254340176,4.682775034219095 -4.878653116225538,7.766245964464407 l-33.81031169053629,-8.377419870075688 c-1.2034965831592763,-0.2980951436400858 -2.306303946234546,-0.879301812589139 -3.1886366377465585,-1.6813196990493624 L331.3657179680162,319.6368683189458 c-1.2712014035605919,-1.154921528732547 -3.332292378469861,-1.154921528732547 -4.603059776771471,0 c-1.2712014035605919,1.154921528732547 -1.2712014035605919,3.0274795143764086 0,4.182006737363399 l29.351341659747103,26.666503266184172 c1.6822043838172942,1.5283290697737635 3.7840918530709446,2.6367225205307414 6.079111662571937,3.205311405622013 l33.8654303584271,8.391220571170136 c-0.4327032432058435,2.231770519845072 -0.6683680988334991,4.596816381687959 -0.6683680988334991,7.058072845446429 c0,1.1438809678569888 0.054684662631831846,2.264892202471748 0.1519018406439804,3.3642166210809457 h-32.344241925692415 c-2.4217493451239687,0 -4.8074762537523625,0.5859383378957138 -6.8989475967904275,1.6943317886526987 L316.98755774317544,395.03206992664485 c-1.5528708166404221,0.8229160909746831 -2.077583174750615,2.6339623803118513 -1.1718141992535327,4.044788337910027 c0.6050033310220044,0.9423907318780546 1.6947905363277946,1.4676059849581913 2.814524104503392,1.4676059849581913 c0.5572627525339109,0 1.1214695892115292,-0.12972659028781447 1.6370678368830873,-0.4029804719578953 l39.31089434288416,-20.833932677924746 c1.0971652947084929,-0.58160097469461 2.348836461614859,-0.8887651504824724 3.6191698546574864,-0.8887651504824724 h33.36936234740976 c1.1878723938358964,4.480101881003483 3.2185830006163703,8.296192886491221 5.82565259132599,11.055938799635332 c-5.529226999440744,1.3394566176526008 -10.366215610803936,3.816879616978852 -14.271394931131082,7.359322435050959 c-2.676076426887883,2.427346169640682 -4.832648558773366,5.318001590309272 -6.464508332548656,8.595076641622414 l-20.410833324701624,13.245912910451503 c-2.370536724563998,1.5381867134126583 -4.1104638078260045,3.678478300288812 -5.030988962128499,6.1886286764961875 L336.41319912998614,478.83189850086274 c-0.5685468892674643,1.5496215800337738 0.35328028081199897,3.224632387154241 2.0589209486143543,3.740778608086609 c0.341562138819464,0.1033081053355858 0.6883323407467061,0.15259632353004382 1.0298944795661606,0.15259632353004382 c1.3627765132059608,0 2.632675900989604,-0.7834855164191235 3.0875134124035664,-2.022788474700569 l19.80105593583081,-53.96902169994963 c0.4830478532478486,-1.3169811901559265 1.3953269076296693,-2.439569647752909 2.639185979874345,-3.246319203159802 l13.620821047915879,-8.83954620386693 c-0.4344392642417776,2.4241917236762376 -0.655347941064016,4.979292954876958 -0.655347941064016,7.650714381016594 c0,22.328745759326278 18.413975128121802,47.78315316367233 34.565914846425315,47.78315316367233 c16.152373723562487,0 34.5663488516843,-25.45480171009159 34.5663488516843,-47.78315316367233 c0,-2.67142142613964 -0.2209086768222414,-5.226522657340359 -0.655347941064016,-7.650714381016594 l13.620821047915879,8.83954620386693 c1.2434250669856937,0.8071438611524611 2.1561381266265,1.929732318749434 2.639185979874345,3.2467135089053585 l19.80105593583081,53.96862739420407 c0.4548375114139657,1.2393029582814605 1.7247368991976308,2.022788474700569 3.0875134124035664,2.022788474700569 c0.3411281335604743,0 0.6883323407467061,-0.049288218194458784 1.0298944795661606,-0.15259632353004382 c1.7056406678023652,-0.5165405266779245 2.627033832622827,-2.1915513337983947 2.0589209486143543,-3.740778608086609 L468.90806061328806,424.8636654124043 c-0.9209591595614804,-2.5105446819529282 -2.660452237564503,-4.650836268829086 -5.030988962128499,-6.189022982241743 l-20.41213534047857,-13.245912910451503 c-1.6318597737752913,-3.277075051313143 -3.7884319056607723,-6.167730471981733 -6.464508332548656,-8.595076641622414 c-3.9051793203271448,-3.5424428180721077 -8.74216793169034,-6.019865817398362 -14.271394931131082,-7.359322435050959 c2.6070695907096186,-2.7597459131441098 4.637346192231111,-6.5762312243774055 5.82565259132599,-11.055938799635332 h33.36936234740976 c1.2703333930426264,0 2.5220045599489915,0.3071641757878721 3.6187358493985027,0.8887651504824724 l39.31089434288416,20.833932677924746 c0.5155982476715533,0.273253881670079 1.0798050843491815,0.4029804719578953 1.6370678368830873,0.4029804719578953 c1.1197335681755975,0 2.2095207734813838,-0.5256095588257113 2.814524104503392,-1.4676059849581913 C510.21190710542123,397.66642661270225 509.6871947473112,395.8553803233649 508.1343239306706,395.0324642323904 zM430.17960132795895,331.21013625675016 c0,1.8552085328394108 -1.6613721313861194,3.3646109268265016 -3.702932869641163,3.3646109268265016 s-3.702932869641163,-1.5094023939870913 -3.702932869641163,-3.3646109268265016 s1.6613721313861194,-3.3642166210809457 3.702932869641163,-3.3642166210809457 S430.17960132795895,329.3553220296564 430.17960132795895,331.21013625675016 zM394.9414123353692,331.21013625675016 c0,-1.8548142270938548 1.6613721313861194,-3.3642166210809457 3.702932869641163,-3.3642166210809457 c2.0419947435140267,0 3.702932869641163,1.5094023939870913 3.702932869641163,3.3642166210809457 c0,1.8552085328394108 -1.6613721313861194,3.3646109268265016 -3.702932869641163,3.3646109268265016 C396.60278446675534,334.5747471835767 394.9414123353692,333.0653447895895 394.9414123353692,331.21013625675016 zM399.4772012969984,340.45581737853945 c5.243217533771084,-0.38641963064455354 9.38058966765402,-4.3838912790879005 9.38058966765402,-9.245681121789266 c0,-5.116511354330329 -4.581793519081313,-9.278802804415943 -10.213011754383011,-9.278802804415943 c-0.3654324280635115,0 -0.7260907982782104,0.018532370041116186 -1.0819751106440954,0.05244266415890476 c3.0987975491371196,-5.497016398791545 8.644516748419209,-9.942025068440573 14.997919734668274,-9.942025068440573 c6.353402986249061,0 11.89912218553115,4.445008669649027 14.997919734668274,9.942025068440573 c-0.35545030710691294,-0.03430459986334365 -0.7165426825805861,-0.05244266415890476 -1.0819751106440954,-0.05244266415890476 c-5.631652240560681,0 -10.213011754383011,4.162685755831171 -10.213011754383011,9.278802804415943 c0,4.861395536955812 4.137372133882936,8.858867185399157 9.38058966765402,9.245681121789266 c-3.4321135880359024,2.5554955369462737 -8.346789140757013,3.6011943741599013 -13.083522537295181,3.6011943741599013 C407.8239904377554,344.05701175269934 402.90931488503423,343.0109186097401 399.4772012969984,340.45581737853945 zM432.4012742486918,401.019208367162 c4.110897813084985,3.729343741465494 6.733591593117985,8.914858601268062 7.742653820252973,15.192994682005384 c-1.803291851073493,1.3272331395403734 -4.161676428385973,2.5460321990529384 -6.903287649380257,3.5562435191665562 c-1.6657121839759472,0.6143283515757328 -2.4686219130941094,2.338627376890657 -1.7928757248579064,3.852367134078861 c0.5134282213766403,1.149401248294768 1.731246978082349,1.8465338064371855 3.017638565707338,1.8465338064371855 c0.407530938184842,0 0.8220059605134131,-0.07018642270891072 1.2225928145545197,-0.21765677154673077 c1.7828936039013166,-0.6573076778413094 3.4164893987125216,-1.3863790013737245 4.909901494872303,-2.176173409721723 c-0.11804943044332046,5.330225068421501 -1.4478415439665893,11.127308139580906 -3.7654296269346843,16.74103903905693 c-2.837526383229479,1.591417989062671 -6.381613328082943,2.916679599875265 -10.284622622115172,3.834623375528857 c-1.7403610885209875,0.4092893638867823 -2.78587975741053,2.023182780446125 -2.3353822985863935,3.604348820124347 c0.3797546016099434,1.3327534199781526 1.700866609953554,2.2167869015139567 3.1487081539201407,2.2167869015139567 c0.26995127108729655,0 0.5446766000234023,-0.030755848153342674 0.8180999131825611,-0.09502768467891604 c1.5211884327346787,-0.3576353112189944 2.9768420713629564,-0.7692905095791067 4.377811047359402,-1.2227421169681214 c-0.593285189029483,0.955008515735825 -1.2087046462670694,1.8970049418683126 -1.8584105189643065,2.8133714945396804 c-5.772703949730089,8.142807951470068 -12.722864167080486,13.201356361203711 -18.137947783408755,13.201356361203711 c-5.4150836163282685,0 -12.364809828419682,-5.058548409733646 -18.137947783408755,-13.201356361203711 c-0.6514418937331793,-0.9187323871447027 -1.2685973720066945,-1.8630946477505235 -1.8631845768131183,-2.820863303705238 c5.9280778324459265,1.919480369365001 12.835271529157028,2.9722767099986136 20.00113236022187,2.9722767099986136 c1.7976497827067148,0 3.2550394423709244,-1.3236843878303743 3.2550394423709244,-2.957293091667498 c0,-1.6336087038371259 -1.4573896596642086,-2.957293091667498 -3.2550394423709244,-2.957293091667498 c-9.394477835941473,0 -18.17136618835043,-1.9600938611572183 -24.272612119130493,-5.390948153237071 c-2.317154077709115,-5.613730899476021 -3.646946191232382,-11.41081397063543 -3.764561616416719,-16.74103903905693 c7.052151453211351,3.725006378264381 17.17011605587713,5.920500769518332 28.03717373554721,5.920500769518332 c2.4434496080731076,0 4.88776722666418,-0.11079991450114289 7.264814030112923,-0.3292452975389873 c1.7885356722680779,-0.1644254958967154 3.0918534649933953,-1.61507633379601 2.9108732719975703,-3.2400103112309133 c-0.1809801929958245,-1.6245396716893463 -1.7759495197575768,-2.812977188794124 -3.5662212130615885,-2.644608635441854 c-2.160478179216328,0.19873009576005904 -4.384321126244143,0.2992780608767519 -6.609466089048908,0.2992780608767519 c-11.3379533856664,0 -21.904245420861407,-2.6607751710096377 -27.583638239910183,-6.860525666923042 c1.008194216617021,-6.2801076094651 3.631322001909003,-11.466805386504335 7.743087825511956,-15.196937739460934 c4.9016553949516295,-4.44658589263125 11.762844534210558,-6.7966481361430215 19.840550414398237,-6.7966481361430215 S427.4996188537402,396.57262247453076 432.4012742486918,401.019208367162 zM412.5602898290346,388.30797404768396 c-5.678958813789805,0 -10.660905181653249,-8.95704931604252 -10.660905181653249,-19.16838520869761 c0,-10.21094158690954 4.981946367863446,-19.16838520869761 10.660905181653249,-19.16838520869761 c5.678958813789805,0 10.660905181653249,8.95704931604252 10.660905181653249,19.16838520869761 S418.2392486428244,388.30797404768396 412.5602898290346,388.30797404768396 z" fill="#1f1f1f" data-original="#000000" style="" id="svg_4" stroke-width="3" stroke="#1f1f1f" stroke-opacity="1"/>
	</g>
</g>
<g xmlns="http://www.w3.org/2000/svg" id="svg_7" stroke-width="3" stroke="#1f1f1f" stroke-opacity="1" fill="#1f1f1f">
</g>
<g xmlns="http://www.w3.org/2000/svg" id="svg_9" stroke-width="3" stroke="#1f1f1f" stroke-opacity="1" fill="#1f1f1f">
</g>
<g xmlns="http://www.w3.org/2000/svg" id="svg_11" stroke-width="3" stroke="#1f1f1f" stroke-opacity="1" fill="#1f1f1f">
</g>
<g xmlns="http://www.w3.org/2000/svg" id="svg_13" stroke-width="3" stroke="#1f1f1f" stroke-opacity="1" fill="#1f1f1f">
</g>
<g xmlns="http://www.w3.org/2000/svg" id="svg_15" stroke-width="3" stroke="#1f1f1f" stroke-opacity="1" fill="#1f1f1f">
</g>
<g xmlns="http://www.w3.org/2000/svg" id="svg_17" stroke-width="3" stroke="#1f1f1f" stroke-opacity="1" fill="#1f1f1f">
</g>
<g xmlns="http://www.w3.org/2000/svg" id="svg_19" stroke-width="3" stroke="#1f1f1f" stroke-opacity="1" fill="#1f1f1f">
</g>
<g xmlns="http://www.w3.org/2000/svg" id="svg_23" stroke-width="3" stroke="#1f1f1f" stroke-opacity="1" fill="#1f1f1f">
</g>
<g xmlns="http://www.w3.org/2000/svg" id="svg_27" stroke-width="3" stroke="#1f1f1f" stroke-opacity="1" fill="#1f1f1f">
</g>
<g xmlns="http://www.w3.org/2000/svg" id="svg_31" stroke-width="3" stroke="#1f1f1f" stroke-opacity="1" fill="#1f1f1f">
</g>
<g xmlns="http://www.w3.org/2000/svg" id="svg_35" stroke-width="3" stroke="#1f1f1f" stroke-opacity="1" fill="#1f1f1f">
</g>
<g xmlns="http://www.w3.org/2000/svg" id="svg_39" stroke-width="3" stroke="#1f1f1f" stroke-opacity="1" fill="#1f1f1f">
</g>
<g xmlns="http://www.w3.org/2000/svg" id="svg_43" stroke-width="3" stroke="#1f1f1f" stroke-opacity="1" fill="#1f1f1f">
</g>
<g xmlns="http://www.w3.org/2000/svg" id="svg_47" stroke-width="3" stroke="#1f1f1f" stroke-opacity="1" fill="#1f1f1f">
</g>
<g xmlns="http://www.w3.org/2000/svg" id="svg_51" stroke-width="3" stroke="#1f1f1f" stroke-opacity="1" fill="#1f1f1f">
</g>
</g><g class="" stroke-width="3" stroke-opacity="1" stroke="#1f1f1f" id="svg_54" fill-opacity="1" fill="#1f1f1f">
<g xmlns="http://www.w3.org/2000/svg" id="svg_56" stroke-width="3" stroke="#1f1f1f" stroke-opacity="1" fill="#1f1f1f">
	<g id="svg_3" stroke-width="3" stroke="#1f1f1f" stroke-opacity="1" fill="#1f1f1f">
		<path d="M287.09546871408753,366.8655578317583 l-57.83716842751786,-33.92906938062348 c-3.0777697629711307,-1.8057146147266736 -6.58783208393634,-2.759301457852245 -10.150254803358733,-2.759301457852245 h-47.587301158801566 c0.14239474214576256,-1.790303110191326 0.22348950560993724,-3.6159242516094947 0.22348950560993724,-5.47878986232147 c0,-4.008275471238939 -0.3467280044177133,-7.859225167012713 -0.9833538246837236,-11.49441379929141 l49.824750380679305,-13.665509500710643 c3.3766071590438456,-0.925974564166386 6.469063375240772,-2.7310470328707463 8.94405001450967,-5.220005015331835 l43.18391935684121,-43.42769334258541 c1.870287891232871,-1.8808456993365676 1.870287891232871,-4.930397159271477 0,-6.810600712585735 c-1.870287891232871,-1.8808456993365676 -4.9027212116374175,-1.8808456993365676 -6.772370561425687,0 l-43.18391935684121,43.42769334258541 c-1.2981547568714336,1.305482863349689 -2.9206885675995764,2.2520061002298872 -4.6920025349194745,2.738110639116123 l-49.74429415865974,13.643034389929902 c-1.8051566638837042,-5.021581894439044 -4.253963103923997,-9.327170974006018 -7.17784437874657,-12.647708055354393 c3.7265278706845475,-1.2451211372528515 7.083978786390397,-2.993684755994221 9.975294447538381,-5.23156364373336 c7.106327736951391,-5.501264973102207 10.862867055532128,-13.483140030375512 10.862867055532128,-23.081938771817295 c0,-8.98362285207189 -3.2642238647942774,-18.388493494777027 -8.998964578745257,-26.069202067588453 h6.2564290741890325 c3.6109518692119793,0 6.928813215352645,-1.9636825362141521 8.659260530218154,-5.124967404030434 c9.801611174607228,-17.908168270091554 25.830278516951903,-38.160169521602874 41.419629345411906,-41.29576854852688 c2.5937553479644673,-0.522064716135413 4.27567351304039,-3.059183650269512 3.757177860025338,-5.666938646857357 c-0.5191341944596543,-2.6083971426101518 -3.0413729006289407,-4.299167619343911 -5.635128248593409,-3.778387195253109 c-10.340540153849478,2.0799109662516684 -20.866895868077503,9.361846859210585 -31.285976619612764,21.643531681850103 c-7.999008676501941,9.428630045530491 -13.862734762262082,19.367766178794867 -16.646136919272692,24.452920529442284 c-0.06257706157078292,0.11430199197060864 -0.18070722882175214,0.1380613947959589 -0.2681874067319267,0.1380613947959589 h-16.2949391247428 c-5.091090937794362,-3.3590658426867797 -10.703870235826775,-5.147442514811169 -16.46351406611715,-5.147442514811169 c-5.759643830290371,0 -11.372423128322785,1.7883766721243894 -16.46351406611715,5.147442514811169 h-16.29557766618739 c-0.08811871935477546,0 -0.20624888660574336,-0.02375940282535144 -0.2681874067319267,-0.1380613947959589 c-2.7834021570106144,-5.0851543506474135 -8.647128242770757,-15.02429048391179 -16.646136919272692,-24.452920529442284 c-10.419080751535256,-12.281684822639527 -20.945436465763283,-19.56362071559844 -31.285976619612764,-21.643531681850103 c-2.594393889409066,-0.5214225701131106 -5.116632595578355,1.1699900526429576 -5.635128248593409,3.778387195253109 c-0.5184956530150546,2.6083971426101518 1.16342251206087,5.145516076744248 3.757177860025338,5.666938646857357 c15.589989369904593,3.1355990269240186 31.618018170804664,23.387600278435333 41.419629345411906,41.29576854852688 c1.730447314865511,3.1612848678162915 5.048308661006172,5.124967404030434 8.659260530218154,5.124967404030434 h6.2564290741890325 c-5.734740713950981,7.6807085728114295 -8.998964578745257,17.085579215516567 -8.998964578745257,26.069202067588453 c0,9.598798741441787 3.7565393185807388,17.580673798715093 10.862867055532128,23.081938771817295 c2.8906771197033847,2.237878887739137 6.248766576853833,3.986442506480507 9.975294447538381,5.23156364373336 c-2.924519816267174,3.3211792273706795 -5.373326256307482,7.62612616091535 -7.17784437874657,12.647708055354393 l-49.74429415865974,-13.643034389929902 c-1.7706754258753081,-0.485462392863926 -3.393209236603441,-1.431985629744126 -4.691363993474877,-2.738110639116123 L27.020092494359417,244.08017476045603 c-1.870287891232871,-1.8808456993365676 -4.9027212116374175,-1.8808456993365676 -6.772370561425687,0 c-1.870287891232871,1.8808456993365676 -1.870287891232871,4.930397159271477 0,6.810600712585735 l43.18391935684121,43.42769334258541 c2.4749866392689004,2.4889579824610895 5.567442855465827,4.2940304511654555 8.94405001450967,5.220005015331835 l49.825388922123935,13.665509500710643 c-0.6366258202660273,3.6345464862563897 -0.9833538246837236,7.486138328052472 -0.9833538246837236,11.49441379929141 c0,1.8628656107119759 0.08045622201957829,3.6884867521301596 0.22348950560993724,5.47878986232147 h-47.587301158801566 c-3.5630612608669936,0 -7.073123581832202,0.9542289891478837 -10.150254803358733,2.759301457852245 L5.8658529762120235,366.864915685736 c-2.284701288778155,1.340158748554256 -3.0566978952993367,4.289535429009308 -1.7240619004195143,6.5871338968229765 c0.8901267737721469,1.5347289933132107 2.4935043411622955,2.390067495025843 4.14094126822983,2.390067495025843 c0.8198872148661727,0 1.6499910928459407,-0.2112660413389332 2.408578329030519,-0.6562732347975346 l57.83716842751786,-33.92906938062348 c1.6142327719483438,-0.9471653829025172 3.4557862981742233,-1.4473971342794882 5.324797106517896,-1.4473971342794882 h49.095536050946315 c1.7476879338697149,7.296063105449666 4.735423353152264,13.510752309334706 8.571141810863379,18.005132319459886 c-8.1350180042017,2.1813700377761402 -15.25156240426669,6.215973495929655 -20.997158322775864,11.985013360333793 c-3.93724654740249,3.953050913320553 -7.110158985618992,8.660623402851579 -9.511074817314313,13.99749899424325 l-30.02996559808492,21.571611327351754 c-3.487713370404215,2.5050116330187584 -6.0476260218048905,5.990580242099975 -7.401972425801111,10.078481820104956 L34.44632949505533,503.33699907648486 c-0.8364892924257743,2.523633867665655 0.5197727359042499,5.251470170424868 3.029240613181544,6.092039313624447 c0.5025321169000592,0.16824225784438052 1.0127267311353112,0.24851051063272792 1.5152588480353726,0.24851051063272792 c2.0050201360434476,0 3.873392402942504,-1.2759441463235777 4.542583836883116,-3.294209094433795 l29.132814868422173,-87.89116821915165 c0.7106966278396066,-2.144767714504654 2.052910744388422,-3.9729574400120633 3.88297052461151,-5.286788201651742 l20.03998469732074,-14.395629528073451 c-0.6391799860444217,3.947913745142099 -0.964197581345728,8.109019969690051 -0.964197581345728,12.459559270818504 c0,36.363444951188484 27.092036411481143,77.81718142120285 50.85599481370803,77.81718142120285 c23.764596943671485,0 50.85663335515264,-41.45437861603665 50.85663335515264,-77.81718142120285 c0,-4.350539301128452 -0.325017595301315,-8.511645525676407 -0.964197581345728,-12.459559270818504 l20.03998469732074,14.395629528073451 c1.8294212387784836,1.3144729076619843 3.1722738967719035,3.142662633169394 3.88297052461151,5.287430347674048 l29.132814868422173,87.89052607312934 c0.6691914339406176,2.018264948110218 2.5375637008396827,3.294209094433795 4.542583836883116,3.294209094433795 c0.5018935754554624,0 1.0127267311353112,-0.0802682527883498 1.5152588480353726,-0.24851051063272792 c2.509467877277292,-0.841211289221892 3.8650913641627076,-3.569047591981099 3.029240613181544,-6.092039313624447 L229.38281586826665,415.44711514937785 c-1.3549849454408176,-4.088543724027285 -3.9142590553968937,-7.574112333108501 -7.401972425801111,-10.079123966127261 l-30.03188122241872,-21.571611327351754 c-2.4009158316953214,-5.336875591391671 -5.573828269911824,-10.044448080922692 -9.511074817314313,-13.99749899424325 c-5.745595918509177,-5.769039864404136 -12.862140318574166,-9.803643322557651 -20.997158322775864,-11.985013360333793 c3.835718457711116,-4.494380010125173 6.8228153355490715,-10.70971136003252 8.571141810863379,-18.005132319459886 h49.095536050946315 c1.8690108083436736,0 3.7105643345695505,0.5002317513769855 5.3241585650732945,1.4473971342794882 l57.83716842751786,33.92906938062348 c0.7585872361845991,0.4450071934586084 1.5886911141643516,0.6562732347975346 2.408578329030519,0.6562732347975346 c1.647436927067535,0 3.2508144944576816,-0.8559806477349421 4.14094126822983,-2.390067495025843 C290.1521666093869,371.15509326076756 289.3801700028657,368.2057165803125 287.09546871408753,366.8655578317583 zM172.40257005940177,262.9278026611824 c0,3.0212970349534127 -2.444336649928111,5.479432008343775 -5.4480356053256624,5.479432008343775 s-5.4480356053256624,-2.4581349733903646 -5.4480356053256624,-5.479432008343775 s2.444336649928111,-5.47878986232147 5.4480356053256624,-5.47878986232147 S172.40257005940177,259.9071477722513 172.40257005940177,262.9278026611824 zM120.55747454800861,262.9278026611824 c0,-3.020654888931105 2.444336649928111,-5.47878986232147 5.4480356053256624,-5.47878986232147 c3.0043374968421523,0 5.4480356053256624,2.4581349733903646 5.4480356053256624,5.47878986232147 c0,3.0212970349534127 -2.444336649928111,5.479432008343775 -5.4480356053256624,5.479432008343775 C123.0018111979367,268.40723466952613 120.55747454800861,265.9490996961358 120.55747454800861,262.9278026611824 zM127.2308711855213,277.9848425922318 c7.714219192210419,-0.6293031018606609 13.801434783580502,-7.139379476006811 13.801434783580502,-15.057039931049442 c0,-8.332486785452808 -6.741082030640297,-15.110980196923206 -15.026157274322951,-15.110980196923206 c-0.5376518963530503,0 -1.0682798368154993,0.030180863048418948 -1.5918838213873503,0.08540542096680244 c4.559185914442711,-8.952157696978858 12.718468493539204,-16.191069806443217 22.06607670103596,-16.191069806443217 c9.347608207496759,0 17.506890786593253,7.238912109464361 22.06607670103596,16.191069806443217 c-0.5229654431272525,-0.055866703940691126 -1.0542319250343029,-0.08540542096680244 -1.5918838213873503,-0.08540542096680244 c-8.285713785127259,0 -15.026157274322951,6.779135557492705 -15.026157274322951,15.110980196923206 c0,7.917018309020321 6.087215591370079,14.427094683166484 13.801434783580502,15.057039931049442 c-5.049585743895374,4.161748370570258 -12.280429062543728,5.864719621727846 -19.24947038890616,5.864719621727846 C139.51130024806506,283.8495622139597 132.28045692941672,282.1459488167798 127.2308711855213,277.9848425922318 zM175.67126371430828,376.6152608884421 c6.048264563249495,6.073417078977552 9.906970512966202,14.518279418334048 11.39157937166078,24.742528385502638 c-2.653139702312251,2.16146351108463 -6.122973912267669,4.146336866034896 -10.15664021780473,5.791514975184873 c-2.4507220643741077,1.0004635027539714 -3.6320237368837747,3.8085680583015282 -2.6378147076418546,6.273766637937268 c0.7553945289615872,1.871855655024273 2.547141822508684,3.007169822462663 4.439778664302545,3.007169822462663 c0.5995904164792417,0 1.2093974960720582,-0.11430199197060864 1.7987712494376935,-0.3544646043133507 c2.6231282544160592,-1.070457419185408 5.02659825188978,-2.257785414430649 7.2238193627577605,-3.5440038971111343 c-0.1736832729311558,8.68052992954309 -2.130174259184998,18.12136074949741 -5.5399855733480345,27.26359366907907 c-4.174783964793621,2.591701346030175 -9.389113401395747,4.74995412700327 -15.131516612681926,6.244870066933465 c-2.560551192845276,0.6665475711544446 -4.098797532886243,3.294851240456102 -3.4359915133916323,5.8698567899063 c0.5587237640248347,2.170453555396925 2.502443921386694,3.610144937408732 4.632618180571691,3.610144937408732 c0.3971727785410938,0 0.8013695129727786,-0.05008738973992966 1.20365062307066,-0.15475719137593705 c2.2380877633223673,-0.5824264422322615 4.3797557685101625,-1.252826889520533 6.440967551678382,-1.9912948151733332 c-0.8728861547679596,1.5552776660270224 -1.7783379232104986,3.0893645133179386 -2.7342344657764306,4.5817118691588945 c-8.493239754622198,13.260957506657366 -18.718842448443713,21.499048826831075 -26.685924052715663,21.499048826831075 c-7.967081604271948,0 -18.19204575664886,-8.238091320173716 -26.685924052715663,-21.499048826831075 c-0.9584507083443276,-1.4962002319748033 -1.8664566425652724,-3.0341399553995467 -2.741258421667027,-4.5939126435827236 c8.721837591788937,3.125966836589418 18.884224682595068,4.840496716148527 29.427182474382686,4.840496716148527 c2.644838663532453,0 4.789060834498648,-2.1556841968838696 4.789060834498648,-4.81609516730087 c0,-2.660410970417001 -2.1442221709661946,-4.81609516730087 -4.789060834498648,-4.81609516730087 c-13.821868109807696,0 -26.735091743949845,-3.1921078768870164 -35.711707372134114,-8.779420416978333 c-3.4091727727184367,-9.142232919581664 -5.365663758972283,-18.58306373953598 -5.538708490458835,-27.26359366907907 c10.375659933302465,6.0663534727321755 25.26197663125806,9.64182252493634 41.25041586259293,9.64182252493634 c3.5949883330969845,0 7.19125374908317,-0.18044303226820663 10.68854524115638,-0.5361919286261676 c2.631429293195858,-0.267774891301932 4.548969251329116,-2.630230107368581 4.28269746893099,-5.276513865294833 c-0.2662717823981262,-2.6456416119039448 -2.6129115913024616,-4.581069723136588 -5.2468950502767155,-4.306873371611592 c-3.1786593112179014,0.3236415952426294 -6.450545673347376,0.48738883093085134 -9.724347659810652,0.48738883093085134 c-16.681256698725683,0 -32.227186708952885,-4.3332013585261695 -40.58314005298612,-11.172698642115712 c1.4833317758053808,-10.227459697280127 5.342676266966691,-18.674248474703546 11.39221791310538,-24.7489498457257 c7.211687075310364,-7.241480693553586 17.306388772988914,-11.068670986502012 29.190922139880755,-11.068670986502012 S168.4595766389979,369.37378019488847 175.67126371430828,376.6152608884421 zM146.47970303298288,355.9143995673384 c-8.35531480258864,0 -15.685132045149963,-14.586989042720871 -15.685132045149963,-31.21664458239962 c0,-16.629013393656447 7.329817242561328,-31.21664458239962 15.685132045149963,-31.21664458239962 c8.35531480258864,0 15.685132045149963,14.586989042720871 15.685132045149963,31.21664458239962 S154.8350178355716,355.9143995673384 146.47970303298288,355.9143995673384 z" fill="#1f1f1f" data-original="#000000" style="" id="svg_4" stroke-width="3" stroke="#1f1f1f" stroke-opacity="1"/>
	</g>
</g>
<g xmlns="http://www.w3.org/2000/svg" id="svg_58" stroke-width="3" stroke="#1f1f1f" stroke-opacity="1" fill="#1f1f1f">
</g>
<g xmlns="http://www.w3.org/2000/svg" id="svg_60" stroke-width="3" stroke="#1f1f1f" stroke-opacity="1" fill="#1f1f1f">
</g>
<g xmlns="http://www.w3.org/2000/svg" id="svg_62" stroke-width="3" stroke="#1f1f1f" stroke-opacity="1" fill="#1f1f1f">
</g>
<g xmlns="http://www.w3.org/2000/svg" id="svg_64" stroke-width="3" stroke="#1f1f1f" stroke-opacity="1" fill="#1f1f1f">
</g>
<g xmlns="http://www.w3.org/2000/svg" id="svg_66" stroke-width="3" stroke="#1f1f1f" stroke-opacity="1" fill="#1f1f1f">
</g>
<g xmlns="http://www.w3.org/2000/svg" id="svg_68" stroke-width="3" stroke="#1f1f1f" stroke-opacity="1" fill="#1f1f1f">
</g>
<g xmlns="http://www.w3.org/2000/svg" id="svg_70" stroke-width="3" stroke="#1f1f1f" stroke-opacity="1" fill="#1f1f1f">
</g>
<g xmlns="http://www.w3.org/2000/svg" id="svg_72" stroke-width="3" stroke="#1f1f1f" stroke-opacity="1" fill="#1f1f1f">
</g>
<g xmlns="http://www.w3.org/2000/svg" id="svg_74" stroke-width="3" stroke="#1f1f1f" stroke-opacity="1" fill="#1f1f1f">
</g>
<g xmlns="http://www.w3.org/2000/svg" id="svg_76" stroke-width="3" stroke="#1f1f1f" stroke-opacity="1" fill="#1f1f1f">
</g>
<g xmlns="http://www.w3.org/2000/svg" id="svg_78" stroke-width="3" stroke="#1f1f1f" stroke-opacity="1" fill="#1f1f1f">
</g>
<g xmlns="http://www.w3.org/2000/svg" id="svg_80" stroke-width="3" stroke="#1f1f1f" stroke-opacity="1" fill="#1f1f1f">
</g>
<g xmlns="http://www.w3.org/2000/svg" id="svg_82" stroke-width="3" stroke="#1f1f1f" stroke-opacity="1" fill="#1f1f1f">
</g>
<g xmlns="http://www.w3.org/2000/svg" id="svg_84" stroke-width="3" stroke="#1f1f1f" stroke-opacity="1" fill="#1f1f1f">
</g>
<g xmlns="http://www.w3.org/2000/svg" id="svg_86" stroke-width="3" stroke="#1f1f1f" stroke-opacity="1" fill="#1f1f1f">
</g>
</g><path fill="#4a90d6" fill-opacity="1" stroke="#d62c0e" stroke-opacity="1" stroke-width="15" stroke-dasharray="none" stroke-linejoin="round" stroke-linecap="butt" stroke-dashoffset="" fill-rule="nonzero" opacity="1" marker-start="" marker-mid="" marker-end="" d="M32.04924077728271,429.35311 L472.8184907772827,61.33691 " id="svg_2" class=""/></g></svg>