<svg xmlns="http://www.w3.org/2000/svg" xmlns:xlink="http://www.w3.org/1999/xlink" xmlns:svgjs="http://svgjs.com/svgjs" version="1.1" width="511" height="512" style="enable-background:new 0 0 512 512" xml:space="preserve"><rect id="backgroundrect" width="100%" height="100%" x="0" y="0" fill="none" stroke="none"/><g class="currentLayer" style=""><title>Layer 1</title><g id="svg_1" class="selected" fill-opacity="1" fill="#6bce19"><path xmlns="http://www.w3.org/2000/svg" d="m259.31640600000003,181 c-41.351562,0 -74.992187,33.644531 -74.992187,75 s33.640625,75 74.992187,75 c41.347656,0 74.988282,-33.644531 74.988282,-75 s-33.640626,-75 -74.988282,-75 zm0,0 " fill="#6bce19" data-original="#000000" style="" id="svg_2"/><path xmlns="http://www.w3.org/2000/svg" d="m505.628906,311.332031 l-27.960937,-16.144531 c-30.160157,-17.414062 -30.1875,-60.949219 0,-78.375 l27.960937,-16.144531 c7.171875,-4.144531 9.628906,-13.316407 5.488282,-20.488281 l-60.242188,-104.355469 c-4.136719,-7.167969 -13.316406,-9.632813 -20.492188,-5.4921880000000005 l-27.960937,16.144531 c-30.15625,17.410157 -67.863281,-4.324218 -67.863281,-39.1875 v-32.289062 c0,-8.285156 -6.714844,-15 -15,-15 h-120.488282 c-8.28125,0 -15,6.714844 -15,15 v32.289062 c0,34.828126 -37.671874,56.617188 -67.863281,39.1875 l-27.960937,-16.144531 c-7.167969,-4.140625 -16.347656,-1.6835930000000001 -20.492188,5.4921880000000005 l-60.242187,104.355469 c-4.140625,7.171874 -1.6835940000000003,16.347656 5.488281,20.488281 l27.960938,16.144531 c30.160156,17.414062 30.1875,60.949219 0,78.375 l-27.957032,16.144531 c-7.175781,4.144531 -9.632812,13.316407 -5.492187,20.488281 l60.242187,104.355469 c4.136719,7.167969 13.316406,9.636719 20.492188,5.4921880000000005 l27.960937,-16.144531 c30.152344,-17.414063 67.863281,4.320312 67.863281,39.1875 v32.289062 c0,8.285156 6.714844,15 15,15 h120.484376 c8.285156,0 15,-6.714844 15,-15 v-32.289062 c0,-34.820313 37.671874,-56.621094 67.867187,-39.1875 l27.960937,16.144531 c7.167969,4.140625 16.347657,1.6835930000000001 20.488282,-5.4921880000000005 l60.246094,-104.355469 c4.140624,-7.171874 1.6835930000000001,-16.34375 -5.488282,-20.488281 zm-246.3125,49.667969 c-57.894531,0 -104.992187,-47.101562 -104.992187,-105 s47.097656,-105 104.992187,-105 c57.890625,0 104.988282,47.101562 104.988282,105 s-47.097657,105 -104.988282,105 zm0,0 " fill="#6bce19" data-original="#000000" style="" id="svg_3"/></g></g></svg>