<?xml version="1.0"?>
<svg xmlns="http://www.w3.org/2000/svg" xmlns:xlink="http://www.w3.org/1999/xlink" xmlns:svgjs="http://svgjs.com/svgjs" version="1.1" width="512" height="512" x="0" y="0" viewBox="0 0 511.99941 511" style="enable-background:new 0 0 512 512" xml:space="preserve" class=""><g><path xmlns="http://www.w3.org/2000/svg" d="m494.425781 253.890625c-13.078125 15.480469-32.308593 19.984375-44.800781 21.191406-4.144531.402344-8.003906-2.222656-9.164062-6.222656-2.875-9.917969-6.859376-19.5-11.777344-28.578125-6.273438-11.578125-13.890625-22.417969-22.640625-32.257812-29.253907-32.890626-70.519531-53.742188-113.957031-59.816407-20.476563-2.863281-41.269532-2.8125-61.847657-1.152343-72.742187 5.863281-148.980469 38.632812-173.457031 113.628906-1.765625 5.398437-6.867188 9.007812-12.546875 9.007812h-19.519531c-9.515625 0-17.230469 7.710938-17.230469 17.226563v40.308593c0 9.515626 7.714844 17.226563 17.230469 17.226563h17.066406c5.816406 0 10.984375 3.710937 12.847656 9.21875l1.765625 5.226563c7.734375 22.839843 18.953125 38.355468 35.324219 55.234374 6.347656 6.542969 13.125 12.683594 20.367188 18.222657 3.695312 2.828125 7.511718 5.496093 11.449218 7.976562 7.878906 4.960938 18.875 7.660157 25.226563 14.75 4.890625 5.460938 4.050781 11.402344 3.601562 18.273438-.527343 8.046875-1.917969 16.890625-3.179687 24.914062-.539063 3.425781 2.109375 6.519531 5.578125 6.519531h36.515625c1.292968 0 2.542968-.46875 3.503906-1.335937 3.644531-3.289063 12.167969-13.09375 16.082031-28.023437 1-3.808594 4.707031-6.222657 8.617188-5.785157 8.84375.988281 17.871093 1.503907 27.042969 1.503907 21.828124 0 42.835937-2.894532 62.492187-8.230469 4.851563-1.320313 9.710937 2.125 10.0625 7.144531.769531 11.109375-.132813 23.652344-1.066406 28.632812-.605469 3.230469 1.886719 6.214844 5.175781 6.214844h55.652344c1.902344 0 3.683594-1.015625 4.59375-2.691406 14.855468-27.332031 8.945312-80.847656 8.945312-80.847656s41.695313-35.003906 51.484375-90.914063c.636719-3.628906 3.519531-6.402343 7.144531-7.058593 40.34375-7.28125 51.007813-41.652344 53.476563-65.25.582031-5.605469-6.425781-8.558594-10.058594-4.257813zm0 0" fill="#ffc1de" data-original="#ffc1de" style=""/><path xmlns="http://www.w3.org/2000/svg" d="m504.484375 258.148438c-2.472656 23.605468-13.144531 57.96875-53.484375 65.246093-3.625.65625-6.496094 3.429688-7.136719 7.054688-9.792969 55.910156-51.488281 90.921875-51.488281 90.921875s5.917969 53.503906-8.945312 80.84375c-.90625 1.675781-2.683594 2.695312-4.589844 2.695312h-26.945313c1.90625 0 3.679688-1.019531 4.589844-2.695312 8.679687-16.023438 9.917969-35.933594 10.101563-53.796875.070312-7.207031-.4375-14.351563-.675782-21.546875-.351562-10.640625 7.734375-13.144532 13.898438-20.300782 11.207031-13.113281 20.652344-27.945312 27.417968-43.824218 12.5625-29.480469 14.75-62.699219 6.175782-93.546875-2.761719-9.960938-6.644532-19.660157-11.664063-28.914063-6.269531-11.578125-13.882812-22.425781-22.636719-32.265625-29.253906-32.886719-70.523437-53.734375-113.957031-59.8125-7.148437-1-14.332031-1.636719-21.539062-1.988281 16.1875-.71875 32.425781-.257812 48.472656 1.988281 43.445313 6.078125 84.707031 26.925781 113.96875 59.8125 8.742187 9.839844 16.359375 20.6875 22.636719 32.265625 4.921875 9.074219 8.902344 18.664063 11.777344 28.585938 1.15625 3.992187 5.03125 6.617187 9.171874 6.207031 12.484376-1.207031 31.707032-5.699219 44.78125-21.179687 3.644532-4.300782 10.648438-1.347657 10.070313 4.25zm0 0" fill="#ffa4cf" data-original="#ffa4cf" style=""/><path xmlns="http://www.w3.org/2000/svg" d="m157.605469 129.082031c-2.34375 12.441407-5.019531 24.894531-9.140625 36.882813-3.53125 10.292968-9.921875 19.535156-11.53125 30.140625-3.03125 20.007812 8.128906 39.976562 27.382812 46.832031l.191406.066406c32.890626 11.710938 65.148438-19.480468 54.164063-52.617187-7.1875-21.675781-22.011719-45.082031-50.761719-65.445313-3.929687-2.785156-9.414062-.589844-10.304687 4.140625zm0 0" fill="#ffa4cf" data-original="#ffa4cf" style=""/><path xmlns="http://www.w3.org/2000/svg" d="m169.5625 244.464844c17.214844-8.878906 27.890625-29.285156 20.871094-50.480469-5.765625-17.351563-16.421875-35.828125-35.21875-52.960937.855468-3.972657 1.644531-7.949219 2.394531-11.945313.886719-4.734375 6.371094-6.921875 10.296875-4.136719 28.753906 20.367188 43.582031 43.773438 50.765625 65.449219 10.417969 31.429687-18.082031 61.117187-49.109375 54.074219zm0 0" fill="#ff7ab8" data-original="#ff7ab8" style="" class=""/><path xmlns="http://www.w3.org/2000/svg" d="m327.144531 282.765625c-7.582031-8.742187-18.621093-14.347656-30.285156-14.34375-2.65625 0-5.3125.253906-7.917969.765625-1.09375.214844-2.179687.476562-3.253906.785156-8.835938 2.523438-17.464844 8.335938-22.222656 16.296875-1.058594 1.769531-1.953125 3.632813-2.859375 5.480469-.988281 2.007812-1.425781 5.085938-4.183594 5.230469-2.585937.132812-3.519531-2.675781-4.382813-4.597657-2.523437-5.625-5.90625-10.441406-10.652343-14.421874-7.320313-6.140626-16.691407-9.539063-26.242188-9.542969-11.667969 0-22.707031 5.601562-30.289062 14.34375-17.253907 19.894531-9.242188 50.929687 5.601562 70.402343 14.957031 19.621094 38.035157 38.132813 61.890625 44.441407 2.394532.632812 4.914063.632812 7.308594 0 23.851562-6.308594 46.933594-24.820313 61.890625-44.441407 14.839844-19.472656 22.851563-50.507812 5.597656-70.398437zm0 0" fill="#7bc11f" data-original="#e63950" style="" class=""/><path xmlns="http://www.w3.org/2000/svg" d="m321.542969 353.164062c-14.953125 19.625-38.035157 38.132813-61.886719 44.445313-2.398438.625-4.914062.625-7.3125 0-1.859375-.492187-3.722656-1.0625-5.574219-1.699219 21.832031-7.507812 42.523438-24.660156 56.316407-42.746094 14.839843-19.472656 22.855468-50.507812 5.601562-70.40625-5.601562-6.457031-13.085938-11.195312-21.3125-13.230468.523438-.121094 1.046875-.246094 1.566406-.34375 2.605469-.511719 5.265625-.765625 7.917969-.765625 11.664063 0 22.699219 5.597656 30.28125 14.347656 17.253906 19.894531 9.25 50.925781-5.597656 70.398437zm0 0" fill="#548b0c" data-original="#cc2e43" style="" class=""/><path xmlns="http://www.w3.org/2000/svg" d="m399.777344 121.992188c-5.382813-6.207032-13.21875-10.183594-21.5-10.183594-1.886719 0-3.769532.179687-5.621094.542968-.777344.152344-1.546875.339844-2.308594.558594-6.273437 1.789063-12.398437 5.917969-15.777344 11.570313-.753906 1.257812-1.386718 2.578125-2.03125 3.890625-.699218 1.425781-1.011718 3.609375-2.96875 3.710937-1.839843.097657-2.5-1.898437-3.109374-3.261719-1.792969-3.992187-4.195313-7.414062-7.566407-10.238281-5.195312-4.359375-11.851562-6.773437-18.632812-6.773437-8.28125 0-16.117188 3.976562-21.5 10.183594-12.25 14.121093-6.5625 36.15625 3.972656 49.980468 10.621094 13.929688 27.007813 27.074219 43.941406 31.550782 1.699219.449218 3.484375.449218 5.1875 0 16.933594-4.480469 33.320313-17.621094 43.9375-31.550782 10.539063-13.824218 16.226563-35.859375 3.976563-49.980468zm0 0" fill="#7bc11f" data-original="#e63950" style="" class=""/><path xmlns="http://www.w3.org/2000/svg" d="m395.800781 171.972656c-10.617187 13.929688-27.003906 27.074219-43.933593 31.550782-1.707032.449218-3.488282.449218-5.191407 0-1.324219-.347657-2.644531-.75-3.960937-1.203126 15.503906-5.332031 30.191406-17.507812 39.984375-30.347656 10.535156-13.824218 16.226562-35.855468 3.976562-49.984375-3.976562-4.582031-9.289062-7.949219-15.132812-9.390625.371093-.089844.742187-.175781 1.113281-.246094 1.851562-.363281 3.738281-.542968 5.621094-.542968 8.28125 0 16.117187 3.972656 21.5 10.1875 12.25 14.121094 6.566406 36.152344-3.976563 49.976562zm0 0" fill="#548b0c" data-original="#cc2e43" style="" class=""/><path xmlns="http://www.w3.org/2000/svg" d="m339.753906 17.15625c-4.847656-5.589844-11.90625-9.171875-19.367187-9.171875-1.699219 0-3.394531.164063-5.0625.492187-.699219.136719-1.394531.304688-2.082031.5-5.648438 1.613282-11.167969 5.332032-14.210938 10.421876-.675781 1.132812-1.246094 2.324218-1.828125 3.503906-.632813 1.285156-.910156 3.253906-2.675781 3.347656-1.652344.085938-2.25-1.710938-2.800782-2.9375-1.613281-3.597656-3.777343-6.679688-6.8125-9.226562-4.679687-3.925782-10.675781-6.101563-16.78125-6.101563-7.460937 0-14.519531 3.582031-19.367187 9.171875-11.035156 12.722656-5.910156 32.570312 3.582031 45.019531 9.5625 12.550781 24.324219 24.386719 39.574219 28.421875 1.53125.402344 3.140625.402344 4.675781 0 15.25-4.035156 30.011719-15.871094 39.574219-28.421875 9.492187-12.453125 14.617187-32.296875 3.582031-45.019531zm0 0" fill="#7bc11f" data-original="#e63950" style="" class=""/><path xmlns="http://www.w3.org/2000/svg" d="m336.171875 62.175781c-9.5625 12.546875-24.320313 24.386719-39.574219 28.421875-1.53125.398438-3.140625.398438-4.675781 0-1.191406-.316406-2.378906-.679687-3.566406-1.089844 13.964843-4.800781 27.195312-15.765624 36.015625-27.332031 9.488281-12.453125 14.613281-32.296875 3.582031-45.023437-3.582031-4.128906-8.367187-7.160156-13.628906-8.460938.332031-.078125.667969-.15625 1-.21875 1.667969-.328125 3.367187-.488281 5.066406-.488281 7.457031 0 14.511719 3.578125 19.363281 9.175781 11.03125 12.71875 5.910156 32.5625-3.582031 45.015625zm0 0" fill="#548b0c" data-original="#cc2e43" style="" class=""/><path xmlns="http://www.w3.org/2000/svg" d="m95.480469 253.675781v14.742188c0 4.136719 3.351562 7.484375 7.484375 7.484375 4.132812 0 7.484375-3.351563 7.484375-7.484375v-14.742188c0-4.136719-3.351563-7.484375-7.484375-7.484375-4.132813 0-7.484375 3.351563-7.484375 7.484375zm0 0" fill="#000000" data-original="#000000" style="" class=""/><path xmlns="http://www.w3.org/2000/svg" d="m257.742188 390.367188c-1.140626.304687-2.34375.304687-3.480469 0-16.035157-4.238282-33.585938-15.339844-48.148438-30.453126-2.867187-2.972656-7.605469-3.0625-10.582031-.195312s-3.066406 7.605469-.195312 10.585938c16.648437 17.277343 36.214843 29.546874 55.097656 34.539062 1.820312.480469 3.695312.722656 5.566406.722656 1.875 0 3.746094-.242187 5.570312-.722656 23.527344-6.222656 48.171876-23.847656 65.929688-47.140625 17.328125-22.738281 24.714844-57.460937 5.300781-79.84375-9.328125-10.753906-22.429687-16.925781-35.941406-16.925781-3.144531 0-6.292969.304687-9.351563.90625-1.292968.253906-2.597656.566406-3.878906.933594-11.203125 3.203124-21.144531 10.550781-26.589844 19.652343-.316406.53125-.617187 1.0625-.902343 1.589844-2.703125-4.585937-5.984375-8.472656-9.941407-11.789063-8.679687-7.28125-19.707031-11.289062-31.050781-11.292968-13.511719 0-26.613281 6.171875-35.941406 16.925781-13.238281 15.261719-15.234375 38.25-5.339844 61.492187 1.621094 3.800782 6.019531 5.574219 9.820313 3.953126 3.804687-1.617188 5.574218-6.015626 3.957031-9.816407-7.601563-17.855469-6.527344-34.984375 2.871094-45.820312 6.386719-7.367188 15.59375-11.761719 24.628906-11.761719 7.832031 0 15.445313 2.765625 21.433594 7.789062 3.628906 3.042969 6.453125 6.886719 8.636719 11.753907l.214843.492187c.953125 2.203125 3.867188 8.925782 11.386719 8.511719 1.734375-.089844 6.996094-.367187 10.175781-8.578125.117188-.300781.265625-.679688.332031-.824219l.265626-.535156c.773437-1.582031 1.503906-3.070313 2.304687-4.40625 3.488281-5.832031 10.328125-10.789063 17.851563-12.941406.875-.25 1.761718-.464844 2.644531-.636719 2.117187-.414062 4.292969-.625 6.472656-.625 9.035156 0 18.242187 4.394531 24.628906 11.761719 10.730469 12.371093 12.152344 37.28125-5.894531 60.957031-15.574219 20.429688-37.738281 36.425781-57.851562 41.742188zm0 0" fill="#000000" data-original="#000000" style="" class=""/><path xmlns="http://www.w3.org/2000/svg" d="m503.988281 245.425781c-5.371093-2.289062-11.511719-.828125-15.28125 3.632813-11.195312 13.253906-27.824219 17.414062-39.804687 18.570312-.554688.042969-1.09375-.3125-1.253906-.855468-2.980469-10.28125-7.144532-20.394532-12.382813-30.0625-1.65625-3.054688-3.425781-6.101563-5.261719-9.058594-2.179687-3.511719-6.792968-4.59375-10.308594-2.410156-3.511718 2.175781-4.589843 6.792968-2.410156 10.304687 1.679688 2.710937 3.300782 5.5 4.816406 8.300781 4.730469 8.722656 8.488282 17.839844 11.167969 27.09375 2.164063 7.460938 9.351563 12.34375 17.074219 11.589844 13.492188-1.304688 31.890625-5.839844 45.984375-19.695312-3.441406 22.171874-14.597656 47.40625-46.652344 53.191406-6.722656 1.214844-12.023437 6.492187-13.1875 13.132812-9.175781 52.410156-48.535156 86.144532-48.921875 86.472656-1.917968 1.609376-2.902344 4.070313-2.628906 6.554688.054688.503906 5.296875 49.894531-7.445312 75.230469h-51.710938c.914062-6.855469 1.425781-18.320313.761719-27.878907-.324219-4.628906-2.679688-8.832031-6.46875-11.523437-3.789063-2.695313-8.539063-3.542969-13.023438-2.324219-19.480469 5.289063-39.84375 7.96875-60.527343 7.96875-8.75 0-17.566407-.488281-26.210938-1.457031-7.601562-.859375-14.773438 4.019531-16.691406 11.324219-3.039063 11.589844-9.460938 20.105468-13.226563 23.773437h-33.484375c1.175782-7.5 2.414063-15.765625 2.917969-23.457031l.101563-1.476562c.464843-6.621094 1.046874-14.863282-5.59375-22.28125-5.09375-5.683594-12.097657-8.90625-18.273438-11.75-3.140625-1.441407-6.109375-2.808594-8.542969-4.339844-3.636719-2.292969-7.304687-4.84375-10.890625-7.589844-6.628906-5.070312-13.199218-10.953125-19.539062-17.484375-14.621094-15.078125-25.933594-29.765625-33.605469-52.421875l-1.769531-5.226562c-2.890625-8.558594-10.902344-14.308594-19.933594-14.308594h-17.066406c-5.371094 0-9.742188-4.367188-9.742188-9.742188v-40.308594c0-5.371093 4.371094-9.742187 9.742188-9.742187h19.519531c8.996094 0 16.898437-5.695313 19.664063-14.171875 10.796874-33.082031 32.765624-59.527344 65.296874-78.601562 1.359376-.796876 2.738282-1.574219 4.128907-2.339844-1.675781 4.066406-3.09375 8.320312-3.789063 12.925781-3.625 23.925781 9.945313 47.058594 32.257813 55l.203125.074219c5.503906 1.960937 11.167968 2.914062 16.769531 2.914062 12.726563 0 25.136719-4.933594 34.648437-14.242187 13.585938-13.289063 18.324219-32.71875 12.363282-50.703125-3.65625-11.027344-8.832032-21.40625-15.4375-31.125 6.710937-1.027344 13.550781-1.832032 20.5-2.390625 20.363281-1.640625 38.539062-1.476563 55.382812.492187 2.074219 7.789063 5.804688 15.265625 10.558594 21.503906 12.890625 16.910157 30.828125 29.714844 47.980469 34.25 1.472656.390626 2.992187.585938 4.507812.585938s3.035157-.195312 4.507813-.585938c9.738281-2.574218 19.730468-7.820312 28.90625-14.964843 4.953125 4.140625 9.664062 8.550781 14.105468 13.222656 2.847657 2.996094 7.585938 3.117187 10.582032.269531s3.117187-7.585937.269531-10.582031c-4.351563-4.578125-8.953125-8.910156-13.757813-13.015625 2.777344-2.890625 5.417969-5.960938 7.871094-9.179688 12.835938-16.839843 18.21875-42.65625 3.679688-59.421874-7.039063-8.113282-16.933594-12.765626-27.152344-12.765626h-.003906c-2.378906 0-4.753906.230469-7.066406.683594-.988282.195313-1.972657.433594-2.921876.707032-7.726562 2.207031-14.671874 7.042968-18.976562 13.132812-1.628906-2.234375-3.492188-4.222656-5.609375-5.996094-6.550781-5.496094-14.878906-8.523437-23.441406-8.523437 0 0 0 0-.003907 0-10.21875 0-20.117187 4.652343-27.152343 12.761719-5.667969 6.535156-8.296875 14.449218-8.652344 22.664062-16.832031-1.714844-34.855469-1.769531-54.816406-.160156-10.140625.816406-20.066407 2.128906-29.730469 3.894531-7.847656-8.902344-17.066406-17.140625-27.671875-24.652344-3.941406-2.792969-8.964844-3.382812-13.4375-1.574219-4.460937 1.804688-7.65625 5.707032-8.550781 10.4375v.003907c-2.019532 10.71875-4.402344 22.109375-8.015625 33.253906-7.191407 3.195313-14.078125 6.703125-20.609375 10.53125-35.78125 20.976563-59.992188 50.207031-71.960938 86.871094-.75 2.300781-2.929687 3.847656-5.425781 3.847656h-19.519531c-13.628906 0-24.714844 11.085937-24.714844 24.710937v40.308594c0 13.628906 11.085938 24.714844 24.714844 24.714844h17.066406c2.609375 0 4.921875 1.660156 5.753906 4.128906l1.769532 5.230469c8.574218 25.316406 21.007812 41.515625 37.042968 58.046875 6.847656 7.0625 13.976563 13.4375 21.1875 18.957031 3.945313 3.015625 7.988282 5.832031 12.011719 8.363281 3.261719 2.054688 6.820313 3.691407 10.261719 5.273438 5.328125 2.453125 10.359375 4.765625 13.378906 8.136719 2.214844 2.476562 2.257812 4.910156 1.8125 11.242187l-.105469 1.550782c-.507812 7.746093-1.886719 16.507812-3.105469 24.234374-.597656 3.796876.492188 7.652344 2.988282 10.570313 2.5 2.925781 6.136718 4.601563 9.984375 4.601563h36.515625c3.160156 0 6.1875-1.160157 8.515625-3.265626 2.1875-1.972656 13.355469-12.78125 18.3125-31.683593.035156-.136719.273437-.265625.542969-.246094 9.195312 1.03125 18.574218 1.550781 27.875 1.550781 22.011718 0 43.695312-2.855468 64.449218-8.492187.0625-.019531.230469-.0625.429688.078125.191406.136718.199218.296875.207031.363281.714844 10.300781-.097656 22.144531-.957031 26.734375-.699219 3.730469.289062 7.546875 2.714844 10.46875 2.433593 2.929688 6.011718 4.609375 9.820312 4.609375h55.648438c4.679687 0 8.960937-2.527344 11.175781-6.601563 13.550781-24.933593 11.253906-68.15625 10.167969-81.367187 10.101562-9.457031 42.351562-42.960937 51.054687-92.675781.085937-.488282.527344-.882813 1.097656-.984375 34.230469-6.175781 55.394531-31.691407 59.59375-71.839844.605469-5.792969-2.582031-11.214844-7.9375-13.496094zm-199.574219-118.53125c4.132813-4.757812 10.054688-7.601562 15.847657-7.601562 5.050781 0 9.960937 1.785156 13.824219 5.023437 2.347656 1.972656 4.109374 4.378906 5.542968 7.570313l.140625.320312c2.757813 6.375 7.074219 7.519531 10.195313 7.351563 4.222656-.222656 7.296875-2.738282 9.128906-7.472656.058594-.152344.117188-.304688.164062-.414063l.179688-.367187c.53125-1.082032 1.03125-2.109376 1.554688-2.980469 2.207031-3.6875 6.578124-6.835938 11.414062-8.21875.550781-.15625 1.121094-.292969 1.695312-.40625 1.363282-.269531 2.765626-.40625 4.175782-.40625 5.792968 0 11.714844 2.84375 15.847656 7.601562 6.867188 7.921875 7.707031 24.820313-4.273438 40.539063-10.777343 14.140625-26.066406 25.195312-39.902343 28.855468-.445313.117188-.914063.117188-1.359375-.003906-13.835938-3.65625-29.125-14.710937-39.898438-28.851562-11.980468-15.71875-11.144531-32.617188-4.277344-40.539063zm-160.078124 70.332031c.832031-5.484374 3.359374-10.898437 6.039062-16.628906 1.816406-3.878906 3.691406-7.894531 5.171875-12.199218 4.246094-12.371094 6.925781-24.847657 9.152344-36.554688 23.261719 16.765625 39.027343 37.246094 46.867187 60.898438 4.210938 12.695312.988282 25.886718-8.621094 35.289062-9.71875 9.511719-23.152343 12.46875-35.914062 7.929688l-.203125-.074219c-15.585937-5.550781-25.046875-21.808594-22.492187-38.660157zm0 0" fill="#000000" data-original="#000000" style="" class=""/><path xmlns="http://www.w3.org/2000/svg" d="m290.007812 97.832031c1.390626.367188 2.820313.550781 4.253907.550781 1.429687 0 2.859375-.183593 4.25-.550781 15.605469-4.128906 31.910156-15.761719 43.617187-31.117187 11.742188-15.40625 16.640625-39.0625 3.28125-54.460938-6.476562-7.472656-15.597656-11.753906-25.019531-11.753906-2.1875 0-4.378906.210938-6.503906.628906-.898438.175782-1.804688.394532-2.699219.652344-6.769531 1.933594-12.890625 6.0625-16.894531 11.296875-1.351563-1.734375-2.871094-3.304687-4.566407-4.726563-6.035156-5.0625-13.703124-7.851562-21.589843-7.851562-9.425781 0-18.546875 4.285156-25.023438 11.753906-13.355469 15.398438-8.460937 39.054688 3.28125 54.457032 11.703125 15.359374 28.007813 26.992187 43.613281 31.121093zm-35.585937-75.769531c3.578125-4.128906 8.703125-6.59375 13.710937-6.59375 4.375.003906 8.625 1.546875 11.96875 4.351562 2.03125 1.703126 3.554688 3.785157 4.796876 6.550782l.121093.28125c2.652344 6.136718 6.84375 7.238281 9.90625 7.070312 4.125-.21875 7.109375-2.644531 8.875-7.207031.050781-.125.09375-.25.121094-.308594l.171875-.351562c.46875-.957031.914062-1.863281 1.363281-2.613281 1.890625-3.167969 5.664063-5.875 9.839844-7.070313.488281-.136719.980469-.257813 1.472656-.351563 1.179688-.234374 2.394531-.351562 3.617188-.351562 5.007812 0 10.132812 2.464844 13.710937 6.59375 8.035156 9.261719 3.996094 25.242188-3.878906 35.578125-9.609375 12.605469-23.226562 22.460937-35.539062 25.71875-.277344.070313-.566407.074219-.84375 0-12.3125-3.257813-25.929688-13.113281-35.539063-25.71875-7.875-10.335937-11.910156-26.316406-3.875-35.578125zm0 0" fill="#000000" data-original="#000000" style="" class=""/></g></svg>
