<svg width="512.002" height="512.002" xmlns="http://www.w3.org/2000/svg" xml:space="preserve" version="1.1">

 <g>
  <title>Layer 1</title>
  <g transform="rotate(90.1747 131.002 150.501)" stroke="null" id="svg_64">
   <path stroke="null" id="svg_33" data-original="#585a60" fill="#1f1f1f" d="m147.61801,152.11372l-32.47969,0c-50.47982,19.1925 -25.01225,112.20013 16.24006,112.20013c41.24057,-0.00046 66.73329,-93.00213 16.23964,-112.20013z" xmlns="http://www.w3.org/2000/svg"/>
   <path stroke="null" id="svg_34" data-original="#424449" fill="#1f1f1f" d="m115.10393,152.76567l32.54804,0c12.63987,-15.27073 9.9327,-42.85554 -5.3745,-53.15874l-21.80029,0c-15.30511,10.30367 -18.01311,37.89122 -5.37325,53.15874z" xmlns="http://www.w3.org/2000/svg"/>
   <path stroke="null" id="svg_35" data-original="#585a60" fill="#1f1f1f" d="m120.48724,100.30426l21.78226,0c11.29865,-3.54811 19.31617,-12.44656 19.31617,-22.86943c0,-13.54138 -13.52451,-24.51901 -30.2073,-24.51901s-30.20773,10.97763 -30.20773,24.51901c0,10.42333 8.01626,19.32178 19.3166,22.86943z" xmlns="http://www.w3.org/2000/svg"/>
   <path stroke="null" id="svg_36" data-original="#424449" fill="#1f1f1f" d="m123.55287,152.11372l-8.41456,0c-52.28012,19.87699 -23.04214,118.73471 20.44692,111.86361c-38.85455,-6.13846 -60.6821,-93.36662 -12.03236,-111.86361z" xmlns="http://www.w3.org/2000/svg"/>
   <path stroke="null" id="svg_37" data-original="#32353a" fill="#1f1f1f" d="m128.89174,99.60692l-8.41456,0c-15.30552,10.30367 -18.01311,37.89076 -5.37325,53.15874l8.41456,0c-12.63987,-15.26799 -9.93145,-42.85554 5.37324,-53.15874z" xmlns="http://www.w3.org/2000/svg"/>
   <path stroke="null" id="svg_38" data-original="#424449" fill="#1f1f1f" d="m109.58521,77.43483c0,-12.38191 11.3104,-22.61452 26.00045,-24.27693c-18.30031,-2.07183 -34.41458,9.46145 -34.41458,24.27693c0,10.42333 8.01626,19.32178 19.31659,22.86943l8.41456,0c-11.30075,-3.54765 -19.31702,-12.4461 -19.31702,-22.86943z" xmlns="http://www.w3.org/2000/svg"/>
   <path stroke="null" id="svg_39" data-original="#75777c" fill="#1f1f1f" d="m88.17776,186.9529l86.39997,0c-1.14835,-6.46627 -3.23376,-12.15772 -6.07761,-17.02714l-74.24393,0c-2.84426,4.86942 -4.92966,10.56087 -6.07844,17.02714z" xmlns="http://www.w3.org/2000/svg"/>
   <path stroke="null" id="svg_40" data-original="#585a60" fill="#1f1f1f" d="m94.2562,169.92531c-2.91428,4.78001 -5.07976,11.34898 -6.07844,17.02714l8.41456,0c1.14877,-6.46673 3.23376,-12.15773 6.07844,-17.02714l-8.41456,0z" xmlns="http://www.w3.org/2000/svg"/>
   <path stroke="null" id="svg_41" data-original="#75777c" fill="#1f1f1f" d="m90.20908,221.14335l82.33817,0c1.51395,-5.52686 2.50089,-11.26967 2.87781,-17.02714l-88.09503,0c0.37775,5.75702 1.36427,11.50073 2.87906,17.02714z" xmlns="http://www.w3.org/2000/svg"/>
   <path stroke="null" id="svg_42" data-original="#585a60" fill="#1f1f1f" d="m98.6249,221.14335c-1.51521,-5.52641 -2.50341,-11.26921 -2.8799,-17.02714l-8.41372,0c0.39159,5.89547 1.38524,11.57363 2.87823,17.02714l8.4154,0z" xmlns="http://www.w3.org/2000/svg"/>
   <path stroke="null" id="svg_43" data-original="#75777c" fill="#1f1f1f" d="m96.91893,238.17048c18.48311,34.82588 50.46179,34.77224 68.91638,0l-68.91638,0z" xmlns="http://www.w3.org/2000/svg"/>
   <path stroke="null" id="svg_44" data-original="#585a60" fill="#1f1f1f" d="m135.58188,263.97688c-12.20719,-1.93017 -22.96877,-12.09354 -30.24797,-25.8064l-8.41456,0c8.29213,15.69437 22.31388,28.37612 38.66253,25.8064z" xmlns="http://www.w3.org/2000/svg"/>
   <g stroke="null" id="svg_47" xmlns="http://www.w3.org/2000/svg">
    <path stroke="null" id="svg_45" data-original="#75777c" fill="#1f1f1f" d="m108.60162,61.33884l0,2.79254c0,3.03691 2.25185,5.49935 5.02903,5.49935c3.19602,0 5.21057,-2.65317 5.21057,-5.49935l0,-9.00298c-3.94189,1.46206 -7.42678,3.59074 -10.2396,6.21044z"/>
    <path stroke="null" id="svg_46" data-original="#75777c" fill="#1f1f1f" d="m143.91468,55.1284l0,9.00345c0,3.03691 2.25185,5.49935 5.02903,5.49935c3.19602,0 5.21057,-2.65317 5.21057,-5.49935l0,-2.793c-2.8124,-2.6197 -6.29771,-4.74838 -10.2396,-6.21044z"/>
   </g>
   <path stroke="null" id="svg_48" data-original="#000000" fill="#1f1f1f" d="m221.16932,149.24782l-31.97113,-23.14313c-0.444,-0.32139 -0.95466,-0.51441 -1.48544,-0.56025l-29.11597,-2.53351c-0.37901,-3.04333 -1.06241,-5.97662 -2.02293,-8.73754c24.04502,-8.04111 23.07946,-7.42035 23.93559,-8.79392l21.14457,-33.91169c0.97813,-1.56797 0.60793,-3.70627 -0.82636,-4.77589c-1.4347,-1.06961 -3.38972,-0.66478 -4.36702,0.90364l-20.52323,32.91406l-22.17679,7.41668c-1.40075,-2.47849 -3.05808,-4.72958 -4.94518,-6.68404c6.04993,-3.07496 10.8513,-7.71835 13.56099,-13.26813c0.81755,-1.67434 0.23897,-3.75671 -1.29258,-4.65027c-1.53239,-0.89402 -3.43542,-0.26133 -4.25256,1.41347c-2.64428,5.41637 -8.05274,9.7833 -14.8804,12.03118l-20.8775,0c-13.36813,-4.40223 -20.72699,-16.83503 -14.25318,-28.04831c4.3058,7.60007 15.29798,4.37014 15.29798,-4.6874l0,-6.46856c5.80802,-1.67984 12.46588,-1.82517 18.78749,0.02338l0,6.44426c0,9.13089 11.01355,12.19944 15.2854,4.70986c0.53078,0.91695 0.98652,1.86873 1.34918,2.85536c0.64733,1.76144 2.47867,2.61375 4.08904,1.90724c1.61038,-0.70788 2.39105,-2.70956 1.7437,-4.471c-1.91853,-5.21923 -5.51201,-9.67556 -10.20103,-13.02056c2.93567,-6.35944 3.21573,-17.10645 3.24047,-19.50471c0.01929,-1.89761 -1.37182,-3.45275 -3.10672,-3.47475c-1.70891,-0.03072 -3.15828,1.47949 -3.17925,3.39681c-0.05408,4.96203 -0.87835,12.8468 -2.48705,16.38987c-9.91216,-4.55399 -22.16883,-4.63514 -32.24785,0.01696c-1.61373,-3.53527 -2.4401,-11.43746 -2.4946,-16.40728c-0.0197,-1.89761 -1.44394,-3.42707 -3.17799,-3.39727c-1.73574,0.02109 -3.12727,1.57668 -3.10798,3.47521c0.02473,2.40147 0.30564,13.17552 3.25304,19.53131c-17.32301,12.38237 -15.04097,35.47461 4.32803,45.21849c-1.95333,2.02598 -3.66224,4.36831 -5.09276,6.95363l-23.0325,-7.70277l-20.52323,-32.9136c-0.97856,-1.56797 -2.9344,-1.97326 -4.36702,-0.90364c-1.43429,1.06915 -1.8045,3.20746 -0.82636,4.77589c23.03376,36.94126 21.35127,34.77041 22.82245,35.26235l23.17169,7.74907c-0.89637,2.644 -1.53869,5.44342 -1.90553,8.34279l-30.14652,2.62246c-1.1559,0.10086 0.98861,-1.231 -33.45699,23.70384c-1.44729,1.04807 -1.84391,3.18041 -0.8859,4.76306c0.95927,1.58402 2.90967,2.01589 4.3557,0.96875l31.29529,-22.65395l28.50469,-2.47987c0.07547,2.70635 0.39159,5.37602 0.93956,7.95721c-31.77073,18.45482 -29.77505,17.06244 -30.41274,18.22375l-25.41558,46.32157c-0.89303,1.62757 -0.41046,3.73883 1.07834,4.71537c1.4867,0.97608 3.41865,0.44976 4.3121,-1.17919l24.96487,-45.50183l27.45654,-15.94836c0.86913,2.20616 1.92231,4.2945 3.14068,6.23016c-53.64188,26.85308 -15.37051,136.5385 34.28,114.23436c35.33235,-15.85025 51.77365,-92.52532 8.40492,-114.23436c1.12949,-1.79445 2.11181,-3.7237 2.94195,-5.75289l26.63605,15.47201l24.96487,45.50229c0.58907,1.0742 1.63051,1.6693 2.69836,1.6693c0.55007,0 1.10768,-0.15817 1.61415,-0.49056c1.48837,-0.97654 1.97136,-3.0878 1.07834,-4.71537c-27.43683,-50.00631 -25.53339,-46.94785 -26.63562,-47.58833l-28.2917,-16.43434c0.61212,-2.71506 0.97268,-5.53145 1.0578,-8.39138l27.48714,2.39138l31.29486,22.65395c0.5333,0.38649 1.1362,0.57125 1.73197,0.57125c1.01923,0 2.01874,-0.541 2.62374,-1.54c0.95759,-1.5831 0.56097,-3.71545 -0.88632,-4.76351zm-73.97769,-88.94512c1.37853,0.76794 2.71262,1.66241 3.95363,2.6848l0,1.14388c0,2.78016 -3.95363,2.70085 -3.95363,0l0,-3.82869zm-35.31348,2.68572c1.20454,-0.99167 2.53234,-1.8944 3.95363,-2.68985l0,3.83328c0,2.78016 -3.95363,2.70085 -3.95363,0l0,-1.14343zm9.63629,40.75299l19.99286,0c12.64155,9.07222 14.91897,31.66106 4.8563,44.93562l-29.70419,0c-10.03542,-13.23697 -7.82046,-35.83681 4.85504,-44.93562zm-18.71286,137.86623l57.41942,0c-16.51384,25.45749 -40.70727,25.76375 -57.41942,0zm67.50012,-23.90099l-31.9661,0c-1.73616,0 -3.1432,1.53909 -3.1432,3.43715s1.40662,3.43715 3.1432,3.43715l30.00481,0c-1.17519,3.50776 -2.57971,6.91099 -4.1989,10.15284l-65.26001,0c-1.61876,-3.24185 -3.02371,-6.64553 -4.19889,-10.15284l28.98516,0c1.73616,0 3.1432,-1.53908 3.1432,-3.43715s-1.40662,-3.43715 -3.1432,-3.43715l-30.94646,0c-0.81294,-3.36242 -1.41332,-6.75923 -1.79485,-10.15329l81.16928,0c-0.38111,3.39314 -0.98107,6.78995 -1.79402,10.15329zm1.74958,-27.3166c0.45113,3.49905 0.59493,6.85735 0.51569,10.28946l-82.11093,0c-0.07924,-3.42706 0.06415,-6.78582 0.51569,-10.28946l81.07955,0zm-5.18583,-17.02759c1.63638,3.10522 2.93273,6.50386 3.87313,10.15329l-78.45456,0c0.94082,-3.64988 2.2376,-7.04807 3.87355,-10.15329l70.70788,0zm-4.52843,-6.87385l-61.65102,0c3.98927,-4.82953 9.07196,-8.54543 15.12609,-10.93773l31.39885,0c6.0537,2.39276 11.13724,6.10867 15.12608,10.93773z" xmlns="http://www.w3.org/2000/svg"/>
   <g stroke="null" id="svg_49" xmlns="http://www.w3.org/2000/svg"/>
   <g stroke="null" id="svg_50" xmlns="http://www.w3.org/2000/svg"/>
   <g stroke="null" id="svg_51" xmlns="http://www.w3.org/2000/svg"/>
   <g stroke="null" id="svg_52" xmlns="http://www.w3.org/2000/svg"/>
   <g stroke="null" id="svg_53" xmlns="http://www.w3.org/2000/svg"/>
   <g stroke="null" id="svg_54" xmlns="http://www.w3.org/2000/svg"/>
   <g stroke="null" id="svg_55" xmlns="http://www.w3.org/2000/svg"/>
   <g stroke="null" id="svg_56" xmlns="http://www.w3.org/2000/svg"/>
   <g stroke="null" id="svg_57" xmlns="http://www.w3.org/2000/svg"/>
   <g stroke="null" id="svg_58" xmlns="http://www.w3.org/2000/svg"/>
   <g stroke="null" id="svg_59" xmlns="http://www.w3.org/2000/svg"/>
   <g stroke="null" id="svg_60" xmlns="http://www.w3.org/2000/svg"/>
   <g stroke="null" id="svg_61" xmlns="http://www.w3.org/2000/svg"/>
   <g stroke="null" id="svg_62" xmlns="http://www.w3.org/2000/svg"/>
   <g stroke="null" id="svg_63" xmlns="http://www.w3.org/2000/svg"/>
  </g>
  <g transform="rotate(90.1747 383.002 150.501)" stroke="null" id="svg_128">
   <path stroke="null" id="svg_97" data-original="#585a60" fill="#1f1f1f" d="m399.61801,152.11372l-32.47969,0c-50.47982,19.1925 -25.01226,112.20013 16.24005,112.20013c41.24057,-0.00046 66.73329,-93.00213 16.23964,-112.20013z" xmlns="http://www.w3.org/2000/svg"/>
   <path stroke="null" id="svg_98" data-original="#424449" fill="#1f1f1f" d="m367.10393,152.76567l32.54804,0c12.63988,-15.27074 9.9327,-42.85554 -5.3745,-53.15875l-21.80029,0c-15.30511,10.30367 -18.01311,37.89122 -5.37325,53.15875z" xmlns="http://www.w3.org/2000/svg"/>
   <path stroke="null" id="svg_99" data-original="#585a60" fill="#1f1f1f" d="m372.48724,100.30426l21.78226,0c11.29866,-3.54811 19.31618,-12.44656 19.31618,-22.86943c0,-13.54139 -13.52451,-24.51901 -30.20731,-24.51901s-30.20772,10.97762 -30.20772,24.51901c0,10.42332 8.01626,19.32178 19.31659,22.86943z" xmlns="http://www.w3.org/2000/svg"/>
   <path stroke="null" id="svg_100" data-original="#424449" fill="#1f1f1f" d="m375.55287,152.11372l-8.41455,0c-52.28013,19.87699 -23.04215,118.73471 20.44691,111.86361c-38.85455,-6.13846 -60.6821,-93.36662 -12.03236,-111.86361z" xmlns="http://www.w3.org/2000/svg"/>
   <path stroke="null" id="svg_101" data-original="#32353a" fill="#1f1f1f" d="m380.89174,99.60692l-8.41456,0c-15.30553,10.30367 -18.01311,37.89076 -5.37325,53.15875l8.41457,0c-12.63987,-15.26799 -9.93145,-42.85554 5.37324,-53.15875z" xmlns="http://www.w3.org/2000/svg"/>
   <path stroke="null" id="svg_102" data-original="#424449" fill="#1f1f1f" d="m361.58521,77.43483c0,-12.38192 11.31039,-22.61452 26.00044,-24.27693c-18.30031,-2.07184 -34.41458,9.46145 -34.41458,24.27693c0,10.42332 8.01626,19.32178 19.31659,22.86943l8.41456,0c-11.30075,-3.54765 -19.31701,-12.44611 -19.31701,-22.86943z" xmlns="http://www.w3.org/2000/svg"/>
   <path stroke="null" id="svg_103" data-original="#75777c" fill="#1f1f1f" d="m340.17776,186.9529l86.39997,0c-1.14835,-6.46627 -3.23376,-12.15772 -6.07761,-17.02714l-74.24392,0c-2.84426,4.86942 -4.92966,10.56087 -6.07844,17.02714z" xmlns="http://www.w3.org/2000/svg"/>
   <path stroke="null" id="svg_104" data-original="#585a60" fill="#1f1f1f" d="m346.2562,169.92531c-2.91428,4.78001 -5.07976,11.34897 -6.07844,17.02713l8.41456,0c1.14877,-6.46672 3.23376,-12.15772 6.07844,-17.02713l-8.41456,0z" xmlns="http://www.w3.org/2000/svg"/>
   <path stroke="null" id="svg_105" data-original="#75777c" fill="#1f1f1f" d="m342.20908,221.14335l82.33817,0c1.51395,-5.52687 2.50089,-11.26967 2.8778,-17.02714l-88.09503,0c0.37775,5.75701 1.36427,11.50073 2.87906,17.02714z" xmlns="http://www.w3.org/2000/svg"/>
   <path stroke="null" id="svg_106" data-original="#585a60" fill="#1f1f1f" d="m350.6249,221.14335c-1.51521,-5.52641 -2.50341,-11.26921 -2.8799,-17.02714l-8.41373,0c0.39159,5.89547 1.38524,11.57363 2.87823,17.02714l8.4154,0z" xmlns="http://www.w3.org/2000/svg"/>
   <path stroke="null" id="svg_107" data-original="#75777c" fill="#1f1f1f" d="m348.91893,238.17048c18.4831,34.82588 50.46178,34.77224 68.91637,0l-68.91637,0z" xmlns="http://www.w3.org/2000/svg"/>
   <path stroke="null" id="svg_108" data-original="#585a60" fill="#1f1f1f" d="m387.58188,263.97688c-12.20719,-1.93017 -22.96877,-12.09354 -30.24798,-25.8064l-8.41455,0c8.29213,15.69437 22.31388,28.37612 38.66253,25.8064z" xmlns="http://www.w3.org/2000/svg"/>
   <g stroke="null" id="svg_111" xmlns="http://www.w3.org/2000/svg">
    <path stroke="null" id="svg_109" data-original="#75777c" fill="#1f1f1f" d="m360.60162,61.33884l0,2.79255c0,3.0369 2.25185,5.49935 5.02903,5.49935c3.19603,0 5.21057,-2.65317 5.21057,-5.49935l0,-9.00299c-3.94189,1.46206 -7.42678,3.59074 -10.2396,6.21044z"/>
    <path stroke="null" id="svg_110" data-original="#75777c" fill="#1f1f1f" d="m395.91468,55.1284l0,9.00345c0,3.0369 2.25185,5.49935 5.02904,5.49935c3.19602,0 5.21057,-2.65317 5.21057,-5.49935l0,-2.79301c-2.81241,-2.6197 -6.29772,-4.74838 -10.23961,-6.21044z"/>
   </g>
   <path stroke="null" id="svg_112" data-original="#000000" fill="#1f1f1f" d="m473.16932,149.24782l-31.97114,-23.14313c-0.444,-0.32139 -0.95465,-0.51441 -1.48544,-0.56025l-29.11597,-2.53351c-0.37901,-3.04333 -1.0624,-5.97662 -2.02293,-8.73754c24.04502,-8.04111 23.07946,-7.42034 23.93558,-8.79392l21.14457,-33.91169c0.97814,-1.56797 0.60793,-3.70628 -0.82636,-4.77589c-1.4347,-1.06961 -3.38972,-0.66478 -4.36702,0.90364l-20.52322,32.91406l-22.17679,7.41668c-1.40075,-2.47849 -3.05808,-4.72957 -4.94518,-6.68404c6.04993,-3.07496 10.85131,-7.71835 13.56099,-13.26813c0.81755,-1.67434 0.23897,-3.75671 -1.29259,-4.65027c-1.53239,-0.89402 -3.43541,-0.26133 -4.25255,1.41346c-2.64428,5.41637 -8.05274,9.78331 -14.8804,12.03118l-20.8775,0c-13.36813,-4.40223 -20.72699,-16.83503 -14.25318,-28.04831c4.3058,7.60007 15.29797,4.37015 15.29797,-4.6874l0,-6.46856c5.80802,-1.67984 12.46588,-1.82517 18.78749,0.02338l0,6.44427c0,9.13089 11.01356,12.19944 15.2854,4.70986c0.53078,0.91694 0.98653,1.86873 1.34919,2.85535c0.64733,1.76145 2.47867,2.61375 4.08904,1.90724c1.61038,-0.70787 2.39105,-2.70956 1.7437,-4.471c-1.91853,-5.21923 -5.51201,-9.67556 -10.20102,-13.02057c2.93566,-6.35944 3.21573,-17.10645 3.24046,-19.50471c0.01929,-1.89761 -1.37182,-3.45274 -3.10672,-3.47475c-1.70891,-0.03072 -3.15828,1.47949 -3.17925,3.39681c-0.05408,4.96203 -0.87836,12.8468 -2.48705,16.38987c-9.91216,-4.55399 -22.16883,-4.63514 -32.24786,0.01696c-1.61373,-3.53527 -2.44009,-11.43747 -2.49459,-16.40728c-0.01971,-1.89762 -1.44394,-3.42708 -3.178,-3.39727c-1.73574,0.02109 -3.12727,1.57668 -3.10798,3.4752c0.02474,2.40147 0.30564,13.17553 3.25305,19.53131c-17.32301,12.38237 -15.04098,35.47462 4.32802,45.21849c-1.95333,2.02599 -3.66224,4.36831 -5.09276,6.95363l-23.0325,-7.70277l-20.52322,-32.9136c-0.97856,-1.56797 -2.93441,-1.97326 -4.36702,-0.90365c-1.43429,1.06916 -1.8045,3.20746 -0.82637,4.77589c23.03377,36.94126 21.35127,34.77041 22.82246,35.26235l23.17169,7.74907c-0.89637,2.644 -1.53869,5.44342 -1.90553,8.34278l-30.14652,2.62246c-1.1559,0.10086 0.98861,-1.23099 -33.457,23.70384c-1.44728,1.04807 -1.84391,3.18041 -0.8859,4.76306c0.95927,1.58401 2.90967,2.01589 4.35571,0.96874l31.29528,-22.65394l28.50469,-2.47987c0.07547,2.70635 0.39159,5.37602 0.93957,7.95721c-31.77074,18.45482 -29.77505,17.06244 -30.41275,18.22375l-25.41557,46.32157c-0.89303,1.62758 -0.41046,3.73883 1.07833,4.71538c1.4867,0.97608 3.41865,0.44975 4.3121,-1.17919l24.96487,-45.50183l27.45654,-15.94836c0.86913,2.20616 1.92231,4.2945 3.14068,6.23016c-53.64188,26.85308 -15.37051,136.53849 34.28,114.23436c35.33235,-15.85025 51.77365,-92.52532 8.40492,-114.23436c1.12949,-1.79446 2.11181,-3.7237 2.94195,-5.75289l26.63605,15.472l24.96487,45.50229c0.58906,1.0742 1.6305,1.6693 2.69836,1.6693c0.55007,0 1.10768,-0.15818 1.61415,-0.49057c1.48838,-0.97654 1.97137,-3.0878 1.07834,-4.71537c-27.43683,-50.0063 -25.53339,-46.94784 -26.63563,-47.58832l-28.2917,-16.43434c0.61212,-2.71506 0.97268,-5.53145 1.0578,-8.39139l27.48714,2.39138l31.29486,22.65395c0.53331,0.38649 1.1362,0.57125 1.73197,0.57125c1.01923,0 2.01874,-0.54099 2.62374,-1.54c0.95759,-1.5831 0.56096,-3.71545 -0.88632,-4.76351zm-73.9777,-88.94512c1.37854,0.76794 2.71262,1.66241 3.95363,2.6848l0,1.14389c0,2.78016 -3.95363,2.70084 -3.95363,0l0,-3.82869zm-35.31348,2.68572c1.20454,-0.99167 2.53234,-1.8944 3.95363,-2.68985l0,3.83328c0,2.78016 -3.95363,2.70085 -3.95363,0l0,-1.14343zm9.63629,40.75299l19.99286,0c12.64154,9.07222 14.91897,31.66106 4.85629,44.93562l-29.70419,0c-10.03542,-13.23697 -7.82046,-35.83681 4.85504,-44.93562zm-18.71286,137.86623l57.41942,0c-16.51384,25.45749 -40.70727,25.76375 -57.41942,0zm67.50012,-23.90099l-31.96611,0c-1.73615,0 -3.14319,1.53908 -3.14319,3.43715s1.40662,3.43715 3.14319,3.43715l30.00481,0c-1.17519,3.50776 -2.57971,6.91099 -4.1989,10.15284l-65.26001,0c-1.61876,-3.24185 -3.0237,-6.64554 -4.19889,-10.15284l28.98516,0c1.73616,0 3.1432,-1.53908 3.1432,-3.43715s-1.40662,-3.43715 -3.1432,-3.43715l-30.94647,0c-0.81294,-3.36242 -1.41332,-6.75924 -1.79485,-10.15329l81.16928,0c-0.38111,3.39314 -0.98108,6.78994 -1.79402,10.15329zm1.74957,-27.3166c0.45113,3.49905 0.59493,6.85735 0.51569,10.28946l-82.11093,0c-0.07924,-3.42707 0.06415,-6.78583 0.5157,-10.28946l81.07954,0zm-5.18583,-17.02759c1.63638,3.10522 2.93273,6.50386 3.87312,10.15329l-78.45455,0c0.94082,-3.64989 2.2376,-7.04807 3.87355,-10.15329l70.70788,0zm-4.52844,-6.87385l-61.65101,0c3.98927,-4.82953 9.07196,-8.54543 15.12609,-10.93774l31.39884,0c6.05371,2.39276 11.13724,6.10867 15.12608,10.93774z" xmlns="http://www.w3.org/2000/svg"/>
   <g stroke="null" id="svg_113" xmlns="http://www.w3.org/2000/svg"/>
   <g stroke="null" id="svg_114" xmlns="http://www.w3.org/2000/svg"/>
   <g stroke="null" id="svg_115" xmlns="http://www.w3.org/2000/svg"/>
   <g stroke="null" id="svg_116" xmlns="http://www.w3.org/2000/svg"/>
   <g stroke="null" id="svg_117" xmlns="http://www.w3.org/2000/svg"/>
   <g stroke="null" id="svg_118" xmlns="http://www.w3.org/2000/svg"/>
   <g stroke="null" id="svg_119" xmlns="http://www.w3.org/2000/svg"/>
   <g stroke="null" id="svg_120" xmlns="http://www.w3.org/2000/svg"/>
   <g stroke="null" id="svg_121" xmlns="http://www.w3.org/2000/svg"/>
   <g stroke="null" id="svg_122" xmlns="http://www.w3.org/2000/svg"/>
   <g stroke="null" id="svg_123" xmlns="http://www.w3.org/2000/svg"/>
   <g stroke="null" id="svg_124" xmlns="http://www.w3.org/2000/svg"/>
   <g stroke="null" id="svg_125" xmlns="http://www.w3.org/2000/svg"/>
   <g stroke="null" id="svg_126" xmlns="http://www.w3.org/2000/svg"/>
   <g stroke="null" id="svg_127" xmlns="http://www.w3.org/2000/svg"/>
  </g>
  <g transform="rotate(90.1747 128.002 350.501)" stroke="null" id="svg_160">
   <path stroke="null" id="svg_129" data-original="#585a60" fill="#1f1f1f" d="m144.61801,352.11372l-32.47969,0c-50.47982,19.1925 -25.01226,112.20013 16.24005,112.20013c41.24057,-0.00046 66.73329,-93.00213 16.23964,-112.20013z" xmlns="http://www.w3.org/2000/svg"/>
   <path stroke="null" id="svg_130" data-original="#424449" fill="#1f1f1f" d="m112.10393,352.76567l32.54804,0c12.63988,-15.27074 9.9327,-42.85554 -5.3745,-53.15875l-21.80029,0c-15.30511,10.30367 -18.01311,37.89122 -5.37325,53.15875z" xmlns="http://www.w3.org/2000/svg"/>
   <path stroke="null" id="svg_131" data-original="#585a60" fill="#1f1f1f" d="m117.48724,300.30426l21.78226,0c11.29866,-3.54811 19.31618,-12.44656 19.31618,-22.86943c0,-13.54139 -13.52451,-24.51901 -30.20731,-24.51901s-30.20772,10.97762 -30.20772,24.51901c0,10.42332 8.01626,19.32178 19.31659,22.86943z" xmlns="http://www.w3.org/2000/svg"/>
   <path stroke="null" id="svg_132" data-original="#424449" fill="#1f1f1f" d="m120.55287,352.11372l-8.41455,0c-52.28013,19.87699 -23.04215,118.73471 20.44691,111.86361c-38.85455,-6.13846 -60.6821,-93.36662 -12.03236,-111.86361z" xmlns="http://www.w3.org/2000/svg"/>
   <path stroke="null" id="svg_133" data-original="#32353a" fill="#1f1f1f" d="m125.89174,299.60692l-8.41456,0c-15.30553,10.30367 -18.01311,37.89076 -5.37325,53.15875l8.41457,0c-12.63987,-15.26799 -9.93145,-42.85554 5.37324,-53.15875z" xmlns="http://www.w3.org/2000/svg"/>
   <path stroke="null" id="svg_134" data-original="#424449" fill="#1f1f1f" d="m106.58521,277.43483c0,-12.38192 11.31039,-22.61452 26.00044,-24.27693c-18.30031,-2.07184 -34.41458,9.46145 -34.41458,24.27693c0,10.42332 8.01626,19.32178 19.31659,22.86943l8.41456,0c-11.30075,-3.54765 -19.31701,-12.44611 -19.31701,-22.86943z" xmlns="http://www.w3.org/2000/svg"/>
   <path stroke="null" id="svg_135" data-original="#75777c" fill="#1f1f1f" d="m85.17776,386.9529l86.39997,0c-1.14835,-6.46627 -3.23376,-12.15772 -6.07761,-17.02714l-74.24392,0c-2.84426,4.86942 -4.92966,10.56087 -6.07844,17.02714z" xmlns="http://www.w3.org/2000/svg"/>
   <path stroke="null" id="svg_136" data-original="#585a60" fill="#1f1f1f" d="m91.2562,369.92531c-2.91428,4.78001 -5.07976,11.34897 -6.07844,17.02713l8.41456,0c1.14877,-6.46672 3.23376,-12.15772 6.07844,-17.02713l-8.41456,0z" xmlns="http://www.w3.org/2000/svg"/>
   <path stroke="null" id="svg_137" data-original="#75777c" fill="#1f1f1f" d="m87.20908,421.14335l82.33817,0c1.51395,-5.52687 2.50089,-11.26967 2.8778,-17.02714l-88.09503,0c0.37775,5.75701 1.36427,11.50073 2.87906,17.02714z" xmlns="http://www.w3.org/2000/svg"/>
   <path stroke="null" id="svg_138" data-original="#585a60" fill="#1f1f1f" d="m95.6249,421.14335c-1.51521,-5.52641 -2.50341,-11.26921 -2.8799,-17.02714l-8.41373,0c0.39159,5.89547 1.38524,11.57363 2.87823,17.02714l8.4154,0z" xmlns="http://www.w3.org/2000/svg"/>
   <path stroke="null" id="svg_139" data-original="#75777c" fill="#1f1f1f" d="m93.91893,438.17048c18.4831,34.82588 50.46178,34.77224 68.91637,0l-68.91637,0z" xmlns="http://www.w3.org/2000/svg"/>
   <path stroke="null" id="svg_140" data-original="#585a60" fill="#1f1f1f" d="m132.58188,463.97688c-12.20719,-1.93017 -22.96877,-12.09354 -30.24798,-25.8064l-8.41455,0c8.29213,15.69437 22.31388,28.37612 38.66253,25.8064z" xmlns="http://www.w3.org/2000/svg"/>
   <g stroke="null" id="svg_143" xmlns="http://www.w3.org/2000/svg">
    <path stroke="null" id="svg_141" data-original="#75777c" fill="#1f1f1f" d="m105.60162,261.33884l0,2.79255c0,3.0369 2.25185,5.49935 5.02903,5.49935c3.19603,0 5.21057,-2.65317 5.21057,-5.49935l0,-9.00299c-3.94189,1.46206 -7.42678,3.59074 -10.2396,6.21044z"/>
    <path stroke="null" id="svg_142" data-original="#75777c" fill="#1f1f1f" d="m140.91468,255.1284l0,9.00345c0,3.0369 2.25185,5.49935 5.02904,5.49935c3.19602,0 5.21057,-2.65317 5.21057,-5.49935l0,-2.79301c-2.81241,-2.6197 -6.29772,-4.74838 -10.23961,-6.21044z"/>
   </g>
   <path stroke="null" id="svg_144" data-original="#000000" fill="#1f1f1f" d="m218.16932,349.24782l-31.97114,-23.14313c-0.444,-0.32139 -0.95465,-0.51441 -1.48544,-0.56025l-29.11597,-2.53351c-0.37901,-3.04333 -1.0624,-5.97662 -2.02293,-8.73754c24.04502,-8.04111 23.07946,-7.42034 23.93558,-8.79392l21.14457,-33.91169c0.97814,-1.56797 0.60793,-3.70628 -0.82636,-4.77589c-1.4347,-1.06961 -3.38972,-0.66478 -4.36702,0.90364l-20.52322,32.91406l-22.17679,7.41668c-1.40075,-2.47849 -3.05808,-4.72957 -4.94518,-6.68404c6.04993,-3.07496 10.85131,-7.71835 13.56099,-13.26813c0.81755,-1.67434 0.23897,-3.75671 -1.29259,-4.65027c-1.53239,-0.89402 -3.43541,-0.26133 -4.25255,1.41346c-2.64428,5.41637 -8.05274,9.78331 -14.8804,12.03118l-20.8775,0c-13.36813,-4.40223 -20.72699,-16.83503 -14.25318,-28.04831c4.3058,7.60007 15.29797,4.37015 15.29797,-4.6874l0,-6.46856c5.80802,-1.67984 12.46588,-1.82517 18.78749,0.02338l0,6.44427c0,9.13089 11.01356,12.19944 15.2854,4.70986c0.53078,0.91694 0.98653,1.86873 1.34919,2.85535c0.64733,1.76145 2.47867,2.61375 4.08904,1.90724c1.61038,-0.70787 2.39105,-2.70956 1.7437,-4.471c-1.91853,-5.21923 -5.51201,-9.67556 -10.20102,-13.02057c2.93566,-6.35944 3.21573,-17.10645 3.24046,-19.50471c0.01929,-1.89761 -1.37182,-3.45274 -3.10672,-3.47475c-1.70891,-0.03072 -3.15828,1.47949 -3.17925,3.39681c-0.05408,4.96203 -0.87836,12.8468 -2.48705,16.38987c-9.91216,-4.55399 -22.16883,-4.63514 -32.24786,0.01696c-1.61373,-3.53527 -2.44009,-11.43747 -2.49459,-16.40728c-0.01971,-1.89762 -1.44394,-3.42708 -3.178,-3.39727c-1.73574,0.02109 -3.12727,1.57668 -3.10798,3.4752c0.02474,2.40147 0.30564,13.17553 3.25305,19.53131c-17.32301,12.38237 -15.04098,35.47462 4.32802,45.21849c-1.95333,2.02599 -3.66224,4.36831 -5.09276,6.95363l-23.0325,-7.70277l-20.52322,-32.9136c-0.97856,-1.56797 -2.93441,-1.97326 -4.36702,-0.90365c-1.43429,1.06916 -1.8045,3.20746 -0.82637,4.77589c23.03377,36.94126 21.35127,34.77041 22.82246,35.26235l23.17169,7.74907c-0.89637,2.644 -1.53869,5.44342 -1.90553,8.34278l-30.14652,2.62246c-1.1559,0.10086 0.98861,-1.23099 -33.457,23.70384c-1.44728,1.04807 -1.84391,3.18041 -0.8859,4.76306c0.95927,1.58401 2.90967,2.01589 4.35571,0.96874l31.29528,-22.65394l28.50469,-2.47987c0.07547,2.70635 0.39159,5.37602 0.93957,7.95721c-31.77074,18.45482 -29.77505,17.06244 -30.41275,18.22375l-25.41557,46.32157c-0.89303,1.62758 -0.41046,3.73883 1.07833,4.71538c1.4867,0.97608 3.41865,0.44975 4.3121,-1.17919l24.96487,-45.50183l27.45654,-15.94836c0.86913,2.20616 1.92231,4.2945 3.14068,6.23016c-53.64188,26.85308 -15.37051,136.53849 34.28,114.23436c35.33235,-15.85025 51.77365,-92.52532 8.40492,-114.23436c1.12949,-1.79446 2.11181,-3.7237 2.94195,-5.75289l26.63605,15.472l24.96487,45.50229c0.58906,1.0742 1.6305,1.6693 2.69836,1.6693c0.55007,0 1.10768,-0.15818 1.61415,-0.49057c1.48838,-0.97654 1.97137,-3.0878 1.07834,-4.71537c-27.43683,-50.0063 -25.53339,-46.94784 -26.63563,-47.58832l-28.2917,-16.43434c0.61212,-2.71506 0.97268,-5.53145 1.0578,-8.39139l27.48714,2.39138l31.29486,22.65395c0.53331,0.38649 1.1362,0.57125 1.73197,0.57125c1.01923,0 2.01874,-0.54099 2.62374,-1.54c0.95759,-1.5831 0.56096,-3.71545 -0.88632,-4.76351zm-73.9777,-88.94512c1.37854,0.76794 2.71262,1.66241 3.95363,2.6848l0,1.14389c0,2.78016 -3.95363,2.70084 -3.95363,0l0,-3.82869zm-35.31348,2.68572c1.20454,-0.99167 2.53234,-1.8944 3.95363,-2.68985l0,3.83328c0,2.78016 -3.95363,2.70085 -3.95363,0l0,-1.14343zm9.63629,40.75299l19.99286,0c12.64154,9.07222 14.91897,31.66106 4.85629,44.93562l-29.70419,0c-10.03542,-13.23697 -7.82046,-35.83681 4.85504,-44.93562zm-18.71286,137.86623l57.41942,0c-16.51384,25.45749 -40.70727,25.76375 -57.41942,0zm67.50012,-23.90099l-31.96611,0c-1.73615,0 -3.14319,1.53908 -3.14319,3.43715s1.40662,3.43715 3.14319,3.43715l30.00481,0c-1.17519,3.50776 -2.57971,6.91099 -4.1989,10.15284l-65.26001,0c-1.61876,-3.24185 -3.0237,-6.64554 -4.19889,-10.15284l28.98516,0c1.73616,0 3.1432,-1.53908 3.1432,-3.43715s-1.40662,-3.43715 -3.1432,-3.43715l-30.94647,0c-0.81294,-3.36242 -1.41332,-6.75924 -1.79485,-10.15329l81.16928,0c-0.38111,3.39314 -0.98108,6.78994 -1.79402,10.15329zm1.74957,-27.3166c0.45113,3.49905 0.59493,6.85735 0.51569,10.28946l-82.11093,0c-0.07924,-3.42707 0.06415,-6.78583 0.5157,-10.28946l81.07954,0zm-5.18583,-17.02759c1.63638,3.10522 2.93273,6.50386 3.87312,10.15329l-78.45455,0c0.94082,-3.64989 2.2376,-7.04807 3.87355,-10.15329l70.70788,0zm-4.52844,-6.87385l-61.65101,0c3.98927,-4.82953 9.07196,-8.54543 15.12609,-10.93774l31.39884,0c6.05371,2.39276 11.13724,6.10867 15.12608,10.93774z" xmlns="http://www.w3.org/2000/svg"/>
   <g stroke="null" id="svg_145" xmlns="http://www.w3.org/2000/svg"/>
   <g stroke="null" id="svg_146" xmlns="http://www.w3.org/2000/svg"/>
   <g stroke="null" id="svg_147" xmlns="http://www.w3.org/2000/svg"/>
   <g stroke="null" id="svg_148" xmlns="http://www.w3.org/2000/svg"/>
   <g stroke="null" id="svg_149" xmlns="http://www.w3.org/2000/svg"/>
   <g stroke="null" id="svg_150" xmlns="http://www.w3.org/2000/svg"/>
   <g stroke="null" id="svg_151" xmlns="http://www.w3.org/2000/svg"/>
   <g stroke="null" id="svg_152" xmlns="http://www.w3.org/2000/svg"/>
   <g stroke="null" id="svg_153" xmlns="http://www.w3.org/2000/svg"/>
   <g stroke="null" id="svg_154" xmlns="http://www.w3.org/2000/svg"/>
   <g stroke="null" id="svg_155" xmlns="http://www.w3.org/2000/svg"/>
   <g stroke="null" id="svg_156" xmlns="http://www.w3.org/2000/svg"/>
   <g stroke="null" id="svg_157" xmlns="http://www.w3.org/2000/svg"/>
   <g stroke="null" id="svg_158" xmlns="http://www.w3.org/2000/svg"/>
   <g stroke="null" id="svg_159" xmlns="http://www.w3.org/2000/svg"/>
  </g>
  <g transform="rotate(90.1747 380.002 350.501)" stroke="null" id="svg_192">
   <path stroke="null" id="svg_161" data-original="#585a60" fill="#1f1f1f" d="m396.61801,352.11372l-32.47969,0c-50.47982,19.1925 -25.01226,112.20013 16.24005,112.20013c41.24057,-0.00046 66.73329,-93.00213 16.23964,-112.20013z" xmlns="http://www.w3.org/2000/svg"/>
   <path stroke="null" id="svg_162" data-original="#424449" fill="#1f1f1f" d="m364.10393,352.76567l32.54804,0c12.63988,-15.27074 9.9327,-42.85554 -5.3745,-53.15875l-21.80029,0c-15.30511,10.30367 -18.01311,37.89122 -5.37325,53.15875z" xmlns="http://www.w3.org/2000/svg"/>
   <path stroke="null" id="svg_163" data-original="#585a60" fill="#1f1f1f" d="m369.48724,300.30426l21.78226,0c11.29866,-3.54811 19.31618,-12.44656 19.31618,-22.86943c0,-13.54139 -13.52451,-24.51901 -30.20731,-24.51901s-30.20772,10.97762 -30.20772,24.51901c0,10.42332 8.01626,19.32178 19.31659,22.86943z" xmlns="http://www.w3.org/2000/svg"/>
   <path stroke="null" id="svg_164" data-original="#424449" fill="#1f1f1f" d="m372.55287,352.11372l-8.41455,0c-52.28013,19.87699 -23.04215,118.73471 20.44691,111.86361c-38.85455,-6.13846 -60.6821,-93.36662 -12.03236,-111.86361z" xmlns="http://www.w3.org/2000/svg"/>
   <path stroke="null" id="svg_165" data-original="#32353a" fill="#1f1f1f" d="m377.89174,299.60692l-8.41456,0c-15.30553,10.30367 -18.01311,37.89076 -5.37325,53.15875l8.41457,0c-12.63987,-15.26799 -9.93145,-42.85554 5.37324,-53.15875z" xmlns="http://www.w3.org/2000/svg"/>
   <path stroke="null" id="svg_166" data-original="#424449" fill="#1f1f1f" d="m358.58521,277.43483c0,-12.38192 11.31039,-22.61452 26.00044,-24.27693c-18.30031,-2.07184 -34.41458,9.46145 -34.41458,24.27693c0,10.42332 8.01626,19.32178 19.31659,22.86943l8.41456,0c-11.30075,-3.54765 -19.31701,-12.44611 -19.31701,-22.86943z" xmlns="http://www.w3.org/2000/svg"/>
   <path stroke="null" id="svg_167" data-original="#75777c" fill="#1f1f1f" d="m337.17776,386.9529l86.39997,0c-1.14835,-6.46627 -3.23376,-12.15772 -6.07761,-17.02714l-74.24392,0c-2.84426,4.86942 -4.92966,10.56087 -6.07844,17.02714z" xmlns="http://www.w3.org/2000/svg"/>
   <path stroke="null" id="svg_168" data-original="#585a60" fill="#1f1f1f" d="m343.2562,369.92531c-2.91428,4.78001 -5.07976,11.34897 -6.07844,17.02713l8.41456,0c1.14877,-6.46672 3.23376,-12.15772 6.07844,-17.02713l-8.41456,0z" xmlns="http://www.w3.org/2000/svg"/>
   <path stroke="null" id="svg_169" data-original="#75777c" fill="#1f1f1f" d="m339.20908,421.14335l82.33817,0c1.51395,-5.52687 2.50089,-11.26967 2.8778,-17.02714l-88.09503,0c0.37775,5.75701 1.36427,11.50073 2.87906,17.02714z" xmlns="http://www.w3.org/2000/svg"/>
   <path stroke="null" id="svg_170" data-original="#585a60" fill="#1f1f1f" d="m347.6249,421.14335c-1.51521,-5.52641 -2.50341,-11.26921 -2.8799,-17.02714l-8.41373,0c0.39159,5.89547 1.38524,11.57363 2.87823,17.02714l8.4154,0z" xmlns="http://www.w3.org/2000/svg"/>
   <path stroke="null" id="svg_171" data-original="#75777c" fill="#1f1f1f" d="m345.91893,438.17048c18.4831,34.82588 50.46178,34.77224 68.91637,0l-68.91637,0z" xmlns="http://www.w3.org/2000/svg"/>
   <path stroke="null" id="svg_172" data-original="#585a60" fill="#1f1f1f" d="m384.58188,463.97688c-12.20719,-1.93017 -22.96877,-12.09354 -30.24798,-25.8064l-8.41455,0c8.29213,15.69437 22.31388,28.37612 38.66253,25.8064z" xmlns="http://www.w3.org/2000/svg"/>
   <g stroke="null" id="svg_175" xmlns="http://www.w3.org/2000/svg">
    <path stroke="null" id="svg_173" data-original="#75777c" fill="#1f1f1f" d="m357.60162,261.33884l0,2.79255c0,3.0369 2.25185,5.49935 5.02903,5.49935c3.19603,0 5.21057,-2.65317 5.21057,-5.49935l0,-9.00299c-3.94189,1.46206 -7.42678,3.59074 -10.2396,6.21044z"/>
    <path stroke="null" id="svg_174" data-original="#75777c" fill="#1f1f1f" d="m392.91468,255.1284l0,9.00345c0,3.0369 2.25185,5.49935 5.02904,5.49935c3.19602,0 5.21057,-2.65317 5.21057,-5.49935l0,-2.79301c-2.81241,-2.6197 -6.29772,-4.74838 -10.23961,-6.21044z"/>
   </g>
   <path stroke="null" id="svg_176" data-original="#000000" fill="#1f1f1f" d="m470.16932,349.24782l-31.97114,-23.14313c-0.444,-0.32139 -0.95465,-0.51441 -1.48544,-0.56025l-29.11597,-2.53351c-0.37901,-3.04333 -1.0624,-5.97662 -2.02293,-8.73754c24.04502,-8.04111 23.07946,-7.42034 23.93558,-8.79392l21.14457,-33.91169c0.97814,-1.56797 0.60793,-3.70628 -0.82636,-4.77589c-1.4347,-1.06961 -3.38972,-0.66478 -4.36702,0.90364l-20.52322,32.91406l-22.17679,7.41668c-1.40075,-2.47849 -3.05808,-4.72957 -4.94518,-6.68404c6.04993,-3.07496 10.85131,-7.71835 13.56099,-13.26813c0.81755,-1.67434 0.23897,-3.75671 -1.29259,-4.65027c-1.53239,-0.89402 -3.43541,-0.26133 -4.25255,1.41346c-2.64428,5.41637 -8.05274,9.78331 -14.8804,12.03118l-20.8775,0c-13.36813,-4.40223 -20.72699,-16.83503 -14.25318,-28.04831c4.3058,7.60007 15.29797,4.37015 15.29797,-4.6874l0,-6.46856c5.80802,-1.67984 12.46588,-1.82517 18.78749,0.02338l0,6.44427c0,9.13089 11.01356,12.19944 15.2854,4.70986c0.53078,0.91694 0.98653,1.86873 1.34919,2.85535c0.64733,1.76145 2.47867,2.61375 4.08904,1.90724c1.61038,-0.70787 2.39105,-2.70956 1.7437,-4.471c-1.91853,-5.21923 -5.51201,-9.67556 -10.20102,-13.02057c2.93566,-6.35944 3.21573,-17.10645 3.24046,-19.50471c0.01929,-1.89761 -1.37182,-3.45274 -3.10672,-3.47475c-1.70891,-0.03072 -3.15828,1.47949 -3.17925,3.39681c-0.05408,4.96203 -0.87836,12.8468 -2.48705,16.38987c-9.91216,-4.55399 -22.16883,-4.63514 -32.24786,0.01696c-1.61373,-3.53527 -2.44009,-11.43747 -2.49459,-16.40728c-0.01971,-1.89762 -1.44394,-3.42708 -3.178,-3.39727c-1.73574,0.02109 -3.12727,1.57668 -3.10798,3.4752c0.02474,2.40147 0.30564,13.17553 3.25305,19.53131c-17.32301,12.38237 -15.04098,35.47462 4.32802,45.21849c-1.95333,2.02599 -3.66224,4.36831 -5.09276,6.95363l-23.0325,-7.70277l-20.52322,-32.9136c-0.97856,-1.56797 -2.93441,-1.97326 -4.36702,-0.90365c-1.43429,1.06916 -1.8045,3.20746 -0.82637,4.77589c23.03377,36.94126 21.35127,34.77041 22.82246,35.26235l23.17169,7.74907c-0.89637,2.644 -1.53869,5.44342 -1.90553,8.34278l-30.14652,2.62246c-1.1559,0.10086 0.98861,-1.23099 -33.457,23.70384c-1.44728,1.04807 -1.84391,3.18041 -0.8859,4.76306c0.95927,1.58401 2.90967,2.01589 4.35571,0.96874l31.29528,-22.65394l28.50469,-2.47987c0.07547,2.70635 0.39159,5.37602 0.93957,7.95721c-31.77074,18.45482 -29.77505,17.06244 -30.41275,18.22375l-25.41557,46.32157c-0.89303,1.62758 -0.41046,3.73883 1.07833,4.71538c1.4867,0.97608 3.41865,0.44975 4.3121,-1.17919l24.96487,-45.50183l27.45654,-15.94836c0.86913,2.20616 1.92231,4.2945 3.14068,6.23016c-53.64188,26.85308 -15.37051,136.53849 34.28,114.23436c35.33235,-15.85025 51.77365,-92.52532 8.40492,-114.23436c1.12949,-1.79446 2.11181,-3.7237 2.94195,-5.75289l26.63605,15.472l24.96487,45.50229c0.58906,1.0742 1.6305,1.6693 2.69836,1.6693c0.55007,0 1.10768,-0.15818 1.61415,-0.49057c1.48838,-0.97654 1.97137,-3.0878 1.07834,-4.71537c-27.43683,-50.0063 -25.53339,-46.94784 -26.63563,-47.58832l-28.2917,-16.43434c0.61212,-2.71506 0.97268,-5.53145 1.0578,-8.39139l27.48714,2.39138l31.29486,22.65395c0.53331,0.38649 1.1362,0.57125 1.73197,0.57125c1.01923,0 2.01874,-0.54099 2.62374,-1.54c0.95759,-1.5831 0.56096,-3.71545 -0.88632,-4.76351zm-73.9777,-88.94512c1.37854,0.76794 2.71262,1.66241 3.95363,2.6848l0,1.14389c0,2.78016 -3.95363,2.70084 -3.95363,0l0,-3.82869zm-35.31348,2.68572c1.20454,-0.99167 2.53234,-1.8944 3.95363,-2.68985l0,3.83328c0,2.78016 -3.95363,2.70085 -3.95363,0l0,-1.14343zm9.63629,40.75299l19.99286,0c12.64154,9.07222 14.91897,31.66106 4.85629,44.93562l-29.70419,0c-10.03542,-13.23697 -7.82046,-35.83681 4.85504,-44.93562zm-18.71286,137.86623l57.41942,0c-16.51384,25.45749 -40.70727,25.76375 -57.41942,0zm67.50012,-23.90099l-31.96611,0c-1.73615,0 -3.14319,1.53908 -3.14319,3.43715s1.40662,3.43715 3.14319,3.43715l30.00481,0c-1.17519,3.50776 -2.57971,6.91099 -4.1989,10.15284l-65.26001,0c-1.61876,-3.24185 -3.0237,-6.64554 -4.19889,-10.15284l28.98516,0c1.73616,0 3.1432,-1.53908 3.1432,-3.43715s-1.40662,-3.43715 -3.1432,-3.43715l-30.94647,0c-0.81294,-3.36242 -1.41332,-6.75924 -1.79485,-10.15329l81.16928,0c-0.38111,3.39314 -0.98108,6.78994 -1.79402,10.15329zm1.74957,-27.3166c0.45113,3.49905 0.59493,6.85735 0.51569,10.28946l-82.11093,0c-0.07924,-3.42707 0.06415,-6.78583 0.5157,-10.28946l81.07954,0zm-5.18583,-17.02759c1.63638,3.10522 2.93273,6.50386 3.87312,10.15329l-78.45455,0c0.94082,-3.64989 2.2376,-7.04807 3.87355,-10.15329l70.70788,0zm-4.52844,-6.87385l-61.65101,0c3.98927,-4.82953 9.07196,-8.54543 15.12609,-10.93774l31.39884,0c6.05371,2.39276 11.13724,6.10867 15.12608,10.93774z" xmlns="http://www.w3.org/2000/svg"/>
   <g stroke="null" id="svg_177" xmlns="http://www.w3.org/2000/svg"/>
   <g stroke="null" id="svg_178" xmlns="http://www.w3.org/2000/svg"/>
   <g stroke="null" id="svg_179" xmlns="http://www.w3.org/2000/svg"/>
   <g stroke="null" id="svg_180" xmlns="http://www.w3.org/2000/svg"/>
   <g stroke="null" id="svg_181" xmlns="http://www.w3.org/2000/svg"/>
   <g stroke="null" id="svg_182" xmlns="http://www.w3.org/2000/svg"/>
   <g stroke="null" id="svg_183" xmlns="http://www.w3.org/2000/svg"/>
   <g stroke="null" id="svg_184" xmlns="http://www.w3.org/2000/svg"/>
   <g stroke="null" id="svg_185" xmlns="http://www.w3.org/2000/svg"/>
   <g stroke="null" id="svg_186" xmlns="http://www.w3.org/2000/svg"/>
   <g stroke="null" id="svg_187" xmlns="http://www.w3.org/2000/svg"/>
   <g stroke="null" id="svg_188" xmlns="http://www.w3.org/2000/svg"/>
   <g stroke="null" id="svg_189" xmlns="http://www.w3.org/2000/svg"/>
   <g stroke="null" id="svg_190" xmlns="http://www.w3.org/2000/svg"/>
   <g stroke="null" id="svg_191" xmlns="http://www.w3.org/2000/svg"/>
  </g>
 </g>
</svg>