<?xml version="1.0" encoding="iso-8859-1"?>
<!-- Generator: Adobe Illustrator 19.0.0, SVG Export Plug-In . SVG Version: 6.00 Build 0)  -->
<svg version="1.1" id="Capa_1" xmlns="http://www.w3.org/2000/svg" xmlns:xlink="http://www.w3.org/1999/xlink" x="0px" y="0px"
	 viewBox="0 0 512 512" style="enable-background:new 0 0 512 512;" xml:space="preserve">
<ellipse style="fill:#784141;" cx="256.002" cy="231.951" rx="32.06" ry="28.06"/>
<path style="fill:#8C5A50;" d="M280.051,143.776c0,13.282-15.194,40.081-24.048,40.081s-24.048-26.799-24.048-40.081
	s15.194-16.032,24.048-16.032S280.051,130.494,280.051,143.776z"/>
<circle style="fill:#FFB45A;" cx="256.002" cy="368.231" r="136.27"/>
<path style="fill:#8C5A50;" d="M319.013,350.251l-3.249-12.996c-1.338-5.353-6.148-9.108-11.665-9.108h-96.194
	c-5.517,0-10.327,3.755-11.665,9.108l-3.249,12.996c-1.265,5.06,2.562,9.96,7.777,9.96h110.468
	C316.452,360.211,320.278,355.31,319.013,350.251z"/>
<path style="fill:#9E6A58;" d="M259.596,71.631h-7.188c-15.089,0.297-23.713,22.927-19.3,32.14
	c4.194,8.757,15.983,4.285,22.894,4.285c6.911,0,18.701,4.472,22.894-4.285C283.309,94.557,274.685,71.928,259.596,71.631z"/>
<path style="fill:#FF9655;" d="M354.256,273.95c8.885,16.071,13.972,34.533,13.972,54.196c0,61.981-50.245,112.226-112.226,112.226
	s-112.226-50.245-112.226-112.226c0-19.664,5.087-38.125,13.972-54.196c-23.5,24.486-38.02,57.658-38.02,94.277
	c0,75.262,61.012,136.274,136.274,136.274s136.274-61.012,136.274-136.274C392.277,331.609,377.757,298.436,354.256,273.95z"/>
<path style="fill:#784141;" d="M256.002,504.502c27.37,0,52.803-8.147,74.155-22.036l-6.859-12.004
	c-4.157-7.274-13.279-10.261-20.769-6.507c-14.002,7.02-29.795,10.987-46.527,10.987s-32.524-3.967-46.527-10.987
	c-7.49-3.754-16.612-0.767-20.769,6.507l-6.859,12.004C203.2,496.355,228.632,504.502,256.002,504.502z"/>
<path d="M295.343,229.924c-1.837-16.697-14.942-30.201-31.84-33.334v-7.551c2.405-1.459,4.673-3.502,6.757-5.831l35.374,14.15
	c1.688,0.675,3.244,1.617,4.624,2.8l53.09,45.506c1.415,1.212,3.15,1.806,4.877,1.806c2.113,0,4.214-0.889,5.698-2.619
	c2.696-3.145,2.332-7.879-0.813-10.575l-53.089-45.505c-2.631-2.255-5.597-4.052-8.815-5.339l-32.228-12.891
	c0.569-1.035,1.135-2.114,1.691-3.231h25.824c5.322,0,10.543-1.831,14.7-5.157l35.689-28.552c3.235-2.587,3.759-7.307,1.171-10.542
	c-2.588-3.234-7.308-3.76-10.542-1.171l-35.689,28.551c-1.507,1.206-3.4,1.87-5.33,1.87h-20.124
	c0.738-2.972,1.183-5.874,1.183-8.532c0-0.425-0.013-0.844-0.034-1.259l6.34,1.585c1.235,0.309,2.494,0.461,3.749,0.461
	c3.001,0,5.976-0.869,8.521-2.538c3.61-2.367,6.088-6.167,6.798-10.425l6.588-39.532c0.681-4.086-2.079-7.95-6.165-8.631
	c-4.085-0.683-7.95,2.079-8.631,6.165l-6.588,39.531c-0.01,0.061-0.037,0.223-0.226,0.347c-0.19,0.124-0.348,0.084-0.409,0.069
	l-23.641-5.91c-0.042-0.01-0.083-0.015-0.125-0.024c-3.001-1.344-6.429-2.31-10.227-2.853v-4.401
	c1.516,0.163,3.16,0.294,4.887,0.294c6.317,0,13.471-1.709,17.271-9.646c3.551-7.415,1.912-19.279-3.987-28.852
	c-1.524-2.473-3.262-4.644-5.156-6.507c29.779-37.476,63.117-57.489,63.465-57.695c3.562-2.108,4.744-6.704,2.639-10.269
	c-2.106-3.566-6.705-4.75-10.272-2.644c-1.545,0.913-37.296,22.297-69.263,63.415c-1.102-0.191-2.217-0.304-3.343-0.326
	c-0.049-0.001-0.098-0.001-0.147-0.001h-7.188c-0.049,0-0.098,0-0.147,0.001c-1.126,0.022-2.241,0.135-3.343,0.326
	C216.95,23.341,181.2,1.956,179.655,1.044c-3.566-2.105-8.159-0.922-10.266,2.641c-2.108,3.563-0.928,8.162,2.633,10.272
	c0.348,0.207,33.685,20.219,63.465,57.695c-1.894,1.862-3.632,4.033-5.156,6.506c-5.899,9.573-7.539,21.437-3.988,28.853
	c4.835,10.097,15.096,10.113,22.159,9.356v4.395c-3.798,0.543-7.226,1.509-10.226,2.853c-0.042,0.01-0.083,0.014-0.125,0.025
	l-23.641,5.91c-0.06,0.015-0.219,0.055-0.409-0.069c-0.189-0.124-0.216-0.286-0.226-0.347l-6.588-39.532
	c-0.681-4.085-4.543-6.845-8.631-6.165c-4.086,0.681-6.846,4.545-6.165,8.631l6.588,39.532c0.71,4.258,3.188,8.058,6.798,10.425
	c2.546,1.669,5.52,2.538,8.521,2.538c1.254,0,2.515-0.152,3.749-0.461l6.34-1.585c-0.022,0.416-0.034,0.835-0.034,1.259
	c0,2.658,0.446,5.56,1.183,8.532h-20.124c-1.93,0-3.823-0.664-5.33-1.87l-35.689-28.552c-3.234-2.587-7.954-2.063-10.542,1.171
	s-2.063,7.954,1.171,10.542l35.689,28.552c4.157,3.325,9.378,5.156,14.7,5.156h25.824c0.556,1.117,1.122,2.196,1.691,3.231
	l-32.228,12.891c-3.219,1.288-6.185,3.084-8.815,5.339l-53.09,45.506c-3.145,2.696-3.509,7.43-0.813,10.575
	c1.483,1.731,3.584,2.619,5.698,2.619c1.728,0,3.463-0.593,4.877-1.806l53.09-45.506c1.379-1.182,2.935-2.125,4.624-2.8
	l35.374-14.149c2.084,2.329,4.352,4.372,6.757,5.831v7.551c-16.899,3.133-30.004,16.637-31.84,33.334
	c-60.215,17.152-104.434,72.661-104.434,138.303C112.226,447.503,176.723,512,256,512s143.774-64.497,143.774-143.774
	C399.777,302.585,355.558,247.076,295.343,229.924z M239.872,100.532c-0.896-1.871-0.583-8.318,3.229-14.505
	c1.557-2.526,4.842-6.77,9.394-6.896h7.015c4.552,0.127,7.837,4.371,9.394,6.897c3.812,6.187,4.125,12.633,3.228,14.504
	c-0.711,1.488-3.77,1.373-9.54,0.611c-2.187-0.289-4.448-0.587-6.589-0.587c-2.141,0-4.403,0.299-6.589,0.587
	C243.644,101.905,240.584,102.019,239.872,100.532z M239.454,143.776c0-8.122,13.785-8.533,16.548-8.533s16.548,0.411,16.548,8.533
	c0,9.311-9.587,26.348-15.241,31.366c-0.743,0.66-1.871,0.66-2.614,0C249.041,170.124,239.454,153.087,239.454,143.776z
	 M256.002,210.896c10.698,0,19.816,6.457,23.178,15.435c-7.548-1.229-15.288-1.877-23.178-1.877c-7.89,0-15.63,0.649-23.178,1.877
	C236.186,217.352,245.304,210.896,256.002,210.896z M256.002,497.002c-23.746,0-46.006-6.468-65.126-17.724l4.342-7.599
	c2.238-3.917,7.026-5.465,10.896-3.524c15.596,7.818,32.38,11.782,49.888,11.782s34.292-3.964,49.888-11.782
	c3.872-1.941,8.658-0.393,10.896,3.524l4.342,7.599C302.009,490.534,279.748,497.002,256.002,497.002z M333.622,470.909
	l-3.813-6.672c-6.19-10.832-19.647-15.001-30.642-9.491c-13.49,6.763-28.013,10.191-43.166,10.191
	c-15.153,0-29.676-3.429-43.166-10.191c-10.993-5.511-24.452-1.341-30.642,9.491l-3.812,6.672
	c-31.055-23.533-51.155-60.802-51.155-102.682c0-71.006,57.768-128.774,128.774-128.774s128.774,57.768,128.774,128.774
	C384.777,410.107,364.677,447.376,333.622,470.909z"/>
<path d="M323.04,335.436c-2.177-8.708-9.966-14.789-18.941-14.789h-7.349c-4.142,0-7.5,3.358-7.5,7.5s3.358,7.5,7.5,7.5h7.349
	c2.08,0,3.885,1.409,4.389,3.427l3.249,12.996c0.019,0.073,0.062,0.244-0.094,0.442c-0.155,0.199-0.332,0.199-0.407,0.199H200.768
	c-0.075,0-0.252,0-0.407-0.199c-0.155-0.198-0.112-0.369-0.094-0.442l3.25-12.997c0.504-2.018,2.309-3.427,4.389-3.427h57.451
	c4.142,0,7.5-3.358,7.5-7.5s-3.358-7.5-7.5-7.5h-57.451c-8.976,0-16.765,6.082-18.941,14.789l-3.25,12.997
	c-1.167,4.667-0.138,9.52,2.823,13.312c2.961,3.792,7.419,5.967,12.23,5.967h110.469c4.811,0,9.269-2.175,12.23-5.967
	c2.961-3.792,3.99-8.644,2.823-13.312L323.04,335.436z"/>
<g>
</g>
<g>
</g>
<g>
</g>
<g>
</g>
<g>
</g>
<g>
</g>
<g>
</g>
<g>
</g>
<g>
</g>
<g>
</g>
<g>
</g>
<g>
</g>
<g>
</g>
<g>
</g>
<g>
</g>
</svg>
