<?xml version="1.0"?>
<svg xmlns="http://www.w3.org/2000/svg" xmlns:xlink="http://www.w3.org/1999/xlink" xmlns:svgjs="http://svgjs.com/svgjs" version="1.1" width="512" height="512" x="0" y="0" viewBox="0 0 513.057 513.057" style="enable-background:new 0 0 512 512" xml:space="preserve" class=""><g><g xmlns="http://www.w3.org/2000/svg"><g><path d="m456.564 231.038v-74.428l-98.71-56.99-21.1 43.98-45.64 95.13h69.23l-136.07 189.55-32.708-18.881 53.488-121.009h-88.4l75.61-177.1 31.827-74.533-207.597 119.853v230.97l200.04 115.49 200.03-115.48v-68.183z" fill="#62d744" data-original="#5c90ae" style="" class=""/></g><g><path d="m245.054 288.39-53.488 121.009-86.432-49.899v-174.81l127.13-73.4-75.61 177.1z" fill="#ffffff" data-original="#e0e7ef" style="" class=""/></g><g><path d="m407.924 184.69v174.81l-151.39 87.41-32.26-18.63 136.07-189.55h-69.23l45.64-95.13z" fill="#ffffff" data-original="#e0e7ef" style="" class=""/></g><g><path d="m291.114 238.73h69.23l-136.07 189.55-32.708-18.881 53.488-121.009h-88.4l118.86-278.39h125.33z" fill="#fff22a" data-original="#ffc135" style="" class=""/></g><g><path d="m456.564 309.407c-5.523 0-10 4.477-10 10v62.409l-190.03 109.707-190.041-109.716v-219.423l176.622-101.97-18.735 43.88-124.246 71.736c-3.094 1.786-5 5.087-5 8.66v174.81c0 3.573 1.906 6.874 5 8.66l151.399 87.41c3.064 1.769 6.937 1.77 10.001 0l151.39-87.41c3.094-1.787 5-5.087 5-8.66v-174.81c0-3.573-1.906-6.874-5-8.66l-63.146-36.458 12.424-25.895 84.363 48.707v68.654c0 5.523 4.477 10 10 10s10-4.477 10-10v-74.428c0-3.573-1.906-6.874-5-8.66l-90.69-52.36 38.986-81.265c3.131-6.53-1.797-14.325-9.018-14.325h-125.33c-4.005 0-7.624 2.39-9.197 6.073l-10.115 23.692-204.708 118.185c-3.094 1.786-5 5.087-5 8.66v230.97c0 3.573 1.906 6.874 5 8.66l200.04 115.49c3.063 1.769 6.936 1.768 10 0l200.03-115.48c3.094-1.787 5-5.088 5-8.661v-68.183c.001-5.522-4.476-9.999-9.999-9.999zm-341.43-118.943 96.157-55.518-63.834 149.517c-2.771 6.492 2.158 13.927 9.197 13.927h73.046l-42.779 96.781-71.788-41.444v-163.263zm282.79 0v163.263l-141.39 81.636-17.698-10.221 129.631-180.581c4.666-6.499-.151-15.832-8.124-15.832h-53.341l34.098-71.073zm-115.807-170.464h102.837l-102.857 214.404c-3.133 6.531 1.791 14.326 9.016 14.326h49.742l-119.424 166.363-17.088-9.865 49.857-112.795c2.874-6.502-2.051-14.043-9.146-14.043h-73.257z" fill="#000000" data-original="#000000" style="" class=""/><path d="m465.799 272.085c-3.433-8.24-15.629-7.992-18.646.461-3.101 8.687 6.736 16.662 14.598 11.913 4.181-2.527 5.895-7.868 4.048-12.374z" fill="#000000" data-original="#000000" style="" class=""/></g></g></g></svg>
