<?xml version="1.0"?>
<svg xmlns="http://www.w3.org/2000/svg" xmlns:xlink="http://www.w3.org/1999/xlink" xmlns:svgjs="http://svgjs.com/svgjs" version="1.1" width="512" height="512" x="0" y="0" viewBox="0 0 64 64" style="enable-background:new 0 0 512 512" xml:space="preserve" class=""><g><g xmlns="http://www.w3.org/2000/svg" id="Reload"><path d="m57 32a25 25 0 1 1 -25-25 25 25 0 0 1 25 25z" fill="#62d744" data-original="#46b3e6" class=""/><path d="m32 58a26 26 0 1 1 26-26 26.02947 26.02947 0 0 1 -26 26zm0-50a24 24 0 1 0 24 24 24.0275 24.0275 0 0 0 -24-24z" fill="#418c2d" data-original="#248baa" class=""/><g fill="#f2f0f0"><path d="m11.66582 22.94089a23.19718 23.19718 0 0 1 10.45263-10.90089 1.0002 1.0002 0 0 1 .91211 1.78028 21.18869 21.18869 0 0 0 -9.54785 9.95654 1 1 0 0 1 -1.81689-.83593z" fill="#f2f0f0" data-original="#f2f0f0" class=""/><circle cx="25.441" cy="11.711" r="1" fill="#f2f0f0" data-original="#f2f0f0" class=""/><path d="m26.97159 19.83a2.70318 2.70318 0 0 1 3.9752-3.51864l5.11864 3.93341a3.35815 3.35815 0 0 1 -.00176 5.3904l-5.11688 3.93209a2.70025 2.70025 0 0 1 -3.78109-3.794 8.48894 8.48894 0 0 0 -3.74647 7.05242 8.58041 8.58041 0 1 0 17.15445-.3581c-.1504-3.57264 5.2668-3.77375 5.41413-.22293a13.93573 13.93573 0 0 1 -4.08839 10.4319c-8.81471 8.77107-23.89961 2.47787-23.89961-9.85087a13.89924 13.89924 0 0 1 8.97178-12.99568z" fill="#f2f0f0" data-original="#f2f0f0" class=""/></g><path d="m17 32.8257a14.807 14.807 0 0 1 8.68066-13.53711 3.71114 3.71114 0 0 1 5.876-3.77l5.11914 3.93408a4.35721 4.35721 0 0 1 -.00293 6.97559l-5.11719 3.93262a3.7196 3.7196 0 0 1 -5.80368-1.81838 7.42525 7.42525 0 0 0 -1.333 4.2832 7.58039 7.58039 0 1 0 15.15527-.31592c-.20562-4.8368 7.20555-5.26965 7.41308-.30664a14.94184 14.94184 0 0 1 -4.38281 11.18262c-9.447 9.39965-25.60454 2.66097-25.60454-10.56006zm24.57227-.3999a9.5817 9.5817 0 1 1 -14.96973-7.47852 1.001 1.001 0 0 1 1.34863 1.4458 1.69931 1.69931 0 0 0 2.38672 2.38135l5.11524-3.93115a2.35876 2.35876 0 0 0 .00292-3.80567l-5.11718-3.93261a1.70247 1.70247 0 0 0 -2.51074 2.209 1.00108 1.00108 0 0 1 -.499 1.4502 12.83832 12.83832 0 0 0 -8.32913 12.0615c0 11.42492 13.98891 17.30387 22.19434 9.14258a12.93975 12.93975 0 0 0 3.79492-9.68164 1.71 1.71 0 0 0 -3.41699.13916z" fill="#62d744" data-original="#595959" class=""/></g></g></svg>
