<?xml version="1.0"?>
<svg xmlns="http://www.w3.org/2000/svg" xmlns:xlink="http://www.w3.org/1999/xlink" xmlns:svgjs="http://svgjs.com/svgjs" version="1.1" width="512" height="512" x="0" y="0" viewBox="0 0 512.292 512.292" style="enable-background:new 0 0 512 512" xml:space="preserve" class=""><g><g xmlns="http://www.w3.org/2000/svg"><g><g><ellipse cx="256.146" cy="256.146" fill="#ff0000" rx="256.064" ry="256.146" data-original="#ff0031" style="" class=""/></g><path d="m256.404 0v512.286c141.301-.14 255.806-114.764 255.806-256.143s-114.505-256.003-255.806-256.143z" fill="#c11f1f" data-original="#ae2538" style="" class=""/></g><path d="m372.338 182.874-43.712-43.712c-2.148-2.148-5.631-2.148-7.779 0l-61.172 61.172c-2.148 2.148-5.631 2.148-7.779 0l-61.172-61.172c-2.148-2.148-5.631-2.148-7.779 0l-43.712 43.712c-2.148 2.148-2.148 5.631 0 7.779l61.172 61.172c2.148 2.148 2.148 5.631 0 7.779l-61.172 61.172c-2.148 2.148-2.148 5.631 0 7.779l43.712 43.712c2.148 2.148 5.631 2.148 7.779 0l61.172-61.172c2.148-2.148 5.631-2.148 7.779 0l61.172 61.172c2.148 2.148 5.631 2.148 7.779 0l43.712-43.712c2.148-2.148 2.148-5.631 0-7.779l-61.172-61.172c-2.148-2.148-2.148-5.631 0-7.779l61.172-61.172c2.148-2.148 2.148-5.63 0-7.779z" fill="#ffffff" data-original="#fff5f5" style="" class=""/><path d="m372.338 190.654c2.148-2.148 2.148-5.631 0-7.779l-43.712-43.712c-2.148-2.148-5.631-2.148-7.779 0l-61.172 61.172c-1.008 1.008-2.312 1.525-3.632 1.586v107.589c1.32.062 2.624.578 3.632 1.586l61.172 61.172c2.148 2.148 5.631 2.148 7.779 0l43.712-43.712c2.148-2.148 2.148-5.631 0-7.779l-61.172-61.172c-2.148-2.148-2.148-5.631 0-7.779z" fill="#dfebf1" data-original="#dfebf1" style="" class=""/></g></g></svg>
