<?xml version="1.0"?>
<svg xmlns="http://www.w3.org/2000/svg" xmlns:xlink="http://www.w3.org/1999/xlink" xmlns:svgjs="http://svgjs.com/svgjs" version="1.1" width="512" height="512" x="0" y="0" viewBox="0 0 512 512" style="enable-background:new 0 0 512 512" xml:space="preserve" class=""><g><g xmlns="http://www.w3.org/2000/svg"><g><path d="m485.463 484.674-4.758 2.934c-16.454 10.145-38.016 5.032-48.162-11.422l-97.666-158.392 64.341-39.673 97.666 158.391c10.146 16.454 5.032 38.017-11.421 48.162z" fill="#62d744" data-original="#b6edba" style="" class=""/><circle cx="271.324" cy="142.715" fill="#44bbd7" r="123.215" data-original="#9ec7ff" style="" class=""/><circle cx="271.324" cy="142.715" fill="#f1f1f1" r="79.903" data-original="#dfedff" style="" class=""/><g fill="#ffdb8a"><path d="m293.302 269.12v212.356h-283.045v-407.067h155.403s-31.233 85.043 5.974 138.69c29.402 42.394 61.457 56.656 121.668 56.021z" fill="#fdfffc" data-original="#ffdb8a" style="" class=""/><path d="m317.959 257.373 29.231 51.282 39.487-23.59-31.795-50.769z" fill="#fdfffc" data-original="#ffdb8a" style="" class=""/></g></g><g><circle cx="147.703" cy="480.963" r="10" fill="#000000" data-original="#000000" style="" class=""/><path d="m505.144 430.366-97.195-157.628c-2.972-4.821-9.289-6.321-14.113-3.347l-4.93 3.04-22.329-36.212c41.987-42.777 51.196-110.3 18.357-163.557-38.628-62.645-121.022-82.184-183.662-43.557-15.238 9.396-27.918 21.387-37.838 35.048h-153.178c-5.664 0-10.256 4.592-10.256 10.256v407.066c0 5.665 4.592 10.256 10.256 10.256h91.551c5.664 0 10.256-4.592 10.256-10.256 0-5.665-4.592-10.256-10.256-10.256h-81.294v-386.553h130.666c-19.085 39.66-18.23 87.939 6.535 128.102 25.198 40.866 69.013 63.386 113.828 63.386 3.831 0 7.669-.183 11.503-.515v195.58h-89.189c-5.664 0-10.256 4.592-10.256 10.256 0 5.665 4.592 10.256 10.256 10.256h99.445c5.664 0 10.256-4.592 10.256-10.256v-209.238c2.861-.71 5.709-1.515 8.539-2.423l22.328 36.21-4.931 3.041c-4.821 2.973-6.319 9.291-3.346 14.113l97.194 157.628c8.714 14.131 23.865 21.919 39.362 21.919 8.258 0 16.617-2.213 24.148-6.856l3.23-1.992h.001c21.661-13.359 28.418-41.849 15.062-63.511zm-329.97-228.364c-32.69-53.017-16.154-122.746 36.863-155.437 18.435-11.367 38.886-16.781 59.103-16.781 37.924 0 75.01 19.062 96.334 53.644 32.69 53.017 16.155 122.746-36.862 155.437-53.019 32.692-122.746 16.154-155.438-36.863zm156.155 59.919c3.396-1.712 6.752-3.564 10.048-5.596 3.295-2.032 6.463-4.191 9.518-6.456l20.551 33.328-19.56 12.061zm64.542 30.313 70.093 113.673-46.882 28.907-70.091-113.673zm83.444 184.181-3.229 1.992c-12.034 7.42-27.863 3.667-35.284-8.368l-10.954-17.765 46.882-28.908 10.954 17.765c7.42 12.036 3.666 27.863-8.369 35.284z" fill="#000000" data-original="#000000" style="" class=""/><path d="m359.05 163.52c5.558-23.432 1.658-47.626-10.983-68.125-26.095-42.318-81.75-55.516-124.064-29.423-42.316 26.093-55.515 81.747-29.422 124.063 17.021 27.605 46.619 42.816 76.891 42.816 16.133 0 32.462-4.323 47.172-13.394 20.499-12.638 34.849-32.504 40.406-55.937zm-51.171 38.478c-32.69 20.154-86.743 7.832-99.619-29.753h69.698c5.664 0 10.256-4.592 10.256-10.256 0-5.665-4.592-10.256-10.256-10.256h-75.671c-.886-6.861-.736-13.773.397-20.513h75.274c5.664 0 10.256-4.592 10.256-10.256s-4.592-10.256-10.256-10.256h-68.464c5.604-10.87 14.129-20.401 25.276-27.274 11.366-7.009 23.975-10.347 36.439-10.347 23.383 0 46.25 11.754 59.398 33.076 9.764 15.835 12.776 34.524 8.484 52.626-4.293 18.099-15.377 33.445-31.212 43.209z" fill="#000000" data-original="#000000" style="" class=""/><path d="m51.636 171.732h55.382c5.664 0 10.256-4.592 10.256-10.256 0-5.665-4.592-10.256-10.256-10.256h-55.382c-5.664 0-10.256 4.592-10.256 10.256-.001 5.664 4.592 10.256 10.256 10.256z" fill="#000000" data-original="#000000" style="" class=""/><path d="m51.636 212.758h55.382c5.664 0 10.256-4.592 10.256-10.256 0-5.665-4.592-10.256-10.256-10.256h-55.382c-5.664 0-10.256 4.592-10.256 10.256-.001 5.664 4.592 10.256 10.256 10.256z" fill="#000000" data-original="#000000" style="" class=""/><path d="m51.636 253.783h87.861c5.664 0 10.256-4.592 10.256-10.256s-4.592-10.256-10.256-10.256h-87.861c-5.664 0-10.256 4.592-10.256 10.256s4.592 10.256 10.256 10.256z" fill="#000000" data-original="#000000" style="" class=""/><path d="m51.636 294.809h144.272c5.664 0 10.256-4.592 10.256-10.256s-4.592-10.256-10.256-10.256h-144.272c-5.664 0-10.256 4.592-10.256 10.256s4.592 10.256 10.256 10.256z" fill="#000000" data-original="#000000" style="" class=""/><path d="m51.636 335.834h200.691c5.664 0 10.256-4.592 10.256-10.256s-4.592-10.256-10.256-10.256h-200.691c-5.664 0-10.256 4.592-10.256 10.256s4.592 10.256 10.256 10.256z" fill="#000000" data-original="#000000" style="" class=""/><path d="m51.636 376.86h200.691c5.664 0 10.256-4.592 10.256-10.256s-4.592-10.256-10.256-10.256h-200.691c-5.664 0-10.256 4.592-10.256 10.256s4.592 10.256 10.256 10.256z" fill="#000000" data-original="#000000" style="" class=""/></g></g></g></svg>
