<?xml version="1.0"?>
<svg xmlns="http://www.w3.org/2000/svg" xmlns:xlink="http://www.w3.org/1999/xlink" xmlns:svgjs="http://svgjs.com/svgjs" version="1.1" width="512" height="512" x="0" y="0" viewBox="0 0 497 497" style="enable-background:new 0 0 512 512" xml:space="preserve" class=""><g><g xmlns="http://www.w3.org/2000/svg"><g><path d="m303.818 15.067c-36.287-13.208-73.632-17.44-109.617-13.839-5.182.519-9.629 3.91-11.41 8.804-2.309 6.345.409 13.475 6.424 16.541 88.697 45.217 131.744 150.387 96.805 246.382-35.067 96.345-135.856 148.777-232.527 126.511-6.579-1.516-13.244 2.197-15.553 8.542l-.002.006c-1.781 4.894-.555 10.35 3.081 14.078 25.251 25.888 56.579 46.651 92.867 59.858 128.448 46.751 271.253-18.919 318.407-148.476 46.97-129.046-19.474-271.455-148.475-318.407z" fill="#fce3a0" data-original="#fce3a0" style="" class=""/><path d="m247.937 36.117c-20.654-7.517-41.712-11.574-62.551-12.493 1.058 1.183 2.343 2.191 3.831 2.949 88.695 45.217 131.742 150.387 96.803 246.382-35.067 96.345-135.856 148.777-232.527 126.511-1.629-.375-3.263-.428-4.835-.202 16.555 12.692 35.296 23.122 55.952 30.64 108.338 39.432 228.785-15.957 268.557-125.23 39.615-108.842-16.426-228.956-125.23-268.557z" fill="#ffce71" data-original="#ffce71" style="" class=""/></g><g fill="#ff8e9e"><ellipse cx="299.929" cy="314.647" rx="27.03" ry="21.526" fill="#fff8a1" data-original="#ff8e9e" style="" class=""/><path d="m426.442 293.122c-14.929 0-27.03 9.637-27.03 21.525s12.102 21.526 27.03 21.526 27.03-9.637 27.03-21.526-12.102-21.525-27.03-21.525z" fill="#fff8a1" data-original="#ff8e9e" style="" class=""/></g><g fill="#55dafe"><path d="m242.25 246h-5.986l12.227-18.34c1.534-2.302 1.678-5.261.372-7.699-1.305-2.438-3.847-3.961-6.612-3.961h-20c-4.143 0-7.5 3.357-7.5 7.5s3.357 7.5 7.5 7.5h5.986l-12.227 18.34c-1.534 2.302-1.678 5.261-.372 7.699 1.305 2.438 3.847 3.961 6.612 3.961h20c4.143 0 7.5-3.357 7.5-7.5s-3.357-7.5-7.5-7.5z" fill="#82e569" data-original="#55dafe" style="" class=""/><path d="m167.25 233.5h-15.986l22.227-33.34c1.534-2.302 1.678-5.261.372-7.699-1.305-2.438-3.847-3.961-6.612-3.961h-30c-4.143 0-7.5 3.357-7.5 7.5s3.357 7.5 7.5 7.5h15.986l-22.227 33.34c-1.534 2.302-1.678 5.261-.372 7.699 1.305 2.438 3.847 3.961 6.612 3.961h30c4.143 0 7.5-3.357 7.5-7.5s-3.357-7.5-7.5-7.5z" fill="#82e569" data-original="#55dafe" style="" class=""/><path d="m77.131 171h-25.987l32.227-48.34c1.534-2.302 1.678-5.26.372-7.699-1.305-2.438-3.847-3.961-6.612-3.961h-40c-4.143 0-7.5 3.358-7.5 7.5 0 4.143 3.357 7.5 7.5 7.5h25.986l-32.227 48.34c-1.534 2.302-1.678 5.261-.372 7.699 1.305 2.438 3.847 3.961 6.612 3.961h40c4.143 0 7.5-3.357 7.5-7.5s-3.357-7.5-7.499-7.5z" fill="#82e569" data-original="#55dafe" style="" class=""/></g><g fill="#313d40"><path d="m334.558 280.891c-3.124-2.723-7.861-2.397-10.582.725-2.096 2.403-5.118 3.782-8.294 3.782-3.175 0-6.197-1.379-8.293-3.782-2.721-3.122-7.458-3.447-10.582-.725-3.122 2.722-3.446 7.459-.725 10.582 4.944 5.672 12.088 8.925 19.6 8.925s14.656-3.253 19.601-8.925c2.721-3.123 2.397-7.861-.725-10.582z" fill="#313d40" data-original="#313d40" style="" class=""/><path d="m429.562 280.89c-3.125-2.722-7.86-2.396-10.582.727-2.094 2.403-5.116 3.781-8.292 3.781s-6.198-1.378-8.292-3.781c-2.723-3.123-7.46-3.447-10.582-.727-3.122 2.722-3.448 7.459-.727 10.582 4.943 5.673 12.088 8.926 19.601 8.926s14.657-3.253 19.601-8.926c2.722-3.123 2.396-7.861-.727-10.582z" fill="#313d40" data-original="#313d40" style="" class=""/><path d="m363.185 294.081c-5.955 0-10.783 5.149-10.783 11.5s4.828 11.5 10.783 11.5c5.956 0 10.784-5.149 10.784-11.5 0-6.352-4.828-11.5-10.784-11.5z" fill="#313d40" data-original="#313d40" style="" class=""/></g></g></g></svg>
