<?xml version="1.0"?>
<svg xmlns="http://www.w3.org/2000/svg" xmlns:xlink="http://www.w3.org/1999/xlink" xmlns:svgjs="http://svgjs.com/svgjs" version="1.1" width="512" height="512" x="0" y="0" viewBox="0 0 512 512" style="enable-background:new 0 0 512 512" xml:space="preserve" class=""><g><g xmlns="http://www.w3.org/2000/svg"><g><g><g><g><g><g><g><path d="m379.493 54.336h-313.403c-11.293 0-20.448 9.155-20.448 20.448v409.268c0 11.293 9.155 20.448 20.448 20.448h313.403c11.293 0 20.448-9.155 20.448-20.448v-409.268c0-11.293-9.155-20.448-20.448-20.448z" fill="#efc67c" data-original="#efc984" style="" class=""/><path d="m77.086 54.336v391.153c0 6.112 4.955 11.066 11.067 11.066h269.28c6.112 0 11.066-4.955 11.066-11.066v-391.153z" fill="#f7f4f7" data-original="#f7f4f7" style="" class=""/><path d="m305.236 54.336v402.219h52.195c6.112 0 11.066-4.955 11.066-11.067v-391.152z" fill="#edeaed" data-original="#edeaed" style="" class=""/></g></g><g><path d="m244.711 58.667v-29.248c0-12.105-9.813-21.919-21.919-21.919-12.105 0-21.919 9.813-21.919 21.919v29.248z" fill="#e9e9e9" data-original="#a87f7f" style="" class=""/></g><path d="m287.993 44.73h-130.402c-5.957 0-10.787 4.829-10.787 10.787 0 17.468 14.161 31.629 31.629 31.629h88.718c17.468 0 31.629-14.161 31.629-31.629-.001-5.958-4.83-10.787-10.787-10.787z" fill="#8b8b8b" data-original="#b58c8c" style="" class=""/></g><g><g><g><path d="m450.873 177.229 14.727-29.139c1.753-3.468.362-7.7-3.106-9.453l-10.932-5.525c-3.468-1.753-7.7-.362-9.453 3.106l-14.726 29.139z" fill="#a39ba3" data-original="#a39ba3" style="" class=""/><g><path d="m455.45 167.872-23.249-11.75c-4.144-2.094-9.202-.433-11.296 3.712l-9.225 18.254.718 4.966 33.559 16.961 3.979-2.592 9.225-18.254c2.095-4.146.433-9.203-3.711-11.297z" fill="#nannannan" data-original="#badd93" style="" class=""/><g><path d="m434.947 220.716-33.649-17.006-3.898 2.633-116.827 231.163 1.516 3.711 31.929 16.136 4.811-.513 116.827-231.162z" fill="#nannannan" data-original="#badd93" style="" class=""/></g></g><path d="m313.47 464.306-38.519 39.148c-2.363 2.402-6.416.353-5.884-2.974l8.674-54.232c.487-3.043 1.442-5.992 2.832-8.743l38.257 19.334c-1.391 2.752-3.199 5.27-5.36 7.467z" fill="#938993" data-original="#938993" style="" class=""/></g><path d="m402.236 186.053h42.865v31.659h-42.865z" fill="#edeaed" transform="matrix(.893 .451 -.451 .893 136.607 -169.395)" data-original="#edeaed" style="" class=""/></g></g></g></g><g><g><g><path d="m174.882 196.836h-54.521c-6.299 0-11.405-5.106-11.405-11.405v-54.521c0-6.299 5.106-11.405 11.405-11.405h54.521c6.299 0 11.405 5.106 11.405 11.405v54.521c0 6.299-5.106 11.405-11.405 11.405z" fill="#62d744" data-original="#9bc4f9" style="" class=""/></g></g><g><g><path d="m174.882 311.133h-54.521c-6.299 0-11.405-5.106-11.405-11.405v-54.521c0-6.299 5.106-11.405 11.405-11.405h54.521c6.299 0 11.405 5.106 11.405 11.405v54.521c0 6.299-5.106 11.405-11.405 11.405z" fill="#62d744" data-original="#9bc4f9" style="" class=""/></g></g><g><g><path d="m174.882 425.431h-54.521c-6.299 0-11.405-5.106-11.405-11.405v-54.521c0-6.299 5.106-11.405 11.405-11.405h54.521c6.299 0 11.405 5.106 11.405 11.405v54.521c0 6.299-5.106 11.405-11.405 11.405z" fill="#62d744" data-original="#9bc4f9" style="" class=""/></g></g></g></g></g><g><g><path d="m462.322 213.425-10.26-5.185 12.983-25.689c2.708-5.359 2.083-11.542-1.091-16.179l7.529-14.898c3.615-7.154.737-15.914-6.417-19.529l-10.932-5.525c-7.172-3.623-15.906-.755-19.53 6.417l-7.529 14.897c-5.617.194-10.966 3.358-13.674 8.718l-6.771 13.397v-95.065c0-15.411-12.537-27.947-27.948-27.947h-10.995-34.639c-4.142 0-7.5 3.357-7.5 7.5s3.358 7.5 7.5 7.5h27.139v199.906l-87.119 172.381c0 .001-.001.002-.001.003-1.741 3.445-2.933 7.125-3.543 10.938l-.638 3.992h-181.545c-1.967 0-3.567-1.601-3.567-3.567v-383.654h26.991c4.142 0 7.5-3.357 7.5-7.5s-3.358-7.5-7.5-7.5c-15.864 0-29.556 0-45.485 0-15.411 0-27.948 12.537-27.948 27.947v409.269c0 15.41 12.537 27.947 27.948 27.947h313.403c15.41 0 27.948-12.537 27.948-27.947v-36.879c0-4.142-3.358-7.5-7.5-7.5s-7.5 3.357-7.5 7.5v36.879c0 7.139-5.808 12.948-12.948 12.948h-87.671l26.994-27.434c1.664-1.691 3.134-3.545 4.442-5.51h34.174c10.237 0 18.566-8.329 18.566-18.567v-85.14l16.444-32.537v84.29c0 4.142 3.358 7.5 7.5 7.5s7.5-3.357 7.5-7.5v-113.968c5.992-11.857 34.624-68.51 38.666-76.508l10.26 5.185c4.334 2.191 5.456 7.845 2.326 11.525-11.238 13.218-20.904 27.772-28.731 43.257l-12.055 23.853c-1.868 3.696-.386 8.208 3.311 10.076 3.689 1.867 8.204.393 10.076-3.31l12.055-23.853c7.292-14.428 16.3-27.99 26.771-40.306 9.417-11.079 6.008-28.06-6.989-34.628zm-30.788 2.177-24.869-12.569 7.515-14.87 24.87 12.569zm-116.826 231.163-24.87-12.569 110.062-217.777 24.869 12.569zm-30.489 1.397 22.577 11.41-29.139 29.614zm142.569-284.946c.212-.42.732-.632 1.203-.405.545.263 23.38 11.82 23.28 11.766.434.232.609.767.386 1.208l-5.843 11.561-24.87-12.569zm20.994-23.201 10.104 5.106-6.436 12.736-10.104-5.107zm-72.595-78.179h3.495c7.14 0 12.948 5.808 12.948 12.948v124.743l-16.444 32.537v-170.228zm-309.908 435.165c-7.14 0-12.948-5.808-12.948-12.948v-409.269c0-7.139 5.808-12.948 12.948-12.948h3.495v383.654c0 10.238 8.329 18.567 18.566 18.567h179.146l-5.269 32.944zm294.909-51.511c0 1.967-1.6 3.567-3.567 3.567h-26.265l29.832-59.028z" fill="#000000" data-original="#000000" style="" class=""/><path d="m138.386 173.151c3.323 3.104 8.603 2.554 11.227-1.127l14.999-21.041c2.405-3.373 1.62-8.056-1.753-10.461-3.373-2.402-8.057-1.618-10.46 1.754l-10.029 14.069-3.91-3.654c-3.026-2.825-7.772-2.667-10.6.36-2.828 3.026-2.667 7.772.359 10.6z" fill="#000000" data-original="#000000" style="" class=""/><path d="m162.859 254.821c-3.371-2.402-8.056-1.619-10.46 1.754l-10.029 14.068-3.91-3.654c-3.026-2.825-7.772-2.667-10.6.36-2.828 3.026-2.667 7.772.359 10.6l10.167 9.5c3.323 3.104 8.603 2.554 11.227-1.127l14.999-21.04c2.405-3.374 1.62-8.056-1.753-10.461z" fill="#000000" data-original="#000000" style="" class=""/><path d="m162.859 369.118c-3.373-2.403-8.057-1.619-10.46 1.754l-10.029 14.069-3.91-3.654c-3.026-2.826-7.772-2.667-10.6.36-2.828 3.026-2.667 7.772.359 10.6l10.167 9.5c3.323 3.104 8.603 2.554 11.227-1.127l14.999-21.041c2.405-3.373 1.62-8.057-1.753-10.461z" fill="#000000" data-original="#000000" style="" class=""/><path d="m177.622 94.645h88.718c21.575 0 39.128-17.553 39.128-39.128 0-10.09-8.146-18.286-18.286-18.286h-35.782v-7.811c0-16.223-13.198-29.42-29.419-29.42s-29.419 13.197-29.419 29.419v7.811h-35.782c-10.165 0-18.286 8.216-18.286 18.286 0 21.576 17.553 39.129 39.128 39.129zm29.939-65.226c0-7.951 6.468-14.419 14.419-14.419s14.42 6.468 14.42 14.419v7.811h-28.839zm-50.781 22.81h130.402c1.679 0 3.082 1.255 3.263 2.915.013.122.024.246.024.372 0 13.305-10.824 24.129-24.129 24.129h-88.718c-13.305 0-24.129-10.824-24.129-24.129 0-1.812 1.461-3.287 3.287-3.287z" fill="#000000" data-original="#000000" style="" class=""/><path d="m100.646 130.911v54.52c0 10.424 8.481 18.905 18.905 18.905h54.521c10.424 0 18.905-8.48 18.905-18.905v-54.52c0-10.424-8.481-18.905-18.905-18.905h-54.522c-10.424 0-18.904 8.48-18.904 18.905zm14.999 0c0-2.153 1.752-3.905 3.905-3.905h54.521c2.153 0 3.905 1.752 3.905 3.905v54.52c0 2.153-1.752 3.905-3.905 3.905h-54.521c-2.153 0-3.905-1.752-3.905-3.905z" fill="#000000" data-original="#000000" style="" class=""/><path d="m192.976 245.208c0-10.423-8.481-18.904-18.905-18.904h-54.521c-10.424 0-18.905 8.48-18.905 18.904v54.521c0 10.424 8.481 18.905 18.905 18.905h54.521c10.424 0 18.905-8.48 18.905-18.905zm-15 54.521c0 2.153-1.752 3.905-3.905 3.905h-54.521c-2.153 0-3.905-1.752-3.905-3.905v-54.521c0-2.153 1.752-3.904 3.905-3.904h54.521c2.153 0 3.905 1.751 3.905 3.904z" fill="#000000" data-original="#000000" style="" class=""/><path d="m174.071 340.602h-54.521c-10.424 0-18.905 8.48-18.905 18.905v54.521c0 10.424 8.481 18.905 18.905 18.905h54.521c10.424 0 18.905-8.48 18.905-18.905v-54.521c0-10.425-8.481-18.905-18.905-18.905zm3.905 73.425c0 2.153-1.752 3.905-3.905 3.905h-54.521c-2.153 0-3.905-1.752-3.905-3.905v-54.521c0-2.153 1.752-3.905 3.905-3.905h54.521c2.153 0 3.905 1.752 3.905 3.905z" fill="#000000" data-original="#000000" style="" class=""/><path d="m327.637 131.993h-107.496c-4.142 0-7.5 3.357-7.5 7.5s3.358 7.5 7.5 7.5h107.496c4.142 0 7.5-3.357 7.5-7.5s-3.358-7.5-7.5-7.5z" fill="#000000" data-original="#000000" style="" class=""/><path d="m220.141 182.308h55.14c4.142 0 7.5-3.357 7.5-7.5s-3.358-7.5-7.5-7.5h-55.14c-4.142 0-7.5 3.357-7.5 7.5s3.358 7.5 7.5 7.5z" fill="#000000" data-original="#000000" style="" class=""/><path d="m335.136 255.98c0-4.142-3.358-7.5-7.5-7.5h-107.495c-4.142 0-7.5 3.357-7.5 7.5 0 4.142 3.358 7.5 7.5 7.5h107.496c4.142 0 7.499-3.358 7.499-7.5z" fill="#000000" data-original="#000000" style="" class=""/><path d="m275.281 283.797h-55.14c-4.142 0-7.5 3.357-7.5 7.5 0 4.142 3.358 7.5 7.5 7.5h55.14c4.142 0 7.5-3.357 7.5-7.5 0-4.142-3.358-7.5-7.5-7.5z" fill="#000000" data-original="#000000" style="" class=""/><path d="m282.781 372.468c0-4.142-3.358-7.5-7.5-7.5h-55.14c-4.142 0-7.5 3.357-7.5 7.5 0 4.142 3.358 7.5 7.5 7.5h55.14c4.142 0 7.5-3.357 7.5-7.5z" fill="#000000" data-original="#000000" style="" class=""/><path d="m220.141 400.285c-4.142 0-7.5 3.357-7.5 7.5 0 4.142 3.358 7.5 7.5 7.5h32.999c4.142 0 7.5-3.357 7.5-7.5 0-4.142-3.358-7.5-7.5-7.5z" fill="#000000" data-original="#000000" style="" class=""/></g></g></g></g></svg>
