<?xml version="1.0"?>
<svg xmlns="http://www.w3.org/2000/svg" xmlns:xlink="http://www.w3.org/1999/xlink" xmlns:svgjs="http://svgjs.com/svgjs" version="1.1" width="512" height="512" x="0" y="0" viewBox="0 0 512 512" style="enable-background:new 0 0 512 512" xml:space="preserve" class=""><g><g xmlns="http://www.w3.org/2000/svg"><g><path d="m313.529 339.73v-274.701c0-31.773-25.757-57.529-57.529-57.529-31.772 0-57.529 25.756-57.529 57.529v274.701c-21.266 16.934-34.9 43.044-34.9 72.341 0 51.047 41.382 92.429 92.429 92.429s92.429-41.382 92.429-92.429c0-29.297-13.635-55.407-34.9-72.341z" fill="#d8d8d8" data-original="#bec7ec" style="" class=""/><path d="m348.43 412.07c0 51.05-41.38 92.43-92.43 92.43-5.11 0-10.12-.41-15-1.21 43.92-7.17 77.43-45.28 77.43-91.22 0-29.3-13.64-55.41-34.9-72.34v-274.7c0-26.58-18.03-48.95-42.53-55.55 4.78-1.29 9.81-1.98 15-1.98 31.77 0 57.53 25.76 57.53 57.53v274.7c21.26 16.93 34.9 43.04 34.9 72.34z" fill="#d8d8d8" data-original="#a3afe4" style="" class=""/><path d="m256 469.5c-31.666 0-57.429-25.762-57.429-57.429 0-17.591 7.91-33.979 21.703-44.962l13.197-10.509v-291.572c0-12.422 10.106-22.528 22.529-22.528 12.422 0 22.529 10.106 22.529 22.528v291.572l13.197 10.509c13.792 10.983 21.703 27.371 21.703 44.962 0 31.667-25.762 57.429-57.429 57.429z" fill="#ffffff" data-original="#eaf6ff" style="" class=""/><path d="m313.43 412.07c0 26.29-17.75 48.5-41.89 55.3 10.72-10.44 17.39-25.02 17.39-41.13 0-17.59-7.91-33.97-21.7-44.96l-13.2-10.51v-308.58c0-6.94-3.16-13.16-8.12-17.29 3.04-1.54 6.46-2.4 10.09-2.4 12.42 0 22.53 10.11 22.53 22.53v291.57l13.2 10.51c13.79 10.98 21.7 27.37 21.7 44.96z" fill="#ffffff" data-original="#c5e2ff" style="" class=""/><path d="m291.726 367.109-13.197-10.509v-174.6h-45.058v174.601l-13.197 10.509c-13.792 10.983-21.703 27.371-21.703 44.962 0 31.667 25.762 57.429 57.429 57.429s57.429-25.762 57.429-57.429c0-17.592-7.91-33.979-21.703-44.963z" fill="#fb6672" data-original="#fb6672" style="" class=""/><path d="m291.73 367.11-13.2-10.51v-174.6h-24.5v188.77l13.2 10.51c13.79 10.99 21.7 27.37 21.7 44.96 0 16.11-6.67 30.69-17.39 41.13 24.14-6.8 41.89-29.01 41.89-55.3 0-17.59-7.91-33.98-21.7-44.96z" fill="#fb4a59" data-original="#fb4a59" style="" class=""/></g><g><path d="m304.59 443.552c1.045.5 2.147.737 3.233.737 2.797 0 5.481-1.572 6.77-4.263 4.204-8.779 6.335-18.185 6.335-27.955 0-19.888-8.941-38.415-24.531-50.829l-10.369-8.257v-287.957c.001-16.557-13.47-30.028-30.028-30.028s-30.029 13.471-30.029 30.028v47.972c0 4.142 3.358 7.5 7.5 7.5s7.5-3.358 7.5-7.5v-47.972c0-8.286 6.742-15.028 15.029-15.028s15.029 6.742 15.029 15.028v109.472h-30.058v-27.5c0-4.142-3.358-7.5-7.5-7.5s-7.5 3.358-7.5 7.5v205.985l-10.369 8.257c-15.59 12.415-24.531 30.941-24.531 50.829 0 35.802 29.127 64.929 64.929 64.929 11.396 0 22.63-3.024 32.49-8.746 3.583-2.079 4.802-6.668 2.723-10.251s-6.668-4.801-10.251-2.723c-7.576 4.396-16.208 6.72-24.962 6.72-27.531 0-49.929-22.398-49.929-49.929 0-15.293 6.879-29.543 18.875-39.095l13.197-10.509c1.787-1.423 2.828-3.583 2.828-5.867v-167.1h30.058v167.101c0 2.284 1.041 4.444 2.828 5.867l13.197 10.509c11.995 9.552 18.875 23.801 18.875 39.095 0 7.51-1.637 14.736-4.864 21.477-1.789 3.735-.211 8.214 3.525 10.003z" fill="#000000" data-original="#000000" style="" class=""/><path d="m321.029 336.199v-54.199c0-4.142-3.358-7.5-7.5-7.5s-7.5 3.358-7.5 7.5v57.73c0 2.284 1.041 4.444 2.828 5.867 20.382 16.23 32.072 40.459 32.072 66.474 0 46.83-38.099 84.929-84.929 84.929s-84.929-38.099-84.929-84.929c0-26.015 11.69-50.244 32.072-66.474 1.787-1.423 2.828-3.583 2.828-5.867v-274.702c0-27.586 22.443-50.028 50.029-50.028s50.029 22.442 50.029 50.028v182.972c0 4.142 3.358 7.5 7.5 7.5s7.5-3.358 7.5-7.5v-182.972c0-35.857-29.172-65.028-65.029-65.028s-65.029 29.171-65.029 65.028v271.17c-22.228 19.041-34.9 46.487-34.9 75.873 0 55.101 44.828 99.929 99.929 99.929s99.929-44.828 99.929-99.929c0-29.385-12.673-56.831-34.9-75.872z" fill="#000000" data-original="#000000" style="" class=""/><path d="m347.034 89.254h36.654c4.142 0 7.5-3.358 7.5-7.5s-3.358-7.5-7.5-7.5h-36.654c-4.142 0-7.5 3.358-7.5 7.5s3.358 7.5 7.5 7.5z" fill="#000000" data-original="#000000" style="" class=""/><path d="m346.947 117.593h.104.036c4.125 0 7.479-3.334 7.499-7.465.02-4.142-3.323-7.516-7.465-7.535h-.104c-.012 0-.024 0-.036 0-4.125 0-7.479 3.334-7.499 7.465-.02 4.142 3.323 7.515 7.465 7.535z" fill="#000000" data-original="#000000" style="" class=""/><path d="m383.688 141.085h-36.654c-4.142 0-7.5 3.358-7.5 7.5s3.358 7.5 7.5 7.5h36.654c4.142 0 7.5-3.358 7.5-7.5s-3.358-7.5-7.5-7.5z" fill="#000000" data-original="#000000" style="" class=""/><path d="m346.947 184.423h.104.036c4.125 0 7.479-3.334 7.499-7.465.02-4.142-3.323-7.516-7.465-7.535h-.104c-.012 0-.024 0-.036 0-4.125 0-7.479 3.334-7.499 7.465-.02 4.142 3.323 7.516 7.465 7.535z" fill="#000000" data-original="#000000" style="" class=""/><path d="m383.688 207.915h-36.654c-4.142 0-7.5 3.358-7.5 7.5s3.358 7.5 7.5 7.5h36.654c4.142 0 7.5-3.358 7.5-7.5s-3.358-7.5-7.5-7.5z" fill="#000000" data-original="#000000" style="" class=""/><path d="m346.947 251.254h.104.036c4.125 0 7.479-3.334 7.499-7.465.02-4.142-3.323-7.516-7.465-7.535h-.104c-.012 0-.024 0-.036 0-4.125 0-7.479 3.334-7.499 7.465-.02 4.142 3.323 7.515 7.465 7.535z" fill="#000000" data-original="#000000" style="" class=""/><path d="m383.688 274.746h-36.654c-4.142 0-7.5 3.358-7.5 7.5s3.358 7.5 7.5 7.5h36.654c4.142 0 7.5-3.358 7.5-7.5s-3.358-7.5-7.5-7.5z" fill="#000000" data-original="#000000" style="" class=""/><path d="m346.947 318.084h.104.036c4.125 0 7.479-3.334 7.499-7.465.02-4.142-3.323-7.516-7.465-7.535h-.104c-.012 0-.024 0-.036 0-4.125 0-7.479 3.334-7.499 7.465-.02 4.142 3.323 7.516 7.465 7.535z" fill="#000000" data-original="#000000" style="" class=""/><path d="m128.313 89.254h36.654c4.142 0 7.5-3.358 7.5-7.5s-3.358-7.5-7.5-7.5h-36.654c-4.142 0-7.5 3.358-7.5 7.5s3.357 7.5 7.5 7.5z" fill="#000000" data-original="#000000" style="" class=""/><path d="m165.019 102.593c-.012 0-.024 0-.036 0h-.104c-4.142.02-7.484 3.393-7.465 7.535.02 4.13 3.374 7.465 7.499 7.465h.036.104c4.142-.02 7.484-3.393 7.465-7.535-.019-4.131-3.373-7.465-7.499-7.465z" fill="#000000" data-original="#000000" style="" class=""/><path d="m128.313 156.085h36.654c4.142 0 7.5-3.358 7.5-7.5s-3.358-7.5-7.5-7.5h-36.654c-4.142 0-7.5 3.358-7.5 7.5s3.357 7.5 7.5 7.5z" fill="#000000" data-original="#000000" style="" class=""/><path d="m165.019 169.423c-.012 0-.024 0-.036 0h-.104c-4.142.02-7.484 3.393-7.465 7.535.02 4.13 3.374 7.465 7.499 7.465h.036.104c4.142-.02 7.484-3.393 7.465-7.535-.019-4.13-3.373-7.465-7.499-7.465z" fill="#000000" data-original="#000000" style="" class=""/><path d="m128.313 222.915h36.654c4.142 0 7.5-3.358 7.5-7.5s-3.358-7.5-7.5-7.5h-36.654c-4.142 0-7.5 3.358-7.5 7.5s3.357 7.5 7.5 7.5z" fill="#000000" data-original="#000000" style="" class=""/><path d="m165.019 236.254c-.012 0-.024 0-.036 0h-.104c-4.142.02-7.484 3.393-7.465 7.535.02 4.13 3.374 7.465 7.499 7.465h.036.104c4.142-.02 7.484-3.393 7.465-7.535-.019-4.131-3.373-7.465-7.499-7.465z" fill="#000000" data-original="#000000" style="" class=""/><path d="m172.466 282.246c0-4.142-3.358-7.5-7.5-7.5h-36.654c-4.142 0-7.5 3.358-7.5 7.5s3.358 7.5 7.5 7.5h36.654c4.142 0 7.5-3.358 7.5-7.5z" fill="#000000" data-original="#000000" style="" class=""/><path d="m165.019 303.084c-.012 0-.024 0-.036 0h-.104c-4.142.02-7.484 3.393-7.465 7.535.02 4.13 3.374 7.465 7.499 7.465h.036.104c4.142-.02 7.484-3.393 7.465-7.535-.019-4.13-3.373-7.465-7.499-7.465z" fill="#000000" data-original="#000000" style="" class=""/></g></g></g></svg>
