<?xml version="1.0" encoding="utf-8"?>
<svg viewBox="0 0 500 500" xmlns="http://www.w3.org/2000/svg">
  <g transform="matrix(1, 0, 0, 1, 212.632874, 142.492691)">
    <path xmlns="http://www.w3.org/2000/svg" d="M 221.324 -62.289 L 221.324 -42.728 L 145.522 -42.728 L 145.522 -62.289 L 221.324 -62.289 Z M 189.536 -19.655 L 145.522 -19.655 L 145.522 -0.094 L 189.536 -0.094 L 189.536 -19.655 Z M 145.522 42.539 L 221.324 42.539 L 221.324 22.978 L 145.522 22.978 L 145.522 42.539 Z M 189.536 65.623 L 145.522 65.623 L 145.522 85.184 L 189.536 85.184 L 189.536 65.623 Z M 145.522 127.817 L 221.324 127.817 L 221.324 108.256 L 145.522 108.256 L 145.522 127.817 Z M 157.338 239.278 C 157.338 293.884 112.913 338.307 58.308 338.307 C 3.703 338.307 -40.721 293.884 -40.721 239.278 C -40.721 203.892 -22.138 171.733 8.182 153.941 L 8.182 -70.563 C 8.182 -98.205 30.668 -120.69 58.308 -120.69 C 85.948 -120.69 108.435 -98.205 108.435 -70.563 L 108.435 153.941 C 138.755 171.713 157.338 203.882 157.338 239.278 Z M 137.777 239.278 C 137.777 209.251 121.09 182.11 94.223 168.466 L 88.873 165.747 L 88.873 -70.555 C 88.873 -87.416 75.161 -101.119 58.308 -101.119 C 41.456 -101.119 27.744 -87.416 27.744 -70.555 L 27.744 165.747 L 22.394 168.466 C -4.473 182.12 -21.16 209.261 -21.16 239.278 C -21.16 283.095 14.491 318.746 58.308 318.746 C 102.126 318.746 137.777 283.095 137.777 239.278 Z M 121.482 239.278 C 121.482 274.108 93.147 302.442 58.308 302.442 C 23.479 302.442 -4.855 274.108 -4.855 239.278 C -4.855 210.729 14.433 185.661 42.053 178.316 L 45.682 177.347 L 45.682 -68.758 L 70.945 -69.139 L 70.945 177.337 L 74.574 178.316 C 102.204 185.661 121.482 210.739 121.482 239.278 Z M 61.438 197.172 C 59.932 190.483 53.203 186.081 46.347 187.647 C 22.404 193.065 5.679 214.005 5.679 238.575 C 5.679 245.529 11.341 251.191 18.296 251.191 C 25.25 251.191 30.912 245.529 30.912 238.575 C 30.912 226.084 39.734 215.013 51.911 212.265 C 58.68 210.709 62.964 203.94 61.438 197.172 Z" fill="#1f1f1f" data-original="#000000" style=""/>
  </g>
</svg>