<svg height="512pt" viewBox="-82 0 511 512" width="512pt" xmlns="http://www.w3.org/2000/svg"><path d="m42.410156 57.203125h263.578125c14.585938 0 26.410157-11.824219 26.410157-26.414063v-16.722656c0-3.625-2.941407-6.566406-6.566407-6.566406h-303.265625c-3.625 0-6.566406 2.941406-6.566406 6.566406v16.722656c0 14.589844 11.824219 26.414063 26.410156 26.414063zm0 0" fill="#cfd8dc"/><path d="m42.410156 454.796875h263.578125c14.585938 0 26.410157 11.824219 26.410157 26.414063v16.722656c0 3.625-2.941407 6.566406-6.566407 6.566406h-303.265625c-3.625 0-6.566406-2.941406-6.566406-6.566406v-16.722656c0-14.589844 11.824219-26.414063 26.410156-26.414063zm0 0" fill="#cfd8dc"/><path d="m325.832031 7.5h-33.433593v3.289062c0 14.589844-11.824219 26.414063-26.410157 26.414063h-249.199219c2.863282 11.488281 13.246094 20 25.621094 20h263.578125c14.589844 0 26.414063-11.824219 26.414063-26.414063v-16.722656c-.003906-3.625-2.941406-6.566406-6.570313-6.566406zm0 0" fill="#90a4ae"/><path d="m305.988281 454.800781h-14.375c.511719 2.050781.789063 4.199219.789063 6.410157v16.722656c0 3.625-2.941406 6.566406-6.570313 6.566406h-269.832031v13.433594c0 3.625 2.941406 6.566406 6.570312 6.566406h303.261719c3.628907 0 6.570313-2.941406 6.570313-6.566406v-16.722656c-.003906-14.589844-11.828125-26.410157-26.414063-26.410157zm0 0" fill="#90a4ae"/><path d="m293.101562 362.832031c-9.695312-45.808593-44.460937-80.964843-88.097656-92.390625-6.589844-1.726562-11.222656-7.625-11.222656-14.441406s4.628906-12.714844 11.222656-14.441406c43.636719-11.421875 78.402344-46.582032 88.097656-92.390625l13.171876-62.207031c3.246093-15.328126-8.449219-29.757813-24.121094-29.757813h-215.90625c-15.671875 0-27.363282 14.429687-24.117188 29.757813l13.167969 62.207031c9.695313 45.808593 44.460937 80.964843 88.097656 92.390625 6.589844 1.722656 11.222657 7.625 11.222657 14.441406 0 6.8125-4.632813 12.714844-11.222657 14.441406-43.636719 11.421875-78.402343 46.582032-88.097656 92.386719l-13.167969 62.207031c-3.246094 15.332032 8.445313 29.761719 24.117188 29.761719h215.90625c15.671875 0 27.363281-14.429687 24.121094-29.761719zm0 0" fill="#bbdefb"/><path d="m306.273438 425.039062-13.171876-62.207031c-9.667968-45.683593-44.273437-80.773437-87.738281-92.296875-5.988281-1.585937-10.679687-6.472656-11.460937-12.617187-.964844-7.601563 3.898437-14.472657 11.105468-16.359375 43.632813-11.425782 78.398438-46.582032 88.097657-92.390625l13.167969-62.207031c3.246093-15.328126-8.449219-29.757813-24.121094-29.757813h-17.308594c1.90625 4.464844 2.527344 9.558594 1.429688 14.757813l-13.167969 62.207031c-9.671875 45.683593-44.273438 80.773437-87.742188 92.296875-5.988281 1.585937-10.679687 6.472656-11.460937 12.617187-.964844 7.601563 3.898437 14.472657 11.105468 16.359375 43.632813 11.421875 78.398438 46.582032 88.097657 92.390625l5.011719 23.6875c7.449218 35.171875-19.382813 68.28125-55.335938 68.28125h-159.222656c3.71875 8.695313 12.335937 15 22.691406 15h215.902344c15.671875-.003906 27.367187-14.433593 24.121094-29.761719zm0 0" fill="#64b5f6"/><path d="m217.460938 116.285156c-43.261719 0-43.261719 16-86.523438 16-21.808594 0-32.621094-4.066406-43.527344-8.097656-3.175781-1.175781-6.394531 1.609375-5.695312 4.917969l3.226562 15.238281c7.101563 33.542969 32.925782 59.492188 66.085938 68.203125 9.324218 2.445313 17.324218 7.710937 23.171875 14.730469 5.851562-7.019532 13.851562-12.285156 23.175781-14.734375 33.160156-8.707031 58.984375-34.65625 66.085938-68.195313l2.347656-11.097656c.800781-3.773438-1.292969-7.558594-4.910156-8.898438-10.875-4.023437-21.6875-8.066406-43.4375-8.066406zm0 0" fill="#ffca28"/><path d="m266.464844 381.851562c-1.339844-6.328124-7.5-10.410156-13.851563-9.199218-22.351562 4.257812-29.710937 14.0625-63.578125 14.0625-43.257812 0-43.257812-16-86.519531-16-3.375 0-6.488281.097656-9.375.277344-5.332031.332031-9.789063 4.164062-10.894531 9.390624l-7.957032 37.589844c-.742187 3.515625 1.9375 6.828125 5.53125 6.828125h188.761719c3.59375 0 6.273438-3.3125 5.53125-6.828125zm0 0" fill="#ffca28"/><path d="m260.898438 124.351562c-9.515626-3.519531-18.984376-7.054687-35.769532-7.882812l-1.667968 7.878906c-7.101563 33.539063-32.929688 59.488282-66.085938 68.195313-9.03125 2.371093-16.8125 7.390625-22.609375 14.078125 5.171875 2.441406 10.605469 4.4375 16.261719 5.925781 9.324218 2.445313 17.324218 7.710937 23.171875 14.730469 5.851562-7.019532 13.851562-12.285156 23.175781-14.734375 33.15625-8.707031 58.984375-34.65625 66.085938-68.195313l2.347656-11.097656c.796875-3.773438-1.292969-7.5625-4.910156-8.898438zm0 0" fill="#ffa000"/><path d="m274.113281 417.972656-7.648437-36.121094c-1.335938-6.316406-7.484375-10.410156-13.824219-9.207031-9.011719 1.714844-15.589844 4.332031-22.441406 6.84375l.011719.054688c2.753906 13.011719-7.171876 25.257812-20.46875 25.257812h-132.664063l-2.789063 13.171875c-.746093 3.515625 1.9375 6.828125 5.53125 6.828125h188.757813c3.597656-.003906 6.277344-3.3125 5.535156-6.828125zm0 0" fill="#ffa000"/><path d="m9.347656 473.710938h-1.347656c-4.140625 0-7.5 3.355468-7.5 7.5 0 4.140624 3.359375 7.5 7.5 7.5h.5v9.222656c0 7.753906 6.3125 14.066406 14.066406 14.066406h303.265625c7.757813 0 14.066407-6.3125 14.066407-14.066406v-9.222656h.5c4.144531 0 7.5-3.359376 7.5-7.5 0-4.144532-3.355469-7.5-7.5-7.5h-1.34375c-3.191407-14.070313-15.148438-24.847657-29.804688-26.25 4.535156-7.082032 6.125-15.632813 4.359375-23.976563l-13.167969-62.207031c-10.289062-48.605469-47.183594-85.957032-93.535156-98.089844-3.3125-.867188-5.625-3.824219-5.625-7.1875 0-3.367188 2.3125-6.320312 5.625-7.1875 46.378906-12.140625 83.25-49.507812 93.535156-98.089844l13.167969-62.210937c1.765625-8.339844.175781-16.894531-4.359375-23.972657 14.65625-1.40625 26.613281-12.179687 29.804688-26.25h1.34375c4.144531 0 7.5-3.359374 7.5-7.5 0-4.144531-3.355469-7.5-7.5-7.5h-.5v-9.222656c0-7.753906-6.308594-14.066406-14.066407-14.066406h-303.265625c-7.753906 0-14.066406 6.3125-14.066406 14.066406v9.222656h-.5c-4.140625 0-7.5 3.359376-7.5 7.5 0 4.144532 3.359375 7.5 7.5 7.5h1.347656c3.1875 14.070313 15.144532 24.847657 29.800782 26.25-4.535157 7.082032-6.125 15.632813-4.359376 23.976563l13.171876 62.207031c10.289062 48.613282 47.179687 85.957032 93.53125 98.089844 3.3125.867188 5.625 3.824219 5.625 7.1875s-2.3125 6.320312-5.625 7.1875c-46.378907 12.140625-83.25 49.507812-93.53125 98.089844l-13.171876 62.207031c-1.765624 8.34375-.175781 16.894531 4.359376 23.976563-14.65625 1.402343-26.613282 12.179687-29.800782 26.25zm315.550782 23.289062h-301.398438v-8.289062h301.398438zm-299.839844-458.710938h225.242187c4.140625 0 7.5-3.355468 7.5-7.5 0-4.140624-3.359375-7.5-7.5-7.5h-226.800781v-8.289062h301.398438v8.289062h-39.601563c-4.140625 0-7.5 3.359376-7.5 7.5 0 4.144532 3.359375 7.5 7.5 7.5h38.042969c-2.910156 6.707032-9.589844 11.414063-17.351563 11.414063h-263.578125c-7.761718 0-14.441406-4.707031-17.351562-11.414063zm17.351562 424.007813h55.691406c4.140626 0 7.5-3.355469 7.5-7.5 0-4.140625-3.359374-7.5-7.5-7.5h-31.84375c-10.910156 0-19.050781-10.03125-16.792968-20.707031l13.167968-62.207032c8.992188-42.476562 40.667969-75.691406 82.660157-86.6875 9.90625-2.59375 16.824219-11.515624 16.824219-21.695312 0-10.183594-6.917969-19.105469-16.824219-21.699219-41.992188-10.992187-73.664063-44.210937-82.65625-86.6875l-13.171875-62.207031c-2.253906-10.65625 5.863281-20.707031 16.792968-20.707031 3.476563 0 217.265626 0 215.894532 0 10.914062 0 19.039062 10.050781 16.785156 20.707031l-13.171875 62.207031c-8.992187 42.476563-40.664063 75.691407-82.660156 86.6875-9.90625 2.59375-16.824219 11.515625-16.824219 21.699219s6.917969 19.105469 16.824219 21.695312c41.996093 10.996094 73.667969 44.210938 82.660156 86.6875l13.167969 62.210938c2.261718 10.675781-5.886719 20.707031-16.78125 20.707031-10.183594 0-138.078125 0-149.050782 0-4.140624 0-7.5 3.355469-7.5 7.5 0 4.140625 3.359376 7.5 7.5 7.5h172.886719c7.765625 0 14.445313 4.703125 17.351563 11.410157h-298.28125c2.910156-6.707032 9.589844-11.414063 17.351562-11.414063zm0 0"/><path d="m174.199219 323.5c-4.140625 0-7.5 3.359375-7.5 7.5v23.144531c0 4.140625 3.359375 7.5 7.5 7.5 4.144531 0 7.5-3.359375 7.5-7.5v-23.144531c0-4.140625-3.355469-7.5-7.5-7.5zm0 0"/><path d="m166.699219 230.148438v65.851562c0 4.140625 3.359375 7.5 7.5 7.5 4.144531 0 7.5-3.359375 7.5-7.5v-65.851562c4.792969-5.011719 10.816406-8.574219 17.582031-10.351563 36.492188-9.582031 63.894531-37.898437 71.515625-73.898437l2.347656-11.097657c1.5-7.078125-2.25-14.753906-9.820312-17.550781-11.253907-4.160156-22.890625-8.464844-45.863281-8.464844-22.972657 0-34.609376 4.304688-45.863282 8.46875-10.476562 3.875-20.371094 7.53125-40.660156 7.53125s-30.183594-3.660156-40.660156-7.535156l-.269532-.097656c-4.027343-1.492188-8.550781-.671875-11.804687 2.140625-3.25 2.808593-4.714844 7.164062-3.824219 11.367187l3.222656 15.238282c7.625 36 35.027344 64.316406 71.519532 73.902343 6.765625 1.773438 12.789062 5.339844 17.578125 10.347657zm-74.421875-87.355469-2.03125-9.589844c9.863281 3.484375 21.195312 6.582031 40.691406 6.582031 22.972656 0 34.609375-4.304687 45.863281-8.464844 10.476563-3.875 20.371094-7.535156 40.65625-7.535156 20.289063 0 30.183594 3.660156 40.660157 7.535156l.183593.066407c.125.046875.195313.175781.167969.308593l-2.347656 11.097657c-6.4375 30.417969-29.679688 54.363281-60.652344 62.496093-7.953125 2.089844-15.183594 5.9375-21.269531 11.273438-6.085938-5.335938-13.3125-9.183594-21.269531-11.273438-30.972657-8.132812-54.210938-32.082031-60.652344-62.496093zm0 0"/><path d="m281.449219 416.421875-7.648438-36.125h.003907c-2.167969-10.238281-12.3125-16.96875-22.59375-15.015625-23.417969 4.460938-29.773438 13.933594-62.175782 13.933594-20.285156 0-30.179687-3.660156-40.65625-7.535156-11.253906-4.160157-22.890625-8.464844-45.863281-8.464844-3.414063 0-6.722656.097656-9.84375.292968-8.664063.539063-15.96875 6.839844-17.765625 15.320313l-7.957031 37.59375c-1.730469 8.1875 4.519531 15.875 12.871093 15.875h188.757813c8.386719 0 14.597656-7.71875 12.871094-15.875zm-199.351563.875 7.484375-35.359375c.40625-1.914062 2.0625-3.335938 4.023438-3.460938 2.808593-.171874 5.804687-.261718 8.910156-.261718 20.289063 0 30.183594 3.660156 40.660156 7.53125 11.253907 4.164062 22.886719 8.46875 45.859375 8.46875 35.320313 0 43.742188-10.148438 64.980469-14.195313 2.335937-.449219 4.621094 1.074219 5.109375 3.382813h.003906l7.171875 33.898437zm0 0"/></svg>