<?xml version="1.0"?>
<svg xmlns="http://www.w3.org/2000/svg" xmlns:xlink="http://www.w3.org/1999/xlink" xmlns:svgjs="http://svgjs.com/svgjs" version="1.1" width="512" height="512" x="0" y="0" viewBox="0 0 511.999 511.999" style="enable-background:new 0 0 512 512" xml:space="preserve" class=""><g>
<path xmlns="http://www.w3.org/2000/svg" style="" d="M21.914,348.993L179.977,75.22c33.788-58.521,118.256-58.521,152.043,0l158.063,273.774  c33.788,58.521-8.447,131.673-76.022,131.673H97.936C30.361,480.667-11.873,407.515,21.914,348.993z" fill="#d74444" data-original="#ff5d5d" class=""/>
<g xmlns="http://www.w3.org/2000/svg">
	<circle style="" cx="255.995" cy="378.344" r="27.997" fill="#ffffff" data-original="#ffffff" class=""/>
	<path style="" d="M256,298.34L256,298.34c-15.463,0-27.997-12.535-27.997-27.997V154.592   c0-15.463,12.535-27.997,27.997-27.997l0,0c15.463,0,27.997,12.535,27.997,27.997v115.75   C283.997,285.805,271.462,298.34,256,298.34z" fill="#ffffff" data-original="#ffffff" class=""/>
</g>
<path xmlns="http://www.w3.org/2000/svg" d="M414.063,490.667H297.496c-5.521,0-9.999-4.478-9.999-9.999c0-5.521,4.478-9.999,9.999-9.999h116.567  c28.119,0,53.302-14.539,67.362-38.892c14.061-24.352,14.062-53.431,0.001-77.784L323.362,80.219  C309.302,55.867,284.12,41.328,256,41.328s-53.303,14.539-67.363,38.891L30.574,353.993c-14.061,24.353-14.06,53.432,0.001,77.784  c14.061,24.353,39.242,38.892,67.362,38.892h112.567c5.521,0,9.999,4.478,9.999,9.999c0,5.521-4.478,9.999-9.999,9.999H97.937  c-35.35,0-67.006-18.276-84.68-48.89c-17.675-30.614-17.676-67.169-0.001-97.783L171.319,70.22  C188.994,39.607,220.65,21.33,256,21.33s67.007,18.276,84.681,48.89l158.063,273.774c17.675,30.614,17.674,67.169-0.001,97.783  C481.068,472.39,449.411,490.667,414.063,490.667z" fill="#060606" data-original="#000000" style="" class=""/>
<path xmlns="http://www.w3.org/2000/svg" d="M256,490.67c-2.63,0-5.21-1.069-7.069-2.93c-1.86-1.87-2.93-4.439-2.93-7.069c0-2.63,1.069-5.21,2.93-7.068  c1.86-1.87,4.44-2.931,7.069-2.931s5.209,1.061,7.068,2.931c1.86,1.859,2.931,4.43,2.931,7.068c0,2.631-1.07,5.209-2.931,7.069  C261.209,489.6,258.629,490.67,256,490.67z" fill="#060606" data-original="#000000" style="" class=""/>
<path xmlns="http://www.w3.org/2000/svg" d="M256,416.343c-20.951,0-37.996-17.045-37.996-37.996c0-20.951,17.045-37.996,37.996-37.996s37.996,17.045,37.996,37.996  C293.996,399.298,276.951,416.343,256,416.343z M256,360.348c-9.924,0-17.998,8.074-17.998,17.998  c0,9.924,8.074,17.998,17.998,17.998s17.998-8.074,17.998-17.998C273.998,368.422,265.923,360.348,256,360.348z" fill="#060606" data-original="#000000" style="" class=""/>
<path xmlns="http://www.w3.org/2000/svg" d="M256,308.339c-20.951,0-37.996-17.045-37.996-37.996V154.592c0-20.951,17.045-37.996,37.996-37.996  s37.996,17.045,37.996,37.996v115.751C293.996,291.294,276.951,308.339,256,308.339z M256,136.594  c-9.924,0-17.998,8.074-17.998,17.998v115.751c0,9.924,8.074,17.998,17.998,17.998s17.998-8.074,17.998-17.998V154.592  C273.998,144.668,265.923,136.594,256,136.594z" fill="#060606" data-original="#000000" style="" class=""/>
<path xmlns="http://www.w3.org/2000/svg" d="M154.339,223.525c-2.63,0-5.21-1.069-7.069-2.93c-1.86-1.861-2.93-4.44-2.93-7.069c0-2.64,1.069-5.21,2.93-7.068  c1.86-1.87,4.44-2.931,7.069-2.931c2.63,0,5.21,1.061,7.068,2.931c1.87,1.859,2.931,4.439,2.931,7.068c0,2.63-1.061,5.2-2.931,7.069  C159.549,222.455,156.969,223.525,154.339,223.525z" fill="#060606" data-original="#000000" style="" class=""/>
<path xmlns="http://www.w3.org/2000/svg" d="M75.896,360.35c-1.687,0-3.396-0.428-4.964-1.326c-4.791-2.747-6.447-8.856-3.702-13.648l57.192-99.764  c2.746-4.791,8.855-6.447,13.648-3.702c4.791,2.747,6.447,8.856,3.702,13.648L84.58,355.323  C82.732,358.544,79.362,360.35,75.896,360.35z" fill="#060606" data-original="#000000" style="" class=""/>
<g xmlns="http://www.w3.org/2000/svg">
</g>
<g xmlns="http://www.w3.org/2000/svg">
</g>
<g xmlns="http://www.w3.org/2000/svg">
</g>
<g xmlns="http://www.w3.org/2000/svg">
</g>
<g xmlns="http://www.w3.org/2000/svg">
</g>
<g xmlns="http://www.w3.org/2000/svg">
</g>
<g xmlns="http://www.w3.org/2000/svg">
</g>
<g xmlns="http://www.w3.org/2000/svg">
</g>
<g xmlns="http://www.w3.org/2000/svg">
</g>
<g xmlns="http://www.w3.org/2000/svg">
</g>
<g xmlns="http://www.w3.org/2000/svg">
</g>
<g xmlns="http://www.w3.org/2000/svg">
</g>
<g xmlns="http://www.w3.org/2000/svg">
</g>
<g xmlns="http://www.w3.org/2000/svg">
</g>
<g xmlns="http://www.w3.org/2000/svg">
</g>
</g></svg>
