<?xml version="1.0"?>
<svg xmlns="http://www.w3.org/2000/svg" xmlns:xlink="http://www.w3.org/1999/xlink" xmlns:svgjs="http://svgjs.com/svgjs" version="1.1" width="512" height="512" x="0" y="0" viewBox="0 0 512 512" style="enable-background:new 0 0 512 512" xml:space="preserve" class=""><g><g xmlns="http://www.w3.org/2000/svg"><g><path d="m85.061 439.003c-4.143 0-7.5 3.358-7.5 7.5s3.357 7.5 7.5 7.5h138.016c4.143 0 7.5-3.358 7.5-7.5s-3.357-7.5-7.5-7.5z" fill="#1f1f1f" data-original="#000000" style="" class=""/><path d="m246.607 263.631c-2.071-3.587-6.657-4.815-10.246-2.744l-15.777 9.111 1.123-13.652c.34-4.128-2.731-7.75-6.86-8.089-4.113-.346-7.749 2.731-8.089 6.86l-1.974 24.006-21.716 12.54c-5.507-6.281-13.01-10.766-21.513-12.448v-25.05l19.81-13.694c3.407-2.355 4.26-7.027 1.904-10.434-2.354-3.407-7.028-4.26-10.434-1.905l-11.28 7.798v-18.24c0-4.142-3.357-7.5-7.5-7.5s-7.5 3.358-7.5 7.5v18.229l-11.248-7.785c-3.406-2.356-8.078-1.508-10.436 1.898s-1.507 8.078 1.898 10.436l19.785 13.694v25.052c-8.499 1.681-15.998 6.162-21.504 12.437l-21.698-12.53-1.974-24.005c-.34-4.128-3.967-7.213-8.089-6.86-4.129.339-7.2 3.961-6.86 8.089l1.122 13.652-15.776-9.11c-3.59-2.073-8.175-.843-10.246 2.744s-.843 8.174 2.744 10.245l15.779 9.112-12.37 5.846c-3.745 1.77-5.347 6.24-3.577 9.985 1.281 2.71 3.976 4.297 6.786 4.297 1.074 0 2.165-.232 3.199-.721l21.76-10.284 21.677 12.518c-1.335 3.907-2.07 8.09-2.07 12.444 0 4.345.732 8.519 2.062 12.42l-21.668 12.513-21.761-10.284c-3.744-1.77-8.214-.17-9.985 3.576-1.77 3.745-.168 8.216 3.577 9.985l12.37 5.846-15.779 9.112c-3.587 2.071-4.815 6.658-2.744 10.245 1.39 2.406 3.91 3.751 6.502 3.751 1.272 0 2.562-.325 3.744-1.007l15.776-9.11-1.122 13.651c-.34 4.128 2.731 7.75 6.86 8.089.209.018.416.026.623.026 3.863 0 7.144-2.967 7.466-6.886l1.974-24.005 21.681-12.52c5.508 6.285 13.014 10.774 21.521 12.456v25.023l-19.785 13.694c-3.406 2.357-4.256 7.03-1.898 10.436 2.356 3.405 7.029 4.257 10.436 1.898l11.248-7.785v18.229c0 4.142 3.357 7.5 7.5 7.5s7.5-3.358 7.5-7.5v-18.24l11.28 7.798c1.302.9 2.787 1.331 4.258 1.331 2.38 0 4.721-1.13 6.176-3.235 2.355-3.407 1.503-8.079-1.904-10.435l-19.81-13.695v-25.021c8.512-1.684 16.021-6.177 21.53-12.467l21.699 12.531 1.974 24.006c.322 3.919 3.603 6.886 7.466 6.886.206 0 .414-.008.623-.026 4.129-.339 7.2-3.961 6.86-8.089l-1.122-13.652 15.777 9.111c1.182.683 2.472 1.007 3.744 1.007 2.592 0 5.112-1.345 6.502-3.751 2.071-3.587.843-8.174-2.744-10.245l-15.78-9.112 12.369-5.846c3.745-1.77 5.347-6.24 3.577-9.985-1.771-3.746-6.246-5.347-9.985-3.576l-21.76 10.284-21.693-12.527c1.327-3.896 2.057-8.066 2.057-12.406 0-4.348-.733-8.526-2.065-12.43l21.701-12.532 21.76 10.284c1.035.489 2.125.721 3.199.721 2.811 0 5.505-1.587 6.786-4.297 1.77-3.745.168-8.216-3.577-9.985l-12.369-5.846 15.779-9.112c3.587-2.07 4.816-6.657 2.744-10.244zm-92.552 77.038c-13.011 0-23.596-10.585-23.596-23.596s10.585-23.596 23.596-23.596c13.01 0 23.595 10.585 23.595 23.596s-10.586 23.596-23.595 23.596z" fill="#1f1f1f" data-original="#000000" style="" class=""/><path d="m289.332 441.372c0 6.965 5.653 12.631 12.603 12.631h147.993c6.949 0 12.603-5.666 12.603-12.631v-141.903c0-6.964-5.653-12.63-12.603-12.63h-147.993c-6.949 0-12.603 5.666-12.603 12.63zm158.198-53.109h-37.724v-35.712h37.724zm-90.474-35.712h37.751v35.712h-37.751zm0 50.712h37.751v35.74h-37.751zm37.751-65.712h-37.751v-35.712h37.751zm-52.751 50.712h-37.724v-35.712h37.724zm-37.724 15h37.724v35.74h-37.724zm105.475 35.74v-35.74h37.724v35.74zm37.723-101.452h-37.724v-35.712h37.724zm-105.474-35.712v35.712h-37.724v-35.712z" fill="#1f1f1f" data-original="#000000" style="" class=""/><path d="m296.832 221.76h65.848c4.143 0 7.5-3.358 7.5-7.5s-3.357-7.5-7.5-7.5h-65.848c-4.143 0-7.5 3.358-7.5 7.5s3.357 7.5 7.5 7.5z" fill="#1f1f1f" data-original="#000000" style="" class=""/><path d="m296.832 257.93h131.694c4.143 0 7.5-3.358 7.5-7.5s-3.357-7.5-7.5-7.5h-131.694c-4.143 0-7.5 3.358-7.5 7.5s3.357 7.5 7.5 7.5z" fill="#1f1f1f" data-original="#000000" style="" class=""/><path d="m494.629 50.088h-33.743v-19.996c0-16.592-13.499-30.092-30.092-30.092-16.592 0-30.091 13.5-30.091 30.092v19.996h-56.347v-19.996c0-16.592-13.499-30.092-30.091-30.092s-30.092 13.5-30.092 30.092v19.996h-56.346v-19.996c0-16.592-13.499-30.092-30.092-30.092s-30.092 13.5-30.092 30.092v19.996h-56.347v-19.996c.001-16.592-13.498-30.092-30.09-30.092-16.608 0-30.12 13.5-30.12 30.092v19.996h-33.743c-9.56 0-17.336 7.777-17.336 17.336v94.309c0 6.871 4.027 12.803 9.836 15.606v299.324c0 19.485 15.851 35.337 35.336 35.337h193.062c4.143 0 7.5-3.358 7.5-7.5s-3.357-7.5-7.5-7.5h-193.062c-11.213 0-20.336-9.123-20.336-20.336v-297.594h212.463c4.143 0 7.5-3.358 7.5-7.5s-3.357-7.5-7.5-7.5h-219.963c-1.267 0-2.336-1.07-2.336-2.336v-19.061h481.986v19.061c0 1.288-1.061 2.336-2.364 2.336h-220.19c-4.143 0-7.5 3.358-7.5 7.5s3.357 7.5 7.5 7.5h212.69v297.594c0 11.213-9.11 20.336-20.308 20.336h-194.82c-4.143 0-7.5 3.358-7.5 7.5s3.357 7.5 7.5 7.5h194.82c19.469 0 35.308-15.852 35.308-35.336v-299.319c5.825-2.801 9.864-8.736 9.864-15.612v-94.308c0-9.56-7.79-17.337-17.364-17.337zm-78.926-19.996c0-8.322 6.77-15.092 15.091-15.092s15.092 6.771 15.092 15.092v48.189c0 8.322-6.771 15.092-15.092 15.092s-15.091-6.771-15.091-15.092zm-116.53 0c0-8.322 6.771-15.092 15.092-15.092s15.092 6.771 15.092 15.092v48.189c0 8.322-6.771 15.092-15.092 15.092s-15.092-6.771-15.092-15.092zm-116.529 0c0-8.322 6.771-15.092 15.092-15.092s15.092 6.771 15.092 15.092v48.189c0 8.322-6.771 15.092-15.092 15.092s-15.092-6.771-15.092-15.092zm-116.558 0c0-8.322 6.783-15.092 15.12-15.092 8.321 0 15.091 6.771 15.091 15.092v48.189c0 8.322-6.77 15.092-15.091 15.092-8.337 0-15.12-6.771-15.12-15.092zm-51.079 97.581v-60.248c0-1.267 1.069-2.336 2.336-2.336h33.743v13.193c0 16.593 13.512 30.092 30.12 30.092 16.592 0 30.091-13.5 30.091-30.092v-13.194h56.347v13.193c0 16.593 13.499 30.092 30.092 30.092s30.092-13.5 30.092-30.092v-13.193h56.346v13.193c0 16.593 13.499 30.092 30.092 30.092s30.092-13.5 30.092-30.092v-13.193h56.347v13.193c0 16.593 13.499 30.092 30.091 30.092 16.593 0 30.092-13.5 30.092-30.092v-13.193h33.743c1.304 0 2.364 1.048 2.364 2.336v60.248h-481.988z" fill="#1f1f1f" data-original="#000000" style="" class=""/></g></g></g></svg>
