<?xml version="1.0"?>
<svg xmlns="http://www.w3.org/2000/svg" xmlns:xlink="http://www.w3.org/1999/xlink" xmlns:svgjs="http://svgjs.com/svgjs" version="1.1" width="512" height="512" x="0" y="0" viewBox="0 0 512.002 512.002" style="enable-background:new 0 0 512 512" xml:space="preserve"><g>
<path xmlns="http://www.w3.org/2000/svg" style="" d="M443.734,236.568l-112.939-9.813c-49.812-4.334-99.906-4.334-149.717,0L68.14,236.568  c-38.659,3.187-68.348,35.6-68.139,74.389V412.29c-0.204,38.835,29.557,71.265,68.267,74.389l112.939,9.813  c24.832,2.133,49.835,3.243,74.859,3.243c25.024,0,50.027-1.067,74.859-3.243l112.939-9.813  c38.667-3.188,68.359-35.613,68.139-74.411V310.936C512.194,272.109,482.436,239.691,443.734,236.568z" fill="#e53935" data-original="#e53935"/>
<g xmlns="http://www.w3.org/2000/svg">
	<path style="" d="M96.001,438.957c-5.891,0-10.667-4.776-10.667-10.667v-128c0-5.891,4.776-10.667,10.667-10.667   c5.891,0,10.667,4.776,10.667,10.667v128C106.668,434.181,101.892,438.957,96.001,438.957z" fill="#fafafa" data-original="#fafafa"/>
	<path style="" d="M138.668,310.957H53.334c-5.891,0-10.667-4.776-10.667-10.667c0-5.891,4.776-10.667,10.667-10.667   h85.333c5.891,0,10.667,4.776,10.667,10.667C149.334,306.181,144.559,310.957,138.668,310.957z" fill="#fafafa" data-original="#fafafa"/>
</g>
<g xmlns="http://www.w3.org/2000/svg">
	<path style="" d="M96.001,118.957c-3.357,0-6.519-1.581-8.533-4.267l-64-85.333   c-3.536-4.712-2.582-11.398,2.13-14.934s11.398-2.582,14.934,2.13c0.001,0.001,0.002,0.002,0.003,0.004l55.467,73.941   l55.467-73.941c3.535-4.713,10.22-5.668,14.933-2.133c4.713,3.535,5.668,10.221,2.133,14.933l0,0l-64,85.333   C102.52,117.376,99.359,118.957,96.001,118.957z" fill="#e53935" data-original="#e53935"/>
	<path style="" d="M96.001,204.29c-5.891,0-10.667-4.776-10.667-10.667V108.29c0-5.891,4.776-10.667,10.667-10.667   c5.891,0,10.667,4.776,10.667,10.667v85.333C106.668,199.515,101.892,204.29,96.001,204.29z" fill="#e53935" data-original="#e53935"/>
	<path style="" d="M213.334,204.29c-35.346,0-64-28.654-64-64v-21.333c0-35.346,28.654-64,64-64s64,28.654,64,64   v21.333C277.334,175.637,248.681,204.29,213.334,204.29z M213.334,76.29c-23.564,0-42.667,19.103-42.667,42.667v21.333   c0,23.564,19.103,42.667,42.667,42.667s42.667-19.103,42.667-42.667v-21.333C256.001,95.393,236.899,76.29,213.334,76.29   C213.334,76.29,213.334,76.29,213.334,76.29z" fill="#e53935" data-original="#e53935"/>
	<path style="" d="M362.668,204.29c-35.346,0-64-28.654-64-64V65.624c0-5.891,4.776-10.667,10.667-10.667   s10.667,4.776,10.667,10.667v74.667c0,23.564,19.103,42.667,42.667,42.667s42.667-19.103,42.667-42.667V65.624   c0-5.891,4.776-10.667,10.667-10.667c5.891,0,10.667,4.776,10.667,10.667v74.667C426.668,175.637,398.014,204.29,362.668,204.29z" fill="#e53935" data-original="#e53935"/>
	<path style="" d="M458.668,204.29c-53.333,0-53.333-56.192-53.333-74.667c0-5.891,4.776-10.667,10.667-10.667   c5.891,0,10.667,4.776,10.667,10.667c0,44.267,12.8,53.333,32,53.333c5.891,0,10.667,4.776,10.667,10.667   C469.334,199.515,464.559,204.29,458.668,204.29z" fill="#e53935" data-original="#e53935"/>
</g>
<g xmlns="http://www.w3.org/2000/svg">
	<path style="" d="M192.001,438.957c-23.564,0-42.667-19.103-42.667-42.667v-53.333   c0-5.891,4.776-10.667,10.667-10.667c5.891,0,10.667,4.776,10.667,10.667v53.333c0,11.782,9.551,21.333,21.333,21.333   c11.782,0,21.333-9.551,21.333-21.333v-53.333c0-5.891,4.776-10.667,10.667-10.667c5.891,0,10.667,4.776,10.667,10.667v53.333   C234.668,419.855,215.565,438.957,192.001,438.957z" fill="#fafafa" data-original="#fafafa"/>
	<path style="" d="M266.668,438.957c-5.891,0-10.667-4.776-10.667-10.667v-128c0-5.891,4.776-10.667,10.667-10.667   c5.891,0,10.667,4.776,10.667,10.667v128C277.334,434.181,272.559,438.957,266.668,438.957z" fill="#fafafa" data-original="#fafafa"/>
	<path style="" d="M448.001,438.957h-21.333c-23.564,0-42.667-19.103-42.667-42.667v-21.333   c0-23.564,19.103-42.667,42.667-42.667c23.564,0,42.667,19.102,42.667,42.667v10.667c0,5.891-4.776,10.667-10.667,10.667h-53.333   c0,11.782,9.551,21.333,21.333,21.333h21.333c5.891,0,10.667,4.776,10.667,10.667C458.668,434.181,453.892,438.957,448.001,438.957   z M405.334,374.957h42.667c0-11.782-9.551-21.333-21.333-21.333C414.886,353.624,405.334,363.175,405.334,374.957z" fill="#fafafa" data-original="#fafafa"/>
	<path style="" d="M309.334,438.957c-29.455,0-53.333-23.878-53.333-53.333s23.878-53.333,53.333-53.333   s53.333,23.878,53.333,53.333S338.79,438.957,309.334,438.957z M309.334,353.624c-17.673,0-32,14.327-32,32s14.327,32,32,32   s32-14.327,32-32S327.008,353.624,309.334,353.624z" fill="#fafafa" data-original="#fafafa"/>
</g>
<path xmlns="http://www.w3.org/2000/svg" d="M256.001,499.714c-25.003,0-50.005-1.067-74.837-3.221l-112.896-9.835c-38.71-3.124-68.471-35.554-68.267-74.389V310.936  c-0.193-38.827,29.565-71.244,68.267-74.368l112.96-9.835c49.797-4.334,99.877-4.334,149.675,0l112.96,9.835  c38.651,3.187,68.337,35.586,68.139,74.368v101.333c0.193,38.827-29.565,71.244-68.267,74.368l-112.96,9.835  C306.028,498.648,281.004,499.714,256.001,499.714z M256.001,244.845c-24.391,0-48.725,1.045-73.003,3.136l-112.96,9.835  c-27.62,2.263-48.841,25.408-48.704,53.12v101.333c-0.137,27.712,21.084,50.857,48.704,53.12l112.96,9.835  c48.577,4.209,97.428,4.209,146.005,0l112.96-9.835l0,0c27.62-2.263,48.841-25.408,48.704-53.12V310.936  c0.137-27.712-21.084-50.857-48.704-53.12l-112.96-9.835C304.769,245.876,280.435,244.831,256.001,244.845z" fill="#000000" data-original="#000000" style=""/>
<path xmlns="http://www.w3.org/2000/svg" d="M96.001,438.936c-5.891,0-10.667-4.776-10.667-10.667v-128c0-5.891,4.776-10.667,10.667-10.667  c5.891,0,10.667,4.776,10.667,10.667v128C106.668,434.16,101.892,438.936,96.001,438.936z" fill="#000000" data-original="#000000" style=""/>
<path xmlns="http://www.w3.org/2000/svg" d="M138.668,310.936H53.334c-5.891,0-10.667-4.776-10.667-10.667c0-5.891,4.776-10.667,10.667-10.667h85.333  c5.891,0,10.667,4.776,10.667,10.667C149.334,306.16,144.559,310.936,138.668,310.936z" fill="#000000" data-original="#000000" style=""/>
<path xmlns="http://www.w3.org/2000/svg" d="M96.001,118.936c-3.357,0-6.519-1.581-8.533-4.267l-64-85.333c-3.536-4.712-2.582-11.398,2.13-14.934  s11.398-2.582,14.934,2.13c0.001,0.001,0.002,0.002,0.003,0.004l55.467,73.963l55.467-73.963c3.535-4.713,10.22-5.668,14.933-2.133  c4.713,3.535,5.668,10.221,2.133,14.933l-64,85.333C102.52,117.355,99.359,118.936,96.001,118.936z" fill="#000000" data-original="#000000" style=""/>
<path xmlns="http://www.w3.org/2000/svg" d="M96.001,204.269c-5.891,0-10.667-4.776-10.667-10.667v-85.333c0-5.891,4.776-10.667,10.667-10.667  c5.891,0,10.667,4.776,10.667,10.667v85.333C106.668,199.493,101.892,204.269,96.001,204.269z" fill="#000000" data-original="#000000" style=""/>
<path xmlns="http://www.w3.org/2000/svg" d="M213.334,204.269c-35.346,0-64-28.654-64-64v-21.333c0-35.346,28.654-64,64-64s64,28.654,64,64v21.333  C277.334,175.615,248.681,204.269,213.334,204.269z M213.334,76.269c-23.564,0-42.667,19.103-42.667,42.667v21.333  c0,23.564,19.103,42.667,42.667,42.667s42.667-19.103,42.667-42.667v-21.333C256.001,95.372,236.899,76.269,213.334,76.269z" fill="#000000" data-original="#000000" style=""/>
<path xmlns="http://www.w3.org/2000/svg" d="M362.668,204.269c-35.346,0-64-28.654-64-64V65.602c0-5.891,4.776-10.667,10.667-10.667s10.667,4.776,10.667,10.667v74.667  c0,23.564,19.103,42.667,42.667,42.667s42.667-19.103,42.667-42.667V65.602c0-5.891,4.776-10.667,10.667-10.667  c5.891,0,10.667,4.776,10.667,10.667v74.667C426.668,175.615,398.014,204.269,362.668,204.269z" fill="#000000" data-original="#000000" style=""/>
<path xmlns="http://www.w3.org/2000/svg" d="M458.668,204.269c-53.333,0-53.333-56.213-53.333-74.667c0-5.891,4.776-10.667,10.667-10.667  c5.891,0,10.667,4.776,10.667,10.667c0,44.267,12.8,53.333,32,53.333c5.891,0,10.667,4.776,10.667,10.667  C469.334,199.493,464.559,204.269,458.668,204.269z" fill="#000000" data-original="#000000" style=""/>
<path xmlns="http://www.w3.org/2000/svg" d="M192.001,438.936c-23.564,0-42.667-19.102-42.667-42.667v-53.333c0-5.891,4.776-10.667,10.667-10.667  c5.891,0,10.667,4.776,10.667,10.667v53.333c0,11.782,9.551,21.333,21.333,21.333c11.782,0,21.333-9.551,21.333-21.333v-53.333  c0-5.891,4.776-10.667,10.667-10.667c5.891,0,10.667,4.776,10.667,10.667v53.333C234.668,419.833,215.565,438.936,192.001,438.936z" fill="#000000" data-original="#000000" style=""/>
<path xmlns="http://www.w3.org/2000/svg" d="M266.668,438.936c-5.891,0-10.667-4.776-10.667-10.667v-128c0-5.891,4.776-10.667,10.667-10.667  c5.891,0,10.667,4.776,10.667,10.667v128C277.334,434.16,272.559,438.936,266.668,438.936z" fill="#000000" data-original="#000000" style=""/>
<path xmlns="http://www.w3.org/2000/svg" d="M448.001,438.936h-21.333c-23.564,0-42.667-19.102-42.667-42.667v-21.333c0-23.564,19.103-42.667,42.667-42.667  c23.564,0,42.667,19.103,42.667,42.667v10.667c0,5.891-4.776,10.667-10.667,10.667h-53.333c0,11.782,9.551,21.333,21.333,21.333  h21.333c5.891,0,10.667,4.776,10.667,10.667S453.892,438.936,448.001,438.936z M405.334,374.936h42.667  c0-11.782-9.551-21.333-21.333-21.333C414.886,353.602,405.334,363.154,405.334,374.936z" fill="#000000" data-original="#000000" style=""/>
<path xmlns="http://www.w3.org/2000/svg" d="M309.334,438.936c-29.455,0-53.333-23.878-53.333-53.333s23.878-53.333,53.333-53.333s53.333,23.878,53.333,53.333  S338.79,438.936,309.334,438.936z M309.334,353.602c-17.673,0-32,14.327-32,32s14.327,32,32,32s32-14.327,32-32  S327.008,353.602,309.334,353.602z" fill="#000000" data-original="#000000" style=""/>
<g xmlns="http://www.w3.org/2000/svg">
</g>
<g xmlns="http://www.w3.org/2000/svg">
</g>
<g xmlns="http://www.w3.org/2000/svg">
</g>
<g xmlns="http://www.w3.org/2000/svg">
</g>
<g xmlns="http://www.w3.org/2000/svg">
</g>
<g xmlns="http://www.w3.org/2000/svg">
</g>
<g xmlns="http://www.w3.org/2000/svg">
</g>
<g xmlns="http://www.w3.org/2000/svg">
</g>
<g xmlns="http://www.w3.org/2000/svg">
</g>
<g xmlns="http://www.w3.org/2000/svg">
</g>
<g xmlns="http://www.w3.org/2000/svg">
</g>
<g xmlns="http://www.w3.org/2000/svg">
</g>
<g xmlns="http://www.w3.org/2000/svg">
</g>
<g xmlns="http://www.w3.org/2000/svg">
</g>
<g xmlns="http://www.w3.org/2000/svg">
</g>
</g></svg>
