<svg id="Layer_3" enable-background="new 0 0 64 64" height="512" viewBox="0 0 64 64" width="512" xmlns="http://www.w3.org/2000/svg"><g><path d="m30 19h10c1.921 0 3.763-.763 5.121-2.121l.744-.744c.727-.727 1.135-1.712 1.135-2.74 0-1.468-.829-2.81-2.142-3.466l-1.858-.929v-4.382c0-.406-.095-.807-.276-1.171-.444-.887-1.35-1.447-2.342-1.447-.873 0-1.7.397-2.245 1.079-2.072 2.591-4.616 4.766-7.496 6.412l-1.128.644" fill="#cd2f45"/><path d="m29.89 17-.377-6.864 1.128-.644c2.88-1.646 5.424-3.821 7.496-6.412.545-.683 1.371-1.08 2.245-1.08.992 0 1.898.56 2.342 1.447.181.364.276.765.276 1.171v4.382l1.858.929c.149.075.29.161.426.252.128.386.203.794.203 1.214 0 1.028-.408 2.013-1.135 2.74l-.744.744c-1.358 1.358-3.2 2.121-5.121 2.121 0 0-6.523 0-8.597 0z" fill="#fd505b"/><path d="m22 19h-10c-1.921 0-3.763-.763-5.121-2.121l-.744-.744c-.727-.727-1.135-1.712-1.135-2.74 0-1.468.829-2.81 2.142-3.466l1.858-.929v-4.382c0-.406.095-.807.276-1.171.444-.887 1.35-1.447 2.342-1.447.873 0 1.7.397 2.245 1.079 2.072 2.591 4.616 4.766 7.496 6.412l1.128.644" fill="#cd2f45"/><path d="m22.11 17 .377-6.864-1.127-.645c-2.88-1.646-5.424-3.821-7.496-6.412-.546-.682-1.372-1.079-2.246-1.079-.992 0-1.898.56-2.342 1.447-.181.364-.276.765-.276 1.171v4.382l-1.858.929c-.149.075-.29.161-.426.252-.128.386-.203.794-.203 1.214 0 1.028.408 2.013 1.135 2.74l.744.744c1.358 1.358 3.2 2.121 5.121 2.121z" fill="#fd505b"/><path d="m5.994 29h40v33h-40z" fill="#2769b1"/><path d="m6 33h40v29h-40z" fill="#3c80c0"/><path d="m4 19h44v10h-44z" fill="#19529b"/><path d="m17 26h31v-7h-40.541c1.275 4.057 5.064 7 9.541 7z" fill="#2769b1"/><path d="m18 18h16v12h-16z" fill="#fd505b"/><path d="m18 18h16v8h-16z" fill="#ff9aa5"/><path d="m20 30h12v32h-12z" fill="#fd505b"/><g fill="#cd2f45"><path d="m20 30h12v3h-12z"/><path d="m23 30h2v32h-2z"/><path d="m27 30h2v32h-2z"/></g><path d="m22 18h2v12h-2z" fill="#ea3647"/><path d="m28 18h2v12h-2z" fill="#ea3647"/><path d="m20.089 14.973c-3.194-.192-6.178-1.289-8.688-3.173l1.199-1.6c2.198 1.648 4.809 2.607 7.55 2.774l11.762-.002c2.681-.165 5.291-1.124 7.489-2.772l1.199 1.6c-2.511 1.884-5.494 2.98-8.628 3.171z" fill="#cd2f45"/><path d="m44.273 47.745-3.132-5.231c-2.712-4.748-4.141-10.128-4.141-15.576v-7.938h2v7.938c0 5.101 1.338 10.138 3.868 14.566l3.122 5.214z" fill="#fff"/><path d="m23 30h2v3h-2z" fill="#b62743"/><path d="m27 30h2v3h-2z" fill="#b62743"/><path d="m31.197 18.001c.511-.883.803-1.908.803-3.001 0-3.314-2.686-6-6-6s-6 2.686-6 6c0 1.093.292 2.118.803 3.001" fill="#ea3647"/><path d="m60 50-8-8h-10v10l8 8z" fill="#e47eab"/><path d="m42 42v8l8 8 9-9-7-7z" fill="#ee9cc6"/><path d="m53 53h-3.172c-1.171 0-2.293-.465-3.121-1.293-.453-.453-.707-1.067-.707-1.707 0-1.105.895-2 2-2 0-1.105.895-2 2-2 .64 0 1.254.254 1.707.707.828.828 1.293 1.951 1.293 3.121z" fill="#fff"/><path d="m3 19v10c0 .553.447 1 1 1h1v32c0 .553.447 1 1 1h40c.553 0 1-.447 1-1v-3.586l2.293 2.293c.195.195.451.293.707.293s.512-.098.707-.293l10-10c.391-.391.391-1.023 0-1.414l-8-8c-.187-.188-.441-.293-.707-.293h-5v-11h1c.553 0 1-.447 1-1v-10c0-.553-.447-1-1-1h-2.628c.155-.134.31-.268.456-.414l.744-.744c.921-.921 1.428-2.145 1.428-3.447 0-1.858-1.032-3.529-2.694-4.36l-1.306-.653v-3.764c0-.558-.132-1.118-.382-1.618-.617-1.233-1.857-2-3.236-2-1.183 0-2.285.53-3.026 1.454-2.002 2.503-4.428 4.579-7.211 6.169l-.608.347c-1.039-.612-2.246-.97-3.537-.97s-2.498.358-3.537.97l-.607-.347c-2.783-1.59-5.209-3.666-7.212-6.169-.741-.924-1.843-1.454-3.026-1.454-1.379 0-2.619.767-3.236 2-.25.5-.382 1.06-.382 1.618v3.764l-1.306.652c-1.662.831-2.694 2.502-2.694 4.361 0 1.303.507 2.526 1.428 3.447l.744.744c.146.146.301.28.456.414h-2.628c-.553 0-1 .447-1 1zm4 11h10c0 .553.447 1 1 1h1v30h-12zm15-11v10h-3v-10zm11 0v10h-3v-10zm-10 12v30h-2v-30zm2 0h2v30h-2zm4 0h2v30h-2zm-1-2h-4v-10h4zm17 32h-12v-30h1c.553 0 1-.447 1-1h2.167c.423 4.292 1.72 8.471 3.833 12.247v9.753c0 .266.105.52.293.707l3.707 3.707zm-10-41h2v6.938c0 .355.023.708.035 1.062h-2.035zm23.586 30-8.586 8.586-7-7v-8.586h8.586zm-13.586-9h-2.398c-1.859-3.407-3.021-7.151-3.426-11h5.824zm2-21v8h-7.965c-.013-.354-.035-.708-.035-1.062v-6.938zm-8.083-16.296c.358-.447.893-.704 1.465-.704.617 0 1.172.343 1.447.895.112.223.171.473.171.723v4.382c0 .379.214.726.553.895l1.858.929c.98.49 1.589 1.476 1.589 2.571 0 .769-.299 1.49-.842 2.033l-.744.744c-1.179 1.179-2.747 1.828-4.414 1.828h-5c0-.553-.447-1-1-1h-1.301c.192-.647.301-1.319.301-2 0-.043-.006-.086-.007-.129 2.758-.345 5.37-1.394 7.606-3.071l-1.199-1.6c-1.976 1.482-4.287 2.401-6.725 2.694-.305-.965-.819-1.836-1.482-2.571 2.979-1.711 5.579-3.936 7.724-6.619zm-7.917 11.296c0 .692-.148 1.372-.422 2h-9.157c-.273-.628-.421-1.308-.421-2 0-2.757 2.243-5 5-5s5 2.243 5 5zm-23.414 1.172-.744-.744c-.543-.543-.842-1.265-.842-2.033 0-1.096.608-2.081 1.589-2.571l1.858-.929c.339-.169.553-.516.553-.895v-4.382c0-.25.059-.5.171-.724.275-.551.83-.894 1.447-.894.572 0 1.106.257 1.464.704 2.146 2.683 4.746 4.908 7.725 6.619-.662.735-1.176 1.606-1.482 2.571-2.438-.293-4.749-1.212-6.725-2.694l-1.2 1.6c2.236 1.678 4.848 2.726 7.606 3.071 0 .043-.006.086-.006.129 0 .681.109 1.353.301 2h-1.301c-.553 0-1 .447-1 1h-5c-1.667 0-3.235-.649-4.414-1.828zm-2.586 3.828h12v8h-12z"/><path d="m49.828 54h3.172c.553 0 1-.447 1-1v-3.172c0-1.446-.563-2.806-1.586-3.828-.645-.645-1.502-1-2.414-1-1.352 0-2.497.898-2.871 2.129-1.231.374-2.129 1.519-2.129 2.871 0 .912.355 1.77 1 2.414 1.022 1.023 2.382 1.586 3.828 1.586zm-1.828-5c.553 0 1-.447 1-1 0-.552.448-1 1-1 .378 0 .732.147 1 .414.645.645 1 1.502 1 2.414v2.172h-2.172c-.912 0-1.77-.355-2.414-1-.267-.268-.414-.622-.414-1 0-.552.448-1 1-1z"/></g></svg>