<svg id="color" enable-background="new 0 0 64 64" height="512" viewBox="0 0 64 64" width="512" xmlns="http://www.w3.org/2000/svg"><path d="m52.53 31.49-2.32-2.49h5.79v1.71 30.29c0 1.1-.9 2-2 2h-17v-15.64-18.36h2 3.98l4.04 5.61.79-3.89z" fill="#ffd046"/><path d="m25 29h-3.97l-4 5.55-.79-3.89-4.72.77 2.29-2.43h-5.81v32c0 .3.06.58.18.83.04.09.09.17.14.25.04.07.09.13.14.19.07.09.15.16.23.23.07.07.14.12.22.17.08.06.16.1.25.14.08.04.17.08.26.1.08.03.16.05.25.06.11.02.22.03.33.03h17v-9.54-24.46z" fill="#ffd046"/><path d="m16.72 33h-8.72v-4h5.81l-2.29 2.43 4.72-.77z" fill="#eaa203"/><path d="m27 29v4h-8.85l2.88-4z" fill="#eaa203"/><path d="m45.86 33h-8.86v-4h5.98z" fill="#eaa203"/><path d="m11.29 16c.27 1.79 3.37 2.89 14.17.61l-11.65 12.39h-5.81-1c-1.1 0-2-.9-2-2v-9c0-1.1.9-2 2-2z" fill="#ffd046"/><path d="m27 29h10v34h-10z" fill="#d7263d"/><path d="m53 29h-2.79l2.32 2.49-4.72-.77-.46 2.28h1.567c2.255 0 4.083 1.828 4.083 4.083v16.297c0 3.656-2.964 6.62-6.62 6.62h-9.38v3h17c1.1 0 2-.9 2-2v-28-4z" fill="#eaa203"/><path d="m27 60v3h-17c-.11 0-.22-.01-.33-.03-.09-.01-.17-.03-.25-.06-.09-.02-.18-.06-.26-.1-.09-.04-.17-.08-.25-.14-.08-.05-.15-.1-.22-.17-.08-.07-.16-.14-.23-.23-.05-.06-.1-.12-.14-.19-.05-.08-.1-.16-.14-.25-.12-.25-.18-.53-.18-.83v-1z" fill="#eaa203"/><path d="m27 60h10v3h-10z" fill="#b70039"/><path d="m52.94 4.46c2.41 3.6.52 5.69-2.83 6.91-4.95 1.81-13.15 1.67-15.16 1.63h-.01c.04-.32.06-.66.06-1 0-1.26-.28-2.41-.75-3.29 1.77-1.91 12.72-13.18 18.69-4.25z" fill="#d7263d"/><path d="m39 23.48 3.98 5.52h-3.98z" fill="#ffb600"/><path d="m59 27c0 1.1-.9 2-2 2h-1-5.79l-11.43-12.29c10.82 2.27 13.86 1.13 14.1-.69l4.12-.02c1.1 0 2 .9 2 2z" fill="#ffd046"/><path d="m27 29h10v4h-10z" fill="#b70039"/><path d="m52.53 31.49-4.72-.77-.79 3.89-4.04-5.61-3.98-5.52-5.56-7.09v-.01c.24-.21.44-.45.62-.75 1.72.42 3.29.78 4.72 1.08l11.43 12.29z" fill="#d7263d"/><path d="m50.11 11.37c.41.38 2.99 2.85 2.77 4.65-.24 1.82-3.28 2.96-14.1.69-1.43-.3-3-.66-4.72-1.08.44-.69.76-1.61.88-2.63h.01c2.01.04 10.21.18 15.16-1.63z" fill="#d7263d"/><path d="m54.88 19.02c-.23 1.76-3.1 2.89-13.13.89l-2.97-3.2c10.82 2.27 13.86 1.13 14.1-.69h.74c.72.92 1.38 2.05 1.26 3z" fill="#ffb600"/><path d="m32 17c.52 0 1.01-.22 1.44-.61l5.56 7.09v5.52h-2-10-2v-5.51l5.56-7.1c.43.39.92.61 1.44.61z" fill="#d7263d"/><path d="m39 23.48v4l-5.56-7.09c-.43.39-.92.61-1.44.61s-1.01-.22-1.44-.61l-5.56 7.1v-4l5.56-7.1c.43.39.92.61 1.44.61s1.01-.22 1.44-.61z" fill="#b70039"/><path d="m29.05 12.94c-.03-.31-.05-.62-.05-.94 0-1.29.3-2.47.78-3.36.54-1.01 1.34-1.64 2.22-1.64.9 0 1.71.66 2.25 1.71.47.88.75 2.03.75 3.29 0 .34-.02.68-.06 1-.12 1.02-.44 1.94-.88 2.63-.18.3-.38.54-.62.75v.01c-.43.39-.92.61-1.44.61s-1.01-.22-1.44-.61c-.24-.22-.46-.49-.65-.81-.44-.7-.74-1.62-.86-2.64z" fill="#d7263d"/><path d="m35 12v.03c-.73-1.25-1.81-2.03-3-2.03s-2.27.78-3 2.03v-.03c0-1.29.3-2.47.78-3.36.54-1.01 1.34-1.64 2.22-1.64.9 0 1.71.66 2.25 1.71.47.88.75 2.03.75 3.29z" fill="#d6455d"/><path d="m14 11.34c4.96 1.78 13.05 1.64 15.05 1.6.12 1.02.42 1.94.86 2.64-1.61.4-3.09.74-4.45 1.03-10.8 2.28-13.9 1.18-14.17-.61-.26-1.69 2.03-4.01 2.71-4.66z" fill="#d7263d"/><path d="m25.46 16.61-3.02 3.21c-9.98 2-12.89.91-13.15-.82-.14-.94.5-2.07 1.22-3h.78c.27 1.79 3.37 2.89 14.17.61z" fill="#ffb600"/><path d="m52 13.539c-.723-1.06-1.657-1.953-1.89-2.169-4.95 1.81-13.15 1.67-15.16 1.63h-.01c-.059.498-.166.971-.311 1.406 5.79 1.279 11.581.615 17.371-.867z" fill="#b70039"/><path d="m29.452 14.617c-.19-.51-.331-1.072-.402-1.677-2 .04-10.09.18-15.05-1.6-.339.324-1.079 1.064-1.703 1.934 5.066 2.334 11.518 2.487 17.155 1.343z" fill="#b70039"/><path d="m25 23.49v5.51h-3.97z" fill="#ffb600"/><path d="m29.05 12.94c-2 .04-10.09.18-15.05-1.6-3.38-1.22-5.31-3.32-2.89-6.94 5.96-8.92 16.88 2.3 18.67 4.24-.48.89-.78 2.07-.78 3.36 0 .32.02.63.05.94z" fill="#d7263d"/><path d="m53.68 8.82c-.17-.43-.42-.88-.74-1.36-5.43-8.12-14.98.47-18 3.53-.11-.86-.35-1.64-.69-2.28 1.77-1.91 12.72-13.18 18.69-4.25 1.21 1.81 1.34 3.23.74 4.36z" fill="#d6455d"/><path d="m29.78 8.64c-.34.63-.59 1.4-.71 2.26-3.03-3.08-12.54-11.61-17.96-3.5-.32.48-.56.93-.73 1.36-.6-1.13-.48-2.55.73-4.36 5.96-8.92 16.88 2.3 18.67 4.24z" fill="#d6455d"/><path d="m25.46 16.61c1.36-.29 2.84-.63 4.45-1.03.19.32.41.59.65.81l-5.56 7.1-3.97 5.51-4 5.55-.79-3.89-4.72.77 2.29-2.43z" fill="#d7263d"/><g fill="#ffd046"><path d="m9.42 62.91c.08.03.16.05.25.06-.09-.01-.17-.03-.25-.06z"/><path d="m8.91 62.67c.08.06.16.1.25.14-.09-.03-.17-.08-.25-.14z"/><path d="m8.69 62.5c.07.07.14.12.22.17-.08-.04-.15-.1-.22-.17z"/><path d="m8.32 62.08c.04.07.09.13.14.19-.05-.06-.1-.13-.14-.19z"/></g><g fill="#f4e9ce"><path d="m6.823 19.949c.074.382.328.651.739.64.206-.006.418-.143.542-.329.121-.086.22-.205.286-.35.101-.222.158-.482.189-.724.044-.348.009-.684-.278-.927-.347-.295-.842-.185-1.141.115-.421.423-.443 1.022-.337 1.575z"/><path d="m7.279 20.902c.888-.064.988 1.316.099 1.38-.888.063-.989-1.316-.099-1.38z"/></g><path d="m14.923 3.517c-.984.423-1.83 1.056-2.497 1.895-.801 1.007.759 2.259 1.563 1.249.448-.563.992-.992 1.654-1.277 1.178-.508.465-2.377-.72-1.867z" fill="#eaa9b7"/><path d="m48.526 3.517c.984.423 1.83 1.056 2.497 1.895.801 1.007-.759 2.259-1.563 1.249-.448-.563-.992-.992-1.654-1.277-1.178-.508-.465-2.377.72-1.867z" fill="#eaa9b7"/><g><path d="m56.995 15-3.203.015c-.286-1.211-1.156-2.412-1.955-3.309 1.583-.806 2.594-1.826 2.994-3.049.462-1.414.105-3.013-1.06-4.753-1.565-2.343-3.589-3.627-6.012-3.818-5.244-.419-10.865 4.516-13.39 7.057-.659-.718-1.474-1.143-2.369-1.143-.873 0-1.671.403-2.321 1.089-2.508-2.529-8.126-7.461-13.381-7.067-2.427.19-4.451 1.477-6.019 3.822-1.165 1.741-1.52 3.343-1.054 4.76.407 1.239 1.44 2.27 3.057 3.082-.829.945-1.644 2.135-1.908 3.313h-3.374c-1.654 0-3 1.346-3 3v9c0 1.654 1.346 3 3 3v31c0 1.654 1.346 3 3 3h44c1.654 0 3-1.346 3-3v-30.999c1.654 0 3-1.346 3-3v-9c0-1.654-1.346-3-3.005-3zm-31.017 2.519c.96-.207 1.951-.436 2.958-.677l-4.747 6.063-6.633 9.206-.335-1.65c-.107-.527-.613-.876-1.142-.788l-1.808.295zm7.239.207 4.783 6.099v4.175h-12v-4.165l4.783-6.108c.382.177.791.273 1.217.273s.835-.096 1.217-.274zm-9.217 8.861v1.413h-1.018zm12 3.413v32h-8v-32zm4-3.421 1.024 1.421h-1.024zm-.213-3.716-4.664-5.949c1.134.269 2.167.501 3.14.707l11.542 12.411-1.834-.3c-.533-.084-1.034.261-1.142.788l-.334 1.649zm-.802-7.132c-1.067-.224-2.217-.483-3.487-.784.11-.298.201-.614.277-.943.345.004.695.01 1.032.01 5.52 0 9.972-.52 13.036-1.508 1.144 1.161 2.143 2.594 2.047 3.382-.019.136-.07.299-.32.476-.816.578-3.538 1.266-12.585-.633zm8.617-13.652c1.808.144 3.282 1.104 4.508 2.938.806 1.203 1.082 2.219.82 3.02-.307.937-1.37 1.742-3.163 2.395-2.942 1.075-7.814 1.631-13.767 1.574 0-.001 0-.003 0-.004 0-1.14-.205-2.192-.559-3.09 1.875-1.934 7.455-7.214 12.161-6.833zm-15.602 5.921c.944 0 2 1.711 2 4s-1.056 4-2 4-2-1.711-2-4 1.056-4 2-4zm-20.874-.02c-.264-.803.011-1.82.815-3.024 1.228-1.836 2.703-2.798 4.513-2.939 4.752-.376 10.273 4.887 12.135 6.819-.367.901-.581 1.962-.587 3.113-5.886.056-10.712-.49-13.662-1.549-1.252-.453-2.826-1.239-3.214-2.42zm3.154 4.497c3.066.971 7.479 1.482 12.923 1.482.329 0 .672-.006 1.009-.01.073.329.161.646.269.946-1.101.264-2.187.515-3.227.737-9.09 1.919-11.832 1.242-12.657.669-.246-.171-.299-.323-.318-.453-.106-.687.705-2.03 2.001-3.371zm-8.28 14.523v-9c0-.552.448-1 1-1h3.601c.2.362.481.684.855.944.683.474 1.833.959 4.372.958 1.616 0 3.801-.199 6.782-.721l-9.237 9.819h-6.373c-.552 0-1-.448-1-1zm3 34v-31h2.492l-.7.744c-.294.312-.356.776-.155 1.154.2.379.619.591 1.044.519l3.771-.615.598 2.947c.079.39.382.694.77.778.07.016.142.022.211.022.317 0 .621-.151.812-.415l3.698-5.134h4.459v32h-16c-.552 0-1-.448-1-1zm46 0c0 .552-.448 1-1 1h-16v-32h4.465l3.743 5.194c.19.265.494.416.812.416.069 0 .141-.007.21-.022.389-.083.691-.389.771-.778l.598-2.948 3.771.616c.426.071.842-.139 1.043-.516s.142-.841-.15-1.153l-.753-.809h2.49zm3-34c0 .552-.448 1-1 1h-6.351l-9.051-9.729c2.939.512 5.101.708 6.709.708 2.576 0 3.734-.498 4.418-.982.379-.268.661-.603.859-.98l3.416-.017c.552 0 1 .448 1 1z"/></g></svg>