<svg id="colour_copy" height="512" viewBox="0 0 256 256" width="512" xmlns="http://www.w3.org/2000/svg" data-name="colour copy"><path d="m154.5558 222.1194a5.5015 5.5015 0 0 1 -5.3872-4.4226c-2.258-11.29-10.9651-13.0279-27.45-15.3506-4.7115-.6639-9.5831-1.3506-14.5707-2.4559a83.3149 83.3149 0 0 1 -34.4378-16.74 86.4946 86.4946 0 0 1 -31.37-66.4582 89.8866 89.8866 0 0 1 11.1944-43.254 5.5 5.5 0 1 1 9.6336 5.3093 78.8575 78.8575 0 0 0 -9.828 37.9446 75.3889 75.3889 0 0 0 27.3233 57.9342 72.2591 72.2591 0 0 0 29.8654 14.524c4.5676 1.0127 9.2232 1.6685 13.7253 2.3029 16.13 2.2728 32.8088 4.6229 36.7012 24.0861a5.5053 5.5053 0 0 1 -5.399 6.58z" fill="#ffcd52"/><path d="m101.975 222.1194a5.5053 5.5053 0 0 1 -5.399-6.58c3.8924-19.463 20.5718-21.8131 36.7018-24.0861 4.5021-.6343 9.1577-1.29 13.7253-2.3029a72.2538 72.2538 0 0 0 29.8649-14.524 75.388 75.388 0 0 0 27.3233-57.9342 78.8663 78.8663 0 0 0 -9.8275-37.9449 5.5 5.5 0 1 1 9.6336-5.3088 89.8933 89.8933 0 0 1 11.1939 43.2537 86.4933 86.4933 0 0 1 -31.37 66.4582 83.31 83.31 0 0 1 -34.4373 16.74c-4.9876 1.1056-9.86 1.7921-14.5712 2.4559-16.4844 2.3227-25.192 4.0605-27.45 15.3506a5.5015 5.5015 0 0 1 -5.3878 4.4225z" fill="#ffcd52"/><g fill="#f29327"><path d="m63.3794 37.3183c-1.903 1.5445-9.8042 8.3254-10.4925 14.9682-.6786 6.5495 5.2238 10.8828 5.3381 10.8667.0986.06 7.2337-1.5854 9.2009-7.8693 1.9953-6.3732-4.0465-17.9656-4.0465-17.9656z"/><path d="m35.2975 61.1991c.2306 2.3051 1.4787 12.0671 6.3659 16.0624 4.8185 3.9392 11.307 1.5306 11.3537 1.4321.0986-.0467 2.5071-6.5352-1.4321-11.3537-3.995-4.8873-16.2875-6.1408-16.2875-6.1408z"/><path d="m78.9887 60.7043s-1.5231 12.5619-6.41 16.5571a10.7169 10.7169 0 0 1 -11.1991 1.5027l-.2252-.2252a10.7169 10.7169 0 0 1 1.5024-11.1989c3.9953-4.8874 16.3319-6.6357 16.3319-6.6357z"/><path d="m26.5856 83.2411c.1973 2.4831 1.3248 13.0051 6.491 17.4075 5.0936 4.3406 12.1219 1.8937 12.1743 1.7888.107-.0481 2.8387-6.9706-1.29-12.2372-4.188-5.3416-17.3753-6.9591-17.3753-6.9591z"/><path d="m73.5666 83.6684s-1.9132 13.4716-7.2549 17.6589a11.5235 11.5235 0 0 1 -12.0726 1.37l-.2371-.247a11.5235 11.5235 0 0 1 1.8613-12.0066c4.4024-5.1666 17.7033-6.7753 17.7033-6.7753z"/><path d="m20.7365 114.3212c.8427 2.5424 4.7176 13.2411 11.2411 16.5139 6.4319 3.2268 13.1439-1.13 13.1718-1.2532.0994-.0776 1.1773-8.0069-4.4846-12.448-5.7427-4.5044-19.9283-2.8127-19.9283-2.8127z"/><path d="m69.9064 102.7229s1.4557 14.5578-3.0487 20.3a12.3909 12.3909 0 0 1 -12.2558 4.5252l-.311-.1972a12.3909 12.3909 0 0 1 -1.1345-13.0152c3.2728-6.523 16.75-11.6128 16.75-11.6128z"/><path d="m23.9886 145.1378c1.2969 2.5715 7.1041 13.3408 14.5586 15.7941 7.35 2.4189 13.8027-3.2731 13.8129-3.4083.0935-.0982-.0093-8.7021-6.7314-12.5339-6.818-3.8864-21.6401.1481-21.6401.1481z"/><path d="m74.4613 125.054s3.8421 15.2553-.0443 22.0731a13.3235 13.3235 0 0 1 -12.323 6.7443l-.3618-.1607a13.3235 13.3235 0 0 1 -3.2573-13.665c2.4532-7.4544 15.9864-14.9917 15.9864-14.9917z"/><path d="m35.5383 168.8039c1.5817 2.6624 8.609 13.7845 16.7872 15.864 8.0634 2.05 14.5638-4.5336 14.5648-4.6794.093-.1123-.6546-9.3342-8.1494-12.9466-7.6016-3.6639-23.2026 1.762-23.2026 1.762z"/><path d="m88.1933 143.5207s5.2516 16.08 1.5877 23.6815a14.3264 14.3264 0 0 1 -12.7195 8.1478l-.4-.1456a14.3264 14.3264 0 0 1 -4.5065-14.4173c2.0794-8.1785 16.0383-17.2664 16.0383-17.2664z"/><path d="m57.03 192.113c2.1653 2.42 11.6427 12.4448 20.4778 12.9326 8.711.4809 14.07-7.6067 14.0414-7.7569.073-.1343-2.559-9.4723-11.0005-11.6755-8.5623-2.2345-23.5187 6.4998-23.5187 6.4998z"/><path d="m106.1024 155.4617s8.6517 15.4848 6.4171 24.0466a15.0227 15.0227 0 0 1 -11.4421 10.9528l-.4411-.069a15.0227 15.0227 0 0 1 -7.5492-13.9246c.4879-8.8351 13.0153-21.0058 13.0153-21.0058z"/><path d="m193.1518 37.3183c1.903 1.5445 9.8042 8.3254 10.4925 14.9682.6786 6.5495-5.2238 10.8828-5.3381 10.8667-.0986.06-7.2337-1.5854-9.2009-7.8693-1.9953-6.3732 4.0465-17.9656 4.0465-17.9656z"/><path d="m221.2337 61.1991c-.2306 2.3051-1.4787 12.0671-6.3659 16.0624-4.8185 3.9392-11.307 1.5306-11.3537 1.4321-.0986-.0467-2.5071-6.5352 1.4321-11.3537 3.9952-4.8873 16.2875-6.1408 16.2875-6.1408z"/><path d="m177.5424 60.7043s1.5231 12.5619 6.41 16.5571a10.7169 10.7169 0 0 0 11.1991 1.5027l.2252-.2252a10.7169 10.7169 0 0 0 -1.5023-11.1989c-3.9953-4.8874-16.332-6.6357-16.332-6.6357z"/><path d="m229.9455 83.2411c-.1973 2.4831-1.3248 13.0051-6.491 17.4075-5.0936 4.3406-12.1219 1.8937-12.1743 1.7888-.107-.0481-2.8387-6.9706 1.29-12.2372 4.1881-5.3416 17.3753-6.9591 17.3753-6.9591z"/><path d="m182.9646 83.6684s1.9132 13.4711 7.2548 17.6589a11.5235 11.5235 0 0 0 12.0726 1.37l.2371-.247a11.5235 11.5235 0 0 0 -1.8613-12.0066c-4.4024-5.1666-17.7032-6.7753-17.7032-6.7753z"/><path d="m235.7946 114.3212c-.8427 2.5424-4.7176 13.2411-11.2411 16.5139-6.4319 3.2268-13.1439-1.13-13.1718-1.2532-.0994-.0776-1.1773-8.0069 4.4846-12.448 5.7427-4.5044 19.9283-2.8127 19.9283-2.8127z"/><path d="m186.6248 102.7229s-1.4557 14.5578 3.0487 20.3a12.3909 12.3909 0 0 0 12.2558 4.5252l.311-.1972a12.3909 12.3909 0 0 0 1.1345-13.0152c-3.2729-6.523-16.75-11.6128-16.75-11.6128z"/><path d="m232.5425 145.1378c-1.2969 2.5715-7.1041 13.3408-14.5586 15.7941-7.35 2.4189-13.8027-3.2731-13.8129-3.4083-.0935-.0982.0093-8.7021 6.7314-12.5339 6.8176-3.8864 21.6401.1481 21.6401.1481z"/><path d="m182.07 125.054s-3.8421 15.2553.0443 22.0731a13.3235 13.3235 0 0 0 12.323 6.7443l.3618-.1607a13.3235 13.3235 0 0 0 3.2573-13.665c-2.4534-7.4544-15.9864-14.9917-15.9864-14.9917z"/><path d="m220.9928 168.8039c-1.5817 2.6624-8.609 13.7845-16.7872 15.864-8.0634 2.05-14.5638-4.5336-14.5648-4.6794-.093-.1123.6546-9.3342 8.1494-12.9466 7.6016-3.6639 23.2026 1.762 23.2026 1.762z"/><path d="m168.3379 143.5207s-5.2516 16.08-1.5877 23.6815a14.3264 14.3264 0 0 0 12.7198 8.1478l.4-.1456a14.3264 14.3264 0 0 0 4.5065-14.4173c-2.0798-8.1785-16.0386-17.2664-16.0386-17.2664z"/><path d="m199.5016 192.113c-2.1653 2.42-11.6427 12.4448-20.4778 12.9326-8.711.4809-14.07-7.6067-14.0414-7.7569-.073-.1343 2.559-9.4723 11.0005-11.6755 8.5619-2.2345 23.5187 6.4998 23.5187 6.4998z"/><path d="m150.4288 155.4617s-8.6517 15.4848-6.4171 24.0466a15.0227 15.0227 0 0 0 11.4421 10.9528l.4411-.069a15.0227 15.0227 0 0 0 7.5492-13.9246c-.4879-8.8351-13.0153-21.0058-13.0153-21.0058z"/></g></svg>