<svg id="Capa_1" enable-background="new 0 0 512 512" height="512" viewBox="0 0 512 512" width="512" xmlns="http://www.w3.org/2000/svg"><g><path d="m170.706 285.273h-30v-54.979c0-37.657 30.637-68.294 68.294-68.294v30c-21.115 0-38.294 17.179-38.294 38.294z" fill="#ffc34d"/><path d="m371.294 286h-30v-55.706c0-21.115-17.179-38.294-38.294-38.294v-30c37.657 0 68.294 30.637 68.294 68.294z" fill="#f93"/><path d="m275.425 0 2.575 117 35.079 108 57.624-225z" fill="#ca2e43"/><path d="m112.5 368.5c0 79.253 64.247 143.5 143.5 143.5l23.213-140.335-23.213-146.665c-79.253 0-143.5 64.247-143.5 143.5z" fill="#f0f8ff"/><path d="m256 225v287c79.253 0 143.5-64.247 143.5-143.5s-64.247-143.5-143.5-143.5z" fill="#e3eeff"/><path d="m141.297 0 58.549 225h56.154l10-113-10-112z" fill="#fd697f"/><path d="m275.425 0h-19.425v225h57.079z" fill="#e6455d"/><g><path d="m256 361.389c-26.966 38.44-38.799 51.133-38.885 51.224l-4.119 4.322-.092 24.792 43.096.133 7-14.86-7-15.14 9-31.86z" fill="#60474f"/><path d="m301.864 412-45.864-.14v30l45.772.14z" fill="#3f303a"/><path d="m252.499 294.907c-21.189 0-39.529 15.075-43.608 35.845l-2.891 14.719 29.438 5.782 2.891-14.719c1.323-6.737 7.283-11.626 14.17-11.626 1.209 0 2.378.165 3.501.446l5-14.354-5-15.942c-1.157-.091-2.322-.151-3.501-.151z" fill="#60474f"/><path d="m281.429 377.38c7.498-10.712 12.395-20.871 14.556-30.192l.171-.736.786-6.147v-.955c0-23.326-18.068-42.498-40.941-44.291v30.295c6.028 1.509 10.574 6.802 10.919 13.208l-.32 2.505c-1.384 5.371-4.743 11.959-9.749 19.112-.289.412-.565.805-.851 1.211v50.471c6.422-8.4 15.061-19.667 25.429-34.481z" fill="#3f303a"/></g></g></svg>