<svg id="Capa_1" enable-background="new 0 0 512 512" height="512" viewBox="0 0 512 512" width="512" xmlns="http://www.w3.org/2000/svg"><g><path d="m170.706 285.273h-30v-54.979c0-37.657 30.637-68.294 68.294-68.294v30c-21.115 0-38.294 17.179-38.294 38.294z" fill="#ffc34d"/><path d="m371.294 286h-30v-55.706c0-21.115-17.179-38.294-38.294-38.294v-30c37.657 0 68.294 30.637 68.294 68.294z" fill="#f93"/><path d="m275.425 0 2.575 117 35.079 108 57.624-225z" fill="#ca2e43"/><path d="m112.5 368.5c0 79.253 64.247 143.5 143.5 143.5l23.213-140.335-23.213-146.665c-79.253 0-143.5 64.247-143.5 143.5z" fill="#60474f"/><path d="m256 225v287c79.253 0 143.5-64.247 143.5-143.5s-64.247-143.5-143.5-143.5z" fill="#3f303a"/><path d="m141.297 0 58.549 225h56.154l10-113-10-112z" fill="#fd697f"/><path d="m275.425 0h-19.425v225h57.079z" fill="#e6455d"/><path d="m236.291 405.794c-.128-.919-.193-1.86-.193-2.793h-30.098c0 2.321.163 4.662.482 6.953 3.424 24.541 24.712 43.046 49.518 43.046l7-15-7-15.098c-9.876 0-18.349-7.354-19.709-17.108z" fill="#ffc34d"/><path d="m206.939 323.423 29.533 5.801c1.824-9.287 10.037-16.028 19.528-16.028l6-14.196-6-15.901c-23.838 0-44.471 16.959-49.061 40.324z" fill="#ffc34d"/><path d="m306 333.099c0-27.57-22.43-50-50-50v30.097c10.974 0 19.902 8.928 19.902 19.903s-8.928 19.902-19.902 19.902v30.098c10.974 0 19.902 8.928 19.902 19.902s-8.928 19.901-19.902 19.901v30.098c27.57 0 50-22.429 50-49.999 0-13.593-5.459-25.929-14.292-34.951 8.833-9.022 14.292-21.359 14.292-34.951z" fill="#f93"/></g></svg>