<?xml version="1.0"?>
<svg xmlns="http://www.w3.org/2000/svg" xmlns:xlink="http://www.w3.org/1999/xlink" xmlns:svgjs="http://svgjs.com/svgjs" version="1.1" width="512" height="512" x="0" y="0" viewBox="0 0 512 512" style="enable-background:new 0 0 512 512" xml:space="preserve" class=""><g><g xmlns="http://www.w3.org/2000/svg"><g><g><g><g><path d="m472.029 449.509-42.639 57.525c-1.69 2.277-4.347 3.637-7.18 3.657l-71.608.69c-3.431.031-6.593-1.885-8.149-4.945l-19.388-38.045 81.714-.783 48.655-65.643 19.388 38.045c1.566 3.06 1.257 6.738-.793 9.499z" fill="#fff9e3" data-original="#fff9e3" style=""/><path d="m472.029 449.509-18.172 24.518-21.933-43.041 21.51-29.02 19.388 38.045c1.566 3.059 1.257 6.737-.793 9.498z" fill="#fde784" data-original="#fde784" style=""/><path d="m461.274 417.347-45.977 62.027c-1.69 2.277-4.347 3.636-7.18 3.657l-77.212.742-21.933-43.041 81.714-.783 48.655-65.643z" fill="#fde784" data-original="#fde784" style=""/><path d="m461.274 417.347-21.51 29.02-21.933-43.041 21.51-29.02z" fill="#fdd330" data-original="#fdd330" style=""/><path d="m447.181 389.686-45.977 62.027c-1.689 2.277-4.347 3.626-7.18 3.657l-77.212.742-21.933-43.041 81.714-.783 48.655-65.643z" fill="#fdd330" data-original="#fdd330" style=""/><path d="m447.181 389.686-21.51 29.02-21.933-43.041 21.51-29.02z" fill="#f8c52d" data-original="#f8c52d" style="" class=""/><path d="m386.371 270.337 46.715 91.684-45.981 62.031c-1.688 2.277-4.346 3.631-7.18 3.658l-77.211.738-46.714-91.684z" fill="#62d744" data-original="#1c96f9" style="" class=""/><path d="m433.086 362.021-46.712-91.681-.002.001-.002-.004-130.376 66.429 14.309 28.083c33.432-2.491 64.542-13.43 91.213-30.679 8.485-5.488 19.857-2.393 24.445 6.611l25.61 50.263z" fill="#4ba733" data-original="#1785f8" style="" class=""/></g><g><path d="m188.544 468.299-19.749 38.766c-1.556 3.049-4.718 4.966-8.149 4.935l-71.608-.69c-2.833-.021-5.491-1.381-7.18-3.657l-42.639-57.525c-2.05-2.761-2.359-6.439-.793-9.498l19.151-37.581 48.851 65.159z" fill="#fff9e3" data-original="#fff9e3" style=""/><path d="m188.544 468.299-19.749 38.766c-1.556 3.049-4.718 4.966-8.149 4.935l-30.524-.288 22.139-43.453z" fill="#fde784" data-original="#fde784" style=""/><path d="m202.379 441.144-22.036 43.247-77.212-.742c-2.833-.021-5.491-1.38-7.18-3.657l-45.977-62.027 21.706-42.598 48.861 65.19z" fill="#fde784" data-original="#fde784" style=""/><path d="m202.379 441.144-22.035 43.247-36.129-.35 21.995-43.155z" fill="#fdd330" data-original="#fdd330" style=""/><path d="m216.472 413.473-22.036 43.257-77.212-.742c-2.833-.021-5.491-1.38-7.18-3.657l-45.977-62.027 21.984-43.154 48.604 65.746z" fill="#fdd330" data-original="#fdd330" style=""/><path d="m216.472 413.473-22.036 43.257-36.128-.35 21.994-43.164z" fill="#f8c52d" data-original="#f8c52d" style="" class=""/><path d="m255.248 337.383-46.715 91.684-77.211-.738c-2.834-.027-5.492-1.381-7.18-3.658l-45.98-62.031 46.715-91.684z" fill="#62d744" data-original="#1c96f9" style="" class=""/><path d="m124.874 270.958-14.896 29.247c21.375 23.849 48.505 42.428 79.18 53.543 9.627 3.488 13.982 14.658 9.334 23.781l-26.084 51.192 36.125.346 46.715-91.684z" fill="#4ba733" data-original="#1785f8" style="" class=""/></g></g><g><g><circle cx="255.624" cy="169.819" fill="#fee265" r="169.819" data-original="#fee265" style="" class=""/><path d="m425.439 169.815c0 93.788-76.027 169.825-169.815 169.825-5.501 0-10.951-.258-16.318-.773 86.133-8.221 153.497-80.766 153.497-169.052 0-88.287-67.363-160.832-153.497-169.042 5.367-.515 10.817-.773 16.318-.773 93.788 0 169.815 76.027 169.815 169.815z" fill="#fdd330" data-original="#fdd330" style=""/></g><g><circle cx="255.624" cy="169.819" fill="#fca62f" r="133.753" data-original="#fca62f" style=""/><path d="m389.372 169.815c0 73.874-59.874 133.758-133.748 133.758-5.522 0-10.971-.33-16.318-.989 66.168-8.046 117.43-64.417 117.43-132.77 0-68.342-51.262-124.714-117.43-132.759 5.347-.659 10.796-.989 16.318-.989 73.874.001 133.748 59.885 133.748 133.749z" fill="#fb9927" data-original="#fb9927" style="" class=""/></g></g></g><g><path d="m261.151 257.166c-8.534 0-15.453-6.919-15.453-15.453v-106.48l-.824.823c-6.034 6.035-15.819 6.035-21.853 0-6.035-6.035-6.035-15.818 0-21.853l27.203-27.203c4.418-4.42 11.064-5.742 16.84-3.35 5.774 2.392 9.539 8.027 9.539 14.277v143.786c0 8.534-6.918 15.453-15.452 15.453z" fill="#ffd597" data-original="#ffd597" style="" class=""/></g></g><g><g><g id="XMLID_207_"><path d="m468.146 177.551c-.008 0-.016 0-.024 0l-10.888-.033c-4.267-.013-7.716-3.482-7.703-7.749.013-4.259 3.47-7.703 7.726-7.703h.024l10.888.033c4.267.013 7.716 3.482 7.703 7.749-.013 4.259-3.47 7.703-7.726 7.703z" fill="#fdd330" data-original="#fdd330" style=""/></g><g id="XMLID_147_"><path d="m452.625 150.305c-2.627 0-5.188-1.34-6.636-3.757-2.193-3.661-1.003-8.406 2.658-10.599l9.445-5.657c3.661-2.194 8.407-1.003 10.599 2.658 2.193 3.661 1.003 8.406-2.658 10.599l-9.445 5.657c-1.244.745-2.612 1.099-3.963 1.099z" fill="#fdd330" data-original="#fdd330" style=""/></g><g id="XMLID_55_"><path d="m461.875 210.418c-1.366 0-2.749-.362-4.001-1.122l-9.413-5.713c-3.648-2.214-4.81-6.966-2.597-10.614 2.214-3.648 6.966-4.81 10.614-2.597l9.413 5.713c3.648 2.214 4.81 6.966 2.597 10.614-1.454 2.396-4.002 3.719-6.613 3.719z" fill="#fdd330" data-original="#fdd330" style=""/></g></g><g><g id="XMLID_224_"><path d="m43.854 177.551c-4.257 0-7.713-3.444-7.726-7.703-.013-4.267 3.436-7.736 7.703-7.749l10.888-.033h.024c4.257 0 7.713 3.444 7.726 7.703.013 4.267-3.436 7.736-7.703 7.749l-10.888.033c-.008 0-.016 0-.024 0z" fill="#fdd330" data-original="#fdd330" style=""/></g><g id="XMLID_223_"><path d="m59.375 150.305c-1.351 0-2.719-.354-3.963-1.099l-9.445-5.657c-3.66-2.193-4.851-6.938-2.658-10.599 2.192-3.66 6.938-4.851 10.599-2.658l9.445 5.657c3.66 2.193 4.851 6.938 2.658 10.599-1.448 2.417-4.009 3.757-6.636 3.757z" fill="#fdd330" data-original="#fdd330" style=""/></g><g id="XMLID_222_"><path d="m50.125 210.418c-2.611 0-5.159-1.323-6.613-3.719-2.214-3.648-1.051-8.399 2.597-10.614l9.413-5.713c3.647-2.215 8.4-1.052 10.614 2.597 2.214 3.648 1.051 8.399-2.597 10.614l-9.413 5.713c-1.252.76-2.635 1.122-4.001 1.122z" fill="#fdd330" data-original="#fdd330" style=""/></g></g></g></g></g></svg>
