<?xml version="1.0"?>
<svg xmlns="http://www.w3.org/2000/svg" xmlns:xlink="http://www.w3.org/1999/xlink" xmlns:svgjs="http://svgjs.com/svgjs" version="1.1" width="512" height="512" x="0" y="0" viewBox="0 0 512 512" style="enable-background:new 0 0 512 512" xml:space="preserve" class=""><g><g xmlns="http://www.w3.org/2000/svg"><g><g><path clip-rule="evenodd" d="m35.827 5.467h379.912c6.116 0 11.088 4.973 11.088 11.088v478.889c0 6.087-4.973 11.088-11.088 11.088h-379.912c-6.116 0-11.088-5.001-11.088-11.088v-478.889c0-6.115 4.973-11.088 11.088-11.088z" fill="#ffffff" fill-rule="evenodd" data-original="#8dcafc" style="" class=""/></g><g><path clip-rule="evenodd" d="m390.019 83.772v411.673c0 6.087-4.973 11.088-11.088 11.088h36.808c6.116 0 11.088-5.001 11.088-11.088v-411.673z" fill="#d1d1d1" fill-rule="evenodd" data-original="#64b9fc" style="" class=""/></g><g><path clip-rule="evenodd" d="m24.739 83.772h365.28 36.808v-67.217c0-6.116-4.973-11.088-11.088-11.088h-379.912c-6.116 0-11.088 4.973-11.088 11.088z" fill="#62d744" fill-rule="evenodd" data-original="#9c9c9c" style="" class=""/></g><g><path clip-rule="evenodd" d="m390.019 16.555v67.217h36.808v-67.217c0-6.116-4.973-11.088-11.088-11.088h-36.808c6.116 0 11.088 4.973 11.088 11.088z" fill="#45a12d" fill-rule="evenodd" data-original="#838383" style="" class=""/></g><g><path clip-rule="evenodd" d="m351.439 416.082-14.346-16.49-18.804.714-2.686 41.267c.057 3.401 2.858 4.744 5.544 2.629z" fill="#62d744" fill-rule="evenodd" data-original="#9c9c9c" style="" class=""/></g><g><path clip-rule="evenodd" d="m415.253 160.677-94.306 198.363 26.72 24.549 34.093 4.343 94.307-198.334z" fill="#fb8627" fill-rule="evenodd" data-original="#fb8627" style="" class=""/></g><g><path clip-rule="evenodd" d="m410.881 169.879 60.813 28.921 13.717-28.864c4.973-10.488-.429-23.577-12.06-29.093l-9.288-4.43-9.288-4.43c-11.631-5.516-25.206-1.458-30.178 9.031z" fill="#fd4755" fill-rule="evenodd" data-original="#fd4755" style="" class=""/></g><g><path clip-rule="evenodd" d="m453.433 131.412c10.717 5.859 15.546 18.347 10.745 28.436l-13.717 28.864 21.233 10.088 13.717-28.864c4.973-10.488-.429-23.577-12.06-29.093l-9.288-4.43-9.288-4.43c-.456-.199-.885-.399-1.342-.571z" fill="#e94343" fill-rule="evenodd" data-original="#e94343" style="" class=""/></g><g><path clip-rule="evenodd" d="m450.461 188.712-89.905 189.132 21.204 10.088 89.934-189.132z" fill="#f2671f" fill-rule="evenodd" data-original="#f2671f" style="" class=""/></g><g><path clip-rule="evenodd" d="m351.439 416.082-21.205-10.088-13.117 12.146-1.515 23.434c.057 3.401 2.858 4.744 5.544 2.629z" fill="#45a12d" fill-rule="evenodd" data-original="#838383" style="" class=""/></g><g><path clip-rule="evenodd" d="m381.76 387.932-60.813-28.892-2.658 41.267 33.15 15.775z" fill="#fcd79f" fill-rule="evenodd" data-original="#fcd79f" style="" class=""/></g><g><path clip-rule="evenodd" d="m381.76 387.932-21.204-10.088-30.321 28.15 21.204 10.088z" fill="#fac574" fill-rule="evenodd" data-original="#fac574" style="" class=""/></g></g><g><path d="m141.931 163.718c0-11.826-9.624-21.446-21.453-21.446h-16.846c-5.731 0-10.393 4.662-10.393 10.391v27.524 27.525c0 5.729 4.662 10.391 10.393 10.391h24.531c11.829 0 21.453-9.621 21.453-21.447v-2.522c0-7.638-4.027-14.337-10.057-18.138 1.505-2.93 2.372-6.241 2.372-9.755zm-33.692-6.447h12.239c3.558 0 6.453 2.892 6.453 6.446v2.523c0 3.494-2.955 6.446-6.453 6.446h-12.239zm26.377 39.385c0 3.555-2.895 6.447-6.453 6.447h-19.924v-15.416h12.239 7.686c3.558 0 6.453 2.892 6.453 6.447v2.522z" fill="#000000" data-original="#000000" style="" class=""/><path d="m258.421 218.103c14.597 0 26.473-11.872 26.473-26.464v-22.904c0-14.592-11.876-26.464-26.473-26.464h-3.431c-14.597 0-26.473 11.872-26.473 26.464v22.904c0 14.592 11.876 26.464 26.473 26.464zm-14.904-26.464v-22.904c0-6.321 5.147-11.464 11.473-11.464h3.431c6.326 0 11.473 5.143 11.473 11.464v22.904c0 6.321-5.147 11.464-11.473 11.464h-3.431c-6.326 0-11.473-5.143-11.473-11.464z" fill="#000000" data-original="#000000" style="" class=""/><path d="m173.482 142.271c-4.142 0-7.5 3.358-7.5 7.5v60.832c0 4.142 3.358 7.5 7.5 7.5h36.301c4.142 0 7.5-3.358 7.5-7.5s-3.358-7.5-7.5-7.5h-28.801v-53.332c0-4.142-3.357-7.5-7.5-7.5z" fill="#000000" data-original="#000000" style="" class=""/><path d="m332.243 40.536c-4.142 0-7.5 3.358-7.5 7.5v.085c0 4.142 3.358 7.458 7.5 7.458s7.5-3.4 7.5-7.542-3.358-7.501-7.5-7.501z" fill="#000000" data-original="#000000" style="" class=""/><path d="m293.701 40.422c-4.142 0-7.5 3.358-7.5 7.5v.113c0 4.142 3.358 7.5 7.5 7.5s7.5-3.358 7.5-7.5v-.113c0-4.142-3.358-7.5-7.5-7.5z" fill="#000000" data-original="#000000" style="" class=""/><path d="m370.784 40.734c-4.142 0-7.5 3.358-7.5 7.5v.113c0 4.142 3.358 7.5 7.5 7.5s7.5-3.358 7.5-7.5v-.113c0-4.142-3.358-7.5-7.5-7.5z" fill="#000000" data-original="#000000" style="" class=""/><path d="m247.616 40.621h-163.95c-4.142 0-7.5 3.358-7.5 7.5s3.358 7.5 7.5 7.5h163.95c4.142 0 7.5-3.358 7.5-7.5s-3.358-7.5-7.5-7.5z" fill="#000000" data-original="#000000" style="" class=""/><path d="m319.509 157.271h24.333c4.142 0 7.5-3.358 7.5-7.5s-3.358-7.5-7.5-7.5h-24.333c-12.068 0-21.169 9.622-21.169 22.382v33.42c0 8.078 6.34 20.029 19.95 20.029h15.769c13.561 0 22.672-8.938 22.672-22.24v-5.159c0-11.593-8.309-19.689-20.205-19.689h-4.169c-4.142 0-7.5 3.358-7.5 7.5s3.358 7.5 7.5 7.5h4.169c2.704 0 5.205.568 5.205 4.689v5.159c0 1.98 0 7.24-7.672 7.24h-15.769c-4.659 0-4.95-4.979-4.95-5.029v-33.42c-.001-4.553 2.363-7.382 6.169-7.382z" fill="#000000" data-original="#000000" style="" class=""/><path d="m490.781 151.486c-2.978-7.188-8.617-13.043-15.865-16.479l-18.449-8.795c-7.745-3.671-16.156-4.041-23.448-1.682v-106.031c0-10.2-8.301-18.499-18.504-18.499h-377.019c-10.203 0-18.504 8.298-18.504 18.499v232.243c0 4.142 3.358 7.5 7.5 7.5s7.5-3.358 7.5-7.5v-158.073h384.027v43.354c-.541.863-1.039 1.763-1.485 2.702l-31.395 65.991c-1.78 3.741-.19 8.215 3.55 9.995 3.741 1.78 8.215.189 9.995-3.55l14.555-30.593 46.804 22.247-82.801 174.057-46.801-22.224 53.525-112.534c1.779-3.74.189-8.215-3.551-9.994-3.742-1.78-8.215-.188-9.995 3.551l-17.528 36.852h-220.929c-4.142 0-7.5 3.358-7.5 7.5s3.358 7.5 7.5 7.5h213.794l-18.24 38.349h-246.744c-4.142 0-7.5 3.358-7.5 7.5s3.358 7.5 7.5 7.5h239.61l-6.711 14.11c-.408.858-.65 1.787-.711 2.736l-1.393 21.501h-229.065c-4.142 0-7.5 3.358-7.5 7.5s3.358 7.5 7.5 7.5h228.092l-2.939 45.363c-.013.204-.018.408-.015.612.076 4.499 2.339 8.238 6.055 10.003 1.403.667 2.894.995 4.397.995 2.477 0 4.985-.89 7.188-2.623.16-.126.314-.258.463-.396l60.152-55.815c.696-.646 1.263-1.418 1.671-2.276l30.452-64.012v167.43c0 1.896-1.604 3.499-3.504 3.499h-377.019c-1.899 0-3.504-1.602-3.504-3.499v-208.12c0-4.142-3.358-7.5-7.5-7.5s-7.5 3.358-7.5 7.5v208.12c0 10.2 8.301 18.499 18.504 18.499h377.019c10.203 0 18.504-8.298 18.504-18.499v-198.96l57.415-120.691c3.308-6.975 3.431-14.916.347-22.363zm-167.47 278.483 1.251-19.315 12.935 6.152zm26.021-24.144-23.725-11.285 1.608-24.819 40.368 19.169zm68.687-328.156h-384.027v-59.17c0-1.929 1.572-3.499 3.504-3.499h377.019c1.932 0 3.504 1.569 3.504 3.499zm58.865 89.744-10.397 21.856-46.804-22.247 10.4-21.86c3.172-6.688 12.125-9.107 19.945-5.402l18.449 8.795c3.896 1.846 6.895 4.926 8.446 8.671 1.441 3.479 1.426 7.099-.039 10.187z" fill="#000000" data-original="#000000" style="" class=""/></g></g></g></svg>
