<?xml version="1.0"?>
<svg xmlns="http://www.w3.org/2000/svg" xmlns:xlink="http://www.w3.org/1999/xlink" xmlns:svgjs="http://svgjs.com/svgjs" version="1.1" width="512" height="512" x="0" y="0" viewBox="0 0 512 512" style="enable-background:new 0 0 512 512" xml:space="preserve" class=""><g><g xmlns="http://www.w3.org/2000/svg"><g><path d="m471.338 77.203c-3.649-6.768-10.801-11.369-19.03-11.369-11.291 0-253.845 0-274.571 0l-26.737-44.836h-15.008l-.02-.038c-2.796-5.344-8.328-8.693-14.359-8.693h-97.906c-8.951 0-16.207 7.256-16.207 16.207v64.936l11.5 14.03v271.709c3.017 1.601 6.455 2.516 10.109 2.516h463.891v-304.462z" fill="#fea613" data-original="#fea613" style="" class=""/><path d="m493 381.664v-215.211l11.5-14.074c0-35.513 0-61.685 0-64.936 0-11.934-9.674-21.609-21.609-21.609h-30.583c11.935 0 21.609 9.674 21.609 21.609v294.221z" fill="#fe9901" data-original="#fe9901" style=""/><path d="m135.973 20.96 23.48 44.874h30.583l-23.48-44.874c-2.796-5.344-8.328-8.693-14.36-8.693h-30.582c6.03 0 11.563 3.349 14.359 8.693z" fill="#fe9901" data-original="#fe9901" style=""/><path d="m181.527 130.771-25.703-46.804h-21.041c-3.016-4.207-7.901-6.762-13.168-6.763h-97.908c-8.951-.001-16.207 7.255-16.207 16.206v294.83c0 11.934 9.674 21.609 21.609 21.609h423.2c5.413 0 10.349-2.004 14.14-5.293h18.858v-268.225h-18.563c-3.828-3.445-8.877-5.56-14.433-5.56z" fill="#fec165" data-original="#fec165" style="" class=""/><path d="m482.891 130.771h-30.583c11.934 0 21.609 9.674 21.609 21.609v235.86c0 11.934-9.674 21.609-21.609 21.609h30.583c11.934 0 21.609-9.674 21.609-21.609v-235.86c0-11.935-9.674-21.609-21.609-21.609z" fill="#fdb441" data-original="#fdb441" style="" class=""/><path d="m135.973 85.896 23.48 44.874h30.583l-23.48-44.874c-2.796-5.344-8.328-8.693-14.36-8.693h-30.583c6.031 0 11.564 3.349 14.36 8.693z" fill="#fdb441" data-original="#fdb441" style="" class=""/><path d="m423.458 496.365 20.542-4.867 15.5-27-184.335-185.835-35.234 35.234c-.273.273-.273.715 0 .988 189.89 189.89 177.462 178.358 183.527 181.48z" fill="#1e9300" data-original="#60b7ff" style="" class=""/><path d="m458.842 447.865-175.946-175.945c-.273-.273-.715-.273-.988 0l-13.407 13.407 162.539 162.539c11.865 11.864 11.865 31.1 0 42.965-2.288 2.288-4.851 4.129-7.581 5.535 11.429 5.884 25.807 4.042 35.384-5.535 11.863-11.865 11.863-31.101-.001-42.966z" fill="#166e00" data-original="#26a6fe" style="" class=""/><path d="m182.052 214.04c-48.536 48.536-48.536 127.23 0 175.766 23.76 23.76 54.745 35.88 85.883 36.378 31.137-.498 62.124-12.619 85.883-36.378 48.536-48.536 48.536-127.23 0-175.766-47.846-47.845-123.342-48.424-171.766 0z" fill="#62d744" data-original="#0055a3" style="" class=""/><path d="m357.818 214.04c-27.81-27.81-65.519-39.677-101.784-35.619 102.449 11.465 147.959 137.408 73.982 211.385-20.727 20.727-46.953 32.595-73.982 35.619 36.265 4.059 73.974-7.809 101.784-35.619 48.536-48.536 48.536-127.229 0-175.766z" fill="#187400" data-original="#004281" style="" class=""/><path d="m209.393 241.382c-33.383 33.383-33.383 87.701 0 121.083 16.184 16.184 37.288 24.497 58.542 24.989 75.063-1.738 111.653-92.962 58.542-146.073-32.626-32.624-83.799-33.284-117.084.001z" fill="#d8ecfe" data-original="#d8ecfe" style="" class=""/><path d="m330.476 241.382c-20.233-20.232-48.152-28.179-74.443-23.887 68.554 11.193 95.851 95.76 46.64 144.97-13.15 13.15-29.552 21.097-46.64 23.887 26.291 4.292 54.21-3.654 74.443-23.887 33.383-33.383 33.383-87.701 0-121.083z" fill="#b3dafe" data-original="#b3dafe" style="" class=""/></g><g><path d="m335.78 367.768c58.55-58.55 16.716-158.923-65.846-158.923-82.489 0-124.46 100.307-65.846 158.923 17.563 17.562 40.946 27.234 65.846 27.234s48.284-9.672 65.846-27.234zm-65.845-143.923c69.286 0 104.345 84.211 55.238 133.317-14.729 14.729-34.346 22.84-55.238 22.84s-40.51-8.111-55.238-22.84c-49.12-49.12-14.028-133.317 55.238-133.317z" fill="#000000" data-original="#000000" style="" class=""/><path d="m482.892 58.334h-288.317l-21.374-40.851c-4.104-7.844-12.152-12.717-21.006-12.717h-128.488c-13.072.001-23.707 10.636-23.707 23.708v64.936 146.395c0 4.142 3.357 7.5 7.5 7.5s7.5-3.358 7.5-7.5v-146.395c0-4.8 3.906-8.706 8.707-8.706h128.488c3.251 0 6.208 1.79 7.715 4.669l23.479 44.875c1.294 2.473 3.854 4.023 6.646 4.023h292.856c7.779 0 14.108 6.329 14.108 14.108v235.861c0 7.78-6.329 14.109-14.108 14.109h-58.959l-37.916-37.916c9.645-17.855 14.987-37.727 15.63-58.279.002-.065.005-.13.007-.195 2.236-74.53-57.426-135.823-131.719-135.823-73.009 0-131.785 59.123-131.785 131.786 0 38.91 16.789 75.123 46.411 100.395.012.01.023.021.035.031h-155.487c-7.779.001-14.108-6.328-14.108-14.108v-113.357c0-4.142-3.357-7.5-7.5-7.5s-7.5 3.358-7.5 7.5v113.357c0 16.051 13.058 29.109 29.108 29.109h177.127c19.28 10.676 41.052 16.359 63.699 16.359 22.183 0 43.526-5.448 62.509-15.704l66.215 66.215c2.929 2.928 7.677 2.93 10.607 0 2.929-2.929 2.929-7.678 0-10.606l-63.717-63.716c11.992-8.436 23.284-19.458 32.358-32.358 80.849 80.848 75.957 75.909 76.819 76.909l.003.003c7.653 8.899 7.41 22.474-1.191 31.077-5.547 5.548-13.22 7.671-20.464 6.3-4.06-.774-7.995 1.902-8.766 5.972s1.903 7.994 5.973 8.765c11.783 2.234 24.55-1.116 33.864-10.432 14.263-14.265 14.622-36.723 1.967-51.451-.004-.005-.008-.009-.012-.014-1.292-1.502.268.115-27.168-27.32h43.959c16.051 0 29.108-13.058 29.108-29.109v-235.86-64.936c.002-16.05-13.056-29.109-29.106-29.109zm-270.654 345.182c-.088-.056-.165-.124-.256-.177-105.208-60.211-59.531-218.202 57.953-218.202 66.398 0 118.867 54.905 116.716 120.643-.003.083-.006.165-.009.248-2.19 62.654-53.567 112.68-116.707 112.68-20.56 0-40.307-5.279-57.697-15.192zm-17.663-280.245-21.375-40.853c-4.104-7.842-12.153-12.714-21.005-12.714-137.444 0-131.117-.699-137.044 1.604-.05.019-.102.033-.152.052v-42.886c0-4.801 3.906-8.707 8.707-8.707h128.488c3.252 0 6.208 1.79 7.715 4.67l23.479 44.874c1.294 2.473 3.854 4.023 6.646 4.023h292.856c7.779 0 14.108 6.329 14.108 14.109v39.481c-.034-.019-.069-.034-.103-.053-4.318-2.38-9.198-3.6-14.006-3.6z" fill="#000000" data-original="#000000" style="" class=""/></g></g></g></svg>
