<?xml version="1.0"?>
<svg xmlns="http://www.w3.org/2000/svg" xmlns:xlink="http://www.w3.org/1999/xlink" xmlns:svgjs="http://svgjs.com/svgjs" version="1.1" width="512" height="512" x="0" y="0" viewBox="0 0 512.002 512.002" style="enable-background:new 0 0 512 512" xml:space="preserve" class=""><g transform="matrix(-1.8369701987210297e-16,1,-1,-1.8369701987210297e-16,512.0024909973146,0.000476837158203125)"><g xmlns="http://www.w3.org/2000/svg"><g><path d="m176.356 178.092 3.709 4.488h73.5l25.666 13h43.667l12.494-17.488v-81.5l-8.351-5.512h-146.143l-4.542 5.512z" fill="#dbedff" data-original="#dbedff" style="" class=""/><path d="m229.456 91.08h-48.558l-4.542 5.512v81.5l3.709 4.488h49.391z" fill="#b5dcff" data-original="#b5dcff" style="" class=""/><path d="m342.814 7.532h-173.879c-6.998 0-12.723 5.725-12.723 12.723v63.614c0 6.998 5.725 12.723 12.723 12.723h173.879c6.998 0 12.723-5.725 12.723-12.723v-63.615c0-6.997-5.725-12.722-12.723-12.722z" fill="#b7b7b7" data-original="#ff7ab9" style="" class=""/><path d="m199.708 83.869v-63.615c0-6.998 5.725-12.723 12.723-12.723h-43.496c-6.998 0-12.723 5.725-12.723 12.723v63.614c0 6.998 5.725 12.723 12.723 12.723h43.496c-6.998.001-12.723-5.724-12.723-12.722z" fill="#767676" data-original="#ff5ca8" style="" class=""/><path d="m255.874 504.533c43.917 0 79.518-35.601 79.518-79.518v-246.923s-41.065 28-79.518 0-79.518 0-79.518 0v246.924c0 43.916 35.602 79.517 79.518 79.517z" fill="#62d744" data-original="#ffe02f" style="" class=""/><path d="m229.456 420.614v-253.972c-28.753-5.144-53.1 11.45-53.1 11.45v246.924c0 43.917 35.602 79.518 79.518 79.518 9.039 0 17.716-1.529 25.812-4.308-30.733-13.35-52.23-43.968-52.23-79.612z" fill="#4eaf35" data-original="#fbc700" style="" class=""/><path d="m296.208 235.925h-80.667c-4.97 0-9 4.03-9 9v80.667c0 4.971 4.03 9 9 9h80.667c4.971 0 9-4.029 9-9v-80.667c0-4.97-4.03-9-9-9z" fill="#dbedff" data-original="#dbedff" style="" class=""/><path d="m242.541 325.592v-80.667c0-4.97 4.03-9 9-9h-36c-4.97 0-9 4.03-9 9v80.667c0 4.971 4.03 9 9 9h36c-4.971 0-9-4.03-9-9z" fill="#b5dcff" data-original="#b5dcff" style="" class=""/></g><g><path d="m335.519 275.227c4.143 0 7.5-3.358 7.5-7.5 0-4.714 0-156.714 0-163.67 11.114-.043 20.145-9.094 20.145-20.219v-63.615c0-11.151-9.073-20.223-20.223-20.223h-173.88c-11.15 0-20.223 9.072-20.223 20.223v63.615c0 11.125 9.03 20.176 20.145 20.219v320.928c0 47.981 39.036 87.018 87.018 87.018 47.995 0 87.018-39.071 87.018-87.018v-122.258c0-4.142-3.357-7.5-7.5-7.5s-7.5 3.358-7.5 7.5v122.257c0 39.379-32.033 72.018-72.018 72.018-39.711 0-72.018-32.307-72.018-72.018v-242.667c9.76-5.336 39.686-18.524 67.604 1.806 17.535 12.77 38.385 16.828 60.29 11.743 6.24-1.449 11.723-3.449 16.143-5.382v77.243c-.001 4.142 3.356 7.5 7.499 7.5zm-166.458-186.167c-2.831 0-5.223-2.392-5.223-5.223v-63.614c0-2.831 2.392-5.223 5.223-5.223h173.88c2.831 0 5.223 2.392 5.223 5.223v63.615c0 2.831-2.392 5.223-5.223 5.223-3.93-.001-152.822-.001-173.88-.001zm91.356 82.937c-17.536-12.769-38.384-16.83-60.291-11.743-6.24 1.449-11.723 3.449-16.143 5.382v-61.576h144.036v69.742c-9.756 5.335-39.681 18.528-67.602-1.805z" fill="#000000" data-original="#000000" style="" class=""/><path d="m192.334 25.363c-4.143 0-7.5 3.358-7.5 7.5v38.333c0 4.142 3.357 7.5 7.5 7.5s7.5-3.358 7.5-7.5v-38.333c0-4.142-3.357-7.5-7.5-7.5z" fill="#000000" data-original="#000000" style="" class=""/><path d="m224.167 25.363c-4.143 0-7.5 3.358-7.5 7.5v38.333c0 4.142 3.357 7.5 7.5 7.5s7.5-3.358 7.5-7.5v-38.333c0-4.142-3.357-7.5-7.5-7.5z" fill="#000000" data-original="#000000" style="" class=""/><path d="m256 25.363c-4.143 0-7.5 3.358-7.5 7.5v38.333c0 4.142 3.357 7.5 7.5 7.5s7.5-3.358 7.5-7.5v-38.333c0-4.142-3.357-7.5-7.5-7.5z" fill="#000000" data-original="#000000" style="" class=""/><path d="m282.667 264.56c0-4.142-3.357-7.5-7.5-7.5h-38.333c-4.143 0-7.5 3.358-7.5 7.5s3.357 7.5 7.5 7.5h38.333c4.143 0 7.5-3.358 7.5-7.5z" fill="#000000" data-original="#000000" style="" class=""/><path d="m287.834 25.363c-4.143 0-7.5 3.358-7.5 7.5v38.333c0 4.142 3.357 7.5 7.5 7.5s7.5-3.358 7.5-7.5v-38.333c0-4.142-3.357-7.5-7.5-7.5z" fill="#000000" data-original="#000000" style="" class=""/><path d="m319.667 25.363c-4.143 0-7.5 3.358-7.5 7.5v38.333c0 4.142 3.357 7.5 7.5 7.5s7.5-3.358 7.5-7.5v-38.333c0-4.142-3.357-7.5-7.5-7.5z" fill="#000000" data-original="#000000" style="" class=""/><path d="m273.5 342.06h22.834c9.098 0 16.5-7.402 16.5-16.5v-80.667c0-9.098-7.402-16.5-16.5-16.5h-80.667c-9.098 0-16.5 7.402-16.5 16.5v80.667c0 9.098 7.402 16.5 16.5 16.5h22.833c4.143 0 7.5-3.358 7.5-7.5s-3.357-7.5-7.5-7.5h-22.833c-.827 0-1.5-.673-1.5-1.5v-80.667c0-.827.673-1.5 1.5-1.5h80.667c.827 0 1.5.673 1.5 1.5v80.667c0 .827-.673 1.5-1.5 1.5h-22.834c-4.143 0-7.5 3.358-7.5 7.5s3.358 7.5 7.5 7.5z" fill="#000000" data-original="#000000" style="" class=""/></g></g></g></svg>
