<?xml version="1.0"?>
<svg xmlns="http://www.w3.org/2000/svg" xmlns:xlink="http://www.w3.org/1999/xlink" xmlns:svgjs="http://svgjs.com/svgjs" version="1.1" width="512" height="512" x="0" y="0" viewBox="0 0 60 60" style="enable-background:new 0 0 512 512" xml:space="preserve" class=""><g><g xmlns="http://www.w3.org/2000/svg" id="Page-1" fill="none" fill-rule="evenodd"><g id="024---Letterbox" fill-rule="nonzero"><path id="Shape" d="m53.8 17h-19.6c1.6012309-3.1349302 4.6054274-5.3147798 8.0824109-5.86461 3.4769836-.5498301 7.0071955.5967058 9.4975891 3.08461.8162958.8138541 1.4981255 1.7522138 2.02 2.78z" fill="#39b718" data-original="#c81e1e" style="" class=""/><path id="Shape" d="m44 10.9999984c-4.1346965-.0007655-7.9205925 2.31713-9.8 6.0000016-.3826826.7388371-.6747948 1.5211606-.87 2.33-.2221787.8725181-.3330594 1.7696434-.33 2.67v17h-28.00000164l.00000164-17c-.00159287-2.9178694 1.15682085-5.716688 3.22006641-7.7799336 2.06324559-2.0632455 4.86206419-3.2216593 7.77993359-3.2200664z" fill="#62d744" data-original="#f44335" style="" class=""/><path id="Shape" d="m41 11c-4.1346965-.0007671-7.9205925 2.3171284-9.8 6-.3826826.7388371-.6747948 1.5211606-.87 2.33-.2221787.8725181-.3330594 1.7696434-.33 2.67l-.0000616 17h3.0000616v-17c-.0030594-.9003566.1078213-1.7974819.33-2.67.1952052-.8088394.4873174-1.5911629.87-2.33 1.8794075-3.6828716 5.6653035-6.0007671 9.8-6.0000002z" fill="#39b718" data-original="#c81e1e" style="" class=""/><path id="Shape" d="m59 42c0 1.6568542-1.3431458 3-3 3h-52c-1.65685425 0-3-1.3431458-3-3s1.34314575-3 3-3h52c1.6568542 0 3 1.3431458 3 3z" fill="#a0522d" data-original="#a0522d" style=""/><path id="Shape" d="m56 39h-3c1.6568542 0 3 1.3431458 3 3s-1.3431458 3-3 3h3c1.6568542 0 3-1.3431458 3-3s-1.3431458-3-3-3z" fill="#783e22" data-original="#783e22" style=""/><path id="Shape" d="m46 45v4c-.0032948 1.1032019-.8967981 1.9967052-2 2h-28c-1.1032019-.0032948-1.9967052-.8967981-2-2v-4z" fill="#91562d" data-original="#91562d" style="" class=""/><path id="Shape" d="m43 45v4c-.0032948 1.1032019-.8967981 1.9967052-2 2h3c1.1032019-.0032948 1.9967052-.8967981 2-2v-4z" fill="#6d4122" data-original="#6d4122" style=""/><path id="Shape" d="m26 51h8v7c0 .5522847-.4477153 1-1 1h-6c-.5522847 0-1-.4477153-1-1z" fill="#91562d" data-original="#91562d" style="" class=""/><path id="Shape" d="m31 51v7c0 .5522847-.4477153 1-1 1h3c.5522847 0 1-.4477153 1-1v-7z" fill="#6d4122" data-original="#6d4122" style=""/><path id="Shape" d="m15 7h-8l2-3-2-3h7c.5522847 0 1 .44771525 1 1z" fill="#62d744" data-original="#f44335" style="" class=""/><circle id="Oval" cx="15" cy="20" fill="#ffffff" r="2" data-original="#9e9e9e" style="" class=""/><path id="Shape" d="m58.41 38.41c-.3704612.3798589-.8794095.5928231-1.41.59l-24 .0000277v-2.0000277l9-9 1.59 1.59c.3736892.3744562.8809811.5848881 1.41.5848881s1.0363108-.2104319 1.41-.5848881l1.59-1.59z" fill="#e5c100" data-original="#ff9801" style="" class=""/><path id="Shape" d="m59 19v18c.0028231.5305905-.2101411 1.0395388-.59 1.41l-10.41-10.41 10.41-10.41c.3798589.3704612.5928231.8794095.59 1.41z" fill="#ffdf00" data-original="#ffdf00" style="" class=""/><path id="Shape" d="m58.41 17.59-2.41 2.41v16l2.41 2.41c.3798589-.3704612.5928231-.8794095.59-1.41v-18c.0028231-.5305905-.2101411-1.0395388-.59-1.41z" fill="#fec108" data-original="#fec108" style=""/><path id="Shape" d="m58.41 17.59-10.41 10.41-1.59 1.59c-.3736892.3744562-.8809811.5848881-1.41.5848881s-1.0363108-.2104319-1.41-.5848881l-1.59-1.59-8.67-8.67c.1952052-.8088394.4873174-1.5911629.87-2.33h22.8c.5305905-.0028231 1.0395388.2101411 1.41.59z" fill="#ffeb3a" data-original="#ffeb3a" style=""/><path id="Shape" d="m42 28-9.0000616 9 .0000616-15c-.0030594-.9003566.1078213-1.7974819.33-2.67z" fill="#ffdf00" data-original="#ffdf00" style="" class=""/><path id="Shape" d="m57 16h-2.613c-2.134599-3.7192067-6.0987686-6.00908994-10.387-6h-28v-8c0-1.1045695-.8954305-2-2-2h-7c-.36888685-.00005521-.70784605.20297845-.88187397.52823496s-.15485824.71990638.04987397 1.02676504l1.632 2.445-1.632 2.445c-.20473221.30685866-.22390189.70150853-.04987397 1.02676504s.51298712.52829017.88187397.52823496h7v2.181c-5.76688466.9785301-9.98988508 5.9696943-10 11.819v16c-2.209139 0-4 1.790861-4 4s1.790861 4 4 4h9v3c0 1.6568542 1.3431458 3 3 3h9v6c0 1.1045695.8954305 2 2 2h6c1.1045695 0 2-.8954305 2-2v-6h9c1.6568542 0 3-1.3431458 3-3v-3h9c1.5917715.0055052 3.0342101-.9365501 3.6690537-2.3962557.6348437-1.4597057.3403634-3.157168-.7490537-4.3177443.6813126-.5640414 1.0769676-1.4015112 1.08-2.286v-18c0-1.6568542-1.3431458-3-3-3zm-47.168-12.555-.963-1.445h5.131v4h-5.131l.963-1.445c.2241995-.33603687.2241995-.77396313 0-1.11zm45.168 34.555h-21v-.586l8-8 .883.883c1.1705777 1.1658241 3.0634223 1.1658241 4.234 0l.883-.883 8.586 8.586zm1.586-20-10.886 10.883c-.3895663.3850802-1.0164337.3850802-1.406 0l-9.838-9.838c.1115963-.3555929.2434792-.7044982.395-1.045zm-22.586 4c0-.187.022-.369.032-.554l6.554 6.554-6.586 6.586zm15.414 6 8.586-8.586v17.172zm2.577-12h-15.973c1.7359048-2.3187916 4.3933604-3.7692924 7.2826223-3.975024s5.7254311.8535926 7.7723777 2.903024c.3305914.3355189.6373382.6937243.918 1.072zm-45.991 6c.00522451-4.7504773 3.34674178-8.8438359 8-9.8v4.982c-1.3775467.4870363-2.2038721 1.8956662-1.9567957 3.3357331.2470764 1.4400668 1.4956868 2.492694 2.9567957 2.492694s2.7097193-1.0526272 2.9567957-2.492694c.2470764-1.4400669-.579249-2.8486968-1.9567957-3.3357331v-5.182h21.364c-1.7193381 1.1404344-3.1153339 2.7052034-4.053 4.543-.01.019-.016.04-.026.059l-.008.018c-.8388806 1.6693967-1.2761669 3.5116838-1.277 5.38v16h-26zm9-3c.5522847 0 1 .4477153 1 1s-.4477153 1-1 1-1-.4477153-1-1 .4477153-1 1-1zm18 39h-6v-6h6zm12-9c0 .5522847-.4477153 1-1 1h-28c-.5522847 0-1-.4477153-1-1v-3h30zm11-5h-52c-1.1045695 0-2-.8954305-2-2s.8954305-2 2-2h52c1.1045695 0 2 .8954305 2 2s-.8954305 2-2 2z" fill="#000000" data-original="#000000" style="" class=""/></g></g></g></svg>
