<?xml version="1.0"?>
<svg xmlns="http://www.w3.org/2000/svg" xmlns:xlink="http://www.w3.org/1999/xlink" xmlns:svgjs="http://svgjs.com/svgjs" version="1.1" width="512" height="512" x="0" y="0" viewBox="0 0 512 512" style="enable-background:new 0 0 512 512" xml:space="preserve" class=""><g><path xmlns="http://www.w3.org/2000/svg" d="m89.46875 64.429688h224.234375v-28.644532c0-14.238281-11.542969-25.785156-25.785156-25.785156h-252.132813c-14.238281 0-25.785156 11.546875-25.785156 25.785156v385.996094c0 14.242188 11.546875 25.789062 25.785156 25.789062h27.894532v-357.351562c0-14.242188 11.546874-25.789062 25.789062-25.789062zm0 0" fill="#c1c1c1" data-original="#86a4b3" style="" class=""/><path xmlns="http://www.w3.org/2000/svg" d="m364.015625 306.644531c-.21875.21875-.433594.441407-.652344.65625-.660156.648438-1.335937 1.285157-2.027343 1.898438-.195313.171875-.394532.339843-.589844.507812-.625.539063-1.257813 1.066407-1.90625 1.578125-.15625.125-.3125.25-.472656.375-.773438.597656-1.566407 1.167969-2.375 1.726563-.191407.132812-.382813.261719-.578126.390625-.839843.5625-1.695312 1.117187-2.570312 1.632812l-28.644531 16.980469c-14.484375 8.585937-32.726563-2.300781-32.042969-19.128906l1.355469-33.269531c.042969-1.015626.121093-2.027344.21875-3.039063.023437-.234375.042969-.464844.070312-.695313.105469-.976562.234375-1.945312.390625-2.910156.035156-.199218.074219-.394531.109375-.59375.140625-.8125.300781-1.621094.480469-2.425781.054688-.253906.109375-.507813.167969-.757813.214843-.902343.449219-1.796874.707031-2.683593.085938-.296875.179688-.59375.273438-.890625.226562-.734375.46875-1.464844.726562-2.191406.078125-.21875.152344-.445313.230469-.664063 1.167969-3.152344 2.617187-6.199219 4.351562-9.105469l66.144531-110.800781v-53.019531c0-14.242188-11.546874-25.785156-25.789062-25.785156h-252.125c-14.242188 0-25.789062 11.542968-25.789062 25.785156v385.996094c0 14.242187 11.546874 25.789062 25.789062 25.789062h252.128906c14.242188 0 25.785156-11.546875 25.785156-25.789062v-173.34375c-.578124.710937-1.167968 1.414062-1.785156 2.097656-.515625.570312-1.042968 1.128906-1.582031 1.679687zm0 0" fill="#ffffff" data-original="#d6effb" style="" class=""/><g xmlns="http://www.w3.org/2000/svg" fill="#00b7ec"><path d="m367.382812 143.238281-66.140624 110.796875c-1.734376 2.90625-3.1875 5.957032-4.351563 9.105469l69.183594 41.300781c-.152344.175782-.316407.347656-.476563.523438.617188-.683594 1.207032-1.386719 1.785156-2.097656 1.695313-2.074219 3.257813-4.261719 4.640626-6.578126l100.152343-167.769531-70.78125-42.253906zm0 0" fill="#62d744" data-original="#00b7ec" style="" class=""/><path d="m358.839844 311.285156c-.15625.125-.3125.253906-.472656.375.160156-.121094.316406-.25.472656-.375zm0 0" fill="#62d744" data-original="#00b7ec" style="" class=""/><path d="m364.015625 306.644531c-.21875.21875-.433594.441407-.652344.65625.21875-.214843.433594-.4375.652344-.65625zm0 0" fill="#62d744" data-original="#00b7ec" style="" class=""/><path d="m355.992188 313.386719c-.1875.132812-.382813.261719-.574219.390625.191406-.128906.382812-.257813.574219-.390625zm0 0" fill="#62d744" data-original="#00b7ec" style="" class=""/><path d="m361.335938 309.199219c-.195313.171875-.394532.339843-.589844.511719.195312-.171876.394531-.339844.589844-.511719zm0 0" fill="#62d744" data-original="#00b7ec" style="" class=""/><path d="m293.730469 276.953125c.023437-.230469.042969-.464844.070312-.695313-.027343.234376-.046875.464844-.070312.695313zm0 0" fill="#62d744" data-original="#00b7ec" style="" class=""/><path d="m294.191406 273.351562c.035156-.199218.074219-.398437.109375-.59375-.035156.195313-.074219.394532-.109375.59375zm0 0" fill="#62d744" data-original="#00b7ec" style="" class=""/><path d="m296.65625 263.804688c.082031-.21875.152344-.445313.234375-.664063-.082031.222656-.152344.445313-.234375.664063zm0 0" fill="#62d744" data-original="#00b7ec" style="" class=""/><path d="m295.660156 266.886719c.085938-.296875.179688-.59375.269532-.886719-.089844.292969-.183594.589844-.269532.886719zm0 0" fill="#62d744" data-original="#00b7ec" style="" class=""/><path d="m294.78125 270.332031c.058594-.253906.109375-.507812.167969-.761719-.058594.253907-.109375.507813-.167969.761719zm0 0" fill="#62d744" data-original="#00b7ec" style="" class=""/></g><path xmlns="http://www.w3.org/2000/svg" d="m467.046875 56.699219c-19.546875-11.667969-44.851563-5.28125-56.519531 14.265625l-9.136719 15.304687 70.785156 42.253907 9.132813-15.304688c11.671875-19.546875 5.285156-44.851562-14.261719-56.519531zm0 0" fill="#ee569e" data-original="#ee569e" style=""/><path xmlns="http://www.w3.org/2000/svg" d="m296.890625 263.140625c-.082031.222656-.15625.445313-.234375.667969-.257812.722656-.5 1.457031-.726562 2.191406-.089844.296875-.183594.589844-.269532.886719-.257812.890625-.496094 1.785156-.710937 2.683593-.058594.253907-.109375.507813-.167969.761719-.179688.804688-.339844 1.613281-.480469 2.425781-.035156.195313-.074219.394532-.109375.59375-.15625.964844-.285156 1.933594-.390625 2.90625-.023437.230469-.046875.464844-.070312.695313-.097657 1.011719-.175781 2.023437-.21875 3.042969l-1.351563 33.269531c-.683594 16.828125 17.554688 27.714844 32.039063 19.128906l28.644531-16.980469c.875-.519531 1.730469-1.070312 2.574219-1.636718.191406-.128906.386719-.257813.574219-.390625.808593-.554688 1.601562-1.128907 2.375-1.726563.160156-.121094.316406-.25.472656-.375.648437-.511718 1.28125-1.035156 1.90625-1.574218.199218-.171876.398437-.335938.589844-.511719.691406-.613281 1.367187-1.246094 2.027343-1.894531.21875-.21875.433594-.441407.652344-.660157.539063-.546875 1.066406-1.109375 1.582031-1.679687.160156-.175782.324219-.34375.480469-.523438zm0 0" fill="#ffe69b" data-original="#ffd866" style="" class=""/><path xmlns="http://www.w3.org/2000/svg" d="m472.171875 48.113281c-24.25-14.472656-55.753906-6.523437-70.230469 17.726563l-9.132812 15.300781-15.425782 25.835937v-16.757812c0-19.734375-16.054687-35.789062-35.785156-35.789062h-17.894531v-18.644532c0-19.730468-16.054687-35.785156-35.785156-35.785156h-252.132813c-19.730468 0-35.785156 16.054688-35.785156 35.785156v385.996094c0 19.734375 16.054688 35.789062 35.785156 35.789062h17.894532v18.644532c0 19.730468 16.054687 35.785156 35.789062 35.785156h252.128906c19.730469 0 35.785156-16.054688 35.785156-35.785156v-169.964844c1.140626-1.566406 2.230469-3.167969 3.226563-4.832031l100.152344-167.769531 9.136719-15.304688c14.472656-24.246094 6.523437-55.753906-17.726563-70.230469zm-53.058594 27.976563c4.273438-7.160156 11.082031-12.226563 19.167969-14.269532 8.082031-2.039062 16.476562-.808593 23.640625 3.464844 14.777344 8.824219 19.625 28.027344 10.804687 42.808594l-4.011718 6.71875-8.078125-4.824219-45.53125-27.179687zm-71.371093 230.722656-28.640626 16.976562c-.460937.273438-.929687.507813-1.410156.710938-2.855468 1.207031-6.007812 1.171875-8.847656-.097656-.414062-.1875-.828125-.390625-1.230469-.628906-3.140625-1.878907-5.101562-5.003907-5.425781-8.554688-.046875-.507812-.058594-1.027344-.039062-1.546875l1.355468-33.269531c0-.019532.003906-.042969.003906-.0625.019532-.515625.070313-1.023438.109376-1.535156l45.476562 27.148437c-.449219.285156-.890625.585937-1.351562.859375zm-311.957032 130.757812c-8.703125 0-15.785156-7.082031-15.785156-15.789062v-385.996094c0-8.703125 7.082031-15.785156 15.785156-15.785156h252.132813c8.703125 0 15.785156 7.082031 15.785156 15.785156v18.644532h-214.234375c-19.734375 0-35.789062 16.054687-35.789062 35.789062v347.351562zm321.597656 38.644532c0 8.703125-7.082031 15.785156-15.785156 15.785156h-252.128906c-8.707031 0-15.789062-7.082031-15.789062-15.785156v-385.996094c0-8.707031 7.082031-15.789062 15.789062-15.789062h252.128906c8.703125 0 15.785156 7.082031 15.785156 15.789062v50.261719l-64.730468 108.433593c-.453125.761719-.886719 1.535157-1.308594 2.316407-.101562.1875-.203125.378906-.304688.566406-.394531.75-.777343 1.5-1.144531 2.261719-.019531.042968-.042969.082031-.0625.125-.382812.804687-.746093 1.613281-1.09375 2.429687-.085937.203125-.171875.402344-.253906.605469-.300781.71875-.589844 1.445312-.863281 2.175781-.03125.085938-.066406.167969-.097656.25-.003907.007813-.003907.011719-.007813.015625 0 .003906-.003906.007813-.003906.011719-.011719.027344-.019531.058594-.03125.085937-.257813.710938-.507813 1.425782-.742188 2.140626-.09375.277343-.175781.554687-.261719.835937-.136718.429687-.273437.867187-.398437 1.300781-.007813.019532-.011719.039063-.019531.058594 0 .007812 0 .011719-.003906.019531-.097657.335938-.1875.667969-.28125 1.003907-.105469.386718-.207032.773437-.304688 1.160156-.09375.367187-.1875.734375-.273438 1.105468-.09375.402344-.179687.808594-.269531 1.214844-.113281.539063-.226562 1.082032-.328125 1.625-.089844.488282-.183594.976563-.265625 1.46875-.054687.34375-.105469.6875-.15625 1.027344-.0625.433594-.125.867188-.179687 1.300781-.042969.328125-.082032.65625-.117188.984375-.058594.488282-.105468.976563-.148437 1.46875-.023438.269532-.050781.542969-.074219.816406-.015625.234376-.03125.46875-.046875.703126-.039063.550781-.070313 1.078124-.089844 1.597656l-1.355469 33.269531c-.027343.714844-.03125 1.429687-.011718 2.136719.292968 10.640625 5.988281 20.445312 15.210937 25.953125.4375.261719.886719.496093 1.332031.734375.183594.09375.359376.203125.542969.296875.234375.121093.476563.21875.710938.332031.40625.191406.808593.390625 1.214843.566406.160157.066406.324219.121094.484376.1875.492187.199219.984374.398438 1.484374.570313.136719.046875.273438.082031.40625.128906.53125.175781 1.0625.347656 1.597657.496094.113281.027343.226562.050781.335937.078125.5625.148437 1.128906.289062 1.699219.402344.089844.019531.179687.03125.269531.046874.589844.113282 1.1875.21875 1.78125.300782.09375.011718.1875.015625.28125.027344.59375.074218 1.191406.140624 1.789063.179687.089843.003906.183593.003906.273437.007813.601563.035156 1.199219.0625 1.796875.0625h.007813c.125 0 .246094-.011719.367187-.011719.566407-.007813 1.128907-.019531 1.691407-.058594.09375-.003906.1875-.019531.285156-.027344.59375-.042969 1.183594-.097656 1.777344-.175781.042968-.007812.085937-.015625.132812-.023438.636719-.085937 1.277344-.191406 1.910156-.316406 3.390625-.683594 6.691406-1.9375 9.761719-3.757812l28.085937-16.644532zm6.054688-185.046875c-.007812.011719-.019531.023437-.027344.035156l-53.605468-32c.007812-.011719.015624-.027344.019531-.039063l95.027343-159.183593 8.078126 4.820312 45.535156 27.183594zm0 0" fill="#000000" data-original="#000000" style="" class=""/><path xmlns="http://www.w3.org/2000/svg" d="m404.410156 142.113281-50.660156 84.867188c-2.832031 4.742187-1.28125 10.882812 3.460938 13.714843 1.605468.957032 3.371093 1.414063 5.113281 1.414063 3.40625 0 6.726562-1.738281 8.597656-4.875l50.664063-84.867187c2.828124-4.742188 1.28125-10.882813-3.460938-13.714844-4.742188-2.828125-10.882812-1.28125-13.714844 3.460937zm0 0" fill="#000000" data-original="#000000" style="" class=""/><path xmlns="http://www.w3.org/2000/svg" d="m131.808594 148.234375h167.445312c5.519532 0 10-4.476563 10-10s-4.480468-10-10-10h-167.445312c-5.519532 0-10 4.476563-10 10s4.480468 10 10 10zm0 0" fill="#000000" data-original="#000000" style="" class=""/><path xmlns="http://www.w3.org/2000/svg" d="m131.808594 220.242188h153.445312c5.519532 0 10-4.476563 10-10 0-5.519532-4.480468-10-10-10h-153.445312c-5.519532 0-10 4.480468-10 10 0 5.523437 4.480468 10 10 10zm0 0" fill="#000000" data-original="#000000" style="" class=""/><path xmlns="http://www.w3.org/2000/svg" d="m249.367188 272.253906h-117.558594c-5.519532 0-10 4.480469-10 10 0 5.523438 4.480468 10 10 10h117.558594c5.519531 0 10-4.476562 10-10 0-5.519531-4.476563-10-10-10zm0 0" fill="#000000" data-original="#000000" style="" class=""/><path xmlns="http://www.w3.org/2000/svg" d="m290.003906 350.4375c-.25-.597656-.5625-1.179688-.921875-1.726562-.359375-.539063-.78125-1.0625-1.238281-1.523438-2.320312-2.316406-5.78125-3.378906-9.03125-2.726562-.628906.128906-1.261719.316406-1.871094.566406-.597656.25-1.179687.5625-1.71875.921875-.550781.371093-1.0625.78125-1.519531 1.238281-1.871094 1.871094-2.929687 4.441406-2.929687 7.082031 0 2.628907 1.058593 5.199219 2.929687 7.070313 1.859375 1.859375 4.4375 2.929687 7.070313 2.929687 2.628906 0 5.207031-1.070312 7.066406-2.929687 1.859375-1.871094 2.933594-4.441406 2.933594-7.070313 0-.660156-.070313-1.308593-.203126-1.960937-.128906-.636719-.316406-1.269532-.566406-1.871094zm0 0" fill="#000000" data-original="#000000" style="" class=""/><path xmlns="http://www.w3.org/2000/svg" d="m236.28125 344.265625h-104.472656c-5.519532 0-10 4.476563-10 10s4.480468 10 10 10h104.472656c5.523438 0 10-4.476563 10-10s-4.476562-10-10-10zm0 0" fill="#000000" data-original="#000000" style="" class=""/></g></svg>
