<?xml version="1.0"?>
<svg xmlns="http://www.w3.org/2000/svg" xmlns:xlink="http://www.w3.org/1999/xlink" xmlns:svgjs="http://svgjs.com/svgjs" version="1.1" width="512" height="512" x="0" y="0" viewBox="0 0 512 512" style="enable-background:new 0 0 512 512" xml:space="preserve" class=""><g><g xmlns="http://www.w3.org/2000/svg"><g><g><g><path d="m340.275 156.983c-8.068-.38-14.275-7.33-14.275-15.407v-64.575c0-3.978 1.58-7.794 4.394-10.607l40-40c2.813-2.814 6.628-4.394 10.607-4.394h92.576c8.077 0 15.027 6.207 15.407 14.275.405 8.614-6.459 15.725-14.984 15.725h-85.958c-.53 0-1.039.211-1.414.586l-30.042 30.042c-.375.375-.586.884-.586 1.414v57.958c0 8.525-7.111 15.389-15.725 14.983z" fill="#f8f7f7" data-original="#f8f7f7" style=""/></g><g><path d="m340.275 355.017c-8.068.38-14.275 7.33-14.275 15.407v64.576c0 3.978 1.58 7.794 4.394 10.607l40 40c2.813 2.813 6.629 4.394 10.607 4.394h92.576c8.077 0 15.027-6.207 15.407-14.275.405-8.615-6.459-15.726-14.984-15.726h-85.958c-.53 0-1.039-.211-1.414-.586l-30.042-30.042c-.375-.375-.586-.884-.586-1.414v-57.958c0-8.525-7.111-15.389-15.725-14.983z" fill="#f8f7f7" data-original="#f8f7f7" style=""/></g><g><path d="m479.952 157.5h-139.404c-5.273 0-9.548-6.716-9.548-15s4.275-15 9.548-15h139.404c5.273 0 9.548 6.716 9.548 15s-4.275 15-9.548 15z" fill="#f8f7f7" data-original="#f8f7f7" style=""/></g><g><path d="m479.952 384.5h-139.404c-5.273 0-9.548-6.716-9.548-15s4.275-15 9.548-15h139.404c5.273 0 9.548 6.716 9.548 15s-4.275 15-9.548 15z" fill="#f8f7f7" data-original="#f8f7f7" style=""/></g><g><path d="m341.512 384.501c-4.554 0-9.051-2.065-11.999-5.984l-85-113c-4.003-5.322-4.018-12.645-.038-17.983l85-114c4.953-6.64 14.352-8.009 20.992-3.059 6.641 4.952 8.011 14.35 3.059 20.992l-78.286 104.993 78.247 104.022c4.98 6.621 3.65 16.024-2.97 21.004-2.701 2.033-5.867 3.014-9.005 3.015z" fill="#f8f7f7" data-original="#f8f7f7" style=""/></g><g><path d="m474.5 271h-219c-8.284 0-15-6.716-15-15s6.716-15 15-15h219c8.284 0 15 6.716 15 15s-6.716 15-15 15z" fill="#f8f7f7" data-original="#f8f7f7" style=""/></g></g><g><g><path d="m504.5 37.5c0-16.569-13.431-30-30-30-3.587 0-7.027.63-10.215 1.784-2.24.811-4.389 3.258-6.237 4.551-7.671 5.369-11.777 13.204-11.777 23.665 0 16.569 11.66 28.995 28.229 28.995 12.982 0 24.037-7.24 28.216-18.779 1.154-3.189 1.784-6.629 1.784-10.216z" fill="#62d744" data-original="#b3e59f" style="" class=""/><path d="m502.715 47.715c-4.185 11.55-15.225 19.785-28.215 19.785-16.575 0-30-13.425-30-30 0-12.99 8.235-24.03 19.785-28.215-1.155 3.18-1.785 6.63-1.785 10.215 0 16.575 13.425 30 30 30 3.585 0 7.035-.63 10.215-1.785z" fill="#afff9a" data-original="#95d6a4" style="" class=""/></g><g><path d="m504.5 142.5c0-16.569-13.431-30-30-30-3.587 0-7.027.63-10.215 1.784-2.24.811-4.389 3.258-6.237 4.551-7.671 5.369-11.777 13.204-11.777 23.665 0 16.569 11.66 28.995 28.229 28.995 12.982 0 24.037-7.24 28.216-18.779 1.154-3.189 1.784-6.629 1.784-10.216z" fill="#62d744" data-original="#b3e59f" style="" class=""/><path d="m502.715 152.715c-4.185 11.55-15.225 19.785-28.215 19.785-16.575 0-30-13.425-30-30 0-12.99 8.235-24.03 19.785-28.215-1.155 3.18-1.785 6.63-1.785 10.215 0 16.575 13.425 30 30 30 3.585 0 7.035-.63 10.215-1.785z" fill="#afff9a" data-original="#95d6a4" style="" class=""/></g><g><path d="m370.607 142.5c0-16.569-13.431-30-30-30-3.587 0-7.027.63-10.215 1.784-2.24.811-4.389 3.258-6.237 4.551-7.671 5.369-11.777 13.204-11.777 23.665 0 16.569 11.66 28.995 28.229 28.995 12.982 0 24.037-7.24 28.216-18.779 1.155-3.189 1.784-6.629 1.784-10.216z" fill="#62d744" data-original="#b3e59f" style="" class=""/><path d="m368.823 152.715c-4.185 11.55-15.225 19.785-28.215 19.785-16.575 0-30-13.425-30-30 0-12.99 8.235-24.03 19.785-28.215-1.155 3.18-1.785 6.63-1.785 10.215 0 16.575 13.425 30 30 30 3.585 0 7.035-.63 10.215-1.785z" fill="#afff9a" data-original="#95d6a4" style="" class=""/></g><g><path d="m504.5 256.001c0-16.569-13.431-30-30-30-3.587 0-7.027.63-10.215 1.784-2.24.811-4.389 3.258-6.237 4.551-7.671 5.369-11.777 13.204-11.777 23.665 0 16.569 11.66 28.995 28.229 28.995 12.982 0 24.037-7.24 28.216-18.779 1.154-3.19 1.784-6.63 1.784-10.216z" fill="#62d744" data-original="#b3e59f" style="" class=""/><path d="m502.715 266.216c-4.185 11.55-15.225 19.785-28.215 19.785-16.575 0-30-13.425-30-30 0-12.99 8.235-24.03 19.785-28.215-1.155 3.18-1.785 6.63-1.785 10.215 0 16.575 13.425 30 30 30 3.585 0 7.035-.63 10.215-1.785z" fill="#afff9a" data-original="#95d6a4" style="" class=""/></g><g><path d="m504.5 369.5c0-16.569-13.431-30-30-30-3.587 0-7.027.63-10.215 1.784-2.24.811-4.389 3.258-6.237 4.551-7.671 5.369-11.777 13.204-11.777 23.665 0 16.569 11.66 28.995 28.229 28.995 12.982 0 24.037-7.24 28.216-18.779 1.154-3.189 1.784-6.629 1.784-10.216z" fill="#62d744" data-original="#b3e59f" style="" class=""/><path d="m502.715 379.715c-4.185 11.55-15.225 19.785-28.215 19.785-16.575 0-30-13.425-30-30 0-12.99 8.235-24.03 19.785-28.215-1.155 3.18-1.785 6.63-1.785 10.215 0 16.575 13.425 30 30 30 3.585 0 7.035-.63 10.215-1.785z" fill="#afff9a" data-original="#95d6a4" style="" class=""/></g><g><path d="m371.5 369.5c0-16.569-13.431-30-30-30-3.587 0-7.027.63-10.215 1.784-2.24.811-4.389 3.258-6.237 4.551-7.671 5.369-11.777 13.204-11.777 23.665 0 16.569 11.66 28.995 28.229 28.995 12.982 0 24.037-7.24 28.216-18.779 1.154-3.189 1.784-6.629 1.784-10.216z" fill="#62d744" data-original="#b3e59f" style="" class=""/><path d="m369.715 379.715c-4.185 11.55-15.225 19.785-28.215 19.785-16.575 0-30-13.425-30-30 0-12.99 8.235-24.03 19.785-28.215-1.155 3.18-1.785 6.63-1.785 10.215 0 16.575 13.425 30 30 30 3.585 0 7.035-.63 10.215-1.785z" fill="#afff9a" data-original="#95d6a4" style="" class=""/></g><g><path d="m504.5 474.2c0-16.569-13.431-30-30-30-3.587 0-7.027.63-10.215 1.784-2.24.811-4.389 3.258-6.237 4.551-7.671 5.369-11.777 13.204-11.777 23.665 0 16.569 11.66 28.995 28.229 28.995 12.982 0 24.037-7.24 28.216-18.779 1.154-3.189 1.784-6.629 1.784-10.216z" fill="#62d744" data-original="#b3e59f" style="" class=""/><path d="m502.715 484.415c-4.185 11.55-15.225 19.785-28.215 19.785-16.575 0-30-13.425-30-30 0-12.99 8.235-24.03 19.785-28.215-1.155 3.18-1.785 6.63-1.785 10.215 0 16.575 13.425 30 30 30 3.585 0 7.035-.63 10.215-1.785z" fill="#afff9a" data-original="#95d6a4" style="" class=""/></g></g><path d="m255.583 140.21c-1.407 3.639-4.803 6.133-8.697 6.366-54.5 3.261-98.914 53.105-98.914 108.425 0 55.313 44.418 105.535 98.909 108.805 3.904.234 7.306 2.739 8.706 6.391l17.517 33.896 16.946 44.178 11.073 32.082c.613 1.598.818 3.33.567 5.023-1.438 9.69-9.792 17.126-19.881 17.126h-50.62c-11.101 0-20.1-8.999-20.1-20.1v-21.65c0-8.66-5.55-16.35-13.77-19.07-9.15-3.03-23.01-6.71-31.52-10.99-7.75-3.9-17.12-2.41-23.25 3.72l-15.32 15.32c-7.85 7.85-15.58 9.85-23.43 2l-40.039-40.032c-7.84-7.85-7.84-20.58 0-28.43l15.33-15.32c6.13-6.13 7.62-15.5 3.72-23.25-4.28-8.51-9.96-19.37-12.99-28.52-2.72-8.22-10.41-13.77-19.07-13.77h-21.65c-11.101 0-20.1-8.999-20.1-20.1v-52.62c0-11.101 8.999-20.1 20.1-20.1h21.65c8.66 0 15.35-7.55 18.07-15.77 3.03-9.15 6.71-18.01 10.99-26.52 3.9-7.75 2.41-17.12-3.72-23.25l-15.33-15.32c-7.84-7.85-7.84-20.58 0-28.43l40.04-40.04c7.85-7.84 20.58-7.84 28.43 0l15.32 15.33c6.13 6.13 15.5 7.62 23.25 3.72 8.51-4.28 17.37-7.96 26.52-10.99 8.22-2.72 13.77-10.41 13.77-19.07v-21.65c0-11.101 8.999-20.1 20.1-20.1h55.62c10.085 0 18.437 7.43 19.88 17.114.254 1.702.044 3.443-.577 5.048l-30.308 78.38z" fill="#8b8b8b" data-original="#b6c4cf" style="" class=""/><path d="m303.69 487.37c-1.44 9.69-9.79 17.13-19.88 17.13h-55.62c-11.1 0-20.1-9-20.1-20.1v-21.65c0-8.66-5.55-16.35-13.77-19.07-9.15-3.03-18.01-6.71-26.52-10.99-7.75-3.9-17.12-2.41-23.25 3.72l-15.32 15.32c-7.85 7.85-20.58 7.85-28.43 0l-40.04-40.03c-7.84-7.85-7.84-20.58 0-28.43l15.33-15.32c6.13-6.13 7.62-15.5 3.72-23.25-4.28-8.51-7.96-17.37-10.99-26.52-2.72-8.22-10.41-13.77-19.07-13.77h-21.65c-11.1 0-20.1-9-20.1-20.1v-56.62c0-11.1 9-20.1 20.1-20.1h21.65c8.2 0 15.53-4.97 18.59-12.48-.23 4.27-.34 8.57-.34 12.89 0 126.72 97.81 230.6 222.05 240.27l13.07 34.08c.62 1.6.82 3.33.57 5.02z" fill="#ababab" data-original="#9facba" style="" class=""/><path d="m273.11 404.09c-5 .49-12.14.91-17.11.91-82.29 0-149-66.71-149-149s66.71-149 149-149c4.27 0 12.44.67 16.8 1.04l-14.41 37.28c-1.41 3.64-4.8 6.14-8.7 6.37-54.5 3.26-97.69 48.49-97.69 103.81 0 55.31 43.18 100.54 97.67 103.81 3.91.23 7.31 2.74 8.71 6.39z" fill="#ababab" data-original="#9facba" style="" class=""/><path d="m198.78 256.001c0-20.255 7.257-38.166 22.627-49.03 9.776-6.911 21.711-10.971 34.593-10.971 33.137 0 60 26.863 60 60 0 11.963-3.501 23.108-9.535 32.467-10.679 16.565-29.291 25.707-50.465 25.707-33.137 0-57.22-25.036-57.22-58.173z" fill="#62d744" data-original="#b3e59f" style="" class=""/><path d="m306.47 288.47c-10.68 16.56-29.3 27.53-50.47 27.53-33.14 0-60-26.86-60-60 0-21.17 10.97-39.79 27.53-50.47-6.03 9.36-9.53 20.5-9.53 32.47 0 33.14 26.86 60 60 60 11.97 0 23.11-3.5 32.47-9.53z" fill="#afff9a" data-original="#95d6a4" style="" class=""/></g><g><path d="m371.23 165h73.041c6.848 9.102 17.737 15 29.98 15 20.678 0 37.5-16.822 37.5-37.5s-16.822-37.5-37.5-37.5c-12.243 0-23.132 5.898-29.98 15.001-.007 0-.013-.001-.02-.001h-73.02c-2.253-2.994-4.947-5.636-7.98-7.841v-25.839l26.82-26.82h53.839c6.823 9.383 17.878 15.5 30.341 15.5 20.678 0 37.5-16.822 37.5-37.5s-16.823-37.5-37.501-37.5c-12.014 0-22.719 5.685-29.586 14.5h-63.914c-6.01 0-11.66 2.34-15.91 6.59l-40 40c-4.25 4.25-6.59 9.9-6.59 15.91v35.914c-11.291 8.649-17.528 24.992-12.966 40.182l-28.83 38.666c-6.528-2.109-13.483-3.261-20.704-3.261-37.22 0-67.5 30.28-67.5 67.5s30.28 67.5 67.5 67.5c7.099 0 13.942-1.108 20.374-3.15l29.116 38.707c-.964 3.317-1.49 6.818-1.49 10.442 0 12.014 5.685 22.719 14.5 29.586v35.914c0 6.01 2.34 11.66 6.59 15.91l40 40c4.25 4.25 9.9 6.59 15.91 6.59h63.914c6.868 8.815 17.572 14.5 29.586 14.5 20.678 0 37.5-16.822 37.5-37.5s-16.822-37.5-37.5-37.5c-12.463 0-23.519 6.117-30.341 15.5h-53.839l-26.82-26.82v-25.839c3.032-2.205 5.727-4.847 7.98-7.841h73.041c6.848 9.102 17.737 15 29.98 15 20.678 0 37.5-16.822 37.5-37.5s-16.822-37.5-37.5-37.5c-12.243 0-23.132 5.898-29.98 15.001-.007 0-.013-.001-.02-.001h-73.02c-6.848-9.102-17.737-15-29.98-15-.017 0-.035.001-.052.001l-29.173-38.783c3.02-4.551 5.5-9.487 7.355-14.718h124.87c.007 0 .013-.001.02-.001 6.848 9.103 17.738 15.001 29.98 15.001 20.678 0 37.5-16.822 37.5-37.5s-16.822-37.5-37.5-37.5c-12.243 0-23.132 5.898-29.98 15.001-.007 0-.013-.001-.02-.001h-43.533c-4.142 0-7.5 3.358-7.5 7.5s3.358 7.5 7.5 7.5h36.787c-.738 3.857-1.167 8.941 0 15h-114.682c.413-3.925.659-8.879 0-15h41.927c4.142 0 7.5-3.358 7.5-7.5s-3.358-7.5-7.5-7.5h-45.37c-1.815-5.118-4.232-9.95-7.164-14.419l29.141-39.083c12.199-.035 23.044-5.923 29.873-14.998zm103.02-45c12.407 0 22.5 10.093 22.5 22.5s-10.093 22.5-22.5 22.5-22.5-10.093-22.5-22.5 10.093-22.5 22.5-22.5zm-96.255 15h59.509c-.738 3.857-1.167 8.941 0 15h-59.509c.494-2.424.755-4.932.755-7.5s-.261-5.076-.755-7.5zm96.255-120c12.407 0 22.5 10.093 22.5 22.5s-10.093 22.5-22.5 22.5-22.5-10.093-22.5-22.5 10.093-22.5 22.5-22.5zm0 437c12.407 0 22.5 10.093 22.5 22.5s-10.093 22.5-22.5 22.5-22.5-10.093-22.5-22.5 10.093-22.5 22.5-22.5zm0-105c12.407 0 22.5 10.093 22.5 22.5s-10.093 22.5-22.5 22.5-22.5-10.093-22.5-22.5 10.093-22.5 22.5-22.5zm-96.255 15h59.509c-.738 3.857-1.167 8.941 0 15h-59.509c.738-3.857 1.167-8.941 0-15zm96.255-128.5c12.407 0 22.5 10.093 22.5 22.5s-10.093 22.5-22.5 22.5-22.5-10.093-22.5-22.5 10.093-22.5 22.5-22.5zm-141-156.5c0-2.003.78-3.886 2.197-5.303l40-40c1.417-1.417 3.3-2.197 5.303-2.197h56.868c-.563 2.579-.868 5.254-.868 8 0 2.393.235 4.731.665 7h-50.452c-1.989 0-3.897.79-5.303 2.197l-31.213 31.213c-1.407 1.406-2.197 3.314-2.197 5.303v22.452c-4-.712-8.828-1.048-15 .203zm-77.5 231.5c-28.949 0-52.5-23.551-52.5-52.5s23.551-52.5 52.5-52.5 52.5 23.551 52.5 52.5-23.551 52.5-52.5 52.5zm125.91 156.803c1.406 1.407 3.314 2.197 5.303 2.197h50.452c-.712 4-1.048 8.828.203 15h-56.868c-2.003 0-3.887-.78-5.303-2.197l-40-40c-1.417-1.417-2.197-3.3-2.197-5.303v-28.868c3.715.779 9.159 1.301 15 .203v22.452c0 1.989.79 3.897 2.197 5.303zm-40.41-118.303c12.407 0 22.5 10.093 22.5 22.5s-10.093 22.5-22.5 22.5-22.5-10.093-22.5-22.5 10.093-22.5 22.5-22.5zm-16.089-11.366c-4.58 2.185-8.646 5.274-11.976 9.033l-23.034-30.622c4.322-2.571 8.329-5.615 11.96-9.053zm-22.819-128.405c-3.616-3.456-7.605-6.523-11.915-9.115l22.862-30.661c3.345 3.744 7.426 6.813 12.017 8.978zm16.408-64.729c0-12.407 10.093-22.5 22.5-22.5s22.5 10.093 22.5 22.5-10.093 22.5-22.5 22.5-22.5-10.093-22.5-22.5z" fill="#000000" data-original="#000000" style="" class=""/><path d="m237.75 497h-9.81c-6.948 0-12.6-5.652-12.6-12.6v-21.65c0-11.922-7.601-22.447-18.912-26.189-8.722-2.889-17.304-6.445-25.507-10.57-10.667-5.367-23.497-3.311-31.924 5.117l-15.32 15.32c-2.38 2.38-5.545 3.691-8.912 3.691s-6.532-1.311-8.913-3.692l-40.036-40.027c-4.909-4.916-4.909-12.915-.005-17.825l15.333-15.322c8.428-8.429 10.483-21.258 5.117-31.923-4.126-8.204-7.683-16.786-10.571-25.506-3.743-11.313-14.268-18.914-26.19-18.914h-21.65c-6.948 0-12.6-5.652-12.6-12.6v-56.62c0-6.948 5.652-12.6 12.6-12.6h21.65c11.922 0 22.447-7.601 26.189-18.912 2.889-8.722 6.445-17.304 10.57-25.507 5.367-10.667 3.312-23.496-5.119-31.926l-15.324-15.315c-4.909-4.916-4.909-12.915-.003-17.827l40.037-40.037c4.917-4.91 12.916-4.91 17.825-.005l15.322 15.332c8.429 8.427 21.259 10.485 31.923 5.117 8.204-4.126 16.786-7.683 25.506-10.57 11.313-3.743 18.914-14.268 18.914-26.19v-21.65c0-6.948 5.652-12.6 12.6-12.6h55.62c6.194 0 11.551 4.608 12.461 10.721.059.396.006.823-.154 1.236l-7.603 19.663c-1.494 3.864.427 8.207 4.29 9.7 3.864 1.493 8.207-.427 9.7-4.29l7.603-19.663c1.096-2.834 1.441-5.897 1-8.858-1.996-13.403-13.731-23.509-27.297-23.509h-55.62c-15.219 0-27.6 12.381-27.6 27.6v21.65c0 5.44-3.466 10.242-8.628 11.95-9.414 3.118-18.677 6.957-27.533 11.41-4.875 2.453-10.732 1.519-14.574-2.322l-15.325-15.335c-10.761-10.747-28.27-10.747-39.033.003l-40.044 40.044c-10.747 10.761-10.747 28.269.005 39.035l15.328 15.318c3.843 3.843 4.777 9.701 2.324 14.577-4.453 8.855-8.292 18.118-11.411 27.534-1.707 5.16-6.509 8.626-11.949 8.626h-21.65c-15.219 0-27.6 12.381-27.6 27.6v56.62c0 15.219 12.381 27.6 27.6 27.6h21.65c5.44 0 10.242 3.466 11.95 8.628 3.118 9.414 6.957 18.677 11.41 27.533 2.453 4.875 1.519 10.732-2.322 14.574l-15.335 15.325c-10.747 10.761-10.747 28.269.004 39.034l40.04 40.029c10.762 10.763 28.273 10.763 39.037 0l15.32-15.32c3.843-3.843 9.701-4.777 14.577-2.323 8.855 4.453 18.118 8.292 27.534 11.411 5.16 1.707 8.626 6.509 8.626 11.949v21.65c0 15.219 12.381 27.6 27.6 27.6h9.81c4.142 0 7.5-3.358 7.5-7.5s-3.359-7.5-7.501-7.5z" fill="#000000" data-original="#000000" style="" class=""/><path d="m265.131 363.015c-2.451-6.389-8.441-10.782-15.26-11.191-50.816-3.05-90.622-45.36-90.622-96.324 0-50.973 39.814-93.285 90.64-96.325 6.799-.407 12.783-4.783 15.244-11.147l24.49-63.333c1.494-3.863-.427-8.207-4.29-9.7-3.863-1.494-8.207.427-9.7 4.29l-7.993 20.671c-3.943-.296-7.933-.455-11.89-.455-86.294 0-156.5 70.206-156.5 156.5 0 35.334 11.492 68.681 33.233 96.434 1.479 1.889 3.683 2.875 5.909 2.875 1.618 0 3.248-.521 4.62-1.596 3.261-2.555 3.833-7.269 1.279-10.529-19.653-25.089-30.041-55.237-30.041-87.185 0-78.023 63.477-141.5 141.5-141.5 2.066 0 4.142.046 6.214.135l-10.821 27.983c-.35.905-1.193 1.526-2.148 1.584-58.736 3.513-104.745 52.402-104.745 111.298 0 58.886 46 107.773 104.723 111.297.959.058 1.805.683 2.153 1.591l11.108 28.958c-33.309 1.739-68.174-9.3-94.459-30.511-3.243-2.578-7.961-2.039-10.538 1.204-2.578 3.243-2.038 7.961 1.204 10.538 30.825 24.616 69.621 36.437 109.428 33.459l28.003 73.004c.157.41.209.837.15 1.234-.907 6.115-6.264 10.726-12.462 10.726h-10.81c-4.142 0-7.5 3.358-7.5 7.5s3.358 7.5 7.5 7.5h10.81c13.574 0 25.311-10.113 27.3-23.526.437-2.948.097-5.994-.984-8.809z" fill="#000000" data-original="#000000" style="" class=""/></g></g></g></svg>
