<?xml version="1.0"?>
<svg xmlns="http://www.w3.org/2000/svg" xmlns:xlink="http://www.w3.org/1999/xlink" xmlns:svgjs="http://svgjs.com/svgjs" version="1.1" width="512" height="512" x="0" y="0" viewBox="0 0 512.034 512.034" style="enable-background:new 0 0 512 512" xml:space="preserve" class=""><g><g xmlns="http://www.w3.org/2000/svg"><g clip-rule="evenodd" fill="#ff9346" fill-rule="evenodd"><path d="m255.681 44.126c-4.928 6.089 4.73 13.385-.862 17.173-10.226 6.926-19.032-4.096-27.836-6.111-7.114-1.628-19.041-9.28-20.656-16.508-2.698-12.073-3.416-17.699-15.317-24.167-10.156-5.519-25.092-6.176-36.022-.623-3.43 1.743-10.282 7.838-18.907 9.983-6.945 1.727-15.501-1.654-23.267.575-12.359 3.547-27.13 11.986-27.13 23.286 0 27.843-20.285 11.833-40.589 40.806-7.346 10.484-10.318 11.202-10.318 35.06 0 24.928-20.755 36.001 1.702 77.946 4.742 8.856 43.759 41.644 53.099 37.791 24.949-10.293 30.546 4.195 54.061-11.063 7.982-5.178 27.348 4.76 40.563 4.76 16.636 0 6.197 22.286 3.229 30.634-7.613 21.411 20.567 11.6 25.421 51.056 2.953 23.999 9.72 35.076 1.069 60.14-4.727 13.696.062 31.419 7.547 43.335 19.188 30.546 5.683 30.821 20.306 52.807 10.57 15.892-2.405 22.593 22.076 30.07 23.329 7.125 52.951-27.372 72.218-39.075 2.573-1.562 11.84-8.518 16.686-20.595 2.539-6.327 3.123-19.741 2.492-22.292-8.862-35.812 29.964-23.566 33.123-49.247 1.671-13.586-1.984-17.093-1.984-34.038 0-73.88 9.13-46.098 49.073-95.082 16.558-20.306 20.853-25.015 24.167-51.961 2.976-24.2-34.029 11.716-50.268-7.488-15.07-17.823-7.143-9.152-26.257-21.278-11.373-7.215-11.695-31.446-16.348-41.01s-12.777-9.393-22.338-26.277c-8.111-14.324 4.616-29.307-5.854-44.006-2.438-3.422-36.59 5.691-52.749-.408-4.74-1.79-26.58-8.577-30.13-4.193z" fill="#393939" data-original="#ff9346" style="" class=""/><path d="m473.506 345.847c-7.442-1.008-12.548 8.038-17.238 15.479-4.884 7.75-9.144 8.385-17.268 11.197-8.344 2.888-5.156 23.879-12.388 38.859-7.868 16.297-9.634 37.104 4.88 38.848 24.719 2.971 26.983-28.04 37.787-39.698 8.865-9.564 13.713-21.757 16.196-34.332 1.649-8.349.237-28.7-11.969-30.353z" fill="#393939" data-original="#ff9346" style="" class=""/></g><g><path d="m443.209 247.066 1.153-1.414c16.157-19.802 21.601-26.473 25.188-55.646.915-7.434-.826-13.019-5.174-16.601-7.088-5.838-16.37-2.813-25.345.114-10.284 3.352-18.438 5.578-22.039 1.322l-2.647-3.137c-7.896-9.366-8.911-10.569-15.054-13.811-2.07-1.092-5.198-2.743-10.835-6.319-4.011-2.544-6.478-13.775-8.109-21.207-1.291-5.879-2.511-11.432-4.604-15.735-2.991-6.148-7.043-9.573-10.617-12.594-3.727-3.15-7.579-6.408-12.011-14.235-2.112-3.729-1.739-7.957-.957-14.546 1.027-8.66 2.308-19.437-5.455-30.334-4.392-6.166-11.14-5.431-24.583-3.962-10.126 1.105-25.427 2.775-32.779 0-2.914-1.101-10.101-3.387-16.975-4.839-9.059-1.914-19.05-2.969-24.457 3.711-4.216 5.208-4.083 10.656-3.153 14.763-1.073-.501-2.449-1.229-4.261-2.245-3.29-1.846-7.02-3.937-11.281-4.913-4.864-1.113-12.164-6.461-13.145-9.02l-.354-1.593c-2.567-11.602-4.595-20.767-19.93-29.1-13.529-7.351-31.743-7.652-45.327-.751-1.528.776-3.033 1.795-4.776 2.974-3.365 2.277-7.554 5.11-12.013 6.219-1.654.41-4.561.151-7.373-.099-4.611-.412-10.354-.923-16.239.766-16.617 4.768-34.372 15.914-34.372 32.897 0 4.034-.544 6.966-1.493 8.046-.942 1.073-3.553 2.114-6.575 3.321-7.795 3.111-19.576 7.813-30.71 23.701-.855 1.221-1.649 2.302-2.383 3.302-7.22 9.845-9.746 15.272-9.746 37.496 0 6.43-1.771 11.859-3.822 18.146-4.939 15.143-10.538 32.307 6.708 64.52 4.13 7.714 19.267 20.526 27.56 26.88 23.313 17.861 32.375 17.824 38.169 15.436 9.264-3.821 14.792-3.464 21.189-3.053 8.836.57 18.836 1.215 34.222-8.683 2.491-.566 10.241 1.427 14.91 2.629 6.544 1.683 13.301 3.421 19.712 3.554-.166 1.894-1.034 5.76-4.21 14.069-.461 1.206-.876 2.295-1.205 3.223-5.997 16.867 3.666 24.199 10.061 29.051 2.962 2.248 5.76 4.371 8.224 7.645 3.322 4.412 9.589 5.299 14.004 1.976 4.412-3.321 5.298-9.59 1.977-14.003-4.138-5.497-8.748-8.996-12.115-11.55-1.475-1.119-3.465-2.629-4.024-3.379.002-.313.076-1.23.719-3.039.285-.801.646-1.741 1.044-2.783 3.61-9.447 9.065-23.723 2.229-33.655-2.369-3.442-7.055-7.545-15.923-7.545-4.11 0-9.904-1.49-15.508-2.932-10.855-2.792-22.08-5.679-30.499-.218-9.984 6.479-14.896 6.161-22.329 5.684-7.104-.458-15.877-1.023-28.619 3.929-3.003-.873-10.84-5.066-22.175-14.03-11.559-9.14-18.702-16.789-19.777-18.643-13.218-24.687-9.561-35.897-5.326-48.877 2.253-6.908 4.808-14.738 4.808-24.348 0-17.658 1.244-19.355 5.874-25.668.811-1.105 1.688-2.302 2.634-3.652 7.705-11.003 14.84-13.851 21.74-16.605 9.202-3.672 20.654-8.243 20.654-29.942 0-3.768 8.168-10.31 19.889-13.673 2.308-.661 5.532-.373 8.947-.069 4.247.379 9.061.808 13.974-.413 7.902-1.965 14.216-6.236 18.394-9.062.928-.627 2.197-1.486 2.63-1.709 7.604-3.864 19.091-3.651 26.718.493 7.326 3.981 7.676 5.563 9.952 15.849l.38 1.713c2.674 11.96 18.362 21.828 28.185 24.075 1.453.333 3.744 1.618 5.96 2.86 6.618 3.711 17.693 9.924 29.715 1.782 7.194-4.873 6.607-11.953 5.45-16.363 5.234.949 12.291 2.906 16.401 4.457 11.829 4.465 28.563 2.638 42.012 1.171 2.498-.273 5.561-.607 7.921-.789 1.108 3.419.744 7.303.086 12.845-.906 7.635-2.034 17.137 3.414 26.759 6.193 10.937 12.152 15.975 16.503 19.653 3.052 2.58 4.447 3.816 5.545 6.072 1.053 2.164 2.07 6.795 3.054 11.274 2.622 11.94 5.885 26.799 16.93 33.805 6.311 4.003 9.863 5.878 12.215 7.119 2.697 1.423 2.697 1.423 9.098 9.015l2.666 3.159c12.57 14.864 31.937 8.551 43.508 4.78 1.188-.387 2.61-.851 3.994-1.271-2.745 20.16-5.984 24.13-20.356 41.744l-1.157 1.418c-12.221 14.987-21.128 22.18-28.285 27.96-8.183 6.607-14.646 11.827-18.518 23.196-3.295 9.678-4.521 23.296-4.521 50.246 0 8.455.851 14.016 1.535 18.484.764 4.989 1.268 8.285.524 14.332-.658 5.347-3.657 7.253-12.06 11.339-10.343 5.029-27.623 13.43-20.94 41.146.251 2.85-.42 12.686-1.972 16.552-4.191 10.448-12.513 15.721-12.597 15.772-6.03 3.663-12.592 9.024-19.537 14.701-14.672 11.989-32.937 26.907-44.568 23.356-8.132-2.483-9.286-4.166-9.297-4.183-.218-.366-.469-2.115-.634-3.272-.615-4.292-1.544-10.777-6.74-18.589-5.532-8.318-5.99-12.016-6.684-17.613-.929-7.5-2.085-16.834-13.48-34.975-5.148-8.196-9.426-21.172-7.375-31.687 1.057-5.42-2.48-10.672-7.901-11.729-5.419-1.056-10.673 2.481-11.729 7.902-3.305 16.948 3.035 34.954 10.07 46.153 9.029 14.374 9.776 20.407 10.567 26.794.812 6.553 1.731 13.98 9.88 26.231 2.691 4.047 3.11 6.967 3.594 10.348 1.635 11.411 5.777 18.217 23.888 23.748 3.137.958 6.293 1.394 9.454 1.394 18.869-.001 37.888-15.542 53.611-28.392 6.391-5.222 12.427-10.155 17.264-13.093 1.432-.87 14.176-8.967 20.776-25.419 3.174-7.907 4.137-23.496 2.919-28.418-1.465-5.921-1.345-10.104.359-12.435 1.74-2.378 5.664-4.286 9.817-6.306 8.411-4.089 21.121-10.269 23.164-26.884 1.081-8.787.225-14.385-.604-19.8-.642-4.191-1.305-8.526-1.305-15.458 0-23.906 1.001-36.596 3.453-43.798 1.909-5.607 4.613-7.997 12.15-14.084 7.462-6.027 17.683-14.281 31.219-30.881z" fill="#393939" data-original="#000000" style="" class=""/><path d="m489.411 344.981c-3.662-5.122-8.697-8.249-14.563-9.043-13.354-1.803-21.064 10.502-26.158 18.649l-.882 1.407c-2.423 3.845-3.479 4.197-9.344 6.154-.864.289-1.774.592-2.736.925-10.378 3.592-12.027 14.722-13.622 25.486-.918 6.192-1.958 13.21-4.5 18.475-6.066 12.565-10.213 30.259-3.658 42.238 3.37 6.158 9.177 10.024 16.351 10.887 1.603.192 3.138.284 4.612.284 20.791 0 29.175-18.302 34.848-30.689 2.238-4.886 4.552-9.938 6.856-12.424 9.219-9.947 15.501-23.134 18.671-39.193 1.551-7.855 1.266-23.166-5.875-33.156zm-13.746 29.282c-2.441 12.368-7.058 22.284-13.719 29.471-4.483 4.837-7.477 11.372-10.371 17.691-6.999 15.283-10.517 19.883-18.89 18.876-.907-.109-.99-.261-1.192-.63-1.899-3.472-.862-13.612 4.125-23.942 3.867-8.011 5.201-17.009 6.272-24.239.479-3.233 1.17-7.894 1.933-10.046.331-.111.654-.219.972-.325 7.046-2.351 13.7-4.572 19.934-14.463l.921-1.468c1.767-2.826 4.949-7.916 6.869-9.273.153.117.356.324.622.696 2.829 3.961 3.393 13.248 2.524 17.652z" fill="#393939" data-original="#000000" style="" class=""/><path d="m226.178 334.409c0-5.523-4.478-10-10-10h-.007c-5.522 0-9.996 4.477-9.996 10s4.48 10 10.003 10 10-4.477 10-10z" fill="#393939" data-original="#000000" style="" class=""/></g></g></g></svg>
