<?xml version="1.0"?>
<svg xmlns="http://www.w3.org/2000/svg" xmlns:xlink="http://www.w3.org/1999/xlink" xmlns:svgjs="http://svgjs.com/svgjs" version="1.1" width="512" height="512" x="0" y="0" viewBox="0 0 128 128" style="enable-background:new 0 0 512 512" xml:space="preserve" class=""><g><g xmlns="http://www.w3.org/2000/svg"><path d="M17.763,40.951,25.108,38.9a2.072,2.072,0,0,0,.867-.491L30.312,34.3a2.067,2.067,0,0,1,2.164-.429l1.849.711a2.068,2.068,0,0,0,1.59-.043l2.148-.965a2.068,2.068,0,0,1,2.752,1.082l.958,2.266a4,4,0,0,1,.242,2.317l-1.653,8.54a3,3,0,0,0,.647,2.5l2.538,3.025a10,10,0,0,1,2.177,4.643l1.041,5.737a2.067,2.067,0,0,0,1.793,1.685l.776.091a5.007,5.007,0,0,1,2.886,1.366l6.112,5.892A4,4,0,0,0,60.5,73.791l6.868,1.066A2.068,2.068,0,0,1,68.7,78.136l-1.756,2.356a2.073,2.073,0,0,0-.373.851l-.325,1.712a4,4,0,0,0,.6,2.955l4.2,6.333a2.069,2.069,0,0,0,1.275.876l1.028.229a2.067,2.067,0,0,1,1.46,2.813l-.985,2.365a2.067,2.067,0,0,0,.192,1.948L74.9,101.9a2.068,2.068,0,0,1-.113,2.458l-1.711,2.1a2.067,2.067,0,0,0,.273,2.889h0a2.065,2.065,0,0,1,.738,1.583v6.808a3,3,0,0,0,1.8,2.751l.783.34a2.067,2.067,0,0,0,2.581-.806l2.63-4.24a5,5,0,0,0,.714-3.249l-.548-4.438a2.066,2.066,0,0,1,.89-1.963l5.074-3.448a4,4,0,0,0,1.494-1.895l1.174-3.11a8,8,0,0,1,2.762-3.63l4.359-3.188a5,5,0,0,0,2.049-4.036v-.571a2.068,2.068,0,0,1,1.257-1.9l3.588-1.528a2.068,2.068,0,0,0,1.106-2.677l-.366-.906a6,6,0,0,0-4.475-3.652l-5.278-.972a2.069,2.069,0,0,1-1.408-.985l-1.056-1.8a4,4,0,0,0-2.8-1.919l-17.3-2.828a2.068,2.068,0,0,0-1.189.158l-2.03.923a2.068,2.068,0,0,1-2.5-.63l-2.552-3.349a2.065,2.065,0,0,0-1.105-.743l-2.188-.592a2.068,2.068,0,0,1-1.2-3.114l2.224-3.461a2.068,2.068,0,0,1,2.961-.55l4.241,3.1a2.064,2.064,0,0,0,1.359.394l1.078-.071a2.068,2.068,0,0,0,1.93-2.03l.068-4.223a5.007,5.007,0,0,1,.956-2.86l3.935-5.411a2.065,2.065,0,0,1,1.661-.851l3.42-.02a6.994,6.994,0,0,0,2.674-.547l3.787-1.592a4,4,0,0,0,2.237-4.972l-1.911-5.634A6,6,0,0,0,88.6,27.936l-5.626-3.709a4,4,0,0,0-3.136-.55L78.5,24a2.066,2.066,0,0,0-1.568,2.276l.256,1.979a2.067,2.067,0,0,1-1.051,2.076l-.606.335a2.069,2.069,0,0,1-1.943.029l-4.094-2.1a4,4,0,0,1-2.17-3.716l.017-.437a4,4,0,0,1,1.648-3.081l6.664-4.835a3.654,3.654,0,0,0,1.5-3.172h0a3,3,0,0,0-3.106-2.822l-9.775.362a3.762,3.762,0,0,0-3.544,2.995h0a2.068,2.068,0,0,1-2.642,1.553l-2.223-.7a9.009,9.009,0,0,0-3.552-.37l-7.316.7a6,6,0,0,0-4.94,3.609l-.493,1.15a2.068,2.068,0,0,1-2.317,1.21l-4.678-.963a5,5,0,0,0-3.647.65l-7.989,4.962a4,4,0,0,0-1.89,3.4v2.472a2.068,2.068,0,0,1-.978,1.757L15.192,35.1a3,3,0,0,0-1.154,3.784l.184.407A3,3,0,0,0,17.763,40.951Z" fill="#393939" data-original="#a5e23b" style="" class=""/><path d="M91,7.817l-.8.67a3.521,3.521,0,0,0-1.264,2.7V13.8a3.52,3.52,0,0,0,1.649,2.981l3.993,2.5a3.509,3.509,0,0,1,1.382,1.636l2.608,6.309a8.983,8.983,0,0,0,1.1,1.934l4.836,6.5a4,4,0,0,0,3.51,1.6l.325-.024a3,3,0,0,0,2.712-3.6l-.848-4.1a3.517,3.517,0,0,1,.368-2.419l3.039-5.481a5,5,0,0,0,.4-3.916l-.941-3.01a3.519,3.519,0,0,0-2.831-2.43l-4.792-.726a3.535,3.535,0,0,1-.8-.218L94.574,7.258A3.519,3.519,0,0,0,91,7.817Z" fill="#393939" data-original="#a5e23b" style="" class=""/><g><path d="M90.705,68.19l-1.926-.315a1.749,1.749,0,1,0-.565,3.453l1.927.317a2.226,2.226,0,0,1,1.022.448,1.75,1.75,0,0,0,2.161-2.754A5.753,5.753,0,0,0,90.705,68.19Z" fill="#393939" data-original="#000000" style="" class=""/><path d="M107.064,78.585a7.719,7.719,0,0,0-5.782-4.718l-1.032-.189a1.75,1.75,0,0,0-.632,3.443l1.03.189a4.231,4.231,0,0,1,3.171,2.587l.366.906a.32.32,0,0,1-.17.411l-3.588,1.528a3.814,3.814,0,0,0-2.322,3.512v.57a3.261,3.261,0,0,1-1.331,2.624l-4.359,3.188a9.72,9.72,0,0,0-3.366,4.425l-1.174,3.11a2.242,2.242,0,0,1-.84,1.065l-5.074,3.448a3.8,3.8,0,0,0-1.644,3.626l.548,4.438a3.254,3.254,0,0,1-.464,2.11l-2.63,4.242a.317.317,0,0,1-.4.123l-.781-.339a1.252,1.252,0,0,1-.752-1.148v-6.807a3.808,3.808,0,0,0-1.362-2.923.32.32,0,0,1-.042-.445l1.712-2.1a3.8,3.8,0,0,0,.207-4.538L75.467,99.6a.318.318,0,0,1-.03-.3l.985-2.364a3.817,3.817,0,0,0-2.695-5.2L72.7,91.51a.314.314,0,0,1-.193-.134l-4.2-6.332a2.247,2.247,0,0,1-.336-1.663l.325-1.713a.312.312,0,0,1,.058-.13l1.755-2.356a3.817,3.817,0,0,0-2.475-6.054l-6.869-1.067a2.234,2.234,0,0,1-1.216-.6l-6.112-5.892a6.792,6.792,0,0,0-3.9-1.843l-.777-.092a.316.316,0,0,1-.276-.259l-1.041-5.738a11.775,11.775,0,0,0-2.558-5.455L42.35,49.154a1.243,1.243,0,0,1-.269-1.04l1.652-8.539a5.733,5.733,0,0,0-.348-3.331l-.958-2.267a3.819,3.819,0,0,0-5.08-2l-2.149.965a.318.318,0,0,1-.244.008l-1.85-.712a3.833,3.833,0,0,0-4,.791l-4.336,4.109a.319.319,0,0,1-.134.076l-7.345,2.049a1.245,1.245,0,0,1-1.476-.691l-.183-.407a1.253,1.253,0,0,1,.48-1.577l2.878-1.783a3.8,3.8,0,0,0,1.8-3.245V29.091a2.239,2.239,0,0,1,1.064-1.912,1.75,1.75,0,0,0-1.848-2.973A5.719,5.719,0,0,0,17.3,29.091v2.472a.32.32,0,0,1-.15.27l-2.878,1.783a4.766,4.766,0,0,0-1.826,5.991l.184.408a4.725,4.725,0,0,0,5.606,2.622l7.343-2.048a3.837,3.837,0,0,0,1.6-.906l4.336-4.11a.318.318,0,0,1,.333-.066l1.851.713a3.849,3.849,0,0,0,2.932-.081l2.149-.965a.316.316,0,0,1,.247-.006.312.312,0,0,1,.176.171l.958,2.267a2.247,2.247,0,0,1,.136,1.3L38.644,47.45A4.732,4.732,0,0,0,39.668,51.4l2.538,3.026A8.253,8.253,0,0,1,44,58.26L45.042,64a3.8,3.8,0,0,0,3.31,3.11l.779.092a3.265,3.265,0,0,1,1.875.887l6.112,5.891a5.712,5.712,0,0,0,3.109,1.543L67.1,76.587a.3.3,0,0,1,.244.192.3.3,0,0,1-.039.311l-1.757,2.357a3.852,3.852,0,0,0-.689,1.57l-.325,1.712a5.727,5.727,0,0,0,.858,4.248l4.2,6.332a3.789,3.789,0,0,0,2.354,1.618l1.028.228a.319.319,0,0,1,.214.164.314.314,0,0,1,.011.27l-.985,2.363a3.806,3.806,0,0,0,.355,3.6l.888,1.323a.315.315,0,0,1-.017.377l-1.712,2.1a3.835,3.835,0,0,0,.506,5.333.317.317,0,0,1,.113.243v6.807a4.751,4.751,0,0,0,2.857,4.358l.782.339a3.767,3.767,0,0,0,1.507.313,3.84,3.84,0,0,0,3.26-1.8l2.629-4.24a6.764,6.764,0,0,0,.963-4.386l-.548-4.436a.321.321,0,0,1,.137-.3L89,104.131a5.717,5.717,0,0,0,2.148-2.724L92.324,98.3a6.232,6.232,0,0,1,2.157-2.837l4.359-3.188a6.77,6.77,0,0,0,2.765-5.449v-.57a.319.319,0,0,1,.194-.292l3.589-1.528a3.839,3.839,0,0,0,2.042-4.943Z" fill="#393939" data-original="#000000" style="" class=""/><path d="M29.85,22.218a3.239,3.239,0,0,1,2.37-.423l4.677.963a3.833,3.833,0,0,0,4.28-2.235l.492-1.149a4.251,4.251,0,0,1,3.5-2.557l7.316-.7a7.2,7.2,0,0,1,2.861.3l2.222.7a3.817,3.817,0,0,0,4.88-2.866,2.008,2.008,0,0,1,1.9-1.6l9.776-.362a1.233,1.233,0,0,1,1.293,1.175,1.894,1.894,0,0,1-.783,1.654l-6.664,4.834a5.717,5.717,0,0,0-2.369,4.43l-.017.437a5.767,5.767,0,0,0,3.121,5.34l4.092,2.1A3.8,3.8,0,0,0,76.38,32.2l.606-.334a3.8,3.8,0,0,0,1.942-3.833l-.257-1.978a.318.318,0,0,1,.242-.351l1.337-.321a2.248,2.248,0,0,1,1.763.31L87.64,29.4a4.271,4.271,0,0,1,1.685,2.184l1.911,5.634a2.258,2.258,0,0,1-1.259,2.8L86.192,41.6a5.23,5.23,0,0,1-2.006.411l-3.421.018A3.835,3.835,0,0,0,77.7,43.605l-3.935,5.412a6.717,6.717,0,0,0-1.29,3.861L72.405,57.1a.318.318,0,0,1-.3.311l-1.077.072a.377.377,0,0,1-.21-.06L66.58,54.318a3.818,3.818,0,0,0-5.466,1.017L58.89,58.8a3.818,3.818,0,0,0,2.216,5.75l2.186.591a.309.309,0,0,1,.171.114l2.552,3.35a3.8,3.8,0,0,0,4.617,1.162l2.03-.922a.308.308,0,0,1,.183-.025l5.85.956a1.75,1.75,0,1,0,.565-3.455l-5.848-.955a3.793,3.793,0,0,0-2.2.292l-2.03.923a.315.315,0,0,1-.385-.1l-2.552-3.35a3.846,3.846,0,0,0-2.041-1.371l-2.187-.591a.317.317,0,0,1-.185-.478l2.224-3.461a.311.311,0,0,1,.21-.141.315.315,0,0,1,.245.056l4.241,3.1a3.823,3.823,0,0,0,2.51.729l1.077-.073a3.84,3.84,0,0,0,3.564-3.747l.069-4.222a3.228,3.228,0,0,1,.621-1.86l3.934-5.41a.321.321,0,0,1,.255-.132l3.421-.018a8.727,8.727,0,0,0,3.343-.684l3.786-1.593a5.77,5.77,0,0,0,3.217-7.147L92.64,30.457a7.785,7.785,0,0,0-3.074-3.981l-5.626-3.71a5.768,5.768,0,0,0-4.507-.79L78.1,22.3a3.81,3.81,0,0,0-2.9,4.2l.256,1.979a.315.315,0,0,1-.162.319l-.607.335a.315.315,0,0,1-.3,0l-4.094-2.1a2.258,2.258,0,0,1-1.221-2.091l.017-.436a2.243,2.243,0,0,1,.927-1.734l6.665-4.834a5.379,5.379,0,0,0,2.221-4.692A4.8,4.8,0,0,0,73.989,8.78l-9.776.362a5.5,5.5,0,0,0-5.192,4.388.308.308,0,0,1-.15.209.316.316,0,0,1-.256.03l-2.222-.7a10.757,10.757,0,0,0-4.244-.442l-7.315.7A7.746,7.746,0,0,0,38.453,18l-.493,1.149a.328.328,0,0,1-.357.186l-4.678-.963A6.725,6.725,0,0,0,28,19.245a1.75,1.75,0,0,0,1.848,2.973Z" fill="#393939" data-original="#000000" style="" class=""/><path d="M115.13,22.487a6.779,6.779,0,0,0,.54-5.287l-.941-3.009a5.3,5.3,0,0,0-4.239-3.638L105.7,9.826a1.714,1.714,0,0,1-.4-.109L95.232,5.636a5.257,5.257,0,0,0-5.356.839l-.8.669A5.257,5.257,0,0,0,87.18,11.19V13.8a5.241,5.241,0,0,0,2.469,4.463l3.994,2.5a1.755,1.755,0,0,1,.694.823l2.608,6.31a10.81,10.81,0,0,0,1.309,2.309l4.836,6.5a5.714,5.714,0,0,0,4.6,2.317c.147,0,.294,0,.442-.016l.325-.025a4.75,4.75,0,0,0,4.294-5.7l-.848-4.1a1.772,1.772,0,0,1,.185-1.215Zm-6.1,3.785a5.273,5.273,0,0,0-.551,3.622l.848,4.1a1.25,1.25,0,0,1-1.13,1.5l-.325.025a2.235,2.235,0,0,1-1.974-.9l-4.836-6.5a7.268,7.268,0,0,1-.883-1.556l-2.607-6.31A5.239,5.239,0,0,0,95.5,17.8l-3.992-2.5a1.76,1.76,0,0,1-.829-1.5V11.19a1.763,1.763,0,0,1,.635-1.358l.8-.67v0a1.761,1.761,0,0,1,1.8-.28l10.067,4.081a5.264,5.264,0,0,0,1.19.326l4.792.727a1.778,1.778,0,0,1,1.423,1.221l.941,3.01a3.271,3.271,0,0,1-.26,2.545Z" fill="#393939" data-original="#000000" style="" class=""/></g></g></g></svg>
