<?xml version="1.0"?>
<svg xmlns="http://www.w3.org/2000/svg" xmlns:xlink="http://www.w3.org/1999/xlink" xmlns:svgjs="http://svgjs.com/svgjs" version="1.1" width="512" height="512" x="0" y="0" viewBox="0 0 511.994 511.994" style="enable-background:new 0 0 512 512" xml:space="preserve" class=""><g>
<g xmlns="http://www.w3.org/2000/svg">
	<path style="" d="M15.851,285.712c20.65,19.713,18.219,45.986,36.481,66.445   c14.561,16.314,24.994,14.438,44.062-3.565c7.6-7.175,9.846-17.453,12.679-21.088c3.67-4.711-3.764-8.76,11.12-10.329   c28.591-3.013,39.622,45.155,46.397,63.788c23.405-23.406,15.538-53.323,52.775-31.355c18.79,11.086,38.619,39.8,45.018,8.068   c2.528-12.536-12.18-9.056-3.577-21.13c5.453-7.654,28.699-3.937,36.85-12.102c14.056-14.081-6.319-55.021,13.858-53.221   c5.862,0.523,8.569,19.879,16.231,17.591c8.194-2.447,1.933-19.553,4.728-23.973c4.336-6.856,18.55-14.18,24.71-21.985   c0.196-0.248,11.428-13.893,11.718-16.382c0.765-6.564-1.559-13.286-4.393-14.991c-6.008-3.613-13.768-6.62,1.831-21.218   c5.514-5.161,27.564-9.822,34.516-5.85c15.592,8.91-1.952,34.551,20.08,34.286c14.867-0.179,16.929-19.845,24.171-26.244   c8.902-7.866,19.635-11.099,30.546-17.73c29.328-17.824,40.719-36.165-0.712-44.503c-36.993-7.446-77.836-13.528-115.43-16.522   c-16.91-1.347-32.23-5.71-48.67-7.714c-25.527-3.111-20.452,4.3-28.201-11.173c-4.678-9.342,3.137-13.966-9.687-24.666   c-6.322-5.275-24.271-15.789-32.127-18.46c-8.646-2.939-17.869-10.332-26.265-1.793c-14.474,14.72,6.435,18.491,8.572,28.292   c2.382,10.926,7.062,3.046-1.45,14.404c-5.424,7.239-42.732,16.564-51.524,17.788c-22.289,3.103-34.417,10.191-55.446,16.238   c-13.309,3.827-29.306,9.912-43.056,12.63c-12.504,2.471-41.936-11.929-49.732-8.312c-14.609,6.779-1.263,18.178-1.944,30.656   c-0.657,12.035-12.417,23.327-9.525,35.326c4.507,18.697,31.749,25.647,36.725,41.612   C54.501,262.021,35.296,272.373,15.851,285.712C21.439,291.047,24.847,279.541,15.851,285.712z" fill="#393939" data-original="#f5b955" class=""/>
	<path style="" d="M308.388,395.781c-7.219-24.793-14.64,5.22-34.944,9.477   C273.444,440.412,317.377,426.654,308.388,395.781z" fill="#393939" data-original="#f5b955" class=""/>
</g>
<path xmlns="http://www.w3.org/2000/svg" d="M361.144,123.834c-0.271,0-0.544-0.012-0.819-0.033l-1.607-0.13c-5.506-0.437-9.615-5.254-9.179-10.759  c0.437-5.506,5.271-9.618,10.759-9.179l1.645,0.133c5.504,0.446,9.605,5.271,9.159,10.775  C370.676,119.871,366.3,123.834,361.144,123.834z" fill="#393939" data-original="#000000" style="" class=""/>
<path xmlns="http://www.w3.org/2000/svg" d="M166.59,390.964c-0.721,0-1.446-0.078-2.166-0.237c-3.337-0.74-6.064-3.133-7.231-6.346c-0.975-2.68-2.02-5.894-3.125-9.296  c-5.646-17.378-16.187-49.752-32.828-47.964c-0.491,0.052-0.932,0.104-1.327,0.156c-0.395,1.896-1.213,4.116-2.902,6.308  c-0.372,0.574-1.173,2.377-1.76,3.699c-2.21,4.978-5.55,12.499-11.992,18.58c-9.927,9.372-20.808,17.961-33.29,17.437  c-11.342-0.484-19.756-8.499-25.099-14.485c-9.901-11.093-14.31-23.149-18.573-34.811c-4.188-11.453-8.144-22.27-17.351-31.061  c-1.941-1.854-3.046-4.398-3.093-7.055c-0.006-0.326,0.004-0.654,0.03-0.982c0.029-0.363,0.078-0.722,0.146-1.075  c0.001-0.001,0.001-0.002,0.001-0.003c0-0.003,0.001-0.005,0.001-0.008c0.001-0.003,0.002-0.006,0.002-0.01c0,0,0,0,0-0.001  c0.497-2.564,1.982-4.851,4.161-6.346c0.016-0.011,0.033-0.022,0.049-0.033c1.631-1.118,3.259-2.216,4.871-3.302  c19.603-13.211,26.625-19.446,22.518-32.625c-1.394-4.47-7.358-8.982-13.673-13.759c-9.378-7.095-20.007-15.135-23.226-28.485  c-2.459-10.203,1.773-19.272,5.174-26.561c2.01-4.306,3.908-8.373,4.087-11.654c0.133-2.418-0.965-5.519-2.127-8.801  c-1.517-4.285-3.235-9.142-2.717-14.394c0.479-4.856,3.048-11.573,12.564-15.987c7.248-3.361,17.205-0.505,29.813,3.112  c7.271,2.087,18.259,5.244,22.188,4.461c8.434-1.667,18.075-4.786,27.401-7.804c5.187-1.678,10.086-3.262,14.829-4.626  c7.194-2.069,13.382-4.294,19.366-6.446c11.368-4.088,22.104-7.948,37.465-10.087c10.004-1.393,39.832-9.739,45.127-14.183  c0.312-0.415,0.604-0.804,0.881-1.167c-0.507-1.285-0.973-2.785-1.371-4.559c-0.514-0.842-2.426-2.536-3.709-3.673  c-4.188-3.712-9.923-8.795-10.206-17.035c-0.199-5.795,2.395-11.348,7.928-16.975c11.468-11.661,24.739-5.779,31.871-2.619  c1.712,0.758,3.329,1.475,4.742,1.955c9.25,3.145,28.344,14.432,35.316,20.25c10.706,8.933,11.571,16.385,11.541,23.253  c-0.011,2.396,0.02,3.292,0.681,4.613c0.435,0.868,0.83,1.665,1.192,2.397c0.4,0.807,0.823,1.661,1.204,2.409  c3.402-0.065,9.09-0.177,18.073,0.918c5.482,0.668,9.385,5.654,8.717,11.137c-0.668,5.483-5.662,9.384-11.137,8.717  c-7.586-0.925-12.023-0.838-15.266-0.775c-4.065,0.08-8.271,0.162-12.348-2.975c-3.13-2.408-4.648-5.473-7.164-10.551  c-0.352-0.709-0.734-1.481-1.155-2.322c-2.833-5.657-2.812-10.472-2.798-13.657c0.015-3.278,0.019-4.159-4.354-7.809  c-5.682-4.741-22.721-14.556-28.939-16.67c-2.26-0.768-4.368-1.702-6.407-2.605c-7.754-3.436-8.229-2.945-9.51-1.644  c-0.913,0.929-1.471,1.635-1.804,2.119c0.792,0.868,2.122,2.047,3.087,2.902c3.781,3.352,8.488,7.522,9.929,14.13  c0.244,1.118,0.467,1.677,0.555,1.87l0.037,0.043c4.211,4.729,3.214,9.43,2.245,11.81c-0.751,1.845-1.75,3.152-3.741,5.757  c-0.626,0.819-1.39,1.819-2.313,3.052c-2.731,3.646-8.383,8.247-29.581,14.717c-11.32,3.455-23.413,6.262-28.565,6.979  c-13.303,1.853-22.642,5.211-33.455,9.099c-6.286,2.261-12.785,4.598-20.606,6.847c-4.429,1.273-9.176,2.81-14.201,4.435  c-9.877,3.195-20.089,6.499-29.679,8.396c-8.678,1.716-19.803-1.479-31.582-4.857c-5.424-1.556-13.47-3.865-16.502-3.865  c-0.013,0-0.025,0-0.037,0c-0.127,0.069-0.238,0.133-0.335,0.191c0.255,1.296,1.033,3.493,1.583,5.046  c1.601,4.523,3.593,10.153,3.243,16.563c-0.391,7.145-3.335,13.454-5.934,19.021c-2.404,5.151-4.675,10.017-3.854,13.415  c1.543,6.4,8.492,11.657,15.848,17.223c8.555,6.471,17.398,13.161,20.701,23.758c4.012,12.872,2.077,24.534-5.752,34.66  c-5.177,6.696-12.223,11.991-19.886,17.249c-0.034,0.152-0.071,0.305-0.111,0.457c6.935,9.608,10.69,19.877,14.104,29.216  c3.783,10.349,7.358,20.123,14.711,28.361c4.525,5.071,8.237,7.703,11.032,7.822c0.077,0.003,0.156,0.005,0.236,0.005  c3.872,0,9.919-3.931,18.469-12.004c3.523-3.326,5.606-8.017,7.443-12.154c1.087-2.447,2.053-4.622,3.311-6.545  c0.262-13.431,13.267-14.802,18.86-15.392c14.919-1.567,27.673,6.178,37.912,23.031c5.542,9.123,9.694,19.847,12.941,29.312  c1.163-2.075,2.224-4.119,3.244-6.084c4.534-8.734,9.223-17.766,19.352-20.673c8.369-2.402,18.192,0.12,31.853,8.181  c5.412,3.192,10.532,7.371,15.481,11.411c3.728,3.042,9.625,7.854,12.856,9.325c0.483-1.033,1.162-2.887,1.796-6.032  c0.027-0.137,0.048-0.254,0.062-0.354c-0.204-0.202-0.453-0.438-0.659-0.632c-2.722-2.567-11.003-10.381-1.321-23.969  c5.212-7.316,14.797-8.653,24.067-9.947c4.237-0.591,12.127-1.691,13.85-3.419c3.301-3.307,2.502-14.249,1.919-22.24  c-0.836-11.46-1.626-22.284,5.387-29.184c2.545-2.505,7.128-5.359,14.518-4.692c4.098,0.365,7.092,2.452,9.407,5.136  c0.233-2.436,0.852-4.751,2.212-6.902c3.214-5.081,8.729-9.232,14.567-13.626c4.21-3.169,8.563-6.445,10.745-9.209  c0.032-0.041,0.227-0.28,0.568-0.671c6.397-7.292,8.866-11.196,9.381-12.278c0.34-1.403,0.375-2.153,0.37-2.449  c-0.24-0.336-0.77-0.944-1.171-1.406c-0.454-0.521-0.956-1.1-1.49-1.76c-0.144-0.118-0.301-0.239-0.463-0.369  c-2.367-1.884-7.91-6.297-8.222-14.096c-0.352-8.806,6.223-16.014,11.198-20.67c7.817-7.315,34.666-13.882,46.309-7.231  c11.942,6.824,12.345,19.377,12.586,26.878c0.061,1.887,0.147,4.584,0.45,5.977c0.407,0.065,1.038,0.129,1.964,0.116  c3.101-0.037,5.048-2.846,8.98-10.737c2.331-4.677,4.741-9.514,8.69-13.003c6.568-5.804,13.727-9.343,20.65-12.764  c3.742-1.851,7.612-3.763,11.322-6.018c18.712-11.373,21.184-17.702,21.483-18.821c-0.616-0.771-4.197-4.36-18.974-7.334  c-22.516-4.532-45.412-8.361-68.054-11.382c-5.475-0.73-9.32-5.76-8.59-11.234c0.729-5.474,5.754-9.314,11.234-8.59  c23.076,3.078,46.41,6.98,69.355,11.599c7.861,1.583,31.786,6.398,34.777,23.44c2.236,12.739-7.565,25.263-30.846,39.411  c-4.454,2.707-8.722,4.816-12.848,6.856c-6.276,3.102-11.697,5.781-16.27,9.823c-1.028,0.908-2.765,4.392-4.032,6.936  c-4.03,8.088-10.776,21.623-26.64,21.813c-0.146,0.002-0.291,0.003-0.436,0.003c-11.316,0-16.645-5.365-19.126-9.9  c-2.743-5.011-2.923-10.611-3.081-15.551c-0.222-6.89-0.689-8.985-2.337-10.045c-4.144-1.31-19.328,1.596-22.962,4.414  c-2.173,2.04-3.396,3.53-4.075,4.504c1.01,0.805,2.254,1.804,3.342,3.192c0.398,0.509,0.806,0.972,1.196,1.421  c4.181,4.809,8.012,10.485,5.014,22.213c-0.504,1.972-1.685,6.589-13.652,20.23l-0.063,0.072c-3.783,4.714-9.106,8.72-14.256,12.596  c-3.203,2.411-7.074,5.324-8.927,7.364c0.01,1.102,0.122,2.738,0.203,3.929c0.478,6.961,1.47,21.445-11.286,25.255  c-9.166,2.738-14.907-3.348-18.458-9.054c0.091,1.526,0.2,3.024,0.296,4.341c0.912,12.497,2.046,28.049-7.711,37.825  c-6.468,6.478-16.441,7.87-25.241,9.098c-2.836,0.396-7.18,1.002-9.633,1.743c2.788,3.15,6.084,8.585,4.325,17.304  c-0.879,4.359-3.554,17.626-14.39,21.504c-11.317,4.048-22.09-4.75-32.513-13.255c-4.373-3.569-8.895-7.26-12.998-9.681  c-11.746-6.93-15.538-6.365-16.174-6.183c-1.86,0.534-4.776,6.151-7.12,10.665c-3.848,7.412-8.636,16.635-17.329,25.33  C171.766,389.93,169.213,390.964,166.59,390.964z" fill="#393939" data-original="#000000" style="" class=""/>
<path xmlns="http://www.w3.org/2000/svg" d="M349.327,329.116c-3.463,0-6.829-1.801-8.679-5.018c-2.753-4.787-1.104-10.9,3.685-13.652  c14.331-8.241,18.395-14.929,25.774-27.071c2.187-3.598,4.665-7.675,7.681-12.198c3.063-4.597,9.271-5.838,13.866-2.773  c4.596,3.063,5.837,9.272,2.773,13.866c-2.783,4.175-5.044,7.895-7.229,11.492c-7.885,12.972-14.111,23.22-32.897,34.021  C352.731,328.686,351.017,329.116,349.327,329.116z" fill="#393939" data-original="#000000" style="" class=""/>
<path xmlns="http://www.w3.org/2000/svg" d="M278.663,471.44c-0.906,0-1.827-0.124-2.742-0.385c-26.071-7.42-42.611-23.711-62.371-49.344  c-3.372-4.374-2.56-10.653,1.814-14.024c4.373-3.372,10.653-2.561,14.024,1.814c20.317,26.356,33.44,37.035,52.006,42.318  c5.312,1.512,8.393,7.044,6.881,12.355C287.023,468.572,283.019,471.44,278.663,471.44z" fill="#393939" data-original="#000000" style="" class=""/>
<path xmlns="http://www.w3.org/2000/svg" d="M320.443,476.043c-0.101,0-0.201-0.001-0.301-0.004v0.001h-0.101c-5.523-0.024-9.98-4.521-9.957-10.043  c0.024-5.509,4.497-9.957,9.999-9.957c0.084-0.001,0.17,0,0.254,0.003h0.105c5.522,0,10,4.478,10,10  S325.966,476.043,320.443,476.043z" fill="#393939" data-original="#000000" style="" class=""/>
<path xmlns="http://www.w3.org/2000/svg" d="M289.259,436.025c-3.586,0-7.121-0.728-10.384-2.221c-9.808-4.487-15.431-14.892-15.431-28.548  c0-4.732,3.316-8.816,7.948-9.787c5.502-1.153,10.276-5.914,14.488-10.113c5.164-5.148,11.02-10.983,19.23-8.871  c8.727,2.245,11.635,12.234,12.877,16.498l0,0c3.997,13.727,0.452,27.046-9.481,35.628  C302.886,433.468,295.982,436.025,289.259,436.025z M284.373,411.877c0.646,1.88,1.608,3.187,2.824,3.742  c2.182,0.998,5.646,0.097,8.237-2.141c2.132-1.842,5.293-5.919,3.784-13.178C295.378,404.117,290.591,408.693,284.373,411.877z" fill="#393939" data-original="#000000" style="" class=""/>
<path xmlns="http://www.w3.org/2000/svg" d="M380.882,461.651c-4.452,0-8.513-2.993-9.676-7.504c-3.198-12.395-8.229-15.208-20.379-22.007  c-2.08-1.164-4.231-2.368-6.559-3.729c-4.768-2.788-6.371-8.913-3.583-13.68c2.788-4.767,8.914-6.372,13.68-3.583  c2.162,1.265,4.229,2.421,6.228,3.539c13.223,7.399,24.644,13.788,29.978,34.465c1.38,5.348-1.837,10.801-7.185,12.181  C382.55,461.549,381.708,461.651,380.882,461.651z" fill="#393939" data-original="#000000" style="" class=""/>
<path xmlns="http://www.w3.org/2000/svg" d="M97.223,104.523c-3.236,0-6.411-1.568-8.337-4.466c-4.414-6.642-5.35-13.97-2.634-20.638  c5.319-13.06,24.037-22.615,58.905-30.071c0.942-0.201,1.633-0.346,2.014-0.44c5.355-1.344,10.787,1.916,12.127,7.275  c1.34,5.358-1.918,10.787-7.275,12.127c-0.507,0.127-1.427,0.327-2.683,0.596c-39.616,8.472-44.176,17.102-44.565,18.058  c-0.19,0.469,0.399,1.47,0.768,2.024c3.058,4.6,1.807,10.807-2.793,13.862C101.047,103.982,99.124,104.523,97.223,104.523z" fill="#393939" data-original="#000000" style="" class=""/>
<path xmlns="http://www.w3.org/2000/svg" d="M337.22,390.964c-2.63,0-5.21-1.069-7.07-2.93c-1.859-1.86-2.93-4.44-2.93-7.07c0-2.63,1.07-5.21,2.93-7.069  c1.86-1.86,4.44-2.931,7.07-2.931s5.21,1.07,7.07,2.931c1.87,1.859,2.93,4.439,2.93,7.069c0,2.63-1.06,5.21-2.93,7.07  C342.43,389.894,339.849,390.964,337.22,390.964z" fill="#393939" data-original="#000000" style="" class=""/>
<g xmlns="http://www.w3.org/2000/svg">
</g>
<g xmlns="http://www.w3.org/2000/svg">
</g>
<g xmlns="http://www.w3.org/2000/svg">
</g>
<g xmlns="http://www.w3.org/2000/svg">
</g>
<g xmlns="http://www.w3.org/2000/svg">
</g>
<g xmlns="http://www.w3.org/2000/svg">
</g>
<g xmlns="http://www.w3.org/2000/svg">
</g>
<g xmlns="http://www.w3.org/2000/svg">
</g>
<g xmlns="http://www.w3.org/2000/svg">
</g>
<g xmlns="http://www.w3.org/2000/svg">
</g>
<g xmlns="http://www.w3.org/2000/svg">
</g>
<g xmlns="http://www.w3.org/2000/svg">
</g>
<g xmlns="http://www.w3.org/2000/svg">
</g>
<g xmlns="http://www.w3.org/2000/svg">
</g>
<g xmlns="http://www.w3.org/2000/svg">
</g>
</g></svg>
