<?xml version="1.0"?>
<svg xmlns="http://www.w3.org/2000/svg" xmlns:xlink="http://www.w3.org/1999/xlink" xmlns:svgjs="http://svgjs.com/svgjs" version="1.1" width="512" height="512" x="0" y="0" viewBox="0 0 512.002 512.002" style="enable-background:new 0 0 512 512" xml:space="preserve" class=""><g>
<g xmlns="http://www.w3.org/2000/svg">
	<path style="" d="M428.776,446.469c-12.674,2.468-20.8-2.069-32.5-4.153c-9.585-1.707-14.982,3.308-12.198,12.905   c3.053,10.521,12.445,23.59,18.68,32.628c9.439,13.681,30.586,12.027,34.896-5.608c0.811-3.318-0.63-6.898,0.001-10.259   c0.479-2.55,2.349-4.418,2.784-7.199C441.603,457.34,438.85,444.327,428.776,446.469z" fill="#393939" data-original="#a5dc69"/>
	<path style="" d="M478.367,182.44c-7.286-8.309-14.573-16.619-21.86-24.928c-9.415-10.735-7.596-23.954-20.525-33.396   c-12.645-9.235-22.301-15.827-27.624-31.645c-3.385-10.06-4.124-25.816-11.55-33.911c-4.997-5.448-10.901-5.338-14.71-12.788   c-2.838-5.552-4.341-12.241-6.425-18.118c-4.057-11.439-13.651-19.478-19.88-4.143c-8.018,19.738,1.195,41.001-4.555,60.605   c-5.019,17.114-20.844,11.684-31.168,4.569c-8.519-5.872-24.74-13.084-28.658-23.398c-4.776-12.575,20.022-28.248,3.93-37.292   c-8.917-5.011-25.147-3.642-35.08-4.862c-13.987-1.718-24.732-0.685-35.111,10.15c-7.055,7.365-15.69,23.998-27.005,24.306   c-8.288,0.226-14.794-6.459-23.92-5.719c-7.383,0.6-12.978,4.063-18.569,8.541c-9.935,7.954-19.477,16.72-28.915,25.26   c-3.442,3.114-7.031,5.754-9.034,10.161c-3.755,8.267-0.91,16.247-9.047,22.816c-6.951,5.611-18.05,7.873-26.22,10.966   c-23.901,9.048-55.625,14.638-64.492,41.928c-3.251,10.007-8.349,22.941-7.923,33.594c0.46,11.505,10.073,21.645,15.381,31.365   c8.869,16.239,4.245,29.286,6.979,45.981c1.054,6.435,6.312,11.6,5.294,18.371c-0.889,5.912-6.604,10.856-8.661,16.284   c-4.376,11.548,8.438,13.856,18.337,17.531c19.675,7.305,30.765-3.725,48.225-9.722c10.21-3.507,20.294-2.727,30.763-4.028   c13.924-1.73,25.932-7.228,37.668-14.599c17.944-11.27,37.929-17.667,59.27-14.322c21.603,3.385,36.562,15.44,50.254,31.608   c5.789,6.835,11.316,11.54,19.622,15.082c3.081,1.315,6.818,1.253,9.276,3.879c2.531,2.706-0.402,7.002,3.833,9.319   c5.516,3.017,12.051-4.187,18.208,0.13c6.921,4.853,6.427,18.924,11.937,25.891c6.288,7.951,14.984,12.233,24.76,14.056   c5.38,1.003,6.733,0.575,10.288,3.855c3.162,2.919,4.567,10.508,8.645,12.362c8.286,3.764,9.051-8.497,15.04-12.363   c8.059-5.202,13.38,0.162,21.118-0.252c9.884-0.529,10.202-10.897,19.701-13.083c8.276-1.905,14.719-0.4,20.356-8.76   c3.96-5.873,3.393-12.69,3.393-19.386c0-8.813,2.021-11.998,6.257-19.799c6.551-12.062,13.102-24.125,19.653-36.187   c4.76-8.764,12.282-18.498,15.231-28.045c2.192-7.094,0.581-16.804,0.581-24.249c0-11.498-0.503-20.335-2.827-31.171   c-1.381-6.435,5.036-17.537,1.022-22.996C495.3,185.997,484.04,188.91,478.367,182.44z" fill="#393939" data-original="#a5dc69"/>
</g>
<path xmlns="http://www.w3.org/2000/svg" d="M419.664,506.947c-9.808,0-19.285-4.941-25.135-13.42l-1.418-2.049c-6.478-9.352-15.353-22.16-18.635-33.472  c-3.08-10.614,0.818-17.047,3.415-19.935c2.657-2.956,8.803-7.619,20.137-5.598c3.824,0.681,7.292,1.593,10.351,2.396  c6.807,1.791,11.732,3.084,18.417,1.798c6.177-1.28,11.99,0.299,16.385,4.46c6.662,6.309,8.385,17.202,7.135,25.198  c-0.477,3.048-1.659,5.347-2.44,6.866c-0.129,0.251-0.292,0.568-0.397,0.79c0.009,0.401,0.098,1.249,0.164,1.893  c0.235,2.248,0.558,5.328-0.277,8.742c-2.84,11.617-11.227,19.786-22.439,21.85C423.175,506.79,421.414,506.947,419.664,506.947z   M393.567,452.025c0.033,0.129,0.069,0.266,0.111,0.411c2.373,8.178,10.174,19.435,15.868,27.655l1.441,2.081  c2.95,4.275,7.402,5.164,10.317,4.63c2.341-0.432,5.377-1.965,6.605-6.809c0.018-0.395-0.082-1.34-0.154-2.04  c-0.211-2.014-0.499-4.771,0.072-7.815c0.497-2.65,1.52-4.639,2.266-6.091c0.17-0.331,0.395-0.769,0.495-1.001  c0.329-2.397-0.14-5.151-0.735-6.61c-10.799,1.917-19.161-0.283-26.561-2.228c-2.953-0.777-5.744-1.512-8.77-2.049  C394.165,452.096,393.847,452.053,393.567,452.025z" fill="#393939" data-original="#000000" style="" class=""/>
<path xmlns="http://www.w3.org/2000/svg" d="M382.996,418.871c-2.308,0-4.686-0.527-7.03-1.593c-5.6-2.544-8.178-7.776-10.061-11.597c-0.434-0.88-1.072-2.176-1.428-2.7  c-0.224-0.2-0.379-0.326-0.477-0.401c-0.376-0.082-1.106-0.197-1.712-0.293c-0.855-0.136-1.824-0.29-2.953-0.5  c-13.063-2.435-23.416-8.384-30.77-17.683c-3.69-4.666-5.315-10.453-6.748-15.56c-0.673-2.395-1.737-6.185-2.7-7.804  c-0.579,0.14-1.303,0.349-1.851,0.508c-3.597,1.045-9.614,2.79-15.801-0.594c-5.745-3.143-7.186-8.063-7.602-11.288  c-1.31-0.337-2.925-0.758-4.63-1.485c-9.041-3.854-16.017-9.184-23.329-17.817c-14.559-17.19-27.769-25.622-44.173-28.191  c-16.909-2.653-34.544,1.692-52.405,12.911c-14.716,9.243-27.983,14.344-41.753,16.054c-3.712,0.462-7.276,0.677-10.723,0.886  c-6.385,0.387-12.417,0.752-18.025,2.678c-4.112,1.412-8.017,3.224-11.793,4.977c-11.608,5.388-24.765,11.489-43.16,4.662  c-1.25-0.465-2.551-0.904-3.855-1.347c-7.285-2.47-16.351-5.545-20.217-13.735c-1.507-3.193-2.752-8.451-0.133-15.364  c1.295-3.416,3.275-6.293,5.023-8.832c1.236-1.796,2.929-4.255,3.101-5.398c0.157-1.043-0.799-3.092-1.811-5.262  c-1.253-2.688-2.812-6.035-3.463-10.005c-1.088-6.64-1.145-12.735-1.193-18.113c-0.085-9.147-0.151-16.373-4.695-24.693  c-1.31-2.397-3.026-4.982-4.845-7.718c-5.303-7.979-11.311-17.023-11.752-28.04c-0.436-10.872,3.603-22.818,6.847-32.419  c0.544-1.609,1.072-3.17,1.558-4.664c8.902-27.398,36.119-36.514,57.988-43.839c4.398-1.474,8.554-2.865,12.474-4.35  c2.485-0.941,5.152-1.793,7.73-2.615c5.978-1.909,12.158-3.882,15.748-6.779c1.971-1.591,2.325-2.785,3.113-7.656  c0.521-3.228,1.172-7.247,3.11-11.515c2.57-5.661,6.623-9.214,9.881-12.068c0.515-0.451,1.032-0.905,1.547-1.371l2.89-2.616  c8.519-7.72,17.327-15.701,26.486-23.034c6.017-4.816,13.573-9.854,24.011-10.7c7.192-0.575,12.891,1.752,17.474,3.626  c2.771,1.134,5.179,2.112,6.981,2.063c3.52-0.096,9.907-8.493,13.338-13.005c2.289-3.011,4.452-5.855,6.721-8.224  c13.942-14.553,29.174-14.921,43.551-13.157c2.541,0.313,5.854,0.438,9.36,0.571c9.86,0.374,21.034,0.798,29.398,5.498  c5.245,2.947,8.595,6.928,9.959,11.831c2.304,8.283-2.018,15.895-5.489,22.013c-1.414,2.49-4.032,7.104-3.925,8.685  c1.819,4.6,11.128,10.168,17.299,13.857c2.76,1.651,5.368,3.21,7.66,4.79c6.068,4.182,11.375,5.616,13.486,4.865  c1.247-0.442,2.104-2.955,2.415-4.016c2.181-7.437,1.689-15.808,1.167-24.669c-0.668-11.352-1.426-24.221,3.719-36.886  C351.818,6.73,360.08,5.004,364.538,5.056c8.664,0.195,16.35,7.394,20.558,19.257c0.759,2.139,1.428,4.312,2.074,6.413  c1.196,3.883,2.324,7.551,3.83,10.494c0.892,1.744,1.732,2.295,4.513,3.938c2.501,1.48,5.616,3.32,8.663,6.643  c6.908,7.531,9.209,18.252,11.238,27.71c0.785,3.66,1.527,7.117,2.419,9.77c4.118,12.233,11.107,17.328,22.687,25.769l1.357,0.99  c9.739,7.113,13.197,16,15.975,23.14c1.766,4.536,3.29,8.453,6.171,11.737l21.861,24.93c0.648,0.739,3.729,1.358,5.77,1.768  c4.898,0.983,11.605,2.328,16.029,8.346c5.024,6.833,3.119,15.154,1.729,21.23c-0.427,1.867-1.069,4.672-1.007,5.703  c2.52,11.788,3.026,21.433,3.026,33.158c0,1.861,0.124,4.026,0.256,6.318c0.38,6.613,0.81,14.11-1.282,20.882  c-1.63,5.274-7.227,8.232-12.504,6.601c-5.275-1.631-8.23-7.227-6.601-12.503c1.027-3.325,0.707-8.908,0.425-13.834  c-0.143-2.473-0.289-5.03-0.289-7.465c0-10.724-0.427-18.918-2.604-29.074c-1.052-4.896,0.086-9.864,1.089-14.248  c0.312-1.361,0.771-3.37,0.966-4.812c-0.96-0.256-2.217-0.508-3.166-0.698c-4.962-0.996-11.758-2.359-16.869-8.187l-21.86-24.93  c-5.203-5.934-7.63-12.168-9.771-17.67c-2.389-6.143-4.116-10.579-9.134-14.245l-1.344-0.979  c-12.724-9.274-23.712-17.284-29.86-35.549c-1.255-3.728-2.151-7.91-3.019-11.954c-1.495-6.967-3.189-14.862-6.423-18.389  c-1.043-1.137-2.326-1.896-4.105-2.947c-3.616-2.138-8.57-5.067-12.14-12.049c-2.297-4.495-3.74-9.181-5.136-13.712  c-0.613-1.992-1.193-3.873-1.811-5.615c-0.443-1.248-0.929-2.311-1.405-3.192c-3.21,8.346-2.658,17.732-2.073,27.657  c0.599,10.177,1.219,20.698-1.941,31.471c-3.229,11.014-9.894,15.449-14.914,17.232c-12.07,4.279-24.928-2.7-31.52-7.244  c-1.762-1.215-4.1-2.612-6.576-4.094c-9.595-5.738-21.535-12.879-25.755-23.987c-3.715-9.783,1.47-18.916,5.255-25.585  c1.052-1.853,2.683-4.728,3.292-6.445c-0.053-0.031-0.108-0.063-0.168-0.097c-4.152-2.333-13.14-2.674-20.36-2.948  c-3.939-0.149-7.661-0.29-11.04-0.705c-13.434-1.653-19.914,0.085-26.674,7.142c-1.481,1.547-3.31,3.95-5.245,6.495  c-6.956,9.148-15.614,20.533-28.709,20.889c-6.03,0.166-11.058-1.894-15.097-3.545c-3.634-1.488-5.985-2.377-8.285-2.202  c-4.187,0.34-7.746,2.068-13.131,6.38c-8.683,6.95-17.261,14.724-25.557,22.242l-2.9,2.626c-0.592,0.536-1.188,1.06-1.781,1.579  c-2.522,2.211-4.106,3.65-4.856,5.303c-0.833,1.833-1.179,3.968-1.578,6.438c-0.92,5.687-2.179,13.474-10.292,20.022  c-6.502,5.248-14.855,7.915-22.225,10.268c-2.438,0.778-4.742,1.514-6.734,2.268c-4.281,1.621-8.816,3.14-13.201,4.608  c-20.33,6.81-39.533,13.241-45.322,31.057c-0.509,1.566-1.062,3.201-1.632,4.889c-2.858,8.456-6.099,18.042-5.811,25.217  c0.217,5.418,4.39,11.699,8.427,17.774c1.974,2.97,4.015,6.042,5.739,9.2c6.943,12.714,7.048,24.071,7.141,34.093  c0.047,5.111,0.091,9.939,0.931,15.064c0.205,1.251,1.007,2.969,1.855,4.789c1.904,4.085,4.513,9.681,3.459,16.684  c-0.858,5.706-3.933,10.173-6.403,13.762c-1.124,1.632-2.284,3.318-2.752,4.472c1.814,1.078,5.606,2.363,8.03,3.185  c1.486,0.505,2.969,1.009,4.395,1.538c10.578,3.928,17.423,0.755,27.783-4.054c4.041-1.876,8.621-4.001,13.715-5.751  c8.181-2.81,15.873-3.275,23.312-3.726c3.28-0.198,6.379-0.386,9.466-0.77c10.91-1.355,21.267-5.408,33.584-13.144  c22.066-13.859,44.313-19.149,66.135-15.732c27.259,4.271,44.426,20.962,56.335,35.023c5.374,6.345,9.687,9.692,15.915,12.348  c0.345,0.146,1.143,0.352,1.847,0.532c2.863,0.736,7.191,1.849,10.807,5.713c1.822,1.948,2.778,4.052,3.292,5.935  c4.135-1.133,10.714-2.38,17.188,2.159c6.767,4.745,9.035,12.822,10.856,19.311c0.927,3.299,1.977,7.038,3.182,8.562  c4.328,5.473,10.461,8.884,18.749,10.428c0.925,0.173,1.717,0.297,2.415,0.408c4.664,0.738,8.075,1.55,12.821,5.93  c2.061,1.902,3.444,4.163,4.586,6.349c1.61-2.562,3.747-5.369,6.898-7.402c8.757-5.651,16.256-3.823,21.218-2.609  c1.934,0.471,3.459,0.842,4.787,0.774c0.694-0.037,0.903-0.049,3.305-2.874c2.77-3.262,6.958-8.19,14.689-9.97  c2.419-0.557,4.603-0.859,6.53-1.127c5.314-0.736,6.091-0.978,7.778-3.479c1.696-2.514,1.751-5.994,1.699-11.462  c-0.008-0.779-0.015-1.558-0.015-2.334c0-10.869,2.847-16.092,6.788-23.32l0.681-1.251c2.636-4.853,8.705-6.647,13.558-4.015  c4.853,2.635,6.649,8.705,4.015,13.558l-0.697,1.279c-3.514,6.445-4.349,7.977-4.349,13.75c0,0.715,0.007,1.431,0.014,2.145  c0.063,6.698,0.142,15.035-5.115,22.83c-6.778,10.052-15.352,11.239-21.613,12.106c-1.664,0.23-3.234,0.448-4.791,0.806  c-1.112,0.256-1.839,0.961-3.936,3.43c-2.982,3.511-7.975,9.386-17.475,9.894c-4.266,0.234-7.781-0.629-10.599-1.316  c-3.841-0.938-4.231-0.907-5.5-0.099c-0.516,0.525-1.46,2.17-2.092,3.27c-1.554,2.706-3.314,5.773-6.304,8.164  C389.557,417.757,386.35,418.871,382.996,418.871z" fill="#393939" data-original="#000000" style="" class=""/>
<path xmlns="http://www.w3.org/2000/svg" d="M484.185,310.975c-1.686,0-3.342-0.417-4.78-1.198c-4.263-2.318-6.882-8.006-3.99-13.582l-0.002-0.001l0.074-0.137  c0.013-0.023,0.025-0.048,0.038-0.071s0.025-0.047,0.038-0.069l0.075-0.138l0.002,0.001c3.107-5.458,9.306-6.351,13.568-4.036  c4.265,2.316,6.886,8.003,3.997,13.581l0.001,0.001l-0.076,0.142c-0.012,0.022-0.023,0.043-0.035,0.065  c-0.002,0.002-0.003,0.005-0.005,0.008c-0.011,0.021-0.022,0.042-0.034,0.063l-0.078,0.143l-0.002-0.001  C490.915,309.364,487.496,310.975,484.185,310.975z" fill="#393939" data-original="#000000" style="" class=""/>
<g xmlns="http://www.w3.org/2000/svg">
</g>
<g xmlns="http://www.w3.org/2000/svg">
</g>
<g xmlns="http://www.w3.org/2000/svg">
</g>
<g xmlns="http://www.w3.org/2000/svg">
</g>
<g xmlns="http://www.w3.org/2000/svg">
</g>
<g xmlns="http://www.w3.org/2000/svg">
</g>
<g xmlns="http://www.w3.org/2000/svg">
</g>
<g xmlns="http://www.w3.org/2000/svg">
</g>
<g xmlns="http://www.w3.org/2000/svg">
</g>
<g xmlns="http://www.w3.org/2000/svg">
</g>
<g xmlns="http://www.w3.org/2000/svg">
</g>
<g xmlns="http://www.w3.org/2000/svg">
</g>
<g xmlns="http://www.w3.org/2000/svg">
</g>
<g xmlns="http://www.w3.org/2000/svg">
</g>
<g xmlns="http://www.w3.org/2000/svg">
</g>
</g></svg>
