<?xml version="1.0"?>
<svg xmlns="http://www.w3.org/2000/svg" xmlns:xlink="http://www.w3.org/1999/xlink" xmlns:svgjs="http://svgjs.com/svgjs" version="1.1" width="512" height="512" x="0" y="0" viewBox="0 0 512 512" style="enable-background:new 0 0 512 512" xml:space="preserve" class=""><g><g xmlns="http://www.w3.org/2000/svg" id="Fill_out_line" data-name="Fill out line"><g fill="#e04446"><path d="m24 168v40l32 32-16 24 80 64 40 8 56-8v24l-8 24 40 32 40-32 40 32 80-56 32-64-32-40 16-32-32 8-16-24 32-24 16 8 56-48-8-16 16-8v-40l-24 16-16-16h-16l-16-32h-40v48h-24v24l32 8-40 24h-16l-8 24-40 16-72-16-8-24-32-8v-24l-16-16-64 32v32z" fill="#393939" data-original="#e04446" style=""/><path d="m327.01516 432.98484-12.49244 12.49244a14.88137 14.88137 0 0 0 0 21.04544 14.88137 14.88137 0 0 0 23.28339-2.86632l9.08959-15.14931a12.70649 12.70649 0 0 0 -1.91088-15.52227 12.70648 12.70648 0 0 0 -17.96966.00002z" fill="#393939" data-original="#e04446" style=""/><path d="m436.97324 364.107a36.21605 36.21605 0 0 0 9.52611 34.39229l2.66784 2.66784a15.63512 15.63512 0 0 0 16 3.77708 15.63514 15.63514 0 0 0 9.88853-19.77707l-7.41268-22.238a15.98361 15.98361 0 0 0 -15.16338-10.92914 15.98363 15.98363 0 0 0 -15.50642 12.107z" fill="#393939" data-original="#e04446" style=""/></g><path d="m224 200 12.952 39.862h41.913l-33.908 24.636 12.952 39.862-33.909-24.636-33.909 24.636 12.952-39.862-33.908-24.636h41.913z" fill="#393939" data-original="#fdca77" style="" class=""/><path d="m491.77441 64.94629a8.00234 8.00234 0 0 0 -8.21191.39746l-18.543 12.3623-11.3623-11.36328a8.00235 8.00235 0 0 0 -5.6572-2.34277h-11.05566l-13.78907-27.57812a7.99912 7.99912 0 0 0 -7.15527-4.42188h-40a8.00039 8.00039 0 0 0 -8 8v40h-16a8.00039 8.00039 0 0 0 -8 8v24a7.99866 7.99866 0 0 0 6.05957 7.76074l13.2627 3.31641-21.53809 12.92285h-13.78418a8.00026 8.00026 0 0 0 -7.58984 5.46973l-6.82616 20.48047-34.26074 13.7041-65.166-14.48145-6.56739-19.70312a7.99973 7.99973 0 0 0 -5.64941-5.23047l-25.94046-6.48535v-17.75391a8.00235 8.00235 0 0 0 -2.34277-5.65723l-16-16a8.00207 8.00207 0 0 0 -9.23535-1.498l-64 32a7.99912 7.99912 0 0 0 -4.42188 7.15523v24.9375l-56.99219 7.124a8.00065 8.00065 0 0 0 -7.00781 7.9385v40a8.00235 8.00235 0 0 0 2.34277 5.65723l27.36328 27.3623-12.3623 18.543a7.99926 7.99926 0 0 0 1.65918 10.68457l80 64a7.99777 7.99777 0 0 0 3.42773 1.59766l40 8a8.01577 8.01577 0 0 0 2.70118.07519l46.86816-6.69632v13.47852l-7.58984 22.76758a8.00025 8.00025 0 0 0 2.59277 8.77734l40 32a7.999 7.999 0 0 0 9.99414 0l35.00293-28.00195 35.00293 28.002a8.00194 8.00194 0 0 0 9.585.30664l80-56a7.999 7.999 0 0 0 2.56738-2.97559l32-64a7.99991 7.99991 0 0 0 -.9082-8.57519l-28.80277-36.00398 13.71093-27.4209a7.99978 7.99978 0 0 0 -9.0957-11.33886l-26.53027 6.63183-8.67481-13.01171 21.99024-16.49317 11.57715 5.78906a7.99555 7.99555 0 0 0 8.78417-1.08105l56-48a8.001 8.001 0 0 0 1.94922-9.65234l-4.42187-8.84376 8.84472-4.42285a7.99912 7.99912 0 0 0 4.42188-7.15525v-40a8.001 8.001 0 0 0 -4.22559-7.05371zm-11.77441 42.10937-11.57812 5.78907a8.00074 8.00074 0 0 0 -3.57715 10.73339l5.206 10.41309-47.22461 40.47754-11.248-5.624a7.99431 7.99431 0 0 0 -8.37792.75488l-32 24a8.00044 8.00044 0 0 0 -1.85645 10.83789l16 24a7.99263 7.99263 0 0 0 8.59668 3.32324l15.125-3.78125-8.2207 16.44239a7.99991 7.99991 0 0 0 .9082 8.57519l28.80273 36.00391-28.80466 57.6074-73.43164 51.40234-35.32227-28.25781a7.999 7.999 0 0 0 -9.99414 0l-35.00295 28.00195-30.64648-24.5166 6.23632-18.708a8.01957 8.01957 0 0 0 .41016-2.53028v-24a8.00061 8.00061 0 0 0 -9.13184-7.91992l-54.64355 7.80664-36.74707-7.34961-72.75293-58.20211 11.93164-17.8975a8.00082 8.00082 0 0 0 -.999-10.09473l-29.65725-29.65625v-29.624l56.99219-7.124a8.00065 8.00065 0 0 0 7.00781-7.93852v-27.05566l54.41992-27.21 9.58008 9.57914v20.68652a7.99866 7.99866 0 0 0 6.05957 7.76074l27.73926 6.93555 6.61133 19.834a8.00145 8.00145 0 0 0 5.85449 5.2793l72 16a8.01252 8.01252 0 0 0 4.70605-.38184l40-16a7.99879 7.99879 0 0 0 4.61914-4.89746l6.17578-18.53029h10.23438a8.00777 8.00777 0 0 0 4.11621-1.13965l40-24a7.99994 7.99994 0 0 0 -2.17578-14.62109l-25.94043-6.48535v-9.75391h16a8.00039 8.00039 0 0 0 8-8v-40h27.05566l13.78907 27.57812a7.99912 7.99912 0 0 0 7.15527 4.42188h12.68652l13.65625 13.65723a8.00082 8.00082 0 0 0 10.09473.999l11.5625-7.70799z" fill="#393939" data-original="#000000" style="" class=""/><path d="m321.3584 427.32715-12.49317 12.49316a22.88483 22.88483 0 0 0 16.13086 39.06446 23.29316 23.29316 0 0 0 2.84571-.17481 22.7412 22.7412 0 0 0 16.82422-10.9375l9.08886-15.14941a20.70631 20.70631 0 0 0 -32.39648-25.2959zm18.67676 17.06347-9.08985 15.1504a6.881 6.881 0 1 1 -10.76562-8.40625l12.49316-12.49317a4.7058 4.7058 0 0 1 7.36231 5.749z" fill="#393939" data-original="#000000" style="" class=""/><path d="m475.23242 360.39941a23.983 23.983 0 0 0 -46.01953 1.76758 44.43718 44.43718 0 0 0 11.62891 41.98926l2.668 2.668a23.5053 23.5053 0 0 0 16.6582 6.93848 23.78292 23.78292 0 0 0 7.52832-1.22852 23.63517 23.63517 0 0 0 14.94922-29.89746zm-12.5957 36.95606a7.59628 7.59628 0 0 1 -7.8125-1.8457l-2.668-2.668a28.35514 28.35514 0 0 1 -7.42187-26.79395l.001-.001a7.98249 7.98249 0 0 1 15.31738-.5879l7.41309 22.23731a7.64455 7.64455 0 0 1 -4.8291 9.65924z" fill="#393939" data-original="#000000" style="" class=""/><path d="m254.36133 267.55371 29.20605-21.21971a7.99976 7.99976 0 0 0 -4.70215-14.47168h-36.10058l-11.15625-34.334a7.99972 7.99972 0 0 0 -15.2168 0l-11.15625 34.334h-36.10058a7.99976 7.99976 0 0 0 -4.70215 14.47168l29.20605 21.21973-11.15527 34.335a7.99938 7.99938 0 0 0 12.3106 8.94327l29.206-21.2197 29.20605 21.2197a7.99938 7.99938 0 0 0 12.31055-8.94336zm-14.10645-9.52734a7.99866 7.99866 0 0 0 -2.90625 8.94336l5.34278 16.44629-13.98926-10.16402a7.99766 7.99766 0 0 0 -9.4043 0l-13.98926 10.164 5.34278-16.44629a7.99866 7.99866 0 0 0 -2.90625-8.94336l-13.98926-10.16405h17.292a7.99972 7.99972 0 0 0 7.6084-5.52832l5.34374-16.44531 5.34375 16.44531a7.99972 7.99972 0 0 0 7.6084 5.52832h17.292z" fill="#393939" data-original="#000000" style="" class=""/><circle cx="288" cy="336" r="8" fill="#393939" data-original="#000000" style="" class=""/><circle cx="312" cy="304" r="8" fill="#393939" data-original="#000000" style="" class=""/><circle cx="320" cy="264" r="8" fill="#393939" data-original="#000000" style="" class=""/><circle cx="312" cy="216" r="8" fill="#393939" data-original="#000000" style="" class=""/></g></g></svg>
