<?xml version="1.0"?>
<svg xmlns="http://www.w3.org/2000/svg" xmlns:xlink="http://www.w3.org/1999/xlink" xmlns:svgjs="http://svgjs.com/svgjs" version="1.1" width="512" height="512" x="0" y="0" viewBox="0 0 512 512" style="enable-background:new 0 0 512 512" xml:space="preserve" class=""><g><g xmlns="http://www.w3.org/2000/svg"><path d="m449.748 37.038c-11.234-.481-22.188 3.599-30.376 11.323l-44.253 41.743c-2.742 2.586-5.665 5.536-5.953 9.299-.264 3.461 1.796 6.653 2.369 10.077 1.545 9.229-8.712 17.032-18.027 16.388-5.104-.353-9.777-2.408-14.06-5.267-5.02-3.351-6.058-10.374-2.013-14.857 2.607-2.889 4.792-6.164 6.462-9.682 2.563-5.399-.264-11.831-5.926-13.713l-23.411-7.778c-11.33-3.764-23.316-7.574-35-5.122-16.996 3.567-28.509 19.201-37.063 34.347s-16.6 31.832-31.498 40.774c-4.723 2.835-9.974 4.766-14.467 7.952-4.206 2.983-21.103 23.728-17.94 31.241 1.976 4.694 6.608 7.666 11.677 8.054 10.603.811 18.53-6.008 25.862-12.521-2.222 17.276-3.234 48.647 7.992 49.89s26.941-31.67 27.319-41.878-8.351-9.571-7.821-15.858c.53-6.288 3.378-12.101 5.424-18.068 4.14-12.07 5.472-25.905 17.373-33.345 5.418-3.388 12.522-3.143 17.271 1.136 5.312 4.787 4.308 11.44 1.828 16.856-3.215 7.023-8.776 12.789-11.807 19.894s-2.478 16.913 4.233 20.718c7.16 4.06 15.772-1.066 22.941-5.109s18.034-6.187 22.126.964c-2.288 11.563-4.772 23.573-11.912 32.94s-20.415 15.166-30.999 10.025c-5.221.838-8.059 6.756-8.427 12.043-.368 5.286.815 10.692-.397 15.85-3.446 14.671-22.316 18.266-37.343 18.878-9.957.406-19.914.812-29.872 1.217-2.013.082-4.237.095-5.769-1.216-1.642-1.406-1.896-3.819-1.952-5.983-.207-7.993 3.901-17.446-1.402-23.9-4.323-4.101-17.069-3.037-19.256 2.512-2.186 5.549 1.845 16.271-2.233 21.767-4.077 5.496-14.688 7.752-21.437 19.901-1.867 3.36-3.345 7.07-6.187 9.654-2.646 2.406-6.168 3.55-9.576 4.629-16.282 5.155-41.534-6.515-49.809 2.441-6.91 8.535-3.075 21.078.507 31.467s5.786 23.86-2.804 30.694c-7.757 6.172-19.07 2.621-28.22-1.178l-22.758-9.448c-5.901-2.45-12.609.842-14.296 7.017l-8.707 31.865c-1.767 6.467-3.546 13.233-2.175 19.796 2.435 11.658 14.054 19.122 25.477 22.407 7.87 2.263 16.111 3.203 24.071 5.049 5.767 1.338 11.63-2.018 13.261-7.721 1.408-4.92 3.172-9.707 5.749-14.113 4.474-7.648 11.871-14.103 20.653-15.174 4.346-.53 9.573-.086 12.191-3.603 2.062-2.77 1.396-6.788 3.045-9.823 3.01-5.54 10.993-4.658 17.246-3.94 10.564 1.213 21.424-.41 31.213-4.561 4.728-2.005 10.275-.559 13.278 3.615 7.512 10.44 12.104 29.267 18.853 40.421 6.615 10.932 11.337 12.823 11.266 29.019-7.372 4.63-13.474 12.143-22.139 11.374-2.067 3.083 9.635 13.89 12.967 15.515s7.283 1.122 10.892.277c12.503-2.928 17.443-14.301 18.932-16.911 1.488-2.61 9.013-4.837 9.013-4.837 1.293.983 3.181.769 4.126-.554 1.835-2.569 1.84-6.596.256-9.525-2.088-3.862-5.997-6.311-9.616-8.789-12.341-8.451-13.87-32.457-22.371-44.778-1.969-2.854-3.686-6.447-4.432-9.943-1.232-5.771 4.96-10.263 10.041-7.28l40.659 23.866c2.322 1.363 4.73 2.807 6.189 5.073 3.796 5.897-.52 13.945 1.517 20.659 1.571 5.179 6.499 8.425 10.514 12.046s1.6 11.383 5.28 14.177c2.446 1.005 5.293.909 7.709-.149 1.877-.822 3.885-1.252 5.933-1.276 4.868-.057 10.015-1.826 9.001-6.439-.205-.931-.671-1.784-1.255-2.535l-8.006-16.261c-1.302-4.848 3.826-5.648 6.698-5.773 2.871-.125 9.882-.026 13.621-.027s22.017-16.561 23.32-23.886c1.555-8.744 3.111-17.487 4.666-26.231.712-4.001 1.559-8.27 4.432-11.138s6.191 2.224 10.519.267c5.603-2.534 2.21-9.466 10.047-9.639 3.003-.066 5.824 1.422 7.534 3.897.721 1.044 1.582 1.867 3.09 1.744.709-.058 1.384-.355 1.952-.785 5.845-4.429 10.183-10.5 15.653-15.359 5.168-4.591 15.738-10.51 18.768-6.955 3.031 3.555 7.701 18.186-16.02 31.61-5.088 2.88-5.207 7.095-2.542 12.62 1.173 2.432 3.754 3.841 6.449 3.881 6.299.094 15.359-8.788 25.992-.09.793.649 6.26 15.848-5.205 19.089-15.666 4.429-22.134 3.792-40.8 6.215-8.571 1.112-17.883 2.592-23.751 8.951-4.171 4.52-6.084 11.05-11.092 14.615-2.71 1.929-6.107 2.801-8.61 4.993-3.904 3.418-4.71 9.386-3.327 14.393 1.382 5.007 4.56 9.291 7.673 13.445 1.966 2.624 4.043 5.341 6.982 6.786 2.384 1.172 5.125 1.39 7.779 1.28 15.67-.65 30.86-11.874 45.876-7.34 3.171.957 6.219 2.612 9.531 2.638 4.491.036 8.385-2.888 12.063-5.471 14.952-10.502 32.404-17.403 50.482-19.963 3.903-.553 8.437-1.291 10.337-4.752.878-1.6.99-3.495 1.082-5.319.479-9.473.313-20.474-7.073-26.405-3.06-2.457-6.926-3.609-10.483-5.262-10.747-4.995-13.066-22.05-9.235-28.487s48.58 19.772 48.58 19.772l.013-347.067s-48.285.315-54.752.038z" fill="#393939" data-original="#40c4ff" style="" class=""/><g fill="#00b0ff"><path d="m453.273 37.109c-1.599-.017-2.815-.041-3.525-.071-1.68-.072-3.351-.03-5.01.099 2.857-.007 5.742-.017 8.535-.028z" fill="#393939" data-original="#00b0ff" style="" class=""/><path d="m475.625 398.046c-3.06-2.457-6.926-3.609-10.483-5.262-7.291-3.388-10.699-12.325-10.943-19.734-12.387-6.255-9.972 16.376-9.772 17.58 1.58 5.266 2.889 11.212 5.949 13.669 7.386 5.93 2.802 10.679 2.323 20.152-.092 1.824-.204 3.719-1.082 5.319-1.9 3.461-6.434 4.199-10.337 4.752-18.079 2.56-35.53 9.461-50.482 19.963-.929.653-1.873 1.327-2.836 1.97 3.761-.417 7.507-.265 11.242.863 3.171.957 6.219 2.612 9.531 2.638 4.492.036 8.385-2.888 12.063-5.471 14.952-10.502 32.404-17.403 50.482-19.963 3.903-.553 8.437-1.291 10.337-4.752.878-1.6.99-3.495 1.082-5.319.478-9.474.312-20.475-7.074-26.405z" fill="#393939" data-original="#00b0ff" style="" class=""/><path d="m474.5 37.138-.013 331.261c13.753 6.156 29.999 15.67 29.999 15.67l.014-347.069s-15.421.101-30 .138z" fill="#393939" data-original="#00b0ff" style="" class=""/></g><g><path d="m504.498 105.548c-.001 0 0 0 0 0-4.142 0-7.501 3.358-7.501 7.499l-.01 258.226c-8.281-4.476-20.643-10.819-29.538-13.735-3.719-1.219-13.599-4.457-17.988 2.917-3.216 5.404-3.68 14.124-1.182 22.216 5.457 17.674 17.46 17.049 22.649 21.215 4.475 3.593 4.701 11.821 4.279 20.177-.027.532-.073 1.442-.162 1.951-1.006.533-3.739.92-4.819 1.073-3.874.549-7.774 1.295-11.593 2.217-4.026.973-6.502 5.025-5.529 9.052.97 4.013 5.008 6.503 9.052 5.529 3.352-.81 6.775-1.465 10.173-1.947 11.349-1.606 17.277-5.67 17.859-17.117.389-7.707 1.199-23.745-9.869-32.632-8.407-6.749-14.541-3.689-17.708-13.943-.803-2.602-1.003-5.015-.917-6.859 7.841 2.34 25.043 10.974 39.002 19.147 4.991 2.921 11.29-.682 11.29-6.471l.01-271.015c.001-4.142-3.356-7.5-7.498-7.5z" fill="#393939" data-original="#000000" style="" class=""/><path d="m426.939 441.759c-11.067 6.215-14.983 10.689-18.123 10.689h-.021c-5.732-.048-9.49-8.588-38.886.8-3.29 1.051-16.707 5.523-21.052 3.391-1.827-.899-9.296-10.281-10.735-15.495-.741-2.684-.294-5.588 1.039-6.755 3.648-3.192 8.519-1.393 16.769-15.056 1.176-1.948 2.287-3.789 3.504-5.107 3.977-4.31 11.354-5.581 19.204-6.6 5.637-.731 10.173-1.182 14.176-1.579 9.416-.935 16.219-1.61 27.699-4.855 6.506-1.839 10.842-6.469 12.209-13.037 1.396-6.71-.73-16.157-4.294-19.074-10.717-8.768-20.815-5.033-26.85-2.802-1.242.459-3.11 1.15-3.754 1.196-.515-1.126-.703-1.832-.771-2.209 2.393-1.693 19.585-10.234 22.394-26.126 1.533-8.676-1.855-20.156-11.549-20.828-7.855-.536-17.723 6.239-21.847 9.902-4.712 4.186-8.393 8.876-12.373 12.588-3.04-2.623-6.936-4.069-11.04-3.976-9.482.209-11.964 6.783-13.023 9.59-.006.017-.013.035-.02.053-2.296-.885-7.865-2.862-12.655 1.918-5.746 5.734-5.821 11.207-11.171 41.292-1.125 3.804-12.59 15.228-17.136 17.769-3.87-.014-9.955-.086-12.76.037-12.313.536-16.437 9.806-13.1 16.579l7.099 14.419c-.065.002-.131.003-.198.004-2.96.035-5.836.632-8.553 1.776-.021-.163-.042-.319-.061-.463-2.077-15.919-11.283-13.29-13.559-20.789-.458-1.509-.209-3.884.053-6.398.495-4.735 1.11-10.627-2.439-16.141-2.457-3.817-6.064-5.935-8.699-7.483l-40.659-23.865c-10.72-6.291-23.764 3.176-21.172 15.315.903 4.229 2.89 8.717 5.594 12.635 2.833 4.107 4.919 10.368 7.128 16.996 10.766 32.308 19.557 28.804 24.094 35.328-18.948 5.791-12.47 18.082-27.099 21.508-2.903.68-4.886.775-5.806.329-.961-.541-2.836-2.124-4.663-3.884 5.722-2.861 10.03-7.182 14.448-9.956 2.175-1.366 3.5-3.75 3.511-6.318.065-14.845-3.851-20.454-8.385-26.948-11.699-16.754-13.443-33.418-23.147-46.904-4.981-6.922-14.356-9.504-22.293-6.139-8.699 3.687-18.186 5.077-27.429 4.014-7.199-.827-19.247-2.21-24.692 7.81-1.88 3.459-1.971 6.956-2.463 8.771-3.438 1.105-20.994-1.43-33.31 19.622-2.609 4.461-4.67 9.493-6.485 15.836-1.216 4.252-5.434 2.113-14.535.449-4.736-.866-9.21-1.684-13.514-2.922-8.596-2.472-18.419-8.165-20.209-16.732-1.032-4.939.616-10.967 2.069-16.285l8.707-31.865c.496-1.815 2.457-2.784 4.186-2.066l22.758 9.448c7.063 2.933 23.602 9.8 35.766.12 6.686-5.319 13.019-16.405 5.224-39.007-3.19-9.252-5.959-18.717-1.963-24.052 1.351-1.152 5.991-1.273 13.799-.358 4.117.485 7.84-2.462 8.322-6.577.482-4.114-2.463-7.84-6.577-8.322-9.991-1.17-20.284-1.734-26.687 5.197-.111.12-.218.244-.321.371-9.871 12.192-4.164 28.742-.754 38.631 1.796 5.208 5.355 17.815-.383 22.38-4.647 3.696-13.49.747-20.675-2.236l-22.758-9.448c-10.069-4.178-21.53 1.437-24.407 11.967l-8.707 31.864c-1.806 6.607-4.052 14.831-2.282 23.306 2.678 12.818 14.172 23.315 30.746 28.081 8.34 2.398 16.699 3.35 24.449 5.147 9.707 2.249 19.442-3.442 22.167-12.963 1.46-5.104 3.053-9.04 5.012-12.388 10.832-18.515 23.873-6.647 32.388-18.085 3.192-4.288 2.977-9.353 3.6-10.708 1.311-1.059 7.493-.35 9.819-.082 11.814 1.356 23.917-.409 34.997-5.107 1.544-.653 3.337-.196 4.262 1.09 8.174 11.359 9.951 28.003 23.023 46.73 3.38 4.841 5.181 7.421 5.593 14.454-5.575 4.117-9.765 8.145-13.885 7.777-5.487-.483-9.708 4.873-8.031 11.1 1.925 7.141 13.054 16.678 17.047 18.626 5.074 2.474 10.419 2.12 15.89.838 14.695-3.442 21.213-15.742 23.359-19.795.614-.372 1.688-.864 2.84-1.312 3.816.687 7.853-.761 10.265-4.138 3.467-4.855 3.769-11.868.75-17.45-2.816-5.21-7.307-8.236-11.976-11.41-5.269-3.607-8.397-12.996-11.422-22.076-2.443-7.331-4.969-14.911-9.012-20.773-1.196-1.733-2.192-3.727-2.813-5.587l39.11 22.956c4.369 2.566 4.519 2.373 3.813 9.131-.387 3.704-.826 7.903.512 12.312 2.209 7.278 8.026 11.296 12.474 15.263.969 2.46.082 10.29 5.961 14.755 2.892 2.197 9.424 3.302 15.253.749 3.288-1.438 11.768.371 17.066-6.297 3.381-4.255 3.246-10.09.05-14.712l-5.268-10.699c3.213-.032 7.874.025 11.137.026 1.685 0 6.16-.001 17.8-11.319 7.676-7.463 12.017-13.772 12.903-18.754 5.251-29.522 5.088-29.106 5.797-31.153 2.362.723 5.776 1.268 9.525-.428 5.096-2.304 6.803-6.452 7.709-8.841.236.114.45.296.612.53 3.28 4.745 7.593 5.144 9.867 4.954 2.094-.17 4.124-.958 5.875-2.283 6.531-4.95 10.986-11.183 16.104-15.729 2.745-2.439 6.318-4.5 8.739-5.501.105.816.103 1.836-.162 3.027-1.109 5.003-6.261 10.328-14.505 14.994-3.875 2.193-12.181 8.767-5.604 22.405 2.375 4.925 7.392 8.037 13.092 8.121 3.306.041 6.312-1.057 9.205-2.127 4.824-1.783 7.569-2.636 10.831-.61.512 1.819.864 4.653.196 6.098-.12.259-.284.615-1.373.922-10.203 2.884-16.129 3.473-25.101 4.363-4.108.408-8.764.87-14.625 1.631-8.083 1.049-20.297 2.634-28.297 11.302-2.249 2.436-3.881 5.141-5.322 7.527-6.224 10.309-6.373 5.011-13.809 11.525-5.723 5.011-7.928 13.658-5.616 22.031 2.162 7.831 11.495 21.483 18.578 24.965 9.353 4.594 22.33.599 32.231-2.563 26.221-8.372 21.398-.194 34.201-.089h.147c9.248 0 13.53-5.907 25.464-12.611 3.612-2.028 4.895-6.6 2.867-10.212-2.029-3.616-6.599-4.9-10.213-2.871z" fill="#393939" data-original="#000000" style="" class=""/><path d="m504.451 29.5c-16.636.108-49.414.257-54.383.045-13.179-.556-26.243 4.306-35.843 13.361l-44.253 41.741c-2.903 2.738-7.761 7.32-8.285 14.184-.635 8.309 5.026 11.459.9 16.003-7.403 8.16-23.003-.278-19.585-4.067 3.101-3.435 5.681-7.301 7.669-11.491 4.479-9.435-.373-20.736-10.337-24.046-29.908-9.937-45.456-16.662-62.317-13.122-21.6 4.534-34.361 24.107-44.864 43.035-20.989 37.821-26.526 31.022-40.962 41.259-3.481 2.47-26.29 26.551-20.514 40.269 3.017 7.166 9.921 12.002 18.018 12.621 6.737.517 12.555-1.283 17.602-4.015-.453 12.676.444 28.192 6.465 35.85 5.076 6.455 13.891 8.158 22.709.553 10.676-9.209 22.07-33.42 22.464-44.098.34-9.189-4.529-13.544-7.146-15.884-.185-.166-.4-.358-.596-.539.82-6.119 3.354-9.213 7.432-23.517 2.587-9.072 4.821-16.906 11.767-21.249 2.741-1.715 6.143-1.572 8.273.348.729.657 2.667 2.403.03 8.163-2.876 6.282-8.476 12.079-11.886 20.072-4.325 10.138-3.19 24.161 7.432 30.184 16.363 9.279 30.089-9.342 40.543-7.807-1.856 8.99-4.292 18.499-9.653 25.532-6.405 8.403-16.091 10.576-21.757 7.825-1.385-.673-2.944-.905-4.466-.659-6.746 1.082-13.914 7.355-14.72 18.927-.384 5.513.656 10.942-.216 14.656-2.448 10.421-20.065 12.68-30.347 13.099l-29.793 1.214c-.123-6.521 4.69-21.056-3.736-29.043-7.844-7.44-27.052-5.818-31.395 5.204-1.555 3.947-1.281 8.268-1.016 12.448.52 8.227.561 7.576-5.181 11.328-19.078 12.472-16.845 20.305-21.729 24.747-1.119 1.018-2.959 1.74-4.436 2.255-3.911 1.363-5.977 5.639-4.613 9.551 1.361 3.904 5.633 5.979 9.551 4.613 2.823-.984 6.465-2.478 9.591-5.322 8.679-7.892 3.82-12.812 19.844-23.289 17.59-11.497 10.632-20.758 11.835-30.306 1.571-.829 5.328-1.048 6.998-.403 1.76 3.447-.892 11.54-.706 18.71.247 9.474 5.169 14.924 15.524 14.498l29.872-1.217c32.168-1.311 41.867-14.132 44.339-24.657 1.548-6.591.236-12.136.577-17.044.139-1.997.782-3.509 1.347-4.366 13.246 4.101 28.12-2.601 36.562-13.676 8.34-10.941 11.093-24.852 13.305-36.03 1.08-5.459-5.363-14.062-17.535-13.631-14.633.524-25.215 13.186-31.19 9.796-2.458-1.394-2.951-6.757-1.034-11.251 2.626-6.153 8.199-12.008 11.728-19.715 4.589-10.024 3.267-19.337-3.626-25.549-7.077-6.378-17.879-7.169-26.267-1.924-11.838 7.4-15.239 19.33-18.24 29.854-4.026 14.118-7.307 18.433-8.055 27.287-.873 10.353 7.987 11.137 7.799 16.212-.275 7.462-11.532 30.173-18.74 34.405-2.526-3.808-4.428-19.483-1.637-41.183.882-6.857-7.248-11.159-12.419-6.564-7.408 6.579-13.196 11.189-20.31 10.65-2.246-.172-4.206-1.354-5.132-3.06.376-4.964 11.35-19.751 15.161-22.64 12.612-8.942 22.045-4.132 45.4-46.216 8.054-14.512 18.562-32.219 34.83-35.634 12.404-2.602 25.636 3.087 54.506 12.678 1.392.462 2.146 2.052 1.516 3.379-3.964 8.351-10.854 11.011-9.542 21.536 2.028 16.254 30.784 27.432 46.116 10.534 10.437-11.499 2.769-22.578 2.948-24.94.083-1.078 2.746-3.589 3.622-4.415l44.253-41.742c6.671-6.293 15.745-9.677 24.908-9.285 5.049.216 33.65.09 47.573.013l-.001 35.76c0 4.142 3.357 7.5 7.5 7.5 4.142 0 7.5-3.358 7.5-7.499l.003-43.304c0-4.003-3.121-7.417-7.549-7.5z" fill="#393939" data-original="#000000" style="" class=""/></g></g></g></svg>
