<?xml version="1.0"?>
<svg xmlns="http://www.w3.org/2000/svg" xmlns:xlink="http://www.w3.org/1999/xlink" xmlns:svgjs="http://svgjs.com/svgjs" version="1.1" width="512" height="512" x="0" y="0" viewBox="0 0 512.001 512.001" style="enable-background:new 0 0 512 512" xml:space="preserve" class=""><g>
<g xmlns="http://www.w3.org/2000/svg">
	<g>
		<path d="M455.547,144.675h-44.655l-39.184,31.497L359.91,178.6l-27.726-22.017l-27.97,30.838l-70.99-27.778v-22.571    l-18.744-32.045l18.886-51.761l-32.862-26.699l-44.088-3.241L129.983,0L76.15,30.428l24.503,34.485v21.062l20.811,28.157    l-7.481,27.119l-22.321,22.807l-20.554-1.989l-25.761,28.103l14.474,36.789l-30.986,18.72l17.079,48.223l34.713,19.347    l13.523-10.951l1.276,5.263v25.743l46.968,125.717l10.524,47.326l6.696,3.125c2.904,1.355,7.309,2.527,12.481,2.527    c7.174,0,15.824-2.255,23.994-9.404c10.209-8.933,21.772-35.926,25.073-43.986c15.105-36.885,11.847-47.748,10.776-51.317    c-0.826-2.851,2.665-12.016,7.034-18.729c6.068-5.904,13.563-11.926,16.248-13.006c10.423-3.393,19.43-16.769,25.748-29.052    l33.561-15.793l7.403-16.288l28.359-23.761l-7.897-40.045l9.708-1.695l1.232,17.045l57.15,46.292l9.578-49.635h12.265    l12.131-46.382l38.706-15.647L455.547,144.675z" fill="#393939" data-original="#000000" style="" class=""/>
	</g>
</g>
<g xmlns="http://www.w3.org/2000/svg">
</g>
<g xmlns="http://www.w3.org/2000/svg">
</g>
<g xmlns="http://www.w3.org/2000/svg">
</g>
<g xmlns="http://www.w3.org/2000/svg">
</g>
<g xmlns="http://www.w3.org/2000/svg">
</g>
<g xmlns="http://www.w3.org/2000/svg">
</g>
<g xmlns="http://www.w3.org/2000/svg">
</g>
<g xmlns="http://www.w3.org/2000/svg">
</g>
<g xmlns="http://www.w3.org/2000/svg">
</g>
<g xmlns="http://www.w3.org/2000/svg">
</g>
<g xmlns="http://www.w3.org/2000/svg">
</g>
<g xmlns="http://www.w3.org/2000/svg">
</g>
<g xmlns="http://www.w3.org/2000/svg">
</g>
<g xmlns="http://www.w3.org/2000/svg">
</g>
<g xmlns="http://www.w3.org/2000/svg">
</g>
</g></svg>
